<svg width="31" height="28" viewBox="0 0 31 28" fill="none" xmlns="http://www.w3.org/2000/svg">
<path d="M9.53319 8.71409C7.87923 6.26199 8.52625 2.93337 10.9783 1.27941C13.4304 -0.374546 16.7591 0.272471 18.413 2.72457L29.5839 19.286C31.2378 21.7381 30.5908 25.0667 28.1387 26.7207C25.6866 28.3747 22.358 27.7276 20.704 25.2755L15.8609 18.0953C15.2383 17.3107 13.9709 17.4328 13.2099 18.1938C12.5788 18.8249 12.3722 20.4393 12.1933 21.8371C12.1671 22.042 12.1415 22.2424 12.1152 22.4342C12.0181 23.3491 11.7022 24.2543 11.1519 25.0701C9.35371 27.7361 5.73384 28.4389 3.06788 26.6407C0.401915 24.8424 -0.302476 21.2229 1.49574 18.5569C2.42834 17.1743 3.85092 16.3197 5.3763 16.0681L5.37415 16.066C9.78149 15.4267 10.5986 10.4528 9.79203 9.09782L9.53319 8.71409Z" fill="#111111"/>
</svg>
