<svg width="81" height="63" viewBox="0 0 81 63" fill="none" xmlns="http://www.w3.org/2000/svg">
<path d="M3.94 16.42C3.72667 16.42 3.55333 16.3467 3.42 16.2C3.28667 16.0533 3.22 15.7933 3.22 15.42C3.22 15.14 3.30667 14.6867 3.48 14.06C3.66667 13.42 3.91333 12.6733 4.22 11.82C4.54 10.9667 4.89333 10.0667 5.28 9.12C5.68 8.16 6.09333 7.20667 6.52 6.26C6.94667 5.31333 7.36667 4.44 7.78 3.64C8.19333 2.82667 8.57333 2.14 8.92 1.58C9.26667 1.02 9.56 0.653333 9.8 0.48C10.08 0.28 10.34 0.18 10.58 0.18C10.7133 0.18 10.8467 0.193333 10.98 0.219999C11.1133 0.246666 11.2267 0.293332 11.32 0.359999C11.56 0.506666 11.7667 0.833333 11.94 1.34C12.1267 1.83333 12.2867 2.44 12.42 3.16C12.5533 3.86667 12.66 4.62667 12.74 5.44C12.8333 6.24 12.9133 7.03333 12.98 7.82C13.38 7.76667 13.7133 7.72667 13.98 7.7C14.2467 7.67333 14.44 7.66 14.56 7.66C15.0133 7.66 15.3 7.72 15.42 7.84C15.54 7.96 15.6067 8.1 15.62 8.26C15.6467 8.5 15.58 8.71333 15.42 8.9C15.26 9.08667 15.0333 9.22667 14.74 9.32C14.6467 9.34667 14.4467 9.39333 14.14 9.46C13.8467 9.51333 13.4933 9.58 13.08 9.66C13.0933 10.06 13.1 10.4333 13.1 10.78C13.1133 11.1133 13.12 11.4 13.12 11.64C13.12 12.8533 13.0467 13.7667 12.9 14.38C12.7533 14.98 12.5733 15.3867 12.36 15.6C12.1467 15.8133 11.94 15.92 11.74 15.92C11.5 15.92 11.3333 15.8533 11.24 15.72C11.1467 15.5733 11.1 15.3667 11.1 15.1V13.68C11.1 13.1867 11.0933 12.6267 11.08 12C11.08 11.36 11.0733 10.6867 11.06 9.98C10.2733 10.1133 9.47333 10.24 8.66 10.36C7.86 10.48 7.16667 10.5867 6.58 10.68C6.28667 11.44 6.03333 12.1267 5.82 12.74C5.60667 13.34 5.46 13.8 5.38 14.12C5.18 14.7867 5 15.2867 4.84 15.62C4.68 15.94 4.52667 16.1533 4.38 16.26C4.24667 16.3667 4.1 16.42 3.94 16.42ZM7.26 8.9C7.95333 8.74 8.61333 8.59333 9.24 8.46C9.88 8.32667 10.4667 8.21333 11 8.12C10.96 6.92 10.8867 5.77333 10.78 4.68C10.6867 3.57333 10.5467 2.7 10.36 2.06C10.1067 2.5 9.80667 3.08667 9.46 3.82C9.11333 4.55333 8.74667 5.36667 8.36 6.26C7.98667 7.14 7.62 8.02 7.26 8.9ZM21.8919 16.28C21.2385 16.28 20.6719 16.1333 20.1919 15.84C19.7252 15.5333 19.3652 15.14 19.1119 14.66C18.8585 14.18 18.7319 13.6867 18.7319 13.18C18.7319 12.1133 18.9185 11.14 19.2919 10.26C19.6652 9.36667 20.1319 8.58 20.6919 7.9C21.2652 7.20667 21.8519 6.62 22.4519 6.14C23.0652 5.66 23.6185 5.3 24.1119 5.06C24.6185 4.80667 24.9785 4.68 25.1919 4.68C25.6185 4.68 25.8319 4.89333 25.8319 5.32C25.8319 5.52 25.6985 5.75333 25.4319 6.02C25.1652 6.27333 24.8252 6.57333 24.4119 6.92C23.9985 7.26667 23.5585 7.66 23.0919 8.1C22.6252 8.52667 22.1852 9.01333 21.7719 9.56C21.3585 10.0933 21.0185 10.6933 20.7519 11.36C20.4852 12.0133 20.3519 12.7333 20.3519 13.52C20.3519 14.32 20.6785 14.72 21.3319 14.72C21.9319 14.72 22.5452 14.6067 23.1719 14.38C23.8119 14.1533 24.4385 13.86 25.0519 13.5C25.6785 13.1267 26.2785 12.74 26.8519 12.34C27.4252 11.94 27.9452 11.56 28.4119 11.2C28.8785 10.8267 29.2719 10.5267 29.5919 10.3C29.9119 10.0733 30.1385 9.96 30.2719 9.96C30.5385 9.96 30.6719 10.1067 30.6719 10.4C30.6719 10.6267 30.5185 10.9267 30.2119 11.3C29.9052 11.6733 29.4919 12.08 28.9719 12.52C28.4519 12.96 27.8719 13.4067 27.2319 13.86C26.5919 14.3 25.9452 14.7067 25.2919 15.08C24.6385 15.44 24.0119 15.7333 23.4119 15.96C22.8252 16.1733 22.3185 16.28 21.8919 16.28ZM28.2764 9.6C27.9164 9.57333 27.7497 9.34 27.7764 8.9C27.7897 8.79333 27.8631 8.66667 27.9964 8.52C28.1297 8.36 28.2831 8.27333 28.4564 8.26C28.8697 8.22 29.3764 8.16 29.9764 8.08C30.5897 7.98667 31.2631 7.88 31.9964 7.76C32.1297 7.10667 32.2897 6.42 32.4764 5.7C32.6631 4.98 32.8697 4.28 33.0964 3.6C33.3231 2.90667 33.5631 2.28 33.8164 1.72C34.0697 1.16 34.3364 0.719999 34.6164 0.399999C34.7631 0.253333 34.8964 0.153333 35.0164 0.0999997C35.1364 0.0333331 35.2431 -2.38419e-07 35.3364 -2.38419e-07C35.5231 -2.38419e-07 35.6697 0.0799995 35.7764 0.239999C35.8964 0.399999 35.9564 0.579999 35.9564 0.779999C35.9564 0.886666 35.9364 0.993333 35.8964 1.1C35.6297 1.84667 35.3431 2.76667 35.0364 3.86C34.7297 4.95333 34.4031 6.14667 34.0564 7.44C35.2831 7.24 36.5097 7.02667 37.7364 6.8C38.9631 6.57333 40.0164 6.36667 40.8964 6.18C41.1497 6.07333 41.3431 6.09333 41.4764 6.24C41.6231 6.38667 41.6964 6.53333 41.6964 6.68C41.6964 6.86667 41.6431 7.00667 41.5364 7.1C41.4431 7.19333 41.3431 7.27333 41.2364 7.34L41.2164 7.36C40.9497 7.46667 40.5497 7.59333 40.0164 7.74C39.4831 7.87333 38.8697 8.02 38.1764 8.18C37.4831 8.32667 36.7431 8.47333 35.9564 8.62C35.1831 8.76667 34.4164 8.9 33.6564 9.02C33.3497 10.1933 33.0364 11.4 32.7164 12.64C32.4097 13.8667 32.1031 15.0733 31.7964 16.26C31.6631 16.74 31.5097 17.04 31.3364 17.16C31.1764 17.2933 31.0031 17.36 30.8164 17.36C30.6031 17.36 30.4164 17.28 30.2564 17.12C30.1097 16.96 30.0897 16.6333 30.1964 16.14L31.6564 9.32C30.8564 9.44 30.1497 9.52667 29.5364 9.58C28.9364 9.63333 28.5164 9.64 28.2764 9.6ZM39.9261 15.1C39.6728 15.1 39.4461 15.0067 39.2461 14.82C39.0461 14.62 38.9461 14.3133 38.9461 13.9C38.9461 13.6067 38.9861 13.2 39.0661 12.68C39.1461 12.1467 39.2528 11.5667 39.3861 10.94C39.5194 10.3133 39.6594 9.69333 39.8061 9.08C39.9661 8.45333 40.1261 7.89333 40.2861 7.4C40.4461 6.90667 40.5861 6.54 40.7061 6.3C40.8128 6.11333 40.9128 5.99333 41.0061 5.94C41.1128 5.88667 41.2128 5.86 41.3061 5.86C41.4928 5.86 41.6528 5.92 41.7861 6.04C41.9328 6.16 42.0061 6.39333 42.0061 6.74C42.0061 6.94 41.9661 7.27333 41.8861 7.74C41.8194 8.19333 41.7261 8.72667 41.6061 9.34C41.4994 9.94 41.3794 10.56 41.2461 11.2C41.1261 11.8267 41.0061 12.4267 40.8861 13C40.7661 13.5733 40.6728 14.0533 40.6061 14.44C40.5528 14.6533 40.4594 14.82 40.3261 14.94C40.2061 15.0467 40.0728 15.1 39.9261 15.1ZM41.8861 4.04C41.5794 4.04 41.2861 3.94667 41.0061 3.76C40.7394 3.57333 40.6061 3.27333 40.6061 2.86C40.6061 2.51333 40.6861 2.23333 40.8461 2.02C41.0194 1.80667 41.2194 1.65333 41.4461 1.56C41.6861 1.45333 41.8928 1.4 42.0661 1.4C42.2394 1.4 42.4328 1.44 42.6461 1.52C42.8728 1.58667 43.0661 1.72 43.2261 1.92C43.3861 2.10667 43.4661 2.38667 43.4661 2.76C43.4661 3.01333 43.3794 3.24 43.2061 3.44C43.0328 3.62667 42.8194 3.77333 42.5661 3.88C42.3261 3.98667 42.0994 4.04 41.8861 4.04ZM47.7802 16.2C46.9935 16.2 46.3735 15.9 45.9202 15.3C45.4668 14.7 45.2402 13.92 45.2402 12.96C45.2402 12.6133 45.2868 12.2467 45.3802 11.86C45.4868 11.46 45.6202 11.1 45.7802 10.78C45.6868 10.6867 45.6135 10.56 45.5602 10.4C45.5068 10.2267 45.4802 10.0133 45.4802 9.76C45.4802 8.97333 45.6135 8.25333 45.8802 7.6C46.1468 6.94667 46.5002 6.38 46.9402 5.9C47.3802 5.40667 47.8668 5.02667 48.4002 4.76C48.9468 4.49333 49.5002 4.36 50.0602 4.36C50.9802 4.36 51.7268 4.69333 52.3002 5.36C52.8735 6.01333 53.1602 7.01333 53.1602 8.36C53.1602 9.06667 53.0535 9.78667 52.8402 10.52C52.6402 11.2533 52.3602 11.96 52.0002 12.64C51.6535 13.32 51.2468 13.9267 50.7802 14.46C50.3268 14.9933 49.8402 15.42 49.3202 15.74C48.8135 16.0467 48.3002 16.2 47.7802 16.2ZM47.1002 10.1C47.1802 10.2067 47.2202 10.3467 47.2202 10.52C47.2202 10.72 47.1802 10.92 47.1002 11.12C47.0335 11.32 46.9602 11.5933 46.8802 11.94C46.8002 12.2867 46.7602 12.78 46.7602 13.42C46.7602 14.06 47.0135 14.38 47.5202 14.38C48.0802 14.38 48.6002 14.16 49.0802 13.72C49.5602 13.2667 49.9868 12.6867 50.3602 11.98C50.7335 11.2733 51.0202 10.52 51.2202 9.72C51.4335 8.90667 51.5402 8.14 51.5402 7.42C51.5402 6.95333 51.4535 6.62667 51.2802 6.44C51.1068 6.24 50.7935 6.14 50.3402 6.14C49.8735 6.14 49.3868 6.3 48.8802 6.62C48.3868 6.92667 47.9735 7.34667 47.6402 7.88C47.3068 8.41333 47.1402 9.01333 47.1402 9.68C47.1402 9.82667 47.1268 9.96667 47.1002 10.1ZM57.0464 15.54C56.6597 15.54 56.3131 15.32 56.0064 14.88C55.6997 14.44 55.5464 13.8733 55.5464 13.18C55.5464 12.42 55.6464 11.6067 55.8464 10.74C56.0597 9.87333 56.3197 8.99333 56.6264 8.1C56.9331 7.19333 57.2331 6.32 57.5264 5.48C57.5931 5.30667 57.6864 5.18 57.8064 5.1C57.9397 5.00667 58.1397 4.96 58.4064 4.96C58.8864 4.96 59.1264 5.19333 59.1264 5.66C59.1264 5.76667 59.0731 6.00667 58.9664 6.38C58.8597 6.75333 58.7197 7.21333 58.5464 7.76C58.3864 8.30667 58.2197 8.9 58.0464 9.54C57.8731 10.1667 57.7197 10.8 57.5864 11.44C57.4531 12.08 57.3597 12.6733 57.3064 13.22C57.5197 12.9933 57.7597 12.6467 58.0264 12.18C58.3064 11.7133 58.6064 11.1867 58.9264 10.6C59.2464 10 59.5797 9.4 59.9264 8.8C60.2731 8.18667 60.6197 7.62667 60.9664 7.12C61.3264 6.6 61.6731 6.18667 62.0064 5.88C62.3531 5.56 62.6731 5.4 62.9664 5.4C63.3931 5.4 63.7531 5.53333 64.0464 5.8C64.3531 6.05333 64.5864 6.50667 64.7464 7.16C64.9197 7.8 65.0064 8.70667 65.0064 9.88C65.0064 10.5067 65.0664 11.0933 65.1864 11.64C65.3197 12.1867 65.5264 12.6267 65.8064 12.96C66.0997 13.28 66.4731 13.44 66.9264 13.44C67.6064 13.44 68.2131 13.32 68.7464 13.08C69.2797 12.8267 69.7397 12.5467 70.1264 12.24C70.5264 11.92 70.8597 11.64 71.1264 11.4C71.3931 11.1467 71.5997 11.02 71.7464 11.02C72.0531 11.02 72.2064 11.18 72.2064 11.5C72.2064 11.6333 72.1064 11.8467 71.9064 12.14C71.7197 12.42 71.4531 12.74 71.1064 13.1C70.7731 13.4467 70.3864 13.7867 69.9464 14.12C69.5197 14.44 69.0597 14.7067 68.5664 14.92C68.0864 15.1333 67.5997 15.24 67.1064 15.24C66.1864 15.24 65.4331 15.06 64.8464 14.7C64.2731 14.34 63.8464 13.7467 63.5664 12.92C63.2997 12.0933 63.1664 10.9867 63.1664 9.6C63.1664 8.84 63.1197 8.28667 63.0264 7.94C62.9464 7.58 62.7931 7.34 62.5664 7.22C62.4064 7.5 62.1997 7.9 61.9464 8.42C61.6931 8.92667 61.3997 9.49333 61.0664 10.12C60.7464 10.7467 60.4064 11.38 60.0464 12.02C59.6997 12.6467 59.3464 13.2267 58.9864 13.76C58.6264 14.2933 58.2797 14.7267 57.9464 15.06C57.6131 15.38 57.3131 15.54 57.0464 15.54ZM74.0736 16.44C73.7803 16.44 73.5536 16.3533 73.3936 16.18C73.2469 16.02 73.1736 15.8333 73.1736 15.62C73.1736 15.4333 73.2536 15.26 73.4136 15.1C73.5869 14.9267 73.8203 14.7733 74.1136 14.64C74.6469 14.36 75.1469 14.08 75.6136 13.8C76.0936 13.52 76.4803 13.22 76.7736 12.9C77.0669 12.58 77.2136 12.24 77.2136 11.88C77.2136 11.5733 77.1136 11.34 76.9136 11.18C76.7136 11.0067 76.4403 10.92 76.0936 10.92C75.8936 10.92 75.6136 10.96 75.2536 11.04C74.8936 11.1067 74.5003 11.1867 74.0736 11.28C73.6603 11.36 73.2536 11.44 72.8536 11.52C72.4536 11.5867 72.1136 11.62 71.8336 11.62C71.3269 11.62 70.9469 11.5 70.6936 11.26C70.4403 11.0067 70.3136 10.6667 70.3136 10.24C70.3136 10.0267 70.4403 9.70667 70.6936 9.28C70.9469 8.85333 71.2803 8.38 71.6936 7.86C72.1203 7.32667 72.5869 6.79333 73.0936 6.26C73.6003 5.72667 74.1136 5.23333 74.6336 4.78C75.1669 4.32667 75.6603 3.96 76.1136 3.68C76.5803 3.4 76.9669 3.26 77.2736 3.26C77.5803 3.26 77.8136 3.36 77.9736 3.56C78.1336 3.76 78.2136 4.01333 78.2136 4.32C78.2136 4.56 78.1736 4.76667 78.0936 4.94C78.0136 5.1 77.8469 5.22667 77.5936 5.32C77.3536 5.41333 76.9803 5.46667 76.4736 5.48C75.9536 5.89333 75.4003 6.36667 74.8136 6.9C74.2403 7.42 73.7136 7.96 73.2336 8.52C72.7669 9.06667 72.4269 9.59333 72.2136 10.1C72.6536 9.95333 73.1869 9.82667 73.8136 9.72C74.4536 9.6 75.1003 9.54 75.7536 9.54C76.7803 9.54 77.5403 9.77333 78.0336 10.24C78.5403 10.6933 78.7936 11.2933 78.7936 12.04C78.7936 12.52 78.6403 13.02 78.3336 13.54C78.0403 14.0467 77.6536 14.52 77.1736 14.96C76.6936 15.4 76.1803 15.7533 75.6336 16.02C75.0869 16.3 74.5669 16.44 74.0736 16.44Z" fill="#06FFB4"/>
<path d="M1.5 61C0.947715 61 0.5 61.4477 0.5 62C0.5 62.5523 0.947715 63 1.5 63V61ZM45.2071 33.2929C44.8166 32.9024 44.1834 32.9024 43.7929 33.2929L37.4289 39.6569C37.0384 40.0474 37.0384 40.6805 37.4289 41.0711C37.8195 41.4616 38.4526 41.4616 38.8431 41.0711L44.5 35.4142L50.1569 41.0711C50.5474 41.4616 51.1805 41.4616 51.5711 41.0711C51.9616 40.6805 51.9616 40.0474 51.5711 39.6569L45.2071 33.2929ZM1.5 63C7.84784 63 13.7598 63.0007 19.0333 62.559C24.305 62.1175 29.019 61.229 32.9584 59.4077C36.9246 57.574 40.0899 54.8013 42.2458 50.6482C44.3891 46.5195 45.5 41.0943 45.5 34H43.5C43.5 40.9057 42.4155 45.9805 40.4707 49.7268C38.5386 53.4487 35.7233 55.926 32.1191 57.5923C28.488 59.271 24.0418 60.1325 18.8664 60.566C13.6927 60.9993 7.87047 61 1.5 61V63Z" fill="#06FFB4"/>
</svg>
