<svg width="40" height="36" viewBox="0 0 40 36" fill="none" xmlns="http://www.w3.org/2000/svg">
<path d="M12.0443 11.0227C9.83898 7.78604 10.7017 3.39241 13.9711 1.20926C17.2406 -0.973901 21.6787 -0.119865 23.884 3.1168L38.7785 24.9772C40.9838 28.2139 40.1211 32.6075 36.8516 34.7907C33.5822 36.9738 29.144 36.1198 26.9387 32.8831L20.4812 23.4055C19.6511 22.3699 17.9612 22.5311 16.9466 23.5356C16.1051 24.3686 15.8297 26.4995 15.5911 28.3446C15.5562 28.615 15.522 28.8794 15.4869 29.1327C15.3575 30.3403 14.9363 31.5351 14.2026 32.6119C11.8049 36.1309 6.97845 37.0586 3.42384 34.685C-0.13078 32.3115 -1.06997 27.5338 1.32765 24.0148C2.57112 22.1898 4.4679 21.0618 6.50173 20.7297L6.49887 20.7269C12.3753 19.8831 13.4648 13.3177 12.3894 11.5292L12.0443 11.0227Z" fill="#8142E3"/>
</svg>
