<svg width="61" height="60" viewBox="0 0 61 60" fill="none" xmlns="http://www.w3.org/2000/svg">
<path d="M29.1375 44.35C21.1875 43.975 14.8625 37.425 14.8625 29.375C14.8625 21.1 21.5875 14.375 29.8625 14.375C37.9125 14.375 44.4625 20.7 44.8375 28.65L39.5875 27.075C38.5625 22.65 34.5875 19.375 29.8625 19.375C24.3375 19.375 19.8625 23.85 19.8625 29.375C19.8625 34.1 23.1375 38.075 27.5625 39.1L29.1375 44.35ZM54.8625 29.375C54.8625 30.125 54.8375 30.875 54.7625 31.625L49.8375 30.15C49.8625 29.9 49.8625 29.625 49.8625 29.375C49.8625 18.325 40.9125 9.375 29.8625 9.375C18.8125 9.375 9.86249 18.325 9.86249 29.375C9.86249 40.425 18.8125 49.375 29.8625 49.375C30.1125 49.375 30.3875 49.375 30.6375 49.35L32.1125 54.275C31.3625 54.35 30.6125 54.375 29.8625 54.375C16.0625 54.375 4.86249 43.175 4.86249 29.375C4.86249 15.575 16.0625 4.375 29.8625 4.375C43.6625 4.375 54.8625 15.575 54.8625 29.375ZM45.4375 40.025L54.8625 36.875L29.8625 29.375L37.3625 54.375L40.5125 44.95L51.1875 55.625L56.1375 50.675L45.4375 40.025Z" fill="#06FFB4"/>
</svg>
