<svg width="1440" height="372" viewBox="0 0 1440 372" fill="none" xmlns="http://www.w3.org/2000/svg">
<path d="M1306.85 525.387C1169.45 525.713 1443.79 -30.4359 1443.79 -30.4359L1100.49 -29.6229C1009.22 -29.4067 999.765 68.0424 862.368 84.6244C810.841 90.8448 629.764 121.771 714.565 -28.7089L452.118 -28.0873C391.724 180.924 547.609 279.745 529.925 379.942C512.241 480.138 444.227 768.977 309.819 769.295C175.412 769.614 200.089 1099.47 334.552 1122.72C469.015 1145.97 519.997 1233.94 520.2 1319.5L708.618 1319.06C708.618 1319.06 710.851 1104.16 645.139 1104.31C579.429 1104.47 453.828 1039.96 507.244 892.548C525.219 842.942 613.088 697.878 588.503 558.747C563.919 419.617 616.646 292.969 671.248 249.213C725.851 205.453 921.764 136.908 896.927 220.005C874.938 293.579 734.882 428.776 821.579 522.769C908.274 616.762 762.594 983.992 898.671 956.427C1104.66 914.698 1149.52 938.158 1203.51 1032.29C1257.5 1126.43 1260.68 1317.75 1260.68 1317.75L1446.99 1317.31C1446.99 1317.31 1444.24 525.062 1306.85 525.387ZM1056.41 720.396C972.698 685.247 942.888 708.883 930.788 644.655C918.688 580.43 961.29 517.07 1005.03 461.296C1055.44 397.007 1028.35 219.693 1049.06 137.165C1069.77 54.6344 1261.35 309.433 1148.5 508.087C1035.66 706.743 1190.54 602.249 1205.85 761.283C1221.17 920.315 1140.13 755.546 1056.41 720.396ZM335.102 1325.74L107.783 1326.28C107.379 1155.43 -4.01031 1235.37 -4.01031 1235.37L-5.78951 484.116C93.9032 374.714 86.9911 -21.4196 86.9911 -21.4196L331.91 -21.9996C331.91 -21.9996 183.648 126.561 356.379 274.838C529.109 423.119 336.943 615.034 231.816 592.65C32.5761 550.224 22.3562 712.461 109.937 890.607C197.517 1068.75 103.718 1146.74 179.363 1146.56C334.677 1146.2 335.102 1325.74 335.102 1325.74ZM1206.07 1323.68L1174.27 1323.76C1174.27 1323.76 1174.58 1294.68 1087.57 1232.79C995.732 1167.45 845.732 1274.6 793.393 1298.29C741.06 1321.98 763.622 1118.57 812.445 1092.04C1030.2 973.698 1069.36 1109.11 1135.09 1120.74C1200.83 1132.37 1206.07 1323.68 1206.07 1323.68ZM770.129 849.668C733.064 904.78 772.936 936.892 810.866 1046.3C848.795 1155.7 768.351 1129.67 748.074 1146.12C727.796 1162.58 618.699 1158.43 617.92 1115.95C617.142 1073.47 601.117 1003.54 588.479 945.669C575.841 887.804 624.084 775.463 662.473 748.616C745.336 690.661 807.2 794.555 770.129 849.668ZM1113.17 279.107C1145.03 339.842 1130.64 425.279 1115.12 480.633C1099.61 535.987 1099.95 530.14 1082.08 576.905C1064.21 623.672 1010.52 613.085 1012.91 570.431C1015.29 527.777 1069.17 475.113 1081.72 425.601C1096.12 368.805 1081.3 218.369 1113.17 279.107ZM1442.31 573.526C1442.31 573.526 1427.44 563.392 1413.62 506.043C1399.81 448.691 1377.36 420.053 1384.74 355.238C1392.12 290.423 1430.5 242.04 1441.49 227.367L1442.31 573.526Z" fill="white" fill-opacity="0.07"/>
<path d="M336.323 -162.149C334.61 -162.141 333.216 -163.525 333.208 -165.24C333.199 -166.951 334.581 -168.343 336.294 -168.351C338.007 -168.359 339.404 -166.98 339.412 -165.27C339.42 -163.554 338.036 -162.157 336.323 -162.149ZM586.374 368.883C586.366 367.171 584.968 365.789 583.258 365.797C581.543 365.805 580.161 367.2 580.169 368.913C580.177 370.626 581.572 372.01 583.288 372.002C584.998 371.994 586.382 370.596 586.374 368.883ZM918.521 226.605C918.513 224.892 917.116 223.511 915.406 223.519C913.693 223.527 912.309 224.922 912.317 226.635C912.325 228.347 913.722 229.731 915.435 229.723C917.145 229.715 918.529 228.318 918.521 226.605ZM1241.55 -123.486C1241.55 -125.199 1240.15 -126.581 1238.44 -126.573C1236.72 -126.565 1235.34 -125.17 1235.35 -123.457C1235.36 -121.744 1236.75 -120.363 1238.47 -120.371C1240.18 -120.379 1241.56 -121.774 1241.55 -123.486ZM1265.91 -123.602C1265.9 -125.315 1264.51 -126.696 1262.79 -126.688C1261.08 -126.68 1259.7 -125.285 1259.7 -123.572C1259.71 -121.86 1261.11 -120.478 1262.82 -120.486C1264.53 -120.494 1265.91 -121.889 1265.91 -123.602ZM1364.91 196.926C1365.45 198.55 1367.21 199.429 1368.84 198.888C1370.46 198.347 1371.34 196.593 1370.79 194.966C1370.25 193.34 1368.5 192.463 1366.87 193.004C1365.25 193.548 1364.37 195.3 1364.91 196.926ZM1168.17 621.789C1168.71 623.415 1170.46 624.294 1172.09 623.754C1173.71 623.21 1174.59 621.453 1174.05 619.826C1173.51 618.203 1171.75 617.329 1170.13 617.869C1168.5 618.41 1167.63 620.165 1168.17 621.789ZM574.292 -249.869C574.832 -248.243 576.59 -247.364 578.216 -247.907C579.84 -248.448 580.719 -250.203 580.176 -251.826C579.635 -253.453 577.877 -254.332 576.254 -253.788C574.627 -253.248 573.751 -251.493 574.292 -249.869ZM335.317 247.564C335.858 249.188 337.615 250.07 339.242 249.527C340.865 248.986 341.745 247.226 341.201 245.602C340.66 243.976 338.903 243.096 337.279 243.64C335.653 244.181 334.776 245.938 335.317 247.564ZM354.37 512.251C354.911 513.875 356.668 514.757 358.292 514.213C359.918 513.673 360.798 511.912 360.254 510.289C359.713 508.662 357.956 507.783 356.332 508.327C354.706 508.87 353.829 510.625 354.37 512.251ZM959.68 -12.1769C959.672 -13.8896 958.275 -15.2711 956.565 -15.263C954.852 -15.2549 953.468 -13.8602 953.476 -12.1475C953.484 -10.4347 954.881 -9.0532 956.594 -9.06131C958.304 -9.06941 959.688 -10.4641 959.68 -12.1769ZM1242.04 425.228C1242.04 423.515 1240.64 422.134 1238.93 422.142C1237.22 422.15 1235.83 423.545 1235.84 425.258C1235.85 426.97 1237.25 428.355 1238.96 428.347C1240.67 428.339 1242.05 426.941 1242.04 425.228ZM1082.23 301.543C1082.22 299.83 1080.83 298.445 1079.12 298.454C1077.4 298.462 1076.02 299.859 1076.03 301.572C1076.04 303.285 1077.43 304.666 1079.15 304.658C1080.86 304.65 1082.24 303.255 1082.23 301.543ZM982.895 470.25C982.887 468.537 981.492 467.153 979.78 467.161C978.064 467.17 976.683 468.567 976.691 470.28C976.699 471.992 978.094 473.377 979.809 473.369C981.522 473.36 982.903 471.963 982.895 470.25ZM104.97 646.415C104.962 644.7 103.565 643.318 101.854 643.326C100.139 643.334 98.7575 644.729 98.7656 646.445C98.7737 648.155 100.168 649.536 101.884 649.528C103.594 649.52 104.978 648.125 104.97 646.415ZM178.135 302.721C178.127 301.008 176.732 299.627 175.017 299.635C173.304 299.643 171.922 301.038 171.93 302.751C171.939 304.466 173.333 305.848 175.046 305.84C176.762 305.831 178.143 304.437 178.135 302.721ZM487.576 48.1516C487.568 46.4388 486.173 45.0546 484.46 45.0627C482.748 45.0708 481.366 46.4682 481.374 48.181C481.382 49.8937 482.777 51.2753 484.49 51.2672C486.203 51.259 487.584 49.8644 487.576 48.1516ZM152.786 -284.134C152.777 -285.847 151.383 -287.228 149.67 -287.22C147.957 -287.212 146.573 -285.817 146.581 -284.105C146.589 -282.392 147.987 -281.005 149.699 -281.013C151.412 -281.021 152.794 -282.421 152.786 -284.134ZM1142.93 -342.993C1142.92 -344.708 1141.53 -346.09 1139.81 -346.082C1138.1 -346.073 1136.72 -344.679 1136.72 -342.963C1136.73 -341.253 1138.13 -339.869 1139.84 -339.877C1141.56 -339.885 1142.94 -341.283 1142.93 -342.993ZM781.989 -284.008C781.981 -285.723 780.584 -287.108 778.871 -287.1C777.158 -287.091 775.777 -285.694 775.785 -283.979C775.793 -282.266 777.187 -280.884 778.9 -280.892C780.613 -280.901 781.997 -282.295 781.989 -284.008ZM803.093 49.758C803.085 48.0452 801.69 46.6638 799.977 46.6719C798.265 46.68 796.88 48.0746 796.888 49.7874C796.897 51.5002 798.294 52.8817 800.007 52.8736C801.719 52.8654 803.101 51.4708 803.093 49.758ZM682.957 161.01C682.949 159.298 681.552 157.916 679.839 157.924C678.126 157.932 676.745 159.327 676.753 161.04C676.761 162.753 678.156 164.137 679.868 164.129C681.581 164.121 682.965 162.723 682.957 161.01ZM681.861 -70.3142C681.853 -72.027 680.456 -73.4112 678.743 -73.4031C677.03 -73.395 675.649 -71.9976 675.657 -70.2848C675.665 -68.572 677.06 -67.1905 678.773 -67.1986C680.485 -67.2068 681.87 -68.6014 681.861 -70.3142ZM75.3622 114.52C75.3541 112.807 73.9594 111.423 72.2466 111.431C70.5339 111.439 69.1497 112.837 69.1578 114.549C69.1659 116.262 70.5633 117.644 72.276 117.635C73.9888 117.627 75.3703 116.233 75.3622 114.52ZM1350.23 621.327C1350.22 619.614 1348.82 618.23 1347.11 618.238C1345.39 618.246 1344.02 619.643 1344.02 621.356C1344.03 623.069 1345.42 624.45 1347.14 624.442C1348.85 624.434 1350.23 623.04 1350.23 621.327ZM1148.08 90.2002C1148.07 88.4847 1146.68 87.1004 1144.97 87.1086C1143.25 87.1167 1141.87 88.5141 1141.88 90.2295C1141.89 91.9396 1143.28 93.3211 1145 93.313C1146.71 93.3048 1148.09 91.9102 1148.08 90.2002ZM977.627 -22.141C977.611 -25.5666 974.821 -28.335 971.396 -28.3187C967.97 -28.3025 965.205 -25.5078 965.221 -22.0822C965.237 -18.6567 968.029 -15.8937 971.455 -15.9099C974.88 -15.9261 977.643 -18.7154 977.627 -22.141ZM977.771 8.24251C977.763 6.52976 976.371 5.14821 974.655 5.15634C972.943 5.16445 971.561 6.55913 971.569 8.27188C971.577 9.98466 972.972 11.3661 974.685 11.358C976.4 11.3499 977.779 9.95529 977.771 8.24251ZM139.796 371.999C139.788 370.286 138.393 368.905 136.677 368.913C134.967 368.921 133.583 370.316 133.591 372.028C133.599 373.741 134.997 375.123 136.707 375.115C138.422 375.106 139.804 373.712 139.796 371.999ZM922.034 -35.5342C922.026 -37.2469 920.628 -38.6284 918.916 -38.6203C917.206 -38.6122 915.821 -37.2175 915.829 -35.5048C915.838 -33.792 917.235 -32.4105 918.945 -32.4186C920.658 -32.4267 922.042 -33.8214 922.034 -35.5342ZM335.566 -322.078C335.557 -323.791 334.16 -325.172 332.45 -325.164C330.735 -325.156 329.353 -323.762 329.361 -322.049C329.369 -320.336 330.764 -318.955 332.479 -318.963C334.19 -318.971 335.574 -320.365 335.566 -322.078ZM483.141 421.127C483.133 419.415 481.738 418.033 480.023 418.041C478.312 418.049 476.928 419.444 476.936 421.157C476.945 422.87 478.342 424.251 480.052 424.243C481.767 424.235 483.149 422.84 483.141 421.127ZM251.588 -29.2575C251.58 -30.9703 250.185 -32.3519 248.472 -32.3437C246.76 -32.3356 245.378 -30.9409 245.386 -29.2282C245.394 -27.5127 246.789 -26.1339 248.502 -26.142C250.215 -26.1501 251.596 -27.5421 251.588 -29.2575ZM561.854 -98.7689C561.846 -100.482 560.451 -101.863 558.736 -101.855C557.026 -101.847 555.642 -100.452 555.65 -98.7395C555.658 -97.0267 557.055 -95.6452 558.765 -95.6533C560.481 -95.6614 561.862 -97.0561 561.854 -98.7689ZM893.989 -243.753C893.981 -245.466 892.583 -246.847 890.871 -246.839C889.161 -246.831 887.776 -245.436 887.784 -243.724C887.793 -242.011 889.19 -240.629 890.9 -240.637C892.613 -240.646 893.997 -242.04 893.989 -243.753ZM904.966 -211.335C904.958 -213.047 903.56 -214.429 901.848 -214.421C900.138 -214.413 898.753 -213.018 898.762 -211.305C898.77 -209.592 900.167 -208.211 901.877 -208.219C903.59 -208.227 904.974 -209.622 904.966 -211.335ZM984.011 -89.945C984.003 -91.6578 982.605 -93.0393 980.893 -93.0312C979.183 -93.0231 977.798 -91.6284 977.807 -89.9156C977.815 -88.2028 979.212 -86.8214 980.922 -86.8295C982.635 -86.8376 984.019 -88.2322 984.011 -89.945ZM1128.17 69.0182C1128.17 67.3054 1126.77 65.9239 1125.06 65.9321C1123.35 65.9402 1121.96 67.3348 1121.97 69.0476C1121.98 70.7604 1123.38 72.1418 1125.09 72.1337C1126.8 72.1256 1128.18 70.731 1128.17 69.0182ZM1222.21 -72.1322C1222.2 -73.845 1220.81 -75.2265 1219.09 -75.2184C1217.38 -75.2103 1216 -73.8156 1216.01 -72.1029C1216.02 -70.3901 1217.41 -69.0086 1219.12 -69.0167C1220.84 -69.0248 1222.22 -70.4195 1222.21 -72.1322ZM210.227 -222.117C210.219 -223.83 208.822 -225.211 207.112 -225.203C205.396 -225.195 204.015 -223.8 204.023 -222.088C204.031 -220.375 205.426 -218.993 207.141 -219.001C208.851 -219.01 210.235 -220.404 210.227 -222.117ZM116.756 -8.43586C116.748 -10.1459 115.35 -11.5301 113.638 -11.522C111.925 -11.5139 110.543 -10.1165 110.551 -8.40647C110.56 -6.69097 111.954 -5.30947 113.667 -5.31758C115.38 -5.3257 116.764 -6.72036 116.756 -8.43586ZM190.883 -170.765C190.875 -172.478 189.48 -173.86 187.767 -173.852C186.052 -173.844 184.67 -172.449 184.678 -170.736C184.686 -169.023 186.081 -167.639 187.796 -167.647C189.509 -167.655 190.891 -169.053 190.883 -170.765ZM1221.17 -291.302C1221.17 -293.015 1219.77 -294.397 1218.06 -294.389C1216.35 -294.381 1214.96 -292.986 1214.97 -291.273C1214.98 -289.56 1216.37 -288.179 1218.08 -288.187C1219.8 -288.195 1221.18 -289.59 1221.17 -291.302ZM1282.75 141.342C1282.74 139.629 1281.35 138.247 1279.63 138.256C1277.92 138.264 1276.54 139.658 1276.55 141.371C1276.56 143.084 1277.95 144.465 1279.66 144.457C1281.38 144.449 1282.76 143.055 1282.75 141.342ZM1214.46 577.31C1214.46 575.597 1213.06 574.213 1211.35 574.221C1209.64 574.229 1208.25 575.626 1208.26 577.339C1208.27 579.052 1209.67 580.433 1211.38 580.425C1213.09 580.417 1214.47 579.022 1214.46 577.31ZM998.205 621.628C998.197 619.915 996.799 618.531 995.087 618.539C993.377 618.547 991.992 619.944 992.001 621.657C992.009 623.37 993.406 624.751 995.116 624.743C996.829 624.735 998.213 623.34 998.205 621.628ZM858.914 348.995C858.906 347.282 857.509 345.901 855.796 345.909C854.086 345.917 852.702 347.312 852.71 349.024C852.718 350.737 854.115 352.119 855.826 352.111C857.538 352.102 858.923 350.708 858.914 348.995ZM612.084 222.989C612.076 221.276 610.681 219.894 608.966 219.902C607.256 219.91 605.871 221.305 605.879 223.018C605.888 224.731 607.285 226.112 608.995 226.104C610.71 226.096 612.092 224.701 612.084 222.989ZM549.85 223.283C549.842 221.571 548.448 220.189 546.732 220.197C545.022 220.205 543.638 221.6 543.646 223.313C543.654 225.025 545.051 226.407 546.761 226.399C548.477 226.391 549.858 224.996 549.85 223.283ZM384.856 354.341C384.848 352.629 383.453 351.247 381.74 351.255C380.028 351.263 378.643 352.658 378.651 354.371C378.66 356.086 380.057 357.468 381.77 357.46C383.482 357.452 384.864 356.057 384.856 354.341ZM698.227 372.588C698.219 370.878 696.822 369.494 695.109 369.502C693.396 369.51 692.015 370.908 692.023 372.618C692.031 374.333 693.426 375.715 695.139 375.707C696.851 375.698 698.236 374.304 698.227 372.588ZM139.796 371.999C139.788 370.286 138.393 368.905 136.677 368.913C134.967 368.921 133.583 370.316 133.591 372.028C133.599 373.741 134.997 375.123 136.707 375.115C138.422 375.106 139.804 373.712 139.796 371.999ZM272.351 -115.795C272.343 -117.508 270.949 -118.889 269.236 -118.881C267.523 -118.873 266.142 -117.478 266.15 -115.765C266.158 -114.053 267.553 -112.668 269.265 -112.677C270.978 -112.685 272.36 -114.082 272.351 -115.795Z" fill="white" fill-opacity="0.4"/>
</svg>
