<svg width="1440" height="303" viewBox="0 0 1440 303" fill="none" xmlns="http://www.w3.org/2000/svg">
<g clip-path="url(#clip0_447_25284)">
<rect width="1440" height="303" fill="#6E41E2"/>
<rect width="1440" height="303" fill="black" fill-opacity="0.1"/>
<path d="M1306.85 525.387C1169.45 525.713 1443.79 -30.4359 1443.79 -30.4359L1100.49 -29.6229C1009.22 -29.4067 999.765 68.0424 862.367 84.6244C810.841 90.8448 629.764 121.771 714.565 -28.7089L452.118 -28.0873C391.724 180.924 547.61 279.745 529.925 379.942C512.241 480.138 444.227 768.977 309.819 769.295C175.412 769.614 200.089 1099.47 334.552 1122.72C469.015 1145.97 519.997 1233.94 520.2 1319.5L708.618 1319.06C708.618 1319.06 710.851 1104.16 645.139 1104.31C579.429 1104.47 453.828 1039.96 507.244 892.548C525.219 842.942 613.088 697.878 588.503 558.747C563.919 419.617 616.646 292.969 671.248 249.213C725.851 205.453 921.764 136.908 896.927 220.005C874.938 293.579 734.882 428.776 821.579 522.769C908.274 616.762 762.594 983.992 898.671 956.427C1104.66 914.698 1149.52 938.157 1203.51 1032.29C1257.5 1126.43 1260.68 1317.75 1260.68 1317.75L1446.99 1317.31C1446.99 1317.31 1444.24 525.062 1306.85 525.387ZM1056.41 720.396C972.698 685.247 942.888 708.883 930.788 644.655C918.688 580.43 961.29 517.07 1005.03 461.296C1055.44 397.007 1028.35 219.693 1049.06 137.165C1069.77 54.6344 1261.35 309.433 1148.5 508.087C1035.66 706.743 1190.54 602.249 1205.85 761.283C1221.17 920.315 1140.13 755.546 1056.41 720.396ZM335.102 1325.74L107.783 1326.28C107.379 1155.43 -4.01031 1235.37 -4.01031 1235.37L-5.78951 484.116C93.9032 374.714 86.9911 -21.4196 86.9911 -21.4196L331.91 -21.9996C331.91 -21.9996 183.648 126.561 356.379 274.838C529.109 423.119 336.943 615.034 231.816 592.65C32.5761 550.224 22.3562 712.461 109.937 890.607C197.517 1068.75 103.718 1146.74 179.363 1146.56C334.677 1146.2 335.102 1325.74 335.102 1325.74ZM1206.07 1323.68L1174.27 1323.76C1174.27 1323.76 1174.58 1294.68 1087.57 1232.79C995.732 1167.45 845.732 1274.6 793.393 1298.29C741.06 1321.98 763.622 1118.57 812.445 1092.04C1030.2 973.698 1069.36 1109.11 1135.09 1120.74C1200.83 1132.37 1206.07 1323.68 1206.07 1323.68ZM770.129 849.668C733.064 904.78 772.936 936.892 810.866 1046.3C848.795 1155.7 768.351 1129.67 748.074 1146.12C727.796 1162.58 618.699 1158.43 617.92 1115.95C617.142 1073.47 601.117 1003.54 588.479 945.669C575.841 887.804 624.084 775.463 662.473 748.616C745.336 690.661 807.2 794.555 770.129 849.668ZM1113.17 279.107C1145.03 339.842 1130.64 425.279 1115.12 480.633C1099.61 535.987 1099.95 530.14 1082.08 576.905C1064.21 623.672 1010.52 613.085 1012.91 570.431C1015.29 527.777 1069.17 475.113 1081.72 425.601C1096.12 368.805 1081.3 218.369 1113.17 279.107ZM1442.31 573.526C1442.31 573.526 1427.44 563.392 1413.62 506.043C1399.81 448.691 1377.36 420.053 1384.74 355.238C1392.12 290.423 1430.5 242.04 1441.49 227.367L1442.31 573.526Z" fill="#6E41E2"/>
<path d="M1306.85 525.387C1169.45 525.713 1443.79 -30.4359 1443.79 -30.4359L1100.49 -29.6229C1009.22 -29.4067 999.765 68.0424 862.367 84.6244C810.841 90.8448 629.764 121.771 714.565 -28.7089L452.118 -28.0873C391.724 180.924 547.61 279.745 529.925 379.942C512.241 480.138 444.227 768.977 309.819 769.295C175.412 769.614 200.089 1099.47 334.552 1122.72C469.015 1145.97 519.997 1233.94 520.2 1319.5L708.618 1319.06C708.618 1319.06 710.851 1104.16 645.139 1104.31C579.429 1104.47 453.828 1039.96 507.244 892.548C525.219 842.942 613.088 697.878 588.503 558.747C563.919 419.617 616.646 292.969 671.248 249.213C725.851 205.453 921.764 136.908 896.927 220.005C874.938 293.579 734.882 428.776 821.579 522.769C908.274 616.762 762.594 983.992 898.671 956.427C1104.66 914.698 1149.52 938.157 1203.51 1032.29C1257.5 1126.43 1260.68 1317.75 1260.68 1317.75L1446.99 1317.31C1446.99 1317.31 1444.24 525.062 1306.85 525.387ZM1056.41 720.396C972.698 685.247 942.888 708.883 930.788 644.655C918.688 580.43 961.29 517.07 1005.03 461.296C1055.44 397.007 1028.35 219.693 1049.06 137.165C1069.77 54.6344 1261.35 309.433 1148.5 508.087C1035.66 706.743 1190.54 602.249 1205.85 761.283C1221.17 920.315 1140.13 755.546 1056.41 720.396ZM335.102 1325.74L107.783 1326.28C107.379 1155.43 -4.01031 1235.37 -4.01031 1235.37L-5.78951 484.116C93.9032 374.714 86.9911 -21.4196 86.9911 -21.4196L331.91 -21.9996C331.91 -21.9996 183.648 126.561 356.379 274.838C529.109 423.119 336.943 615.034 231.816 592.65C32.5761 550.224 22.3562 712.461 109.937 890.607C197.517 1068.75 103.718 1146.74 179.363 1146.56C334.677 1146.2 335.102 1325.74 335.102 1325.74ZM1206.07 1323.68L1174.27 1323.76C1174.27 1323.76 1174.58 1294.68 1087.57 1232.79C995.732 1167.45 845.732 1274.6 793.393 1298.29C741.06 1321.98 763.622 1118.57 812.445 1092.04C1030.2 973.698 1069.36 1109.11 1135.09 1120.74C1200.83 1132.37 1206.07 1323.68 1206.07 1323.68ZM770.129 849.668C733.064 904.78 772.936 936.892 810.866 1046.3C848.795 1155.7 768.351 1129.67 748.074 1146.12C727.796 1162.58 618.699 1158.43 617.92 1115.95C617.142 1073.47 601.117 1003.54 588.479 945.669C575.841 887.804 624.084 775.463 662.473 748.616C745.336 690.661 807.2 794.555 770.129 849.668ZM1113.17 279.107C1145.03 339.842 1130.64 425.279 1115.12 480.633C1099.61 535.987 1099.95 530.14 1082.08 576.905C1064.21 623.672 1010.52 613.085 1012.91 570.431C1015.29 527.777 1069.17 475.113 1081.72 425.601C1096.12 368.805 1081.3 218.369 1113.17 279.107ZM1442.31 573.526C1442.31 573.526 1427.44 563.392 1413.62 506.043C1399.81 448.691 1377.36 420.053 1384.74 355.238C1392.12 290.423 1430.5 242.04 1441.49 227.367L1442.31 573.526Z" fill="black" fill-opacity="0.2"/>
<path d="M336.323 -162.149C334.61 -162.141 333.216 -163.525 333.208 -165.24C333.199 -166.95 334.581 -168.342 336.294 -168.35C338.007 -168.359 339.404 -166.98 339.412 -165.27C339.42 -163.554 338.036 -162.157 336.323 -162.149ZM586.374 368.884C586.366 367.171 584.968 365.789 583.258 365.797C581.543 365.806 580.161 367.2 580.169 368.913C580.177 370.626 581.572 372.01 583.288 372.002C584.998 371.994 586.382 370.596 586.374 368.884ZM918.521 226.605C918.513 224.893 917.116 223.511 915.406 223.519C913.693 223.527 912.309 224.922 912.317 226.635C912.325 228.348 913.722 229.732 915.435 229.724C917.145 229.716 918.529 228.318 918.521 226.605ZM1241.55 -123.486C1241.55 -125.199 1240.15 -126.581 1238.44 -126.572C1236.72 -126.564 1235.34 -125.17 1235.35 -123.457C1235.36 -121.744 1236.75 -120.363 1238.47 -120.371C1240.18 -120.379 1241.56 -121.773 1241.55 -123.486ZM1265.91 -123.602C1265.9 -125.314 1264.51 -126.696 1262.79 -126.688C1261.08 -126.68 1259.7 -125.285 1259.7 -123.572C1259.71 -121.859 1261.11 -120.478 1262.82 -120.486C1264.53 -120.494 1265.91 -121.889 1265.91 -123.602ZM1364.91 196.926C1365.45 198.55 1367.21 199.429 1368.84 198.888C1370.46 198.348 1371.34 196.593 1370.79 194.967C1370.25 193.34 1368.5 192.464 1366.87 193.004C1365.25 193.548 1364.37 195.3 1364.91 196.926ZM1168.17 621.789C1168.71 623.415 1170.46 624.295 1172.09 623.754C1173.71 623.21 1174.59 621.453 1174.05 619.826C1173.51 618.203 1171.75 617.329 1170.13 617.87C1168.5 618.41 1167.63 620.165 1168.17 621.789ZM574.292 -249.869C574.832 -248.243 576.59 -247.363 578.216 -247.907C579.84 -248.448 580.719 -250.202 580.176 -251.826C579.635 -253.452 577.877 -254.332 576.254 -253.788C574.627 -253.247 573.751 -251.493 574.292 -249.869ZM335.317 247.565C335.858 249.188 337.615 250.07 339.242 249.527C340.865 248.986 341.745 247.226 341.201 245.602C340.66 243.976 338.903 243.097 337.279 243.64C335.653 244.181 334.776 245.938 335.317 247.565ZM354.37 512.252C354.911 513.875 356.668 514.757 358.292 514.214C359.918 513.673 360.798 511.913 360.254 510.289C359.713 508.663 357.956 507.784 356.332 508.327C354.706 508.87 353.829 510.625 354.37 512.252ZM959.68 -12.1766C959.672 -13.8894 958.275 -15.2709 956.565 -15.2628C954.852 -15.2547 953.468 -13.86 953.476 -12.1472C953.484 -10.4344 954.881 -9.05295 956.594 -9.06107C958.304 -9.06917 959.688 -10.4638 959.68 -12.1766ZM1242.04 425.229C1242.04 423.516 1240.64 422.134 1238.93 422.142C1237.22 422.15 1235.83 423.545 1235.84 425.258C1235.85 426.971 1237.25 428.355 1238.96 428.347C1240.67 428.339 1242.05 426.941 1242.04 425.229ZM1082.23 301.543C1082.22 299.83 1080.83 298.446 1079.12 298.454C1077.4 298.462 1076.02 299.859 1076.03 301.572C1076.04 303.285 1077.43 304.666 1079.15 304.658C1080.86 304.65 1082.24 303.256 1082.23 301.543ZM982.895 470.25C982.887 468.538 981.492 467.154 979.78 467.162C978.064 467.17 976.683 468.567 976.691 470.28C976.699 471.993 978.094 473.377 979.809 473.369C981.522 473.361 982.903 471.963 982.895 470.25ZM104.97 646.415C104.962 644.7 103.565 643.318 101.854 643.327C100.139 643.335 98.7575 644.729 98.7656 646.445C98.7737 648.155 100.168 649.536 101.884 649.528C103.594 649.52 104.978 648.125 104.97 646.415ZM178.135 302.721C178.127 301.009 176.732 299.627 175.017 299.635C173.304 299.643 171.922 301.038 171.93 302.751C171.939 304.466 173.333 305.848 175.046 305.84C176.762 305.832 178.143 304.437 178.135 302.721ZM487.576 48.1519C487.568 46.439 486.173 45.0549 484.46 45.063C482.748 45.0711 481.366 46.4684 481.374 48.1812C481.382 49.894 482.777 51.2755 484.49 51.2674C486.203 51.2593 487.584 49.8646 487.576 48.1519ZM152.786 -284.134C152.777 -285.847 151.383 -287.228 149.67 -287.22C147.957 -287.212 146.573 -285.817 146.581 -284.104C146.589 -282.392 147.987 -281.005 149.699 -281.013C151.412 -281.021 152.794 -282.421 152.786 -284.134ZM1142.93 -342.992C1142.92 -344.708 1141.53 -346.089 1139.81 -346.081C1138.1 -346.073 1136.72 -344.679 1136.72 -342.963C1136.73 -341.253 1138.13 -339.869 1139.84 -339.877C1141.56 -339.885 1142.94 -341.282 1142.93 -342.992ZM781.989 -284.008C781.981 -285.723 780.584 -287.107 778.871 -287.099C777.158 -287.091 775.777 -285.694 775.785 -283.978C775.793 -282.266 777.187 -280.884 778.9 -280.892C780.613 -280.9 781.997 -282.295 781.989 -284.008ZM803.093 49.7583C803.085 48.0455 801.69 46.664 799.977 46.6721C798.265 46.6802 796.88 48.0749 796.888 49.7877C796.897 51.5004 798.294 52.8819 800.007 52.8738C801.719 52.8657 803.101 51.471 803.093 49.7583ZM682.957 161.011C682.949 159.298 681.552 157.916 679.839 157.925C678.126 157.933 676.745 159.327 676.753 161.04C676.761 162.753 678.156 164.137 679.868 164.129C681.581 164.121 682.965 162.724 682.957 161.011ZM681.861 -70.314C681.853 -72.0267 680.456 -73.4109 678.743 -73.4028C677.03 -73.3947 675.649 -71.9973 675.657 -70.2846C675.665 -68.5718 677.06 -67.1903 678.773 -67.1984C680.485 -67.2065 681.87 -68.6012 681.861 -70.314ZM75.3622 114.52C75.3541 112.807 73.9594 111.423 72.2466 111.431C70.5339 111.439 69.1497 112.837 69.1578 114.55C69.1659 116.262 70.5633 117.644 72.276 117.636C73.9888 117.628 75.3703 116.233 75.3622 114.52ZM1350.23 621.327C1350.22 619.614 1348.82 618.23 1347.11 618.238C1345.39 618.246 1344.02 619.644 1344.02 621.356C1344.03 623.069 1345.42 624.451 1347.14 624.443C1348.85 624.434 1350.23 623.04 1350.23 621.327ZM1148.08 90.2004C1148.07 88.4849 1146.68 87.1007 1144.97 87.1088C1143.25 87.1169 1141.87 88.5143 1141.88 90.2298C1141.89 91.9399 1143.28 93.3213 1145 93.3132C1146.71 93.3051 1148.09 91.9105 1148.08 90.2004ZM977.627 -22.1408C977.611 -25.5663 974.821 -28.3347 971.396 -28.3185C967.97 -28.3023 965.205 -25.5076 965.221 -22.082C965.237 -18.6564 968.029 -15.8934 971.455 -15.9096C974.88 -15.9259 977.643 -18.7152 977.627 -22.1408ZM977.771 8.24275C977.763 6.53 976.371 5.14846 974.655 5.15658C972.943 5.1647 971.561 6.55938 971.569 8.27213C971.577 9.98491 972.972 11.3664 974.685 11.3583C976.4 11.3501 977.779 9.95553 977.771 8.24275ZM139.796 371.999C139.788 370.286 138.393 368.905 136.677 368.913C134.967 368.921 133.583 370.316 133.591 372.029C133.599 373.741 134.997 375.123 136.707 375.115C138.422 375.107 139.804 373.712 139.796 371.999ZM922.034 -35.5339C922.026 -37.2467 920.628 -38.6282 918.916 -38.6201C917.206 -38.612 915.821 -37.2173 915.829 -35.5045C915.838 -33.7918 917.235 -32.4102 918.945 -32.4183C920.658 -32.4265 922.042 -33.8211 922.034 -35.5339ZM335.566 -322.078C335.557 -323.791 334.16 -325.172 332.45 -325.164C330.735 -325.156 329.353 -323.761 329.361 -322.049C329.369 -320.336 330.764 -318.954 332.479 -318.962C334.19 -318.971 335.574 -320.365 335.566 -322.078ZM483.141 421.128C483.133 419.415 481.738 418.033 480.023 418.042C478.312 418.05 476.928 419.444 476.936 421.157C476.945 422.87 478.342 424.251 480.052 424.243C481.767 424.235 483.149 422.84 483.141 421.128ZM251.588 -29.2573C251.58 -30.9701 250.185 -32.3516 248.472 -32.3435C246.76 -32.3354 245.378 -30.9407 245.386 -29.2279C245.394 -27.5125 246.789 -26.1337 248.502 -26.1418C250.215 -26.1499 251.596 -27.5418 251.588 -29.2573ZM561.854 -98.7686C561.846 -100.481 560.451 -101.863 558.736 -101.855C557.026 -101.847 555.642 -100.452 555.65 -98.7393C555.658 -97.0265 557.055 -95.645 558.765 -95.6531C560.481 -95.6612 561.862 -97.0559 561.854 -98.7686ZM893.989 -243.753C893.981 -245.465 892.583 -246.847 890.871 -246.839C889.161 -246.831 887.776 -245.436 887.784 -243.723C887.793 -242.011 889.19 -240.629 890.9 -240.637C892.613 -240.645 893.997 -242.04 893.989 -243.753ZM904.966 -211.334C904.958 -213.047 903.56 -214.429 901.848 -214.42C900.138 -214.412 898.753 -213.018 898.762 -211.305C898.77 -209.592 900.167 -208.211 901.877 -208.219C903.59 -208.227 904.974 -209.622 904.966 -211.334ZM984.011 -89.9448C984.003 -91.6575 982.605 -93.039 980.893 -93.0309C979.183 -93.0228 977.798 -91.6282 977.807 -89.9154C977.815 -88.2026 979.212 -86.8211 980.922 -86.8292C982.635 -86.8373 984.019 -88.232 984.011 -89.9448ZM1128.17 69.0185C1128.17 67.3057 1126.77 65.9242 1125.06 65.9323C1123.35 65.9404 1121.96 67.3351 1121.97 69.0478C1121.98 70.7606 1123.38 72.1421 1125.09 72.134C1126.8 72.1259 1128.18 70.7312 1128.17 69.0185ZM1222.21 -72.132C1222.2 -73.8448 1220.81 -75.2263 1219.09 -75.2182C1217.38 -75.2101 1216 -73.8154 1216.01 -72.1026C1216.02 -70.3898 1217.41 -69.0083 1219.12 -69.0164C1220.84 -69.0246 1222.22 -70.4192 1222.21 -72.132ZM210.227 -222.117C210.219 -223.83 208.822 -225.211 207.112 -225.203C205.396 -225.195 204.015 -223.8 204.023 -222.087C204.031 -220.375 205.426 -218.993 207.141 -219.001C208.851 -219.009 210.235 -220.404 210.227 -222.117ZM116.756 -8.43561C116.748 -10.1457 115.35 -11.5299 113.638 -11.5218C111.925 -11.5137 110.543 -10.1163 110.551 -8.40623C110.56 -6.69073 111.954 -5.30923 113.667 -5.31734C115.38 -5.32545 116.764 -6.72012 116.756 -8.43561ZM190.883 -170.765C190.875 -172.478 189.48 -173.86 187.767 -173.851C186.052 -173.843 184.67 -172.449 184.678 -170.736C184.686 -169.023 186.081 -167.639 187.796 -167.647C189.509 -167.655 190.891 -169.052 190.883 -170.765ZM1221.17 -291.302C1221.17 -293.015 1219.77 -294.396 1218.06 -294.388C1216.35 -294.38 1214.96 -292.986 1214.97 -291.273C1214.98 -289.56 1216.37 -288.179 1218.08 -288.187C1219.8 -288.195 1221.18 -289.589 1221.17 -291.302ZM1282.75 141.342C1282.74 139.629 1281.35 138.248 1279.63 138.256C1277.92 138.264 1276.54 139.659 1276.55 141.371C1276.56 143.084 1277.95 144.466 1279.66 144.457C1281.38 144.449 1282.76 143.055 1282.75 141.342ZM1214.46 577.31C1214.46 575.597 1213.06 574.213 1211.35 574.221C1209.64 574.229 1208.25 575.626 1208.26 577.339C1208.27 579.052 1209.67 580.433 1211.38 580.425C1213.09 580.417 1214.47 579.023 1214.46 577.31ZM998.205 621.628C998.197 619.915 996.799 618.531 995.087 618.539C993.377 618.547 991.992 619.945 992.001 621.657C992.009 623.37 993.406 624.752 995.116 624.744C996.829 624.735 998.213 623.341 998.205 621.628ZM858.914 348.995C858.906 347.283 857.509 345.901 855.796 345.909C854.086 345.917 852.702 347.312 852.71 349.025C852.718 350.737 854.115 352.119 855.826 352.111C857.538 352.103 858.923 350.708 858.914 348.995ZM612.084 222.989C612.076 221.276 610.681 219.894 608.966 219.903C607.256 219.911 605.871 221.305 605.879 223.018C605.888 224.731 607.285 226.112 608.995 226.104C610.71 226.096 612.092 224.702 612.084 222.989ZM549.85 223.284C549.842 221.571 548.448 220.189 546.732 220.197C545.022 220.205 543.638 221.6 543.646 223.313C543.654 225.026 545.051 226.407 546.761 226.399C548.477 226.391 549.858 224.996 549.85 223.284ZM384.856 354.342C384.848 352.629 383.453 351.247 381.74 351.255C380.028 351.264 378.643 352.658 378.651 354.371C378.66 356.086 380.057 357.468 381.77 357.46C383.482 357.452 384.864 356.057 384.856 354.342ZM698.227 372.589C698.219 370.878 696.822 369.494 695.109 369.502C693.396 369.51 692.015 370.908 692.023 372.618C692.031 374.333 693.426 375.715 695.139 375.707C696.851 375.699 698.236 374.304 698.227 372.589ZM139.796 371.999C139.788 370.286 138.393 368.905 136.677 368.913C134.967 368.921 133.583 370.316 133.591 372.029C133.599 373.741 134.997 375.123 136.707 375.115C138.422 375.107 139.804 373.712 139.796 371.999ZM272.351 -115.795C272.343 -117.507 270.949 -118.889 269.236 -118.881C267.523 -118.873 266.142 -117.478 266.15 -115.765C266.158 -114.052 267.553 -112.668 269.265 -112.676C270.978 -112.684 272.36 -114.082 272.351 -115.795Z" fill="white" fill-opacity="0.14"/>
<path d="M1086.33 214.69C973.117 253.825 887.237 302.604 894.509 323.638L901.358 321.272C894.791 302.281 978.179 256.218 1087.61 218.39C1197.04 180.563 1291.07 165.295 1297.63 184.286L1304.48 181.917C1297.21 160.882 1199.54 175.556 1086.33 214.69Z" fill="#F19E3D"/>
<path d="M1088.56 221.144C983.189 257.569 902.667 301.259 908.705 318.73L952.896 303.453C949.058 292.35 1011.58 260.659 1092.54 232.671C1173.51 204.684 1242.25 190.997 1246.09 202.1L1290.28 186.824C1284.24 169.354 1193.93 184.721 1088.56 221.144Z" fill="#FCCA90"/>
<path d="M1217.2 207.497C1239.98 273.377 1205.03 345.245 1139.15 368.017C1073.27 390.792 1001.41 355.847 978.631 289.968C955.858 224.087 990.803 152.219 1056.68 129.446C1122.56 106.672 1194.43 141.616 1217.2 207.497Z" fill="#7578F4"/>
<path d="M1217.64 208.766C1239.71 274.885 1204 346.378 1137.88 368.449C1071.77 390.522 1000.27 354.816 978.2 288.698C956.128 222.579 991.835 151.087 1057.95 129.015C1124.07 106.942 1195.56 142.648 1217.64 208.766Z" fill="#C9CAFF"/>
<path d="M1107.01 346.54C1092.1 351.518 1077.88 349.179 1075.26 341.318C1072.63 333.457 1082.59 323.051 1097.51 318.072C1112.42 313.095 1126.64 315.43 1129.26 323.292C1131.89 331.153 1121.93 341.56 1107.01 346.54ZM1139.85 259.69C1136.71 250.285 1122.42 246.583 1107.93 251.42C1093.44 256.258 1084.24 267.803 1087.38 277.208C1090.52 286.614 1104.81 290.315 1119.3 285.477C1133.79 280.641 1142.99 269.096 1139.85 259.69ZM1013.19 220.08C1028.54 214.955 1039 204.85 1036.55 197.513C1034.1 190.176 1019.67 188.386 1004.31 193.509C988.96 198.636 978.499 208.74 980.949 216.076C983.397 223.413 997.831 225.206 1013.19 220.08ZM1079.04 160.278C1091.77 156.029 1100.66 148.311 1098.9 143.04C1097.14 137.769 1085.4 136.943 1072.67 141.193C1059.93 145.443 1051.04 153.163 1052.8 158.433C1054.56 163.703 1066.31 164.53 1079.04 160.278ZM1191.08 163.591C1186.95 163.145 1182.42 163.583 1177.91 165.09C1164.85 169.45 1156.91 180.923 1160.18 190.718C1163.45 200.51 1176.69 204.914 1189.75 200.553C1198.29 197.702 1204.61 191.802 1207.07 185.325C1202.49 177.422 1197.1 170.171 1191.08 163.591ZM1136.69 171.47C1134.24 164.139 1121.67 161.728 1108.61 166.087C1095.54 170.449 1086.94 179.928 1089.39 187.262C1091.84 194.595 1104.41 197.005 1117.47 192.644C1130.53 188.284 1139.14 178.805 1136.69 171.47ZM1156.04 292.983C1157.23 296.535 1165.93 296.831 1175.48 293.642C1185.02 290.456 1191.8 284.992 1190.62 281.44C1189.43 277.889 1180.73 277.594 1171.18 280.781C1161.63 283.969 1154.85 289.43 1156.04 292.983ZM1213.06 270.377C1214.01 273.233 1217.1 275.045 1221.23 275.63C1222.62 269.278 1223.51 262.791 1223.91 256.229C1216.21 259.75 1211.49 265.674 1213.06 270.377ZM1012.29 302.274C1030.16 296.311 1042.22 284.22 1039.23 275.271C1036.24 266.321 1019.34 263.9 1001.47 269.863C990.488 273.53 981.719 279.513 977.271 285.656C977.582 286.671 977.861 287.686 978.2 288.699C980.037 294.201 982.247 299.472 984.736 304.537C991.924 306.353 1001.94 305.731 1012.29 302.274ZM1210.24 234.319C1208.1 227.889 1195.05 226.452 1181.11 231.106C1167.17 235.76 1157.61 244.746 1159.76 251.174C1161.9 257.606 1174.95 259.042 1188.89 254.39C1202.83 249.734 1212.39 240.748 1210.24 234.319ZM1183.59 322.574C1171.29 326.68 1162.82 334.499 1164.66 340.032C1165.96 343.9 1171.95 345.62 1179.65 344.909C1188.12 337.705 1195.55 329.476 1201.77 320.452C1196.96 319.645 1190.41 320.298 1183.59 322.574ZM1045.68 243.151C1047.67 249.089 1060.47 250.168 1074.28 245.56C1088.08 240.951 1097.67 232.398 1095.69 226.46C1093.7 220.522 1080.9 219.443 1067.1 224.054C1053.29 228.663 1043.7 237.213 1045.68 243.151ZM1150.98 142.946C1154.19 141.875 1157 140.296 1159.26 138.437C1150.65 133.653 1141.5 129.876 1131.99 127.2C1129.47 130.382 1128.44 133.969 1129.52 137.2C1131.66 143.614 1141.27 146.188 1150.98 142.946ZM1004.15 166.143C1015.04 162.507 1022.72 156.106 1021.3 151.845C1021.02 151.011 1020.41 150.327 1019.53 149.782C1013.05 154.918 1007.14 160.641 1001.86 166.849C1002.62 166.634 1003.38 166.401 1004.15 166.143ZM1051.61 342.646C1050.08 338.047 1037.68 338.046 1023.91 342.641C1021.39 343.482 1019 344.421 1016.79 345.417C1022.22 349.965 1028.02 354.021 1034.1 357.584C1045.38 353.003 1052.97 346.711 1051.61 342.646Z" fill="#E1E0FF"/>
<path d="M1110.86 286.159C1001.43 323.987 907.396 339.257 900.831 320.265L893.984 322.634C901.253 343.668 998.925 328.994 1112.13 289.859C1225.35 250.725 1311.22 201.947 1303.95 180.913L1297.11 183.28C1303.67 202.271 1220.28 248.331 1110.86 286.159Z" fill="#F19E3D"/>
<path d="M1105.92 271.878C1024.96 299.865 956.21 313.552 952.372 302.451L908.181 317.725C914.221 335.195 1004.53 319.83 1109.9 283.406C1215.27 246.98 1295.8 203.29 1289.76 185.821L1245.57 201.096C1249.4 212.201 1186.88 243.89 1105.92 271.878Z" fill="#FCCA90"/>
</g>
<defs>
<clipPath id="clip0_447_25284">
<rect width="1440" height="303" fill="white"/>
</clipPath>
</defs>
</svg>
