<svg width="20" height="19" viewBox="0 0 20 19" fill="none" xmlns="http://www.w3.org/2000/svg">
<path d="M9.99998 0.333984C4.95831 0.333984 0.833313 4.45898 0.833313 9.50065C0.833313 14.5423 4.95831 18.6673 9.99998 18.6673C15.0416 18.6673 19.1666 14.5423 19.1666 9.50065C19.1666 4.45898 15.0416 0.333984 9.99998 0.333984ZM9.99998 16.834C5.95748 16.834 2.66665 13.5431 2.66665 9.50065C2.66665 5.45815 5.95748 2.16732 9.99998 2.16732C14.0425 2.16732 17.3333 5.45815 17.3333 9.50065C17.3333 13.5431 14.0425 16.834 9.99998 16.834ZM10.4583 4.91732H9.08331V10.4173L13.85 13.3507L14.5833 12.159L10.4583 9.68398V4.91732Z" fill="#DCDCDC"/>
</svg>
