<svg width="1440" height="545" viewBox="0 0 1440 545" fill="none" xmlns="http://www.w3.org/2000/svg">
<g opacity="0.4">
<path d="M34.3293 219.055C80.11 243.404 61.8015 144.366 117.92 89.289C154.932 52.9643 204.956 28.9207 256.765 26.8481C308.575 24.7756 362.216 47.3868 391.928 89.8908C421.641 132.395 423.204 194.465 390.872 235.015C420.079 209.345 462.277 199.314 499.905 209.095C537.534 218.877 569.508 248.189 582.522 284.835C600.872 258.377 625.554 235.094 656.041 224.754C686.527 214.415 723.27 219.131 746.146 241.784C769.022 264.438 772.65 305.847 749.859 328.589C775.784 314.364 806.253 306.399 835.2 312.427C864.148 318.455 890.668 340.533 896.431 369.542C903.557 405.411 877.673 441.271 845.047 457.776C812.422 474.282 774.56 475.899 738.023 477.191C512.763 485.153 281.962 492.375 67.8215 422.016C31.5233 410.09 -5.15135 395.3 -32.2914 368.402C-59.4308 341.503 -75.0122 299.779 -61.5138 264.026C-61.5138 264.026 -30.969 184.324 34.3293 219.055Z" fill="#E9E4F7"/>
<path d="M1487.22 478.31H418.225L354.808 496.379C329.426 495.668 304.044 494.953 278.662 494.242C284.859 454.277 315.312 419.049 354.032 407.066C392.752 395.084 437.85 406.922 465.634 436.371C476.838 363.696 580.455 325.851 636.054 374.125C659.506 284.545 781.468 238.173 858.745 289.459C854.57 256.734 880.838 203.288 946.093 196.576C975.565 193.545 1005.9 201.738 1029.62 219.484C1070.06 249.733 1088.08 296.492 1088.08 324.782C1165.93 263.682 1299.03 300.056 1334.79 392.204C1374.73 355.916 1433.09 340.976 1485.6 353.602C1544.31 412.17 1486.68 436.738 1487.22 478.31Z" fill="#D9D1F0"/>
<path d="M-236.095 167.006C-236.095 167.006 -238.923 111.707 -274.897 131.361C-324.916 158.688 -337.774 265.081 -336.965 322.123C-336.155 379.165 -301.924 433.212 -258.99 470.72C-223.949 501.331 -159.754 496.797 -114.344 506.847C106.3 555.68 337.254 557.278 558.551 511.501C592.467 504.486 631.066 492.316 643.643 460.011C654.731 431.528 639.456 398.476 616.38 378.456C590.682 356.161 555.27 345.513 521.554 349.944C487.839 354.374 456.371 373.81 437.29 401.988C460.46 341.614 424.738 265.469 363.534 244.767C302.329 224.065 227.798 262.919 209.647 324.99C223.238 282.213 233.889 237.909 233.332 193.024C232.774 148.137 220.178 102.296 191.552 67.7451C156.314 25.2131 100.272 4.07149 45.1889 0.541673C-70.2602 -6.85575 -186.909 62.1773 -236.095 167.006L-220.846 161.463Z" fill="#C1B6DE"/>
</g>
</svg>
