<svg width="1440" height="820" viewBox="0 0 1440 820" fill="none" xmlns="http://www.w3.org/2000/svg">
<g clip-path="url(#clip0_19_9873)">
<rect width="1440" height="820" fill="#111112"/>
<path d="M1306.85 555.387C1169.45 555.713 1443.79 -0.435942 1443.79 -0.435942L1100.49 0.377104C1009.22 0.59326 999.765 98.0424 862.367 114.624C810.841 120.845 629.764 151.771 714.565 1.29111L452.118 1.91266C391.724 210.924 547.61 309.745 529.925 409.942C512.241 510.138 444.227 798.977 309.819 799.295C175.412 799.614 200.089 1129.47 334.552 1152.72C469.015 1175.97 519.997 1263.94 520.2 1349.5L708.618 1349.06C708.618 1349.06 710.851 1134.16 645.139 1134.31C579.429 1134.47 453.828 1069.96 507.244 922.548C525.219 872.942 613.088 727.878 588.503 588.747C563.919 449.617 616.646 322.969 671.248 279.213C725.851 235.453 921.764 166.908 896.927 250.005C874.938 323.579 734.882 458.776 821.579 552.769C908.274 646.762 762.594 1013.99 898.671 986.427C1104.66 944.698 1149.52 968.157 1203.51 1062.29C1257.5 1156.43 1260.68 1347.75 1260.68 1347.75L1446.99 1347.31C1446.99 1347.31 1444.24 555.062 1306.85 555.387ZM1056.41 750.396C972.698 715.247 942.888 738.883 930.788 674.655C918.688 610.43 961.29 547.07 1005.03 491.296C1055.44 427.007 1028.35 249.693 1049.06 167.165C1069.77 84.6344 1261.35 339.433 1148.5 538.087C1035.66 736.743 1190.54 632.249 1205.85 791.283C1221.17 950.315 1140.13 785.546 1056.41 750.396ZM335.102 1355.74L107.783 1356.28C107.379 1185.43 -4.01031 1265.37 -4.01031 1265.37L-5.78951 514.116C93.9032 404.714 86.9911 8.58043 86.9911 8.58043L331.91 8.00038C331.91 8.00038 183.648 156.561 356.379 304.838C529.109 453.119 336.943 645.034 231.816 622.65C32.5761 580.224 22.3562 742.461 109.937 920.607C197.517 1098.75 103.718 1176.74 179.363 1176.56C334.677 1176.2 335.102 1355.74 335.102 1355.74ZM1206.07 1353.68L1174.27 1353.76C1174.27 1353.76 1174.58 1324.68 1087.57 1262.79C995.732 1197.45 845.732 1304.6 793.393 1328.29C741.06 1351.98 763.622 1148.57 812.445 1122.04C1030.2 1003.7 1069.36 1139.11 1135.09 1150.74C1200.83 1162.37 1206.07 1353.68 1206.07 1353.68ZM770.129 879.668C733.064 934.78 772.936 966.892 810.866 1076.3C848.795 1185.7 768.351 1159.67 748.074 1176.12C727.796 1192.58 618.699 1188.43 617.92 1145.95C617.142 1103.47 601.117 1033.54 588.479 975.669C575.841 917.804 624.084 805.463 662.473 778.616C745.336 720.661 807.2 824.555 770.129 879.668ZM1113.17 309.107C1145.03 369.842 1130.64 455.279 1115.12 510.633C1099.61 565.987 1099.95 560.14 1082.08 606.905C1064.21 653.672 1010.52 643.085 1012.91 600.431C1015.29 557.777 1069.17 505.113 1081.72 455.601C1096.12 398.805 1081.3 248.369 1113.17 309.107ZM1442.31 603.526C1442.31 603.526 1427.44 593.392 1413.62 536.043C1399.81 478.691 1377.36 450.053 1384.74 385.238C1392.12 320.423 1430.5 272.04 1441.49 257.367L1442.31 603.526Z" fill="url(#paint0_linear_19_9873)"/>
<g opacity="0.7">
<path d="M625.317 827.113C602.651 800.454 626.804 780.102 679.216 781.695C731.629 783.288 792.586 806.226 815.252 832.886C837.917 859.545 813.765 879.897 761.352 878.304C708.94 876.711 647.982 853.773 625.317 827.113Z" stroke="#FEF5BD" stroke-width="1.26026"/>
<path d="M617.37 827.23C617.329 822.869 620.874 819.277 625.283 819.214C629.691 819.15 633.304 822.639 633.346 827C633.387 831.361 629.841 834.953 625.433 835.016C621.024 835.079 617.411 831.59 617.37 827.23Z" fill="#FEF5BD"/>
<path d="M875.323 859.743C879.23 896.286 812.929 912.627 727.363 896.211C641.797 879.796 569.152 836.798 565.245 800.255C561.339 763.713 627.639 747.372 713.205 763.787C798.771 780.203 871.416 823.201 875.323 859.743Z" stroke="#FEF5BD" stroke-width="1.24861"/>
<path d="M682.979 907.098C570.643 874.811 496.152 814.049 516.74 771.498C537.329 728.947 645.253 720.614 757.589 752.901C869.924 785.188 944.416 845.95 923.827 888.501C903.239 931.052 795.315 939.385 682.979 907.098Z" stroke="#7EDFDE" stroke-width="1.31213"/>
<path d="M789.907 948.678C652.417 935.72 509.588 872.02 471.163 806.523C432.738 741.025 513.171 698.367 650.661 711.325C788.151 724.283 930.981 787.982 969.406 853.48C1007.83 918.977 927.397 961.635 789.907 948.678Z" stroke="#FEF5BD" stroke-width="1.50643"/>
<path d="M358.17 755.248C356.028 671.371 516.551 636.766 716.401 678.022C916.252 719.278 1080.25 820.875 1082.4 904.752C1084.54 988.629 924.016 1023.23 724.166 981.979C524.316 940.723 360.313 839.125 358.17 755.248Z" stroke="#FEF5BD" stroke-width="1.73239"/>
<path d="M313.084 754.369C314.184 728.018 336.666 707.304 363.256 708.141C389.846 708.978 410.542 731.052 409.442 757.403C408.342 783.753 385.86 804.467 359.271 803.63C332.681 802.793 311.985 780.719 313.084 754.369Z" fill="#FEF5BD"/>
<path d="M247.653 682.536C310.827 586.973 573.905 575.463 834.75 656.848C1095.59 738.233 1256.09 881.901 1192.91 977.464C1129.74 1073.03 866.663 1084.54 605.818 1003.15C344.973 921.766 184.479 778.098 247.653 682.536Z" stroke="#FFD977" stroke-width="1.56158"/>
<path d="M218.079 693.395C212.139 677.829 220.523 660.312 236.79 654.302C253.056 648.291 271.087 656.05 277.027 671.615C282.968 687.18 274.583 704.698 258.317 710.708C242.05 716.718 224.02 708.96 218.079 693.395Z" fill="#FFD665"/>
<path d="M203.461 668.747C209.355 659.832 233.897 658.758 258.232 666.351C282.566 673.943 297.538 687.346 291.645 696.261C285.751 705.176 261.209 706.25 236.874 698.657C212.54 691.065 197.568 677.662 203.461 668.747Z" stroke="#FFEC78" stroke-width="2.428"/>
<path d="M197.161 666.783C203.897 656.594 231.946 655.367 259.758 664.044C287.569 672.721 304.681 688.039 297.945 698.228C291.21 708.417 263.16 709.644 235.349 700.967C207.538 692.289 190.426 676.972 197.161 666.783Z" stroke="#FAD47D" stroke-width="1.10997"/>
<path d="M189.817 664.49C197.534 652.816 229.672 651.41 261.536 661.352C293.401 671.294 313.007 688.845 305.29 700.519C297.573 712.193 265.435 713.599 233.57 703.657C201.705 693.715 182.099 676.164 189.817 664.49Z" stroke="#FFCD80" stroke-width="1.90763"/>
<path d="M851.339 1102.1C528.134 1064.13 206.991 911.368 134.661 761.195C62.3318 611.022 266.024 519.925 589.229 557.899C912.434 595.872 1233.58 748.633 1305.91 898.805C1378.24 1048.98 1174.54 1140.08 851.339 1102.1Z" stroke="#FEF5BD" stroke-width="1.71306"/>
<path d="M73.9936 839.477C-118.752 649.931 14.3564 491.787 371.044 486.556C727.731 481.326 1173.83 630.975 1366.57 820.522C1559.32 1010.07 1426.21 1168.21 1069.52 1173.44C712.836 1178.67 266.739 1029.02 73.9936 839.477Z" stroke="#FEF5BD" stroke-width="1.82727"/>
<path d="M46.9714 849.63C43.4255 834.344 52.2297 817.39 66.6193 811.795C81.0088 806.2 95.5709 814.068 99.1167 829.354C102.663 844.64 93.8584 861.593 79.4689 867.188C65.0794 872.783 50.5172 864.915 46.9714 849.63Z" fill="#FEF5BD"/>
<path d="M391.74 1077.85C-27.5606 913.726 -220.779 669.407 -39.4558 532.618C141.868 395.829 629.528 418.024 1048.83 582.149C1468.13 746.274 1661.35 990.593 1480.02 1127.38C1298.7 1264.17 811.04 1241.98 391.74 1077.85Z" stroke="#FEF5BD" stroke-width="1.41133"/>
<rect width="1440" height="835" transform="matrix(1 0 0 -1 0 1221)" fill="url(#paint1_linear_19_9873)"/>
</g>
<path d="M336.323 96.8511C334.61 96.8592 333.216 95.475 333.208 93.7595C333.199 92.0494 334.581 90.6575 336.294 90.6494C338.007 90.6413 339.404 92.02 339.412 93.7301C339.42 95.4456 338.036 96.8429 336.323 96.8511ZM586.374 627.883C586.366 626.171 584.968 624.789 583.258 624.797C581.543 624.805 580.161 626.2 580.169 627.913C580.177 629.626 581.572 631.01 583.288 631.002C584.998 630.994 586.382 629.596 586.374 627.883ZM918.521 485.605C918.513 483.892 917.116 482.511 915.406 482.519C913.693 482.527 912.309 483.922 912.317 485.635C912.325 487.347 913.722 488.731 915.435 488.723C917.145 488.715 918.529 487.318 918.521 485.605ZM1241.55 135.514C1241.55 133.801 1240.15 132.419 1238.44 132.427C1236.72 132.435 1235.34 133.83 1235.35 135.543C1235.36 137.256 1236.75 138.637 1238.47 138.629C1240.18 138.621 1241.56 137.226 1241.55 135.514ZM1265.91 135.398C1265.9 133.685 1264.51 132.304 1262.79 132.312C1261.08 132.32 1259.7 133.715 1259.7 135.428C1259.71 137.14 1261.11 138.522 1262.82 138.514C1264.53 138.506 1265.91 137.111 1265.91 135.398ZM1364.91 455.926C1365.45 457.55 1367.21 458.429 1368.84 457.888C1370.46 457.347 1371.34 455.593 1370.79 453.966C1370.25 452.34 1368.5 451.463 1366.87 452.004C1365.25 452.548 1364.37 454.3 1364.91 455.926ZM1168.17 880.789C1168.71 882.415 1170.46 883.294 1172.09 882.754C1173.71 882.21 1174.59 880.453 1174.05 878.826C1173.51 877.203 1171.75 876.329 1170.13 876.869C1168.5 877.41 1167.63 879.165 1168.17 880.789ZM574.292 9.1308C574.832 10.7571 576.59 11.6363 578.216 11.0929C579.84 10.5521 580.719 8.7973 580.176 7.17361C579.635 5.54727 577.877 4.66807 576.254 5.21151C574.627 5.75229 573.751 7.5071 574.292 9.1308ZM335.317 506.565C335.858 508.188 337.615 509.07 339.242 508.527C340.865 507.986 341.745 506.226 341.201 504.602C340.66 502.976 338.903 502.096 337.279 502.64C335.653 503.181 334.776 504.938 335.317 506.565ZM354.37 771.251C354.911 772.875 356.668 773.757 358.292 773.213C359.918 772.673 360.798 770.912 360.254 769.289C359.713 767.662 357.956 766.783 356.332 767.327C354.706 767.87 353.829 769.625 354.37 771.251ZM959.68 246.823C959.672 245.11 958.275 243.729 956.565 243.737C954.852 243.745 953.468 245.14 953.476 246.853C953.484 248.565 954.881 249.947 956.594 249.939C958.304 249.931 959.688 248.536 959.68 246.823ZM1242.04 684.228C1242.04 682.515 1240.64 681.134 1238.93 681.142C1237.22 681.15 1235.83 682.545 1235.84 684.258C1235.85 685.97 1237.25 687.355 1238.96 687.347C1240.67 687.338 1242.05 685.941 1242.04 684.228ZM1082.23 560.543C1082.22 558.83 1080.83 557.446 1079.12 557.454C1077.4 557.462 1076.02 558.859 1076.03 560.572C1076.04 562.285 1077.43 563.666 1079.15 563.658C1080.86 563.65 1082.24 562.255 1082.23 560.543ZM982.895 729.25C982.887 727.537 981.492 726.153 979.78 726.161C978.064 726.17 976.683 727.567 976.691 729.28C976.699 730.992 978.094 732.377 979.809 732.369C981.522 732.36 982.903 730.963 982.895 729.25ZM104.97 905.415C104.962 903.7 103.565 902.318 101.854 902.326C100.139 902.334 98.7575 903.729 98.7656 905.445C98.7737 907.155 100.168 908.536 101.884 908.528C103.594 908.52 104.978 907.125 104.97 905.415ZM178.135 561.721C178.127 560.008 176.732 558.627 175.017 558.635C173.304 558.643 171.922 560.038 171.93 561.751C171.939 563.466 173.333 564.848 175.046 564.84C176.762 564.831 178.143 563.437 178.135 561.721ZM487.576 307.152C487.568 305.439 486.173 304.055 484.46 304.063C482.748 304.071 481.366 305.468 481.374 307.181C481.382 308.894 482.777 310.275 484.49 310.267C486.203 310.259 487.584 308.864 487.576 307.152ZM152.786 -25.134C152.777 -26.8468 151.383 -28.2283 149.67 -28.2202C147.957 -28.2121 146.573 -26.8174 146.581 -25.1046C146.589 -23.3918 147.987 -22.0049 149.699 -22.013C151.412 -22.0212 152.794 -23.4212 152.786 -25.134ZM1142.93 -83.9927C1142.92 -85.7082 1141.53 -87.0897 1139.81 -87.0815C1138.1 -87.0734 1136.72 -85.6788 1136.72 -83.9633C1136.73 -82.2533 1138.13 -80.869 1139.84 -80.8771C1141.56 -80.8853 1142.94 -82.2826 1142.93 -83.9927ZM781.989 -25.008C781.981 -26.7235 780.584 -28.1076 778.871 -28.0995C777.158 -28.0914 775.777 -26.6941 775.785 -24.9786C775.793 -23.2658 777.187 -21.8843 778.9 -21.8924C780.613 -21.9006 781.997 -23.2952 781.989 -25.008ZM803.093 308.758C803.085 307.045 801.69 305.664 799.977 305.672C798.265 305.68 796.88 307.075 796.888 308.787C796.897 310.5 798.294 311.882 800.007 311.874C801.719 311.865 803.101 310.471 803.093 308.758ZM682.957 420.01C682.949 418.298 681.552 416.916 679.839 416.924C678.126 416.932 676.745 418.327 676.753 420.04C676.761 421.753 678.156 423.137 679.868 423.129C681.581 423.121 682.965 421.723 682.957 420.01ZM681.861 188.686C681.853 186.973 680.456 185.589 678.743 185.597C677.03 185.605 675.649 187.002 675.657 188.715C675.665 190.428 677.06 191.809 678.773 191.801C680.485 191.793 681.87 190.399 681.861 188.686ZM75.3622 373.52C75.3541 371.807 73.9594 370.423 72.2466 370.431C70.5339 370.439 69.1497 371.837 69.1578 373.549C69.1659 375.262 70.5633 376.644 72.276 376.635C73.9888 376.627 75.3703 375.233 75.3622 373.52ZM1350.23 880.327C1350.22 878.614 1348.82 877.23 1347.11 877.238C1345.39 877.246 1344.02 878.643 1344.02 880.356C1344.03 882.069 1345.42 883.45 1347.14 883.442C1348.85 883.434 1350.23 882.04 1350.23 880.327ZM1148.08 349.2C1148.07 347.485 1146.68 346.1 1144.97 346.109C1143.25 346.117 1141.87 347.514 1141.88 349.23C1141.89 350.94 1143.28 352.321 1145 352.313C1146.71 352.305 1148.09 350.91 1148.08 349.2ZM977.627 236.859C977.611 233.433 974.821 230.665 971.396 230.681C967.97 230.697 965.205 233.492 965.221 236.918C965.237 240.343 968.029 243.106 971.455 243.09C974.88 243.074 977.643 240.285 977.627 236.859ZM977.771 267.243C977.763 265.53 976.371 264.148 974.655 264.156C972.943 264.164 971.561 265.559 971.569 267.272C971.577 268.985 972.972 270.366 974.685 270.358C976.4 270.35 977.779 268.955 977.771 267.243ZM139.796 630.999C139.787 629.286 138.393 627.905 136.677 627.913C134.967 627.921 133.583 629.316 133.591 631.028C133.599 632.741 134.997 634.123 136.707 634.115C138.422 634.106 139.804 632.712 139.796 630.999ZM922.034 223.466C922.026 221.753 920.628 220.372 918.916 220.38C917.205 220.388 915.821 221.782 915.829 223.495C915.838 225.208 917.235 226.59 918.945 226.581C920.658 226.573 922.042 225.179 922.034 223.466ZM335.566 -63.0782C335.557 -64.791 334.16 -66.1725 332.45 -66.1644C330.735 -66.1563 329.353 -64.7616 329.361 -63.0488C329.369 -61.3361 330.764 -59.9546 332.479 -59.9627C334.19 -59.9708 335.574 -61.3655 335.566 -63.0782ZM483.141 680.127C483.133 678.415 481.738 677.033 480.023 677.041C478.312 677.049 476.928 678.444 476.936 680.157C476.944 681.87 478.342 683.251 480.052 683.243C481.767 683.235 483.149 681.84 483.141 680.127ZM251.588 229.742C251.58 228.03 250.185 226.648 248.472 226.656C246.76 226.664 245.378 228.059 245.386 229.772C245.394 231.487 246.789 232.866 248.502 232.858C250.215 232.85 251.596 231.458 251.588 229.742ZM561.854 160.231C561.846 158.518 560.451 157.137 558.736 157.145C557.026 157.153 555.642 158.548 555.65 160.261C555.658 161.973 557.055 163.355 558.765 163.347C560.481 163.339 561.862 161.944 561.854 160.231ZM893.989 15.247C893.981 13.5343 892.583 12.1528 890.871 12.1609C889.161 12.169 887.776 13.5636 887.784 15.2764C887.793 16.9892 889.19 18.3707 890.9 18.3626C892.613 18.3545 893.997 16.9598 893.989 15.247ZM904.966 47.6654C904.958 45.9526 903.56 44.5712 901.848 44.5793C900.138 44.5874 898.753 45.982 898.762 47.6948C898.77 49.4076 900.167 50.7891 901.877 50.781C903.59 50.7728 904.974 49.3782 904.966 47.6654ZM984.011 169.055C984.003 167.342 982.605 165.961 980.893 165.969C979.183 165.977 977.798 167.372 977.807 169.084C977.815 170.797 979.212 172.179 980.922 172.171C982.635 172.162 984.019 170.768 984.011 169.055ZM1128.17 328.018C1128.17 326.305 1126.77 324.924 1125.06 324.932C1123.35 324.94 1121.96 326.335 1121.97 328.048C1121.98 329.76 1123.38 331.142 1125.09 331.134C1126.8 331.126 1128.18 329.731 1128.17 328.018ZM1222.21 186.868C1222.2 185.155 1220.81 183.773 1219.09 183.782C1217.38 183.79 1216 185.184 1216.01 186.897C1216.02 188.61 1217.41 189.991 1219.12 189.983C1220.84 189.975 1222.22 188.581 1222.21 186.868ZM210.227 36.8829C210.219 35.1702 208.822 33.7887 207.112 33.7968C205.396 33.8049 204.015 35.1996 204.023 36.9123C204.031 38.6251 205.425 40.0066 207.141 39.9985C208.851 39.9904 210.235 38.5957 210.227 36.8829ZM116.756 250.564C116.748 248.854 115.35 247.47 113.638 247.478C111.925 247.486 110.543 248.883 110.551 250.594C110.56 252.309 111.954 253.691 113.667 253.682C115.38 253.674 116.764 252.28 116.756 250.564ZM190.883 88.2345C190.875 86.5217 189.48 85.1402 187.767 85.1483C186.052 85.1565 184.67 86.5511 184.678 88.2639C184.686 89.9767 186.081 91.3609 187.796 91.3527C189.509 91.3446 190.891 89.9473 190.883 88.2345ZM1221.17 -32.3025C1221.17 -34.0152 1219.77 -35.3967 1218.06 -35.3886C1216.35 -35.3805 1214.96 -33.9858 1214.97 -32.2731C1214.98 -30.5603 1216.37 -29.1788 1218.08 -29.1869C1219.8 -29.195 1221.18 -30.5897 1221.17 -32.3025ZM1282.75 400.342C1282.74 398.629 1281.35 397.247 1279.63 397.256C1277.92 397.264 1276.54 398.658 1276.55 400.371C1276.56 402.084 1277.95 403.465 1279.66 403.457C1281.38 403.449 1282.76 402.054 1282.75 400.342ZM1214.46 836.31C1214.46 834.597 1213.06 833.213 1211.35 833.221C1209.64 833.229 1208.25 834.626 1208.26 836.339C1208.27 838.052 1209.67 839.433 1211.38 839.425C1213.09 839.417 1214.47 838.022 1214.46 836.31ZM998.205 880.628C998.197 878.915 996.799 877.531 995.087 877.539C993.377 877.547 991.992 878.944 992.001 880.657C992.009 882.37 993.406 883.751 995.116 883.743C996.829 883.735 998.213 882.34 998.205 880.628ZM858.914 607.995C858.906 606.282 857.509 604.901 855.796 604.909C854.086 604.917 852.702 606.312 852.71 608.024C852.718 609.737 854.115 611.119 855.826 611.111C857.538 611.102 858.923 609.708 858.914 607.995ZM612.084 481.989C612.076 480.276 610.681 478.894 608.966 478.902C607.256 478.91 605.871 480.305 605.879 482.018C605.888 483.731 607.285 485.112 608.995 485.104C610.71 485.096 612.092 483.701 612.084 481.989ZM549.85 482.283C549.842 480.571 548.448 479.189 546.732 479.197C545.022 479.205 543.638 480.6 543.646 482.313C543.654 484.025 545.051 485.407 546.761 485.399C548.477 485.391 549.858 483.996 549.85 482.283ZM384.856 613.341C384.848 611.629 383.453 610.247 381.74 610.255C380.028 610.263 378.643 611.658 378.651 613.371C378.66 615.086 380.057 616.468 381.77 616.46C383.482 616.452 384.864 615.057 384.856 613.341ZM698.227 631.588C698.219 629.878 696.822 628.494 695.109 628.502C693.396 628.51 692.015 629.908 692.023 631.618C692.031 633.333 693.426 634.715 695.139 634.707C696.851 634.698 698.236 633.304 698.227 631.588ZM139.796 630.999C139.787 629.286 138.393 627.905 136.677 627.913C134.967 627.921 133.583 629.316 133.591 631.028C133.599 632.741 134.997 634.123 136.707 634.115C138.422 634.106 139.804 632.712 139.796 630.999ZM272.351 143.205C272.343 141.492 270.949 140.111 269.236 140.119C267.523 140.127 266.142 141.522 266.15 143.235C266.158 144.947 267.553 146.332 269.265 146.323C270.978 146.315 272.36 144.918 272.351 143.205Z" fill="#5B5B5B"/>
<g opacity="0.7">
<path d="M-52 28.5C-52 -14.8547 -16.8531 -50 26.5016 -50C69.8563 -50 105 -14.8547 105 28.5C105 71.8531 69.8563 107 26.5016 107C-16.8531 107 -52 71.8531 -52 28.5Z" fill="#EA7B3D"/>
<path d="M-47.8905 28.5001C-47.8905 -12.5836 -14.5853 -45.8888 26.4984 -45.8888C67.5838 -45.8888 100.887 -12.5836 100.887 28.5001C100.887 69.5839 67.5838 102.889 26.4984 102.889C-14.5853 102.889 -47.8905 69.5839 -47.8905 28.5001Z" fill="#EA7B3D"/>
<path d="M-41.1429 28.4998C-41.1429 -8.85758 -10.8571 -39.1449 26.5003 -39.1449C63.8576 -39.1449 94.1434 -8.85758 94.1434 28.4998C94.1434 65.8571 63.8576 96.1414 26.5003 96.1414C-10.8571 96.1414 -41.1429 65.8571 -41.1429 28.4998Z" fill="#EA7B3D"/>
<path d="M14.3054 -27.4566C10.0979 -29.7236 6.21232 -32.2845 2.16499 -34.508C9.717 -37.428 17.9174 -39.0451 26.4987 -39.0451C30.0594 -39.0451 33.5516 -38.7637 36.963 -38.2335C42.4315 -36.0846 47.872 -33.9047 52.8118 -30.5337C54.1583 -29.6164 55.3525 -28.6244 56.4518 -27.5841C57.6553 -25.5286 58.6737 -23.5368 59.0235 -21.7954C59.6859 -18.4804 62.4893 -16.4575 65.9583 -15.4344C67.154 -13.78 68.4196 -12.1303 69.8641 -10.5288C71.9803 -8.17934 74.1509 -5.86569 76.2982 -3.53338C76.4692 0.629012 76.337 4.69655 76.8066 6.10682C77.3415 7.70368 81.5008 7.73166 85.5994 7.34761C86.0768 7.97889 86.5588 8.61017 87.019 9.25544C89.0652 12.1195 91.5235 14.7737 93.2012 17.8617C93.75 21.3275 94.0439 24.8803 94.0439 28.5016C94.0439 44.1421 88.7138 58.5278 79.7889 69.9763C79.282 61.0762 79.0954 52.1388 78.5698 43.2683C78.262 38.0812 77.6633 33.0046 76.5578 27.9263C75.6405 23.7126 76.0152 19.5938 75.2237 15.4236C73.6378 7.05529 69.0976 -1.02227 62.578 -6.47365C58.4638 -9.91458 54.3838 -9.73888 49.7161 -11.5736C45.8071 -13.1083 42.1003 -15.2976 38.3189 -17.1199C30.4637 -20.9091 21.9958 -23.3145 14.3054 -27.4566ZM63.9789 32.1509C60.8707 23.9086 54.5828 17.2941 51.0517 9.36273C47.5921 1.59614 44.6037 -4.98097 37.204 -9.89126C29.7795 -14.8171 19.9683 -16.8275 11.3076 -18.37C2.04526 -20.0197 -7.53742 -22.1374 -16.9102 -23.2352C-21.6277 -19.2734 -25.7994 -14.6803 -29.2854 -9.58183C-29.2667 -9.56784 -29.2465 -9.55384 -29.2279 -9.5383C-22.559 -4.31237 -12.684 -3.04516 -4.7713 -0.495169C10.6282 4.46798 27.4643 7.31651 39.9608 18.4183C45.8569 23.6582 47.5704 32.7324 49.8482 39.9579C52.4837 48.3185 53.7059 57.0988 53.95 65.845C54.1708 73.7764 54.488 81.728 55.2654 89.619C58.7312 87.9864 62.0307 86.0599 65.1435 83.8846C67.0809 75.0949 68.1071 66.1684 68.1584 57.1331C68.2051 48.7507 66.9472 40.0264 63.9789 32.1509ZM36.0114 81.0563C34.9837 68.5303 33.7025 56.0804 30.8508 43.8296C27.937 31.3097 24.2815 21.4037 13.0833 13.948C8.15746 10.6688 2.05459 7.94624 -3.59736 6.10527C-10.7591 3.77451 -18.4526 4.48042 -25.7838 2.20409C-28.6401 1.31626 -31.5244 0.282267 -34.4274 -0.692636C-35.6682 1.89312 -36.7348 4.57683 -37.6428 7.33051C-37.1375 7.52642 -36.6322 7.70834 -36.1222 7.9198C-31.7576 9.7219 -27.3263 11.7494 -23.3396 14.2948C-20.0448 16.3985 -17.5181 19.2657 -14.354 21.5109C-8.67091 25.5458 -1.41122 27.4552 4.67299 30.9583C10.5955 34.3697 17.269 39.6516 21.1111 45.3331C25.5067 51.8309 27.3974 60.7186 28.4361 68.3934C28.8699 71.612 30.2475 76.5581 29.6023 79.7129C28.8917 83.1927 25.3528 85.6603 24.4074 89.1417C23.857 91.1754 23.6549 93.5233 23.6533 95.9738C24.5971 96.0126 25.5456 96.0453 26.4987 96.0453C32.3077 96.0453 37.9426 95.3098 43.3224 93.9307C42.5341 88.9955 40.3884 84.5812 36.0114 81.0563ZM9.3967 73.8106C8.68612 68.7728 7.85115 62.4943 4.914 58.1328C2.21941 54.1322 -2.70799 51.7345 -6.39148 48.7492C-13.3231 43.1345 -28.6215 36.8902 -40.325 38.344C-39.9565 40.8613 -39.4527 43.3336 -38.8152 45.753C-36.825 45.6208 -34.7928 45.9908 -33.4136 47.5317C-33.042 47.9484 -32.5942 48.3527 -32.1075 48.7492C-30.5184 48.8969 -28.8827 49.1814 -27.1692 49.6557C-23.3163 50.7192 -19.4648 52.2134 -16.2509 54.6282C-11.4526 58.2292 -13.1863 61.3141 -11.947 66.4778C-11.21 69.5456 -10.6207 72.6118 -10.0672 75.6796C-8.04586 77.3091 -6.15203 79.1314 -5.18489 81.1823C-4.23953 83.1865 -3.99386 85.9915 -4.06072 88.7296C0.244715 90.9189 4.80827 92.6774 9.58483 93.9089C11.0449 87.3909 10.2783 80.0752 9.3967 73.8106Z" fill="#AE2B01"/>
<path d="M59.0231 -21.7958C59.6855 -18.4824 62.4905 -16.458 65.9594 -15.4349C67.8657 -14.872 69.9679 -14.6077 72.0327 -14.6077C75.3337 -14.6077 76.0769 -8.99148 76.2993 -3.53543C76.4703 0.625402 76.3382 4.69606 76.8077 6.10477C77.3426 7.70318 81.5003 7.73117 85.599 7.34711C87.3125 7.1854 89.015 6.95528 90.4377 6.73449C84.2229 -11.5275 70.4265 -26.2817 52.7788 -33.7419C53.878 -31.7408 55.2541 -29.6324 56.4514 -27.5877C57.6548 -25.5307 58.6733 -23.5389 59.0231 -21.7958Z" fill="#EA7B3D"/>
</g>
</g>
<defs>
<linearGradient id="paint0_linear_19_9873" x1="718.397" y1="1.28203" x2="721.603" y2="1354.83" gradientUnits="userSpaceOnUse">
<stop stop-color="#08080B"/>
<stop offset="1" stop-color="#0D0E12" stop-opacity="0"/>
</linearGradient>
<linearGradient id="paint1_linear_19_9873" x1="720" y1="0" x2="720" y2="1062.21" gradientUnits="userSpaceOnUse">
<stop offset="0.121722" stop-color="#111112"/>
<stop offset="0.567708" stop-color="#111112" stop-opacity="0.8"/>
<stop offset="0.770833" stop-color="#111112" stop-opacity="0"/>
</linearGradient>
<clipPath id="clip0_19_9873">
<rect width="1440" height="820" fill="white"/>
</clipPath>
</defs>
</svg>
