<svg viewBox="0 0 1280 36" fill="none" xmlns="http://www.w3.org/2000/svg">
<g clip-path="url(#clip0_447_23328)">
<path d="M1.82 18C5.29 19.45 8.68 21.78 13.12 25.34C18 29.24 20.34 30.9 23.87 32.58C28.56 34.84 33.75 36 40 36V29.84C38.76 29.95 37.43 30 36 30C26.41 30 21.77 27.77 12.87 20.66C11.59 19.63 10.48 18.76 9.47 18H1.82ZM-21.82 18H-37.48C-38.48 18.76 -39.58 19.63 -40.88 20.66C-48.43 26.7 -52.92 29.22 -60 29.84V36C-53.75 36 -48.56 34.84 -43.86 32.58C-40.33 30.88 -37.99 29.23 -33.13 25.34C-28.68 21.78 -25.29 19.44 -21.82 18ZM1.82 36H9.48C7.20809 34.2096 4.74671 32.6738 2.14 31.42C-2.56 29.16 -7.75 28 -14 28C-20.25 28 -25.44 29.16 -30.14 31.42C-32.7467 32.6738 -35.2081 34.2096 -37.48 36H-21.82C-18.35 34.56 -14.79 34 -10 34C-5.2 34 -1.65 34.56 1.82 36Z" fill="white"/>
<path d="M101.82 18C105.29 19.45 108.68 21.78 113.12 25.34C118 29.24 120.34 30.9 123.87 32.58C128.56 34.84 133.75 36 140 36V29.84C138.76 29.95 137.43 30 136 30C126.41 30 121.77 27.77 112.87 20.66C111.59 19.63 110.48 18.76 109.47 18H101.82ZM78.18 18H62.52C61.52 18.76 60.42 19.63 59.12 20.66C51.57 26.7 47.08 29.22 40 29.84V36C46.25 36 51.44 34.84 56.14 32.58C59.67 30.88 62.01 29.23 66.87 25.34C71.32 21.78 74.71 19.44 78.18 18ZM101.82 36H109.48C107.208 34.2096 104.747 32.6738 102.14 31.42C97.44 29.16 92.25 28 86 28C79.75 28 74.56 29.16 69.86 31.42C67.2533 32.6738 64.7919 34.2096 62.52 36H78.18C81.65 34.56 85.21 34 90 34C94.8 34 98.35 34.56 101.82 36Z" fill="#F3E141"/>
<path d="M201.82 18C205.29 19.45 208.68 21.78 213.12 25.34C218 29.24 220.34 30.9 223.87 32.58C228.56 34.84 233.75 36 240 36V29.84C238.76 29.95 237.43 30 236 30C226.41 30 221.77 27.77 212.87 20.66C211.59 19.63 210.48 18.76 209.47 18H201.82ZM178.18 18H162.52C161.52 18.76 160.42 19.63 159.12 20.66C151.57 26.7 147.08 29.22 140 29.84V36C146.25 36 151.44 34.84 156.14 32.58C159.67 30.88 162.01 29.23 166.87 25.34C171.32 21.78 174.71 19.44 178.18 18ZM201.82 36H209.48C207.208 34.2096 204.747 32.6738 202.14 31.42C197.44 29.16 192.25 28 186 28C179.75 28 174.56 29.16 169.86 31.42C167.253 32.6738 164.792 34.2096 162.52 36H178.18C181.65 34.56 185.21 34 190 34C194.8 34 198.35 34.56 201.82 36Z" fill="white"/>
<path d="M301.82 18C305.29 19.45 308.68 21.78 313.12 25.34C318 29.24 320.34 30.9 323.87 32.58C328.56 34.84 333.75 36 340 36V29.84C338.76 29.95 337.43 30 336 30C326.41 30 321.77 27.77 312.87 20.66C311.59 19.63 310.48 18.76 309.47 18H301.82ZM278.18 18H262.52C261.52 18.76 260.42 19.63 259.12 20.66C251.57 26.7 247.08 29.22 240 29.84V36C246.25 36 251.44 34.84 256.14 32.58C259.67 30.88 262.01 29.23 266.87 25.34C271.32 21.78 274.71 19.44 278.18 18ZM301.82 36H309.48C307.208 34.2096 304.747 32.6738 302.14 31.42C297.44 29.16 292.25 28 286 28C279.75 28 274.56 29.16 269.86 31.42C267.253 32.6738 264.792 34.2096 262.52 36H278.18C281.65 34.56 285.21 34 290 34C294.8 34 298.35 34.56 301.82 36Z" fill="#0CCF99"/>
<path d="M401.82 18C405.29 19.45 408.68 21.78 413.12 25.34C418 29.24 420.34 30.9 423.87 32.58C428.56 34.84 433.75 36 440 36V29.84C438.76 29.95 437.43 30 436 30C426.41 30 421.77 27.77 412.87 20.66C411.59 19.63 410.48 18.76 409.47 18H401.82ZM378.18 18H362.52C361.52 18.76 360.42 19.63 359.12 20.66C351.57 26.7 347.08 29.22 340 29.84V36C346.25 36 351.44 34.84 356.14 32.58C359.67 30.88 362.01 29.23 366.87 25.34C371.32 21.78 374.71 19.44 378.18 18ZM401.82 36H409.48C407.208 34.2096 404.747 32.6738 402.14 31.42C397.44 29.16 392.25 28 386 28C379.75 28 374.56 29.16 369.86 31.42C367.253 32.6738 364.792 34.2096 362.52 36H378.18C381.65 34.56 385.21 34 390 34C394.8 34 398.35 34.56 401.82 36Z" fill="#F3E141"/>
<path d="M501.82 18C505.29 19.45 508.68 21.78 513.12 25.34C518 29.24 520.34 30.9 523.87 32.58C528.56 34.84 533.75 36 540 36V29.84C538.76 29.95 537.43 30 536 30C526.41 30 521.77 27.77 512.87 20.66C511.59 19.63 510.48 18.76 509.47 18H501.82ZM478.18 18H462.52C461.52 18.76 460.42 19.63 459.12 20.66C451.57 26.7 447.08 29.22 440 29.84V36C446.25 36 451.44 34.84 456.14 32.58C459.67 30.88 462.01 29.23 466.87 25.34C471.32 21.78 474.71 19.44 478.18 18ZM501.82 36H509.48C507.208 34.2096 504.747 32.6738 502.14 31.42C497.44 29.16 492.25 28 486 28C479.75 28 474.56 29.16 469.86 31.42C467.253 32.6738 464.792 34.2096 462.52 36H478.18C481.65 34.56 485.21 34 490 34C494.8 34 498.35 34.56 501.82 36Z" fill="white"/>
<path d="M601.82 18C605.29 19.45 608.68 21.78 613.12 25.34C618 29.24 620.34 30.9 623.87 32.58C628.56 34.84 633.75 36 640 36V29.84C638.76 29.95 637.43 30 636 30C626.41 30 621.77 27.77 612.87 20.66C611.59 19.63 610.48 18.76 609.47 18H601.82ZM578.18 18H562.52C561.52 18.76 560.42 19.63 559.12 20.66C551.57 26.7 547.08 29.22 540 29.84V36C546.25 36 551.44 34.84 556.14 32.58C559.67 30.88 562.01 29.23 566.87 25.34C571.32 21.78 574.71 19.44 578.18 18ZM601.82 36H609.48C607.208 34.2096 604.747 32.6738 602.14 31.42C597.44 29.16 592.25 28 586 28C579.75 28 574.56 29.16 569.86 31.42C567.253 32.6738 564.792 34.2096 562.52 36H578.18C581.65 34.56 585.21 34 590 34C594.8 34 598.35 34.56 601.82 36Z" fill="white"/>
<path d="M701.82 18C705.29 19.45 708.68 21.78 713.12 25.34C718 29.24 720.34 30.9 723.87 32.58C728.56 34.84 733.75 36 740 36V29.84C738.76 29.95 737.43 30 736 30C726.41 30 721.77 27.77 712.87 20.66C711.59 19.63 710.48 18.76 709.47 18H701.82ZM678.18 18H662.52C661.52 18.76 660.42 19.63 659.12 20.66C651.57 26.7 647.08 29.22 640 29.84V36C646.25 36 651.44 34.84 656.14 32.58C659.67 30.88 662.01 29.23 666.87 25.34C671.32 21.78 674.71 19.44 678.18 18ZM701.82 36H709.48C707.208 34.2096 704.747 32.6738 702.14 31.42C697.44 29.16 692.25 28 686 28C679.75 28 674.56 29.16 669.86 31.42C667.253 32.6738 664.792 34.2096 662.52 36H678.18C681.65 34.56 685.21 34 690 34C694.8 34 698.35 34.56 701.82 36Z" fill="white"/>
<path d="M801.82 18C805.29 19.45 808.68 21.78 813.12 25.34C818 29.24 820.34 30.9 823.87 32.58C828.56 34.84 833.75 36 840 36V29.84C838.76 29.95 837.43 30 836 30C826.41 30 821.77 27.77 812.87 20.66C811.59 19.63 810.48 18.76 809.47 18H801.82ZM778.18 18H762.52C761.52 18.76 760.42 19.63 759.12 20.66C751.57 26.7 747.08 29.22 740 29.84V36C746.25 36 751.44 34.84 756.14 32.58C759.67 30.88 762.01 29.23 766.87 25.34C771.32 21.78 774.71 19.44 778.18 18ZM801.82 36H809.48C807.208 34.2096 804.747 32.6738 802.14 31.42C797.44 29.16 792.25 28 786 28C779.75 28 774.56 29.16 769.86 31.42C767.253 32.6738 764.792 34.2096 762.52 36H778.18C781.65 34.56 785.21 34 790 34C794.8 34 798.35 34.56 801.82 36Z" fill="#0CCF99"/>
<path d="M901.82 18C905.29 19.45 908.68 21.78 913.12 25.34C918 29.24 920.34 30.9 923.87 32.58C928.56 34.84 933.75 36 940 36V29.84C938.76 29.95 937.43 30 936 30C926.41 30 921.77 27.77 912.87 20.66C911.59 19.63 910.48 18.76 909.47 18H901.82ZM878.18 18H862.52C861.52 18.76 860.42 19.63 859.12 20.66C851.57 26.7 847.08 29.22 840 29.84V36C846.25 36 851.44 34.84 856.14 32.58C859.67 30.88 862.01 29.23 866.87 25.34C871.32 21.78 874.71 19.44 878.18 18ZM901.82 36H909.48C907.208 34.2096 904.747 32.6738 902.14 31.42C897.44 29.16 892.25 28 886 28C879.75 28 874.56 29.16 869.86 31.42C867.253 32.6738 864.792 34.2096 862.52 36H878.18C881.65 34.56 885.21 34 890 34C894.8 34 898.35 34.56 901.82 36Z" fill="#0CCF99"/>
<path d="M1001.82 18C1005.29 19.45 1008.68 21.78 1013.12 25.34C1018 29.24 1020.34 30.9 1023.87 32.58C1028.56 34.84 1033.75 36 1040 36V29.84C1038.76 29.95 1037.43 30 1036 30C1026.41 30 1021.77 27.77 1012.87 20.66C1011.59 19.63 1010.48 18.76 1009.47 18H1001.82ZM978.18 18H962.52C961.52 18.76 960.42 19.63 959.12 20.66C951.57 26.7 947.08 29.22 940 29.84V36C946.25 36 951.44 34.84 956.14 32.58C959.67 30.88 962.01 29.23 966.87 25.34C971.32 21.78 974.71 19.44 978.18 18ZM1001.82 36H1009.48C1007.21 34.2096 1004.75 32.6738 1002.14 31.42C997.44 29.16 992.25 28 986 28C979.75 28 974.56 29.16 969.86 31.42C967.253 32.6738 964.792 34.2096 962.52 36H978.18C981.65 34.56 985.21 34 990 34C994.8 34 998.35 34.56 1001.82 36Z" fill="#EEABFF"/>
<path d="M1101.82 18C1105.29 19.45 1108.68 21.78 1113.12 25.34C1118 29.24 1120.34 30.9 1123.87 32.58C1128.56 34.84 1133.75 36 1140 36V29.84C1138.76 29.95 1137.43 30 1136 30C1126.41 30 1121.77 27.77 1112.87 20.66C1111.59 19.63 1110.48 18.76 1109.47 18H1101.82ZM1078.18 18H1062.52C1061.52 18.76 1060.42 19.63 1059.12 20.66C1051.57 26.7 1047.08 29.22 1040 29.84V36C1046.25 36 1051.44 34.84 1056.14 32.58C1059.67 30.88 1062.01 29.23 1066.87 25.34C1071.32 21.78 1074.71 19.44 1078.18 18ZM1101.82 36H1109.48C1107.21 34.2096 1104.75 32.6738 1102.14 31.42C1097.44 29.16 1092.25 28 1086 28C1079.75 28 1074.56 29.16 1069.86 31.42C1067.25 32.6738 1064.79 34.2096 1062.52 36H1078.18C1081.65 34.56 1085.21 34 1090 34C1094.8 34 1098.35 34.56 1101.82 36Z" fill="#EEABFF"/>
<path d="M1201.82 18C1205.29 19.45 1208.68 21.78 1213.12 25.34C1218 29.24 1220.34 30.9 1223.87 32.58C1228.56 34.84 1233.75 36 1240 36V29.84C1238.76 29.95 1237.43 30 1236 30C1226.41 30 1221.77 27.77 1212.87 20.66C1211.59 19.63 1210.48 18.76 1209.47 18H1201.82ZM1178.18 18H1162.52C1161.52 18.76 1160.42 19.63 1159.12 20.66C1151.57 26.7 1147.08 29.22 1140 29.84V36C1146.25 36 1151.44 34.84 1156.14 32.58C1159.67 30.88 1162.01 29.23 1166.87 25.34C1171.32 21.78 1174.71 19.44 1178.18 18ZM1201.82 36H1209.48C1207.21 34.2096 1204.75 32.6738 1202.14 31.42C1197.44 29.16 1192.25 28 1186 28C1179.75 28 1174.56 29.16 1169.86 31.42C1167.25 32.6738 1164.79 34.2096 1162.52 36H1178.18C1181.65 34.56 1185.21 34 1190 34C1194.8 34 1198.35 34.56 1201.82 36Z" fill="white"/>
<path d="M1301.82 18C1305.29 19.45 1308.68 21.78 1313.12 25.34C1318 29.24 1320.34 30.9 1323.87 32.58C1328.56 34.84 1333.75 36 1340 36V29.84C1338.76 29.95 1337.43 30 1336 30C1326.41 30 1321.77 27.77 1312.87 20.66C1311.59 19.63 1310.48 18.76 1309.47 18H1301.82ZM1278.18 18H1262.52C1261.52 18.76 1260.42 19.63 1259.12 20.66C1251.57 26.7 1247.08 29.22 1240 29.84V36C1246.25 36 1251.44 34.84 1256.14 32.58C1259.67 30.88 1262.01 29.23 1266.87 25.34C1271.32 21.78 1274.71 19.44 1278.18 18ZM1301.82 36H1309.48C1307.21 34.2096 1304.75 32.6738 1302.14 31.42C1297.44 29.16 1292.25 28 1286 28C1279.75 28 1274.56 29.16 1269.86 31.42C1267.25 32.6738 1264.79 34.2096 1262.52 36H1278.18C1281.65 34.56 1285.21 34 1290 34C1294.8 34 1298.35 34.56 1301.82 36Z" fill="white"/>
</g>
<g clip-path="url(#clip1_447_23328)">
<path d="M1.82 0C5.29 1.45 8.68 3.78 13.12 7.34C18 11.24 20.34 12.9 23.87 14.58C28.56 16.84 33.75 18 40 18V11.84C38.76 11.95 37.43 12 36 12C26.41 12 21.77 9.77 12.87 2.66C11.59 1.63 10.48 0.76 9.47 0H1.82ZM-21.82 0H-37.48C-38.48 0.76 -39.58 1.63 -40.88 2.66C-48.43 8.7 -52.92 11.22 -60 11.84V18C-53.75 18 -48.56 16.84 -43.86 14.58C-40.33 12.88 -37.99 11.23 -33.13 7.34C-28.68 3.78 -25.29 1.44 -21.82 0ZM1.82 18H9.48C7.20809 16.2096 4.74671 14.6738 2.14 13.42C-2.56 11.16 -7.75 10 -14 10C-20.25 10 -25.44 11.16 -30.14 13.42C-32.7467 14.6738 -35.2081 16.2096 -37.48 18L-21.82 18C-18.35 16.56 -14.79 16 -10 16C-5.2 16 -1.65 16.56 1.82 18Z" fill="#F3E141"/>
<path d="M101.82 0C105.29 1.45 108.68 3.78 113.12 7.34C118 11.24 120.34 12.9 123.87 14.58C128.56 16.84 133.75 18 140 18V11.84C138.76 11.95 137.43 12 136 12C126.41 12 121.77 9.77 112.87 2.66C111.59 1.63 110.48 0.76 109.47 0H101.82ZM78.18 0H62.52C61.52 0.76 60.42 1.63 59.12 2.66C51.57 8.7 47.08 11.22 40 11.84V18C46.25 18 51.44 16.84 56.14 14.58C59.67 12.88 62.01 11.23 66.87 7.34C71.32 3.78 74.71 1.44 78.18 0ZM101.82 18H109.48C107.208 16.2096 104.747 14.6738 102.14 13.42C97.44 11.16 92.25 10 86 10C79.75 10 74.56 11.16 69.86 13.42C67.2533 14.6738 64.7919 16.2096 62.52 18L78.18 18C81.65 16.56 85.21 16 90 16C94.8 16 98.35 16.56 101.82 18Z" fill="#0CCF99"/>
<path d="M201.82 0C205.29 1.45 208.68 3.78 213.12 7.34C218 11.24 220.34 12.9 223.87 14.58C228.56 16.84 233.75 18 240 18V11.84C238.76 11.95 237.43 12 236 12C226.41 12 221.77 9.77 212.87 2.66C211.59 1.63 210.48 0.76 209.47 0H201.82ZM178.18 0H162.52C161.52 0.76 160.42 1.63 159.12 2.66C151.57 8.7 147.08 11.22 140 11.84V18C146.25 18 151.44 16.84 156.14 14.58C159.67 12.88 162.01 11.23 166.87 7.34C171.32 3.78 174.71 1.44 178.18 0ZM201.82 18H209.48C207.208 16.2096 204.747 14.6738 202.14 13.42C197.44 11.16 192.25 10 186 10C179.75 10 174.56 11.16 169.86 13.42C167.253 14.6738 164.792 16.2096 162.52 18L178.18 18C181.65 16.56 185.21 16 190 16C194.8 16 198.35 16.56 201.82 18Z" fill="white"/>
<path d="M301.82 0C305.29 1.45 308.68 3.78 313.12 7.34C318 11.24 320.34 12.9 323.87 14.58C328.56 16.84 333.75 18 340 18V11.84C338.76 11.95 337.43 12 336 12C326.41 12 321.77 9.77 312.87 2.66C311.59 1.63 310.48 0.76 309.47 0H301.82ZM278.18 0H262.52C261.52 0.76 260.42 1.63 259.12 2.66C251.57 8.7 247.08 11.22 240 11.84V18C246.25 18 251.44 16.84 256.14 14.58C259.67 12.88 262.01 11.23 266.87 7.34C271.32 3.78 274.71 1.44 278.18 0ZM301.82 18H309.48C307.208 16.2096 304.747 14.6738 302.14 13.42C297.44 11.16 292.25 10 286 10C279.75 10 274.56 11.16 269.86 13.42C267.253 14.6738 264.792 16.2096 262.52 18L278.18 18C281.65 16.56 285.21 16 290 16C294.8 16 298.35 16.56 301.82 18Z" fill="#EEABFF"/>
<path d="M401.82 0C405.29 1.45 408.68 3.78 413.12 7.34C418 11.24 420.34 12.9 423.87 14.58C428.56 16.84 433.75 18 440 18V11.84C438.76 11.95 437.43 12 436 12C426.41 12 421.77 9.77 412.87 2.66C411.59 1.63 410.48 0.76 409.47 0H401.82ZM378.18 0H362.52C361.52 0.76 360.42 1.63 359.12 2.66C351.57 8.7 347.08 11.22 340 11.84V18C346.25 18 351.44 16.84 356.14 14.58C359.67 12.88 362.01 11.23 366.87 7.34C371.32 3.78 374.71 1.44 378.18 0ZM401.82 18H409.48C407.208 16.2096 404.747 14.6738 402.14 13.42C397.44 11.16 392.25 10 386 10C379.75 10 374.56 11.16 369.86 13.42C367.253 14.6738 364.792 16.2096 362.52 18L378.18 18C381.65 16.56 385.21 16 390 16C394.8 16 398.35 16.56 401.82 18Z" fill="#0CCF99"/>
<path d="M501.82 0C505.29 1.45 508.68 3.78 513.12 7.34C518 11.24 520.34 12.9 523.87 14.58C528.56 16.84 533.75 18 540 18V11.84C538.76 11.95 537.43 12 536 12C526.41 12 521.77 9.77 512.87 2.66C511.59 1.63 510.48 0.76 509.47 0H501.82ZM478.18 0H462.52C461.52 0.76 460.42 1.63 459.12 2.66C451.57 8.7 447.08 11.22 440 11.84V18C446.25 18 451.44 16.84 456.14 14.58C459.67 12.88 462.01 11.23 466.87 7.34C471.32 3.78 474.71 1.44 478.18 0ZM501.82 18H509.48C507.208 16.2096 504.747 14.6738 502.14 13.42C497.44 11.16 492.25 10 486 10C479.75 10 474.56 11.16 469.86 13.42C467.253 14.6738 464.792 16.2096 462.52 18L478.18 18C481.65 16.56 485.21 16 490 16C494.8 16 498.35 16.56 501.82 18Z" fill="#EEABFF"/>
<path d="M601.82 0C605.29 1.45 608.68 3.78 613.12 7.34C618 11.24 620.34 12.9 623.87 14.58C628.56 16.84 633.75 18 640 18V11.84C638.76 11.95 637.43 12 636 12C626.41 12 621.77 9.77 612.87 2.66C611.59 1.63 610.48 0.76 609.47 0H601.82ZM578.18 0H562.52C561.52 0.76 560.42 1.63 559.12 2.66C551.57 8.7 547.08 11.22 540 11.84V18C546.25 18 551.44 16.84 556.14 14.58C559.67 12.88 562.01 11.23 566.87 7.34C571.32 3.78 574.71 1.44 578.18 0ZM601.82 18H609.48C607.208 16.2096 604.747 14.6738 602.14 13.42C597.44 11.16 592.25 10 586 10C579.75 10 574.56 11.16 569.86 13.42C567.253 14.6738 564.792 16.2096 562.52 18L578.18 18C581.65 16.56 585.21 16 590 16C594.8 16 598.35 16.56 601.82 18Z" fill="#EEABFF"/>
<path d="M701.82 0C705.29 1.45 708.68 3.78 713.12 7.34C718 11.24 720.34 12.9 723.87 14.58C728.56 16.84 733.75 18 740 18V11.84C738.76 11.95 737.43 12 736 12C726.41 12 721.77 9.77 712.87 2.66C711.59 1.63 710.48 0.76 709.47 0H701.82ZM678.18 0H662.52C661.52 0.76 660.42 1.63 659.12 2.66C651.57 8.7 647.08 11.22 640 11.84V18C646.25 18 651.44 16.84 656.14 14.58C659.67 12.88 662.01 11.23 666.87 7.34C671.32 3.78 674.71 1.44 678.18 0ZM701.82 18H709.48C707.208 16.2096 704.747 14.6738 702.14 13.42C697.44 11.16 692.25 10 686 10C679.75 10 674.56 11.16 669.86 13.42C667.253 14.6738 664.792 16.2096 662.52 18L678.18 18C681.65 16.56 685.21 16 690 16C694.8 16 698.35 16.56 701.82 18Z" fill="#F3E141"/>
<path d="M801.82 0C805.29 1.45 808.68 3.78 813.12 7.34C818 11.24 820.34 12.9 823.87 14.58C828.56 16.84 833.75 18 840 18V11.84C838.76 11.95 837.43 12 836 12C826.41 12 821.77 9.77 812.87 2.66C811.59 1.63 810.48 0.76 809.47 0H801.82ZM778.18 0H762.52C761.52 0.76 760.42 1.63 759.12 2.66C751.57 8.7 747.08 11.22 740 11.84V18C746.25 18 751.44 16.84 756.14 14.58C759.67 12.88 762.01 11.23 766.87 7.34C771.32 3.78 774.71 1.44 778.18 0ZM801.82 18H809.48C807.208 16.2096 804.747 14.6738 802.14 13.42C797.44 11.16 792.25 10 786 10C779.75 10 774.56 11.16 769.86 13.42C767.253 14.6738 764.792 16.2096 762.52 18L778.18 18C781.65 16.56 785.21 16 790 16C794.8 16 798.35 16.56 801.82 18Z" fill="white"/>
<path d="M901.82 0C905.29 1.45 908.68 3.78 913.12 7.34C918 11.24 920.34 12.9 923.87 14.58C928.56 16.84 933.75 18 940 18V11.84C938.76 11.95 937.43 12 936 12C926.41 12 921.77 9.77 912.87 2.66C911.59 1.63 910.48 0.76 909.47 0H901.82ZM878.18 0H862.52C861.52 0.76 860.42 1.63 859.12 2.66C851.57 8.7 847.08 11.22 840 11.84V18C846.25 18 851.44 16.84 856.14 14.58C859.67 12.88 862.01 11.23 866.87 7.34C871.32 3.78 874.71 1.44 878.18 0ZM901.82 18H909.48C907.208 16.2096 904.747 14.6738 902.14 13.42C897.44 11.16 892.25 10 886 10C879.75 10 874.56 11.16 869.86 13.42C867.253 14.6738 864.792 16.2096 862.52 18L878.18 18C881.65 16.56 885.21 16 890 16C894.8 16 898.35 16.56 901.82 18Z" fill="white"/>
<path d="M1001.82 0C1005.29 1.45 1008.68 3.78 1013.12 7.34C1018 11.24 1020.34 12.9 1023.87 14.58C1028.56 16.84 1033.75 18 1040 18V11.84C1038.76 11.95 1037.43 12 1036 12C1026.41 12 1021.77 9.77 1012.87 2.66C1011.59 1.63 1010.48 0.76 1009.47 0H1001.82ZM978.18 0H962.52C961.52 0.76 960.42 1.63 959.12 2.66C951.57 8.7 947.08 11.22 940 11.84V18C946.25 18 951.44 16.84 956.14 14.58C959.67 12.88 962.01 11.23 966.87 7.34C971.32 3.78 974.71 1.44 978.18 0ZM1001.82 18H1009.48C1007.21 16.2096 1004.75 14.6738 1002.14 13.42C997.44 11.16 992.25 10 986 10C979.75 10 974.56 11.16 969.86 13.42C967.253 14.6738 964.792 16.2096 962.52 18L978.18 18C981.65 16.56 985.21 16 990 16C994.8 16 998.35 16.56 1001.82 18Z" fill="white"/>
<path d="M1101.82 0C1105.29 1.45 1108.68 3.78 1113.12 7.34C1118 11.24 1120.34 12.9 1123.87 14.58C1128.56 16.84 1133.75 18 1140 18V11.84C1138.76 11.95 1137.43 12 1136 12C1126.41 12 1121.77 9.77 1112.87 2.66C1111.59 1.63 1110.48 0.76 1109.47 0H1101.82ZM1078.18 0H1062.52C1061.52 0.76 1060.42 1.63 1059.12 2.66C1051.57 8.7 1047.08 11.22 1040 11.84V18C1046.25 18 1051.44 16.84 1056.14 14.58C1059.67 12.88 1062.01 11.23 1066.87 7.34C1071.32 3.78 1074.71 1.44 1078.18 0ZM1101.82 18H1109.48C1107.21 16.2096 1104.75 14.6738 1102.14 13.42C1097.44 11.16 1092.25 10 1086 10C1079.75 10 1074.56 11.16 1069.86 13.42C1067.25 14.6738 1064.79 16.2096 1062.52 18L1078.18 18C1081.65 16.56 1085.21 16 1090 16C1094.8 16 1098.35 16.56 1101.82 18Z" fill="white"/>
<path d="M1201.82 0C1205.29 1.45 1208.68 3.78 1213.12 7.34C1218 11.24 1220.34 12.9 1223.87 14.58C1228.56 16.84 1233.75 18 1240 18V11.84C1238.76 11.95 1237.43 12 1236 12C1226.41 12 1221.77 9.77 1212.87 2.66C1211.59 1.63 1210.48 0.76 1209.47 0H1201.82ZM1178.18 0H1162.52C1161.52 0.76 1160.42 1.63 1159.12 2.66C1151.57 8.7 1147.08 11.22 1140 11.84V18C1146.25 18 1151.44 16.84 1156.14 14.58C1159.67 12.88 1162.01 11.23 1166.87 7.34C1171.32 3.78 1174.71 1.44 1178.18 0ZM1201.82 18H1209.48C1207.21 16.2096 1204.75 14.6738 1202.14 13.42C1197.44 11.16 1192.25 10 1186 10C1179.75 10 1174.56 11.16 1169.86 13.42C1167.25 14.6738 1164.79 16.2096 1162.52 18L1178.18 18C1181.65 16.56 1185.21 16 1190 16C1194.8 16 1198.35 16.56 1201.82 18Z" fill="#F3E141"/>
<path d="M1301.82 0C1305.29 1.45 1308.68 3.78 1313.12 7.34C1318 11.24 1320.34 12.9 1323.87 14.58C1328.56 16.84 1333.75 18 1340 18V11.84C1338.76 11.95 1337.43 12 1336 12C1326.41 12 1321.77 9.77 1312.87 2.66C1311.59 1.63 1310.48 0.76 1309.47 0H1301.82ZM1278.18 0H1262.52C1261.52 0.76 1260.42 1.63 1259.12 2.66C1251.57 8.7 1247.08 11.22 1240 11.84V18C1246.25 18 1251.44 16.84 1256.14 14.58C1259.67 12.88 1262.01 11.23 1266.87 7.34C1271.32 3.78 1274.71 1.44 1278.18 0ZM1301.82 18H1309.48C1307.21 16.2096 1304.75 14.6738 1302.14 13.42C1297.44 11.16 1292.25 10 1286 10C1279.75 10 1274.56 11.16 1269.86 13.42C1267.25 14.6738 1264.79 16.2096 1262.52 18L1278.18 18C1281.65 16.56 1285.21 16 1290 16C1294.8 16 1298.35 16.56 1301.82 18Z" fill="#F3E141"/>
</g>
<defs>
<clipPath id="clip0_447_23328">
<rect width="1400" height="18" fill="white" transform="matrix(1 0 0 -1 -60 36)"/>
</clipPath>
<clipPath id="clip1_447_23328">
<rect width="1400" height="18" fill="white" transform="matrix(1 0 0 -1 -60 18)"/>
</clipPath>
</defs>
</svg>
