<svg width="1440" height="6469" viewBox="0 0 1440 6469" fill="none" xmlns="http://www.w3.org/2000/svg">
<g clip-path="url(#clip0_102_756)">
<rect width="1440" height="6469" fill="#111112"/>
<path d="M1292.97 549.051C1157.66 549.371 1427.84 0.0142044 1427.84 0.0142044L1089.74 0.813975C999.847 1.0266 990.533 97.2861 855.214 113.664C804.468 119.808 626.13 150.356 709.647 1.71305L451.171 2.32446C391.693 208.784 545.221 306.4 527.805 405.374C510.389 504.347 443.407 789.659 311.033 789.972C178.66 790.285 202.966 1116.12 335.395 1139.08C467.824 1162.05 518.035 1248.95 518.236 1333.47L703.803 1333.03C703.803 1333.03 706.001 1120.75 641.282 1120.9C576.567 1121.06 452.866 1057.33 505.472 911.722C523.174 862.722 609.712 719.43 585.499 581.997C561.285 444.564 613.213 319.463 666.989 276.242C720.765 233.017 913.713 165.31 889.253 247.392C867.596 320.069 729.661 453.614 815.048 546.46C900.432 639.306 756.959 1002.05 890.977 974.825C1093.85 933.608 1138.03 956.781 1191.2 1049.77C1244.37 1142.75 1247.51 1331.74 1247.51 1331.74L1431 1331.31C1431 1331.31 1428.29 548.731 1292.97 549.051ZM1046.33 741.677C963.882 706.956 934.522 730.303 922.605 666.859C910.688 603.419 952.645 540.832 995.718 485.739C1045.36 422.236 1018.68 247.086 1039.08 165.566C1059.48 84.0425 1248.16 335.733 1137.03 531.96C1025.89 728.19 1178.43 624.973 1193.51 782.067C1208.59 939.157 1128.78 776.399 1046.33 741.677ZM335.939 1339.63L112.06 1340.16C111.659 1171.39 1.95679 1250.35 1.95679 1250.35L0.197165 508.271C98.3804 400.205 91.569 8.90727 91.569 8.90727L332.782 8.33669C332.782 8.33669 186.765 155.082 356.883 301.551C527.002 448.024 337.745 637.594 234.208 615.482C37.983 573.573 27.9193 733.829 114.176 909.801C200.433 1085.77 108.054 1162.81 182.554 1162.63C335.519 1162.27 335.939 1339.63 335.939 1339.63ZM1193.72 1337.6L1162.41 1337.67C1162.41 1337.67 1162.72 1308.96 1077.02 1247.81C986.572 1183.28 838.843 1289.11 787.296 1312.51C735.754 1335.91 757.973 1134.99 806.057 1108.78C1020.52 991.887 1059.08 1125.64 1123.82 1137.13C1188.56 1148.62 1193.72 1337.6 1193.72 1337.6ZM764.379 869.368C727.875 923.807 767.144 955.528 804.501 1063.6C841.858 1171.66 762.631 1145.95 742.66 1162.2C722.69 1178.46 615.243 1174.36 614.476 1132.4C613.709 1090.44 597.925 1021.36 585.478 964.195C573.031 907.037 620.543 796.068 658.351 769.548C739.959 712.302 800.889 814.929 764.379 869.368ZM1102.22 305.775C1133.61 365.769 1119.43 450.163 1104.15 504.841C1088.87 559.519 1089.21 553.744 1071.61 599.937C1054.01 646.134 1001.13 635.676 1003.48 593.542C1005.82 551.409 1058.89 499.388 1071.26 450.481C1085.43 394.378 1070.84 245.779 1102.22 305.775ZM1426.39 596.604C1426.39 596.604 1411.74 586.593 1398.13 529.944C1384.53 473.292 1362.42 445.004 1369.69 380.98C1376.95 316.956 1414.75 269.164 1425.57 254.67L1426.39 596.604Z" fill="url(#paint0_linear_102_756)"/>
<path d="M330.552 302.493C328.865 302.501 327.492 301.133 327.484 299.439C327.476 297.75 328.837 296.375 330.523 296.367C332.21 296.359 333.586 297.72 333.594 299.41C333.602 301.104 332.239 302.485 330.552 302.493ZM576.82 827.043C576.812 825.351 575.435 823.986 573.751 823.994C572.062 824.002 570.701 825.38 570.709 827.072C570.717 828.763 572.091 830.131 573.78 830.123C575.464 830.115 576.827 828.734 576.82 827.043ZM903.941 686.501C903.933 684.809 902.557 683.445 900.873 683.453C899.186 683.461 897.823 684.838 897.831 686.53C897.839 688.222 899.215 689.589 900.902 689.581C902.586 689.573 903.949 688.193 903.941 686.501ZM1222.09 340.683C1222.08 338.991 1220.71 337.627 1219.02 337.635C1217.33 337.643 1215.97 339.02 1215.98 340.712C1215.99 342.404 1217.36 343.769 1219.05 343.761C1220.74 343.753 1222.09 342.375 1222.09 340.683ZM1246.07 340.569C1246.06 338.877 1244.69 337.513 1243 337.521C1241.31 337.529 1239.95 338.906 1239.96 340.598C1239.97 342.29 1241.34 343.655 1243.03 343.647C1244.72 343.639 1246.08 342.261 1246.07 340.569ZM1343.58 657.184C1344.11 658.788 1345.84 659.657 1347.44 659.122C1349.04 658.588 1349.91 656.855 1349.37 655.248C1348.84 653.642 1347.11 652.776 1345.51 653.31C1343.91 653.847 1343.04 655.578 1343.58 657.184ZM1149.81 1076.86C1150.34 1078.47 1152.07 1079.34 1153.67 1078.8C1155.27 1078.26 1156.14 1076.53 1155.61 1074.92C1155.07 1073.32 1153.34 1072.45 1151.74 1072.99C1150.14 1073.52 1149.28 1075.26 1149.81 1076.86ZM564.92 215.843C565.453 217.45 567.184 218.318 568.786 217.781C570.385 217.247 571.251 215.514 570.715 213.91C570.183 212.303 568.452 211.435 566.853 211.972C565.251 212.506 564.388 214.239 564.92 215.843ZM329.562 707.205C330.094 708.808 331.825 709.68 333.427 709.143C335.026 708.609 335.892 706.87 335.357 705.266C334.824 703.659 333.093 702.791 331.494 703.328C329.892 703.862 329.029 705.598 329.562 707.205ZM348.326 968.66C348.859 970.264 350.59 971.135 352.189 970.599C353.791 970.064 354.656 968.326 354.121 966.722C353.589 965.115 351.858 964.247 350.259 964.784C348.657 965.321 347.794 967.054 348.326 968.66ZM944.478 450.634C944.47 448.942 943.093 447.577 941.409 447.585C939.722 447.593 938.359 448.971 938.367 450.663C938.375 452.355 939.751 453.719 941.438 453.711C943.122 453.703 944.486 452.326 944.478 450.634ZM1222.57 882.7C1222.56 881.008 1221.19 879.643 1219.5 879.651C1217.81 879.659 1216.45 881.037 1216.46 882.729C1216.47 884.42 1217.84 885.788 1219.53 885.78C1221.22 885.772 1222.58 884.391 1222.57 882.7ZM1065.18 760.524C1065.17 758.832 1063.79 757.464 1062.11 757.472C1060.42 757.481 1059.06 758.861 1059.06 760.553C1059.07 762.245 1060.45 763.609 1062.14 763.601C1063.82 763.593 1065.18 762.216 1065.18 760.524ZM967.341 927.172C967.333 925.48 965.96 924.113 964.273 924.121C962.583 924.129 961.223 925.509 961.231 927.201C961.239 928.893 962.612 930.26 964.302 930.252C965.989 930.244 967.349 928.864 967.341 927.172ZM102.7 1101.19C102.692 1099.49 101.316 1098.13 99.6313 1098.14C97.9418 1098.14 96.5812 1099.52 96.5892 1101.22C96.5972 1102.9 97.9707 1104.27 99.6602 1104.26C101.344 1104.25 102.708 1102.88 102.7 1101.19ZM174.758 761.688C174.75 759.996 173.376 758.632 171.686 758.64C170 758.648 168.639 760.025 168.647 761.717C168.655 763.412 170.029 764.776 171.715 764.768C173.405 764.76 174.766 763.383 174.758 761.688ZM479.517 510.226C479.509 508.534 478.135 507.167 476.448 507.175C474.761 507.183 473.401 508.563 473.409 510.255C473.417 511.947 474.79 513.311 476.477 513.303C478.164 513.295 479.525 511.918 479.517 510.226ZM149.792 181.997C149.784 180.305 148.41 178.94 146.723 178.948C145.036 178.956 143.673 180.334 143.681 182.026C143.689 183.717 145.065 185.087 146.752 185.079C148.439 185.071 149.8 183.688 149.792 181.997ZM1124.95 123.856C1124.95 122.162 1123.57 120.797 1121.88 120.805C1120.2 120.813 1118.84 122.191 1118.84 123.885C1118.85 125.575 1120.22 126.942 1121.91 126.934C1123.6 126.926 1124.96 125.546 1124.95 123.856ZM769.475 182.121C769.467 180.426 768.091 179.059 766.404 179.067C764.717 179.075 763.357 180.456 763.365 182.15C763.373 183.842 764.746 185.207 766.433 185.199C768.12 185.191 769.483 183.813 769.475 182.121ZM790.26 511.813C790.252 510.121 788.878 508.756 787.191 508.764C785.504 508.772 784.141 510.15 784.149 511.842C784.157 513.534 785.533 514.898 787.22 514.89C788.907 514.882 790.268 513.505 790.26 511.813ZM671.942 621.707C671.934 620.015 670.557 618.651 668.871 618.659C667.184 618.667 665.823 620.044 665.831 621.736C665.839 623.428 667.213 624.795 668.899 624.787C670.586 624.779 671.95 623.399 671.942 621.707ZM670.862 393.206C670.854 391.514 669.478 390.147 667.791 390.155C666.105 390.163 664.744 391.543 664.752 393.235C664.76 394.927 666.133 396.292 667.82 396.284C669.507 396.276 670.87 394.898 670.862 393.206ZM73.5399 575.784C73.5319 574.092 72.1583 572.725 70.4715 572.733C68.7846 572.741 67.4213 574.121 67.4293 575.813C67.4373 577.505 68.8136 578.87 70.5004 578.862C72.1873 578.854 73.5479 577.476 73.5399 575.784ZM1329.11 1076.4C1329.11 1074.71 1327.73 1073.35 1326.05 1073.35C1324.36 1073.36 1323 1074.74 1323.01 1076.43C1323.01 1078.13 1324.39 1079.49 1326.07 1079.48C1327.76 1079.47 1329.12 1078.1 1329.11 1076.4ZM1130.03 551.761C1130.02 550.067 1128.65 548.699 1126.96 548.707C1125.27 548.715 1123.91 550.096 1123.92 551.79C1123.93 553.479 1125.3 554.844 1126.99 554.836C1128.68 554.828 1130.04 553.45 1130.03 551.761ZM962.153 440.791C962.137 437.408 959.39 434.673 956.016 434.689C952.642 434.705 949.918 437.466 949.934 440.849C949.95 444.233 952.7 446.962 956.074 446.946C959.448 446.93 962.169 444.175 962.153 440.791ZM962.295 470.804C962.287 469.112 960.916 467.747 959.226 467.756C957.539 467.764 956.179 469.141 956.187 470.833C956.195 472.525 957.568 473.89 959.255 473.881C960.945 473.873 962.303 472.496 962.295 470.804ZM136.998 830.12C136.99 828.428 135.617 827.064 133.927 827.072C132.243 827.08 130.88 828.457 130.888 830.149C130.896 831.841 132.272 833.206 133.956 833.198C135.646 833.19 137.006 831.812 136.998 830.12ZM907.401 427.562C907.393 425.87 906.017 424.505 904.33 424.513C902.646 424.521 901.282 425.899 901.29 427.591C901.298 429.283 902.674 430.647 904.359 430.639C906.046 430.631 907.409 429.254 907.401 427.562ZM329.806 144.515C329.798 142.824 328.422 141.459 326.738 141.467C325.048 141.475 323.688 142.853 323.696 144.545C323.704 146.236 325.077 147.601 326.767 147.593C328.451 147.585 329.814 146.207 329.806 144.515ZM475.149 878.649C475.141 876.957 473.767 875.592 472.077 875.6C470.393 875.608 469.03 876.986 469.038 878.678C469.046 880.37 470.422 881.734 472.106 881.726C473.796 881.718 475.157 880.341 475.149 878.649ZM247.099 433.762C247.091 432.07 245.718 430.705 244.031 430.713C242.344 430.721 240.983 432.099 240.991 433.791C240.999 435.485 242.373 436.847 244.06 436.839C245.747 436.831 247.107 435.456 247.099 433.762ZM552.671 365.099C552.663 363.407 551.289 362.042 549.6 362.05C547.916 362.058 546.552 363.436 546.56 365.128C546.568 366.82 547.945 368.184 549.629 368.176C551.318 368.168 552.679 366.791 552.671 365.099ZM879.78 221.885C879.772 220.193 878.396 218.828 876.709 218.836C875.025 218.844 873.662 220.222 873.67 221.914C873.678 223.606 875.054 224.97 876.738 224.962C878.425 224.954 879.788 223.576 879.78 221.885ZM890.591 253.907C890.583 252.215 889.207 250.851 887.52 250.859C885.836 250.867 884.473 252.244 884.481 253.936C884.489 255.628 885.865 256.993 887.549 256.985C889.236 256.977 890.599 255.599 890.591 253.907ZM968.44 373.815C968.432 372.123 967.056 370.759 965.369 370.767C963.685 370.775 962.322 372.152 962.33 373.844C962.338 375.536 963.714 376.901 965.398 376.893C967.085 376.885 968.448 375.507 968.44 373.815ZM1110.42 530.838C1110.41 529.146 1109.04 527.781 1107.35 527.789C1105.67 527.797 1104.3 529.175 1104.31 530.867C1104.32 532.559 1105.7 533.923 1107.38 533.915C1109.07 533.907 1110.43 532.53 1110.42 530.838ZM1203.04 391.41C1203.03 389.719 1201.65 388.354 1199.97 388.362C1198.28 388.37 1196.92 389.748 1196.93 391.439C1196.93 393.131 1198.31 394.496 1199.99 394.488C1201.68 394.48 1203.04 393.102 1203.04 391.41ZM206.364 243.256C206.356 241.565 204.98 240.2 203.296 240.208C201.606 240.216 200.246 241.594 200.254 243.285C200.262 244.977 201.635 246.342 203.325 246.334C205.009 246.326 206.372 244.948 206.364 243.256ZM114.307 454.329C114.299 452.64 112.923 451.273 111.236 451.281C109.549 451.289 108.189 452.669 108.197 454.358C108.205 456.053 109.578 457.417 111.265 457.409C112.952 457.401 114.315 456.024 114.307 454.329ZM187.312 293.981C187.304 292.289 185.931 290.925 184.244 290.933C182.554 290.941 181.194 292.318 181.202 294.01C181.21 295.702 182.583 297.069 184.273 297.061C185.96 297.053 187.32 295.673 187.312 293.981ZM1202.01 174.916C1202.01 173.224 1200.63 171.859 1198.94 171.867C1197.26 171.875 1195.9 173.253 1195.9 174.945C1195.91 176.636 1197.29 178.001 1198.97 177.993C1200.66 177.985 1202.02 176.607 1202.01 174.916ZM1262.66 602.278C1262.65 600.587 1261.28 599.222 1259.59 599.23C1257.91 599.238 1256.54 600.616 1256.55 602.307C1256.56 603.999 1257.93 605.364 1259.62 605.356C1261.31 605.348 1262.67 603.97 1262.66 602.278ZM1195.41 1032.92C1195.4 1031.23 1194.02 1029.87 1192.34 1029.87C1190.65 1029.88 1189.29 1031.26 1189.3 1032.95C1189.3 1034.65 1190.68 1036.01 1192.36 1036C1194.05 1035.99 1195.41 1034.62 1195.41 1032.92ZM982.419 1076.7C982.411 1075.01 981.035 1073.64 979.348 1073.65C977.664 1073.66 976.301 1075.04 976.309 1076.73C976.317 1078.42 977.693 1079.79 979.377 1079.78C981.064 1079.77 982.427 1078.39 982.419 1076.7ZM845.236 807.397C845.228 805.705 843.852 804.34 842.165 804.348C840.481 804.356 839.118 805.734 839.126 807.426C839.134 809.118 840.51 810.482 842.194 810.474C843.881 810.466 845.244 809.089 845.236 807.397ZM602.141 682.929C602.133 681.237 600.759 679.872 599.07 679.88C597.385 679.888 596.022 681.266 596.03 682.958C596.038 684.649 597.414 686.014 599.098 686.006C600.788 685.998 602.149 684.62 602.141 682.929ZM540.849 683.22C540.841 681.528 539.467 680.163 537.778 680.171C536.093 680.179 534.73 681.557 534.738 683.249C534.746 684.941 536.122 686.305 537.807 686.297C539.496 686.289 540.857 684.912 540.849 683.22ZM378.351 812.678C378.343 810.986 376.969 809.622 375.282 809.63C373.595 809.638 372.232 811.015 372.24 812.707C372.248 814.402 373.624 815.766 375.311 815.758C376.998 815.75 378.359 814.373 378.351 812.678ZM686.981 830.702C686.973 829.013 685.597 827.646 683.91 827.654C682.223 827.662 680.862 829.042 680.87 830.731C680.878 832.426 682.252 833.79 683.939 833.782C685.625 833.774 686.989 832.397 686.981 830.702ZM136.998 830.12C136.99 828.428 135.617 827.064 133.927 827.072C132.243 827.08 130.88 828.457 130.888 830.149C130.896 831.841 132.272 833.206 133.956 833.198C135.646 833.19 137.006 831.812 136.998 830.12ZM267.549 348.281C267.541 346.589 266.167 345.224 264.48 345.232C262.793 345.24 261.433 346.618 261.441 348.31C261.449 350.002 262.822 351.369 264.509 351.361C266.196 351.353 267.557 349.973 267.549 348.281Z" fill="#5B5B5B"/>
<path d="M1092.87 2434.93C1094.56 2434.93 1095.93 2433.57 1095.94 2431.87C1095.95 2430.18 1094.59 2428.81 1092.9 2428.8C1091.21 2428.79 1089.84 2430.15 1089.83 2431.84C1089.82 2433.54 1091.18 2434.92 1092.87 2434.93ZM846.604 2959.48C846.612 2957.78 847.989 2956.42 849.673 2956.43C851.362 2956.43 852.723 2957.81 852.715 2959.5C852.707 2961.2 851.333 2962.56 849.644 2962.56C847.96 2962.55 846.596 2961.17 846.604 2959.48ZM519.483 2818.93C519.491 2817.24 520.867 2815.88 522.551 2815.89C524.238 2815.89 525.601 2817.27 525.593 2818.96C525.585 2820.65 524.209 2822.02 522.522 2822.01C520.838 2822.01 519.475 2820.63 519.483 2818.93ZM201.338 2473.12C201.346 2471.42 202.717 2470.06 204.407 2470.07C206.093 2470.08 207.454 2471.45 207.446 2473.14C207.438 2474.84 206.065 2476.2 204.378 2476.19C202.688 2476.19 201.33 2474.81 201.338 2473.12ZM177.354 2473C177.362 2471.31 178.733 2469.95 180.423 2469.95C182.11 2469.96 183.47 2471.34 183.462 2473.03C183.454 2474.72 182.081 2476.09 180.394 2476.08C178.704 2476.07 177.346 2474.69 177.354 2473ZM79.8473 2789.62C79.3147 2791.22 77.5837 2792.09 75.9819 2791.56C74.3829 2791.02 73.5169 2789.29 74.0521 2787.68C74.5847 2786.07 76.3131 2785.21 77.9148 2785.74C79.5166 2786.28 80.3825 2788.01 79.8473 2789.62ZM273.615 3209.29C273.079 3210.9 271.351 3211.77 269.749 3211.23C268.15 3210.7 267.284 3208.96 267.817 3207.35C268.349 3205.75 270.083 3204.89 271.682 3205.42C273.284 3205.96 274.147 3207.69 273.615 3209.29ZM858.504 2348.28C857.971 2349.88 856.24 2350.75 854.638 2350.21C853.039 2349.68 852.173 2347.95 852.709 2346.34C853.241 2344.74 854.972 2343.87 856.571 2344.4C858.173 2344.94 859.036 2346.67 858.504 2348.28ZM1093.86 2839.64C1093.33 2841.24 1091.6 2842.11 1090 2841.58C1088.4 2841.04 1087.53 2839.3 1088.07 2837.7C1088.6 2836.09 1090.33 2835.22 1091.93 2835.76C1093.53 2836.29 1094.39 2838.03 1093.86 2839.64ZM1075.1 3101.09C1074.57 3102.7 1072.83 3103.57 1071.24 3103.03C1069.63 3102.5 1068.77 3100.76 1069.3 3099.15C1069.84 3097.55 1071.57 3096.68 1073.17 3097.22C1074.77 3097.75 1075.63 3099.49 1075.1 3101.09ZM478.946 2583.07C478.954 2581.37 480.331 2580.01 482.015 2580.02C483.702 2580.03 485.065 2581.4 485.057 2583.1C485.049 2584.79 483.673 2586.15 481.986 2586.14C480.302 2586.14 478.938 2584.76 478.946 2583.07ZM200.854 3015.13C200.862 3013.44 202.236 3012.08 203.925 3012.08C205.61 3012.09 206.973 3013.47 206.965 3015.16C206.957 3016.85 205.581 3018.22 203.896 3018.21C202.207 3018.2 200.846 3016.82 200.854 3015.13ZM358.249 2892.96C358.257 2891.26 359.63 2889.9 361.317 2889.91C363.004 2889.91 364.367 2891.29 364.359 2892.99C364.351 2894.68 362.975 2896.04 361.288 2896.03C359.601 2896.03 358.241 2894.65 358.249 2892.96ZM456.083 3059.6C456.091 3057.91 457.464 3056.55 459.151 3056.55C460.841 3056.56 462.201 3057.94 462.193 3059.63C462.185 3061.33 460.812 3062.69 459.122 3062.68C457.435 3062.68 456.075 3061.3 456.083 3059.6ZM1320.72 3233.62C1320.73 3231.92 1322.11 3230.56 1323.79 3230.57C1325.48 3230.58 1326.84 3231.95 1326.83 3233.65C1326.83 3235.34 1325.45 3236.7 1323.76 3236.69C1322.08 3236.69 1320.72 3235.31 1320.72 3233.62ZM1248.67 2894.12C1248.67 2892.43 1250.05 2891.06 1251.74 2891.07C1253.42 2891.08 1254.78 2892.46 1254.78 2894.15C1254.77 2895.84 1253.4 2897.21 1251.71 2897.2C1250.02 2897.19 1248.66 2895.82 1248.67 2894.12ZM943.907 2642.66C943.915 2640.97 945.289 2639.6 946.976 2639.61C948.663 2639.62 950.023 2641 950.015 2642.69C950.007 2644.38 948.634 2645.74 946.947 2645.74C945.26 2645.73 943.899 2644.35 943.907 2642.66ZM1273.63 2314.43C1273.64 2312.74 1275.01 2311.37 1276.7 2311.38C1278.39 2311.39 1279.75 2312.77 1279.74 2314.46C1279.73 2316.15 1278.36 2317.52 1276.67 2317.51C1274.98 2317.5 1273.62 2316.12 1273.63 2314.43ZM298.47 2256.29C298.478 2254.59 299.852 2253.23 301.541 2253.24C303.228 2253.25 304.588 2254.62 304.58 2256.32C304.573 2258.01 303.199 2259.37 301.512 2259.37C299.823 2259.36 298.462 2257.98 298.47 2256.29ZM653.949 2314.55C653.957 2312.86 655.333 2311.49 657.02 2311.5C658.707 2311.51 660.067 2312.89 660.059 2314.58C660.051 2316.27 658.678 2317.64 656.991 2317.63C655.304 2317.62 653.941 2316.25 653.949 2314.55ZM633.164 2644.25C633.172 2642.55 634.546 2641.19 636.233 2641.2C637.92 2641.2 639.283 2642.58 639.275 2644.27C639.267 2645.97 637.891 2647.33 636.204 2647.32C634.517 2647.31 633.156 2645.94 633.164 2644.25ZM751.482 2754.14C751.49 2752.45 752.867 2751.08 754.553 2751.09C756.24 2751.1 757.601 2752.48 757.593 2754.17C757.585 2755.86 756.211 2757.23 754.524 2757.22C752.838 2757.21 751.474 2755.83 751.482 2754.14ZM752.562 2525.64C752.57 2523.95 753.946 2522.58 755.633 2522.59C757.319 2522.6 758.68 2523.98 758.672 2525.67C758.664 2527.36 757.29 2528.72 755.604 2528.72C753.917 2528.71 752.554 2527.33 752.562 2525.64ZM1349.88 2708.22C1349.89 2706.52 1351.27 2705.16 1352.95 2705.17C1354.64 2705.17 1356 2706.55 1355.99 2708.25C1355.99 2709.94 1354.61 2711.3 1352.92 2711.29C1351.24 2711.29 1349.88 2709.91 1349.88 2708.22ZM94.31 3208.84C94.318 3207.15 95.6915 3205.78 97.3784 3205.79C99.0679 3205.79 100.426 3207.17 100.418 3208.87C100.41 3210.56 99.0389 3211.92 97.3494 3211.91C95.6626 3211.91 94.302 3210.53 94.31 3208.84ZM293.395 2684.19C293.403 2682.5 294.777 2681.13 296.464 2681.14C298.15 2681.15 299.514 2682.53 299.506 2684.22C299.498 2685.91 298.121 2687.28 296.435 2687.27C294.748 2687.26 293.387 2685.88 293.395 2684.19ZM461.271 2573.22C461.287 2569.84 464.034 2567.11 467.408 2567.12C470.782 2567.14 473.505 2569.9 473.489 2573.28C473.473 2576.67 470.724 2579.4 467.35 2579.38C463.976 2579.36 461.255 2576.61 461.271 2573.22ZM461.129 2603.24C461.137 2601.54 462.508 2600.18 464.198 2600.19C465.885 2600.2 467.245 2601.57 467.237 2603.27C467.229 2604.96 465.856 2606.32 464.169 2606.31C462.479 2606.31 461.121 2604.93 461.129 2603.24ZM1286.43 2962.55C1286.43 2960.86 1287.81 2959.5 1289.5 2959.5C1291.18 2959.51 1292.54 2960.89 1292.54 2962.58C1292.53 2964.27 1291.15 2965.64 1289.47 2965.63C1287.78 2965.62 1286.42 2964.24 1286.43 2962.55ZM516.023 2559.99C516.031 2558.3 517.407 2556.94 519.094 2556.95C520.778 2556.95 522.142 2558.33 522.134 2560.02C522.126 2561.72 520.749 2563.08 519.065 2563.07C517.378 2563.06 516.015 2561.69 516.023 2559.99ZM1093.62 2276.95C1093.63 2275.26 1095 2273.89 1096.69 2273.9C1098.38 2273.91 1099.74 2275.29 1099.73 2276.98C1099.72 2278.67 1098.35 2280.03 1096.66 2280.03C1094.97 2280.02 1093.61 2278.64 1093.62 2276.95ZM948.275 3011.08C948.283 3009.39 949.657 3008.02 951.346 3008.03C953.031 3008.04 954.394 3009.42 954.386 3011.11C954.378 3012.8 953.002 3014.17 951.318 3014.16C949.628 3014.15 948.267 3012.77 948.275 3011.08ZM1176.32 2566.19C1176.33 2564.5 1177.71 2563.14 1179.39 2563.15C1181.08 2563.15 1182.44 2564.53 1182.43 2566.22C1182.42 2567.92 1181.05 2569.28 1179.36 2569.27C1177.68 2569.26 1176.32 2567.89 1176.32 2566.19ZM870.753 2497.53C870.761 2495.84 872.135 2494.48 873.824 2494.48C875.508 2494.49 876.872 2495.87 876.864 2497.56C876.856 2499.25 875.479 2500.62 873.795 2500.61C872.106 2500.6 870.745 2499.22 870.753 2497.53ZM543.644 2354.32C543.652 2352.63 545.028 2351.26 546.715 2351.27C548.399 2351.28 549.762 2352.65 549.754 2354.35C549.746 2356.04 548.37 2357.4 546.686 2357.39C544.999 2357.39 543.636 2356.01 543.644 2354.32ZM532.833 2386.34C532.841 2384.65 534.217 2383.28 535.904 2383.29C537.588 2383.3 538.951 2384.68 538.943 2386.37C538.935 2388.06 537.559 2389.43 535.875 2389.42C534.188 2389.41 532.825 2388.03 532.833 2386.34ZM454.984 2506.25C454.992 2504.56 456.368 2503.19 458.055 2503.2C459.739 2503.21 461.102 2504.58 461.094 2506.28C461.086 2507.97 459.71 2509.33 458.026 2509.33C456.339 2509.32 454.976 2507.94 454.984 2506.25ZM313.001 2663.27C313.009 2661.58 314.385 2660.21 316.072 2660.22C317.756 2660.23 319.12 2661.61 319.112 2663.3C319.104 2664.99 317.728 2666.36 316.043 2666.35C314.356 2666.34 312.993 2664.96 313.001 2663.27ZM220.387 2523.84C220.395 2522.15 221.772 2520.79 223.458 2520.79C225.143 2520.8 226.506 2522.18 226.498 2523.87C226.49 2525.56 225.114 2526.93 223.429 2526.92C221.743 2526.91 220.379 2525.53 220.387 2523.84ZM1217.06 2375.69C1217.07 2374 1218.44 2372.63 1220.13 2372.64C1221.82 2372.65 1223.18 2374.03 1223.17 2375.72C1223.16 2377.41 1221.79 2378.77 1220.1 2378.77C1218.41 2378.76 1217.05 2377.38 1217.06 2375.69ZM1309.12 2586.76C1309.12 2585.07 1310.5 2583.71 1312.19 2583.71C1313.87 2583.72 1315.24 2585.1 1315.23 2586.79C1315.22 2588.49 1313.85 2589.85 1312.16 2589.84C1310.47 2589.83 1309.11 2588.46 1309.12 2586.76ZM1236.11 2426.41C1236.12 2424.72 1237.49 2423.36 1239.18 2423.37C1240.87 2423.37 1242.23 2424.75 1242.22 2426.44C1242.21 2428.13 1240.84 2429.5 1239.15 2429.49C1237.46 2429.49 1236.1 2428.11 1236.11 2426.41ZM221.41 2307.35C221.418 2305.66 222.794 2304.29 224.481 2304.3C226.165 2304.31 227.528 2305.69 227.52 2307.38C227.512 2309.07 226.136 2310.43 224.452 2310.43C222.765 2310.42 221.402 2309.04 221.41 2307.35ZM160.763 2734.71C160.771 2733.02 162.147 2731.65 163.834 2731.66C165.518 2731.67 166.882 2733.05 166.874 2734.74C166.866 2736.43 165.489 2737.8 163.805 2737.79C162.118 2737.78 160.755 2736.4 160.763 2734.71ZM228.017 3165.36C228.025 3163.67 229.402 3162.3 231.088 3162.31C232.773 3162.31 234.136 3163.69 234.128 3165.39C234.12 3167.08 232.744 3168.44 231.06 3168.43C229.373 3168.43 228.009 3167.05 228.017 3165.36ZM441.005 3209.13C441.013 3207.44 442.389 3206.08 444.076 3206.08C445.76 3206.09 447.123 3207.47 447.115 3209.16C447.107 3210.86 445.731 3212.22 444.047 3212.21C442.36 3212.2 440.997 3210.83 441.005 3209.13ZM578.187 2939.83C578.195 2938.14 579.572 2936.77 581.259 2936.78C582.943 2936.79 584.306 2938.17 584.298 2939.86C584.29 2941.55 582.914 2942.92 581.23 2942.91C579.543 2942.9 578.179 2941.52 578.187 2939.83ZM821.283 2815.36C821.291 2813.67 822.665 2812.3 824.354 2812.31C826.039 2812.32 827.402 2813.7 827.394 2815.39C827.386 2817.08 826.01 2818.45 824.326 2818.44C822.636 2818.43 821.275 2817.05 821.283 2815.36ZM882.575 2815.65C882.583 2813.96 883.957 2812.6 885.646 2812.6C887.331 2812.61 888.694 2813.99 888.686 2815.68C888.678 2817.37 887.302 2818.74 885.617 2818.73C883.928 2818.72 882.567 2817.34 882.575 2815.65ZM1045.07 2945.11C1045.08 2943.42 1046.45 2942.05 1048.14 2942.06C1049.83 2942.07 1051.19 2943.45 1051.18 2945.14C1051.18 2946.83 1049.8 2948.2 1048.11 2948.19C1046.43 2948.18 1045.07 2946.81 1045.07 2945.11ZM736.443 2963.13C736.451 2961.45 737.827 2960.08 739.514 2960.09C741.201 2960.09 742.562 2961.47 742.554 2963.16C742.546 2964.86 741.172 2966.22 739.485 2966.22C737.798 2966.21 736.435 2964.83 736.443 2963.13ZM1286.43 2962.55C1286.43 2960.86 1287.81 2959.5 1289.5 2959.5C1291.18 2959.51 1292.54 2960.89 1292.54 2962.58C1292.53 2964.27 1291.15 2965.64 1289.47 2965.63C1287.78 2965.62 1286.42 2964.24 1286.43 2962.55ZM1155.88 2480.71C1155.88 2479.02 1157.26 2477.66 1158.94 2477.66C1160.63 2477.67 1161.99 2479.05 1161.98 2480.74C1161.98 2482.43 1160.6 2483.8 1158.91 2483.79C1157.23 2483.79 1155.87 2482.41 1155.88 2480.71Z" fill="#5B5B5B" fill-opacity="0.7"/>
<path d="M1279.74 175.59C1274.93 181.274 1275.64 189.782 1281.32 194.592C1287.01 199.403 1295.51 198.681 1300.33 193.009C1305.14 187.335 1311.77 172.117 1321.6 157.862C1330.55 144.308 1350.1 114.892 1350.1 114.892C1350.1 114.892 1323.93 140.126 1311.62 149.828C1299.64 159.404 1284.55 169.904 1279.74 175.59Z" fill="#E13643"/>
<path d="M1282.65 173.804C1276.5 177.995 1274.91 186.384 1279.1 192.54C1283.29 198.694 1291.68 200.272 1297.83 196.094C1303.99 191.915 1314.36 180.328 1326.37 166.748C1338.71 152.939 1366.75 128.204 1366.75 128.204C1366.75 128.204 1329.15 147.197 1319.2 155.401C1309.36 163.58 1288.81 169.611 1282.65 173.804Z" fill="#E13643"/>
<path d="M1298.5 179.703C1299.04 180.329 1298.97 181.271 1298.34 181.807C1297.72 182.343 1296.77 182.271 1296.24 181.645C1295.7 181.019 1295.77 180.077 1296.4 179.541C1297.02 179.005 1297.97 179.077 1298.5 179.703Z" fill="black"/>
<path d="M1305.31 165.618C1305.8 166.182 1305.73 167.03 1305.17 167.513C1304.6 167.996 1303.76 167.931 1303.27 167.367C1302.79 166.804 1302.86 165.956 1303.42 165.472C1303.98 164.99 1304.83 165.055 1305.31 165.618Z" fill="black"/>
<path d="M1320.21 161.632C1320.61 162.101 1320.56 162.807 1320.09 163.208C1319.62 163.611 1318.92 163.556 1318.51 163.087C1318.11 162.618 1318.17 161.912 1318.63 161.51C1319.1 161.109 1319.81 161.163 1320.21 161.632Z" fill="black"/>
<path d="M1328.99 146.645C1329.24 146.945 1329.21 147.398 1328.91 147.655C1328.61 147.912 1328.16 147.878 1327.9 147.577C1327.64 147.277 1327.68 146.825 1327.98 146.567C1328.28 146.31 1328.73 146.345 1328.99 146.645Z" fill="black"/>
<path d="M1348.4 137.113C1348.61 137.356 1348.58 137.722 1348.33 137.93C1348.09 138.138 1347.73 138.11 1347.52 137.867C1347.31 137.624 1347.34 137.259 1347.58 137.051C1347.82 136.843 1348.19 136.871 1348.4 137.113Z" fill="black"/>
<path d="M1361.93 123.227C1362.06 123.378 1362.04 123.604 1361.89 123.732C1361.74 123.861 1361.52 123.844 1361.39 123.693C1361.26 123.543 1361.28 123.317 1361.43 123.188C1361.58 123.06 1361.8 123.077 1361.93 123.227Z" fill="black"/>
<path d="M1298.91 181.075C1300.98 186.589 1298.19 192.739 1292.68 194.811C1287.16 196.883 1281.01 194.093 1278.94 188.579C1276.87 183.065 1279.66 176.915 1285.17 174.844C1290.69 172.771 1296.84 175.561 1298.91 181.075Z" fill="black"/>
<path d="M1291.07 178.081C1291.38 178.912 1290.58 179.302 1289.95 179.019C1289.33 178.737 1288.45 179.152 1287.9 178.839C1287.35 178.527 1288.25 178.065 1288.42 177.697C1288.94 176.551 1290.75 177.248 1291.07 178.081ZM1285.81 191.193C1285.42 189.7 1284.28 189.578 1282.58 189.038C1281.34 188.642 1281.04 187.46 1279.72 187.176C1279.24 187.074 1278.98 187.572 1278.83 188.244C1278.87 188.356 1278.9 188.466 1278.94 188.578C1280.14 191.765 1282.7 194.034 1285.71 194.987C1285.74 193.918 1286.11 192.355 1285.81 191.193ZM1294.61 182.013C1292.67 182.137 1290.14 182.744 1290.85 184.634C1291.62 186.671 1288.44 187.266 1290.15 188.092C1291.86 188.918 1293.28 188.559 1294.23 188.114C1295.19 187.669 1294.6 186.787 1295.5 185.274C1296.39 183.762 1296.55 181.889 1294.61 182.013ZM1278.27 184.655C1278.92 184.979 1279.38 184.354 1279.84 183.133C1280.58 181.186 1281.76 181.578 1283.97 180.317C1285.93 179.191 1284.14 178.309 1283.58 175.608C1280.31 177.502 1278.33 180.971 1278.27 184.655ZM1284.8 182.78C1284.22 183.671 1282.19 182.712 1282.78 184.737C1283.36 186.76 1283.88 187.684 1285.15 187.38C1286.42 187.078 1287.58 186.955 1288.03 185.162C1288.48 183.369 1288.76 183.435 1288.12 181.951C1287.47 180.466 1285.46 181.771 1284.8 182.78ZM1293.12 175.029C1292.68 176.571 1292.04 178.146 1292.89 179.018C1293.88 180.047 1293.96 179.584 1296.2 179.345C1298.44 179.108 1296.31 181.029 1297.39 182.522C1298.47 184.01 1298.43 187.656 1299.09 188.018C1299.78 185.824 1299.78 183.395 1298.91 181.074C1297.84 178.24 1295.7 176.132 1293.12 175.029ZM1291.07 174.389C1289.46 174.057 1287.75 174.087 1286.08 174.553C1285.96 175.087 1285.97 175.647 1286.28 175.909C1286.91 176.448 1289.72 175.428 1290.2 175.789C1290.5 176.008 1290.84 175.127 1291.07 174.389ZM1297.53 191.113C1297.06 190.491 1296.47 189.807 1295.84 189.289C1294.53 188.196 1294.42 189.769 1293.57 190.141C1292.72 190.514 1291.75 190.685 1290.01 190.649C1288.27 190.613 1288.45 191.322 1289.03 192.916C1289.43 194.04 1289.19 194.639 1288.55 195.486C1289.92 195.535 1291.32 195.322 1292.68 194.811C1294.7 194.05 1296.35 192.737 1297.53 191.113Z" fill="black"/>
<path d="M1280.65 174.129C1275 178.974 1274.34 187.488 1279.19 193.143C1284.04 198.797 1292.55 199.439 1298.2 194.606C1303.86 189.773 1310.23 176.188 1324.8 163.3C1339.38 150.411 1357.35 121.023 1357.35 121.023C1357.35 121.023 1327.56 143.051 1314.95 151.801C1302.34 160.551 1286.31 169.283 1280.65 174.129Z" fill="#E13643"/>
<path d="M1295.16 180.506C1293.97 179.121 1291.89 178.963 1290.51 180.148C1289.12 181.335 1288.96 183.416 1290.15 184.801C1291.33 186.184 1293.42 186.346 1294.8 185.159C1296.18 183.974 1296.34 181.889 1295.16 180.506Z" fill="black"/>
<path d="M1318.88 155.99C1318.27 155.269 1317.18 155.187 1316.46 155.803C1315.74 156.421 1315.66 157.503 1316.28 158.224C1316.89 158.943 1317.98 159.028 1318.7 158.41C1319.42 157.794 1319.5 156.709 1318.88 155.99Z" fill="black"/>
<path d="M1334.53 150.838C1334.25 150.511 1333.76 150.474 1333.43 150.754C1333.1 151.034 1333.07 151.526 1333.35 151.853C1333.63 152.179 1334.12 152.218 1334.45 151.937C1334.77 151.658 1334.81 151.165 1334.53 150.838Z" fill="black"/>
<path d="M1346.69 132.706C1346.47 132.447 1346.08 132.417 1345.82 132.639C1345.56 132.861 1345.53 133.251 1345.75 133.51C1345.98 133.769 1346.37 133.8 1346.62 133.577C1346.88 133.356 1346.91 132.965 1346.69 132.706Z" fill="black"/>
<path d="M1362.68 120.721C1362.51 120.524 1362.21 120.501 1362.01 120.67C1361.82 120.839 1361.79 121.135 1361.96 121.332C1362.13 121.529 1362.43 121.552 1362.63 121.383C1362.82 121.215 1362.85 120.918 1362.68 120.721Z" fill="black"/>
<path d="M1376.44 109.216C1376.44 109.207 1376.42 109.207 1376.42 109.213C1376.41 109.22 1376.41 109.233 1376.41 109.241C1376.42 109.249 1376.43 109.25 1376.44 109.243C1376.45 109.236 1376.45 109.224 1376.44 109.216Z" fill="black"/>
<path d="M1486.23 645.115C1486.23 695.436 1445.43 736.229 1395.11 736.229C1344.79 736.229 1304 695.436 1304 645.115C1304 594.795 1344.79 554 1395.11 554C1445.43 554 1486.23 594.795 1486.23 645.115Z" fill="#3DC8F1"/>
<path d="M1481.46 645.115C1481.46 692.8 1442.8 731.457 1395.12 731.457C1347.43 731.457 1308.77 692.8 1308.77 645.115C1308.77 597.429 1347.43 558.772 1395.12 558.772C1442.8 558.772 1481.46 597.429 1481.46 645.115Z" fill="#3DC8F1"/>
<path d="M1473.63 645.115C1473.63 688.475 1438.48 723.629 1395.11 723.629C1351.75 723.629 1316.6 688.475 1316.6 645.115C1316.6 601.754 1351.75 566.603 1395.11 566.603C1438.48 566.603 1473.63 601.754 1473.63 645.115Z" fill="#3DC8F1"/>
<path d="M1409.27 710.063C1414.15 712.695 1418.66 715.667 1423.36 718.248C1414.59 721.637 1405.08 723.514 1395.12 723.514C1390.98 723.514 1386.93 723.187 1382.97 722.572C1376.62 720.078 1370.31 717.547 1364.57 713.635C1363.01 712.57 1361.63 711.419 1360.35 710.211C1358.95 707.825 1357.77 705.514 1357.36 703.492C1356.6 699.645 1353.34 697.297 1349.32 696.109C1347.93 694.189 1346.46 692.274 1344.78 690.415C1342.33 687.688 1339.81 685.003 1337.31 682.296C1337.12 677.464 1337.27 672.743 1336.72 671.106C1336.1 669.253 1331.28 669.22 1326.52 669.666C1325.96 668.933 1325.4 668.201 1324.87 667.452C1322.5 664.127 1319.64 661.047 1317.69 657.462C1317.06 653.44 1316.72 649.316 1316.72 645.113C1316.72 626.959 1322.9 610.262 1333.26 596.973C1333.85 607.304 1334.07 617.677 1334.68 627.973C1335.03 633.994 1335.73 639.886 1337.01 645.78C1338.08 650.671 1337.64 655.452 1338.56 660.292C1340.4 670.005 1345.67 679.381 1353.24 685.708C1358.01 689.702 1362.75 689.498 1368.17 691.628C1372.7 693.409 1377.01 695.95 1381.4 698.065C1390.51 702.464 1400.34 705.255 1409.27 710.063ZM1351.61 640.877C1355.22 650.444 1362.52 658.121 1366.62 667.327C1370.63 676.342 1374.1 683.976 1382.69 689.675C1391.31 695.393 1402.7 697.726 1412.75 699.516C1423.5 701.431 1434.62 703.889 1445.5 705.163C1450.98 700.565 1455.82 695.234 1459.86 689.316C1459.84 689.3 1459.82 689.284 1459.8 689.266C1452.06 683.2 1440.6 681.729 1431.41 678.769C1413.54 673.008 1394 669.702 1379.49 656.816C1372.65 650.734 1370.66 640.202 1368.01 631.815C1364.96 622.111 1363.54 611.92 1363.25 601.768C1363 592.562 1362.63 583.333 1361.73 574.174C1357.7 576.069 1353.87 578.305 1350.26 580.83C1348.01 591.032 1346.82 601.393 1346.76 611.88C1346.71 621.61 1348.17 631.736 1351.61 640.877ZM1384.07 584.113C1385.27 598.652 1386.75 613.102 1390.06 627.322C1393.45 641.853 1397.69 653.351 1410.69 662.005C1416.4 665.811 1423.49 668.971 1430.05 671.108C1438.36 673.813 1447.29 672.994 1455.8 675.636C1459.12 676.667 1462.46 677.867 1465.83 678.998C1467.27 675.997 1468.51 672.882 1469.56 669.686C1468.98 669.459 1468.39 669.247 1467.8 669.002C1462.73 666.91 1457.59 664.557 1452.96 661.603C1449.14 659.161 1446.21 655.833 1442.53 653.227C1435.94 648.544 1427.51 646.327 1420.45 642.261C1413.57 638.302 1405.83 632.171 1401.37 625.576C1396.27 618.034 1394.07 607.719 1392.87 598.81C1392.36 595.075 1390.76 589.334 1391.51 585.672C1392.34 581.633 1396.45 578.769 1397.54 574.728C1398.18 572.368 1398.42 569.642 1398.42 566.798C1397.32 566.753 1396.22 566.715 1395.12 566.715C1388.37 566.715 1381.83 567.569 1375.59 569.17C1376.5 574.898 1378.99 580.021 1384.07 584.113ZM1414.97 592.523C1415.79 598.37 1416.76 605.658 1420.17 610.72C1423.3 615.363 1429.02 618.146 1433.29 621.611C1441.34 628.128 1459.09 635.376 1472.68 633.689C1472.25 630.767 1471.67 627.897 1470.93 625.089C1468.62 625.243 1466.26 624.813 1464.66 623.025C1464.22 622.541 1463.7 622.072 1463.14 621.611C1461.3 621.44 1459.4 621.11 1457.41 620.559C1452.94 619.325 1448.47 617.591 1444.74 614.788C1439.17 610.608 1441.18 607.027 1439.74 601.034C1438.88 597.473 1438.2 593.914 1437.56 590.353C1435.21 588.462 1433.01 586.347 1431.89 583.967C1430.79 581.64 1430.51 578.385 1430.59 575.206C1425.59 572.665 1420.29 570.624 1414.75 569.195C1413.05 576.76 1413.94 585.252 1414.97 592.523Z" fill="#29B173"/>
<path d="M1357.37 703.492C1356.6 699.646 1353.34 697.297 1349.31 696.109C1347.1 695.456 1344.66 695.149 1342.26 695.149C1338.43 695.149 1337.57 688.63 1337.31 682.297C1337.11 677.468 1337.27 672.743 1336.72 671.108C1336.1 669.253 1331.28 669.22 1326.52 669.666C1324.53 669.854 1322.55 670.121 1320.9 670.377C1328.12 691.574 1344.13 708.699 1364.61 717.358C1363.34 715.035 1361.74 712.588 1360.35 710.215C1358.95 707.827 1357.77 705.515 1357.37 703.492Z" fill="#EEEEEF"/>
<path d="M1431.89 583.967C1433.01 586.345 1435.21 588.462 1437.56 590.355C1441.4 593.454 1445.63 595.948 1446.18 597.991C1447.06 601.279 1443.2 609.946 1446.18 612.314C1448.85 614.438 1458.2 617.58 1463.14 621.613C1463.7 622.074 1464.22 622.543 1464.65 623.026C1466.26 624.815 1468.61 625.244 1470.92 625.091C1465.18 603.29 1450.28 585.217 1430.59 575.206C1430.51 578.383 1430.79 581.638 1431.89 583.967Z" fill="#EEEEEF"/>
<path d="M-61 2269.11C-61 2218.79 -20.2051 2178 30.1165 2178C80.4381 2178 121.229 2218.79 121.229 2269.11C121.229 2319.43 80.4381 2360.23 30.1165 2360.23C-20.2051 2360.23 -61 2319.43 -61 2269.11Z" fill="#F13DC9"/>
<path d="M-56.23 2269.11C-56.23 2221.43 -17.5728 2182.77 30.1129 2182.77C77.8005 2182.77 116.456 2221.43 116.456 2269.11C116.456 2316.8 77.8005 2355.46 30.1129 2355.46C-17.5728 2355.46 -56.23 2316.8 -56.23 2269.11Z" fill="#F13DC9"/>
<path d="M-48.3983 2269.11C-48.3983 2225.75 -13.2457 2190.6 30.1148 2190.6C73.4753 2190.6 108.628 2225.75 108.628 2269.11C108.628 2312.48 73.4753 2347.63 30.1148 2347.63C-13.2457 2347.63 -48.3983 2312.48 -48.3983 2269.11Z" fill="#F13DC9"/>
<path d="M15.9606 2204.17C11.0769 2201.53 6.56692 2198.56 1.8692 2195.98C10.6348 2192.59 20.153 2190.72 30.1133 2190.72C34.2461 2190.72 38.2995 2191.04 42.2591 2191.66C48.6064 2194.15 54.9211 2196.68 60.6548 2200.59C62.2177 2201.66 63.6037 2202.81 64.8797 2204.02C66.2765 2206.4 67.4586 2208.72 67.8647 2210.74C68.6335 2214.58 71.8874 2216.93 75.9138 2218.12C77.3016 2220.04 78.7707 2221.96 80.4473 2223.81C82.9035 2226.54 85.4229 2229.23 87.9153 2231.93C88.1138 2236.76 87.9604 2241.49 88.5054 2243.12C89.1262 2244.98 93.9539 2245.01 98.7112 2244.56C99.2652 2245.3 99.8247 2246.03 100.359 2246.78C102.734 2250.1 105.587 2253.18 107.535 2256.77C108.172 2260.79 108.513 2264.91 108.513 2269.12C108.513 2287.27 102.326 2303.97 91.9669 2317.26C91.3786 2306.93 91.162 2296.55 90.552 2286.26C90.1946 2280.24 89.4998 2274.34 88.2167 2268.45C87.1519 2263.56 87.5868 2258.78 86.6682 2253.94C84.8274 2244.22 79.5576 2234.85 71.9903 2228.52C67.215 2224.53 62.4794 2224.73 57.0616 2222.6C52.5245 2220.82 48.222 2218.28 43.8329 2216.16C34.7153 2211.77 24.8868 2208.97 15.9606 2204.17ZM73.6164 2273.35C70.0087 2263.79 62.7104 2256.11 58.6118 2246.9C54.5963 2237.89 51.1276 2230.25 42.5389 2224.55C33.9213 2218.84 22.5334 2216.5 12.481 2214.71C1.73024 2212.8 -9.39234 2210.34 -20.2713 2209.07C-25.7468 2213.66 -30.5889 2219 -34.6351 2224.91C-34.6135 2224.93 -34.59 2224.95 -34.5684 2224.96C-26.8279 2231.03 -15.366 2232.5 -6.18172 2235.46C11.6924 2241.22 31.234 2244.53 45.7387 2257.41C52.5822 2263.49 54.571 2274.03 57.215 2282.41C60.274 2292.12 61.6925 2302.31 61.9758 2312.46C62.2321 2321.67 62.6003 2330.9 63.5026 2340.06C67.5254 2338.16 71.355 2335.92 74.9681 2333.4C77.2168 2323.2 78.4079 2312.84 78.4675 2302.35C78.5216 2292.62 77.0616 2282.49 73.6164 2273.35ZM41.1546 2330.12C39.9617 2315.58 38.4746 2301.13 35.1647 2286.91C31.7827 2272.38 27.5397 2260.88 14.542 2252.22C8.82464 2248.42 1.74107 2245.26 -4.81913 2243.12C-13.1317 2240.42 -22.0616 2241.24 -30.5709 2238.59C-33.8862 2237.56 -37.234 2236.36 -40.6034 2235.23C-42.0436 2238.23 -43.2816 2241.35 -44.3356 2244.54C-43.749 2244.77 -43.1625 2244.98 -42.5705 2245.23C-37.5047 2247.32 -32.3612 2249.67 -27.7338 2252.63C-23.9096 2255.07 -20.9769 2258.4 -17.3043 2261C-10.708 2265.69 -2.28168 2267.9 4.78023 2271.97C11.6545 2275.93 19.4004 2282.06 23.8599 2288.65C28.9619 2296.19 31.1564 2306.51 32.362 2315.42C32.8655 2319.15 34.4645 2324.9 33.7155 2328.56C32.8908 2332.6 28.7832 2335.46 27.6859 2339.5C27.047 2341.86 26.8124 2344.59 26.8106 2347.43C27.9061 2347.48 29.007 2347.51 30.1133 2347.51C36.8558 2347.51 43.3961 2346.66 49.6405 2345.06C48.7255 2339.33 46.235 2334.21 41.1546 2330.12ZM10.263 2321.71C9.43826 2315.86 8.46911 2308.57 5.05997 2303.51C1.93237 2298.87 -3.78684 2296.08 -8.06225 2292.62C-16.1078 2286.1 -33.8645 2278.85 -47.4487 2280.54C-47.021 2283.46 -46.4363 2286.33 -45.6963 2289.14C-43.3863 2288.99 -41.0275 2289.42 -39.4267 2291.2C-38.9954 2291.69 -38.4756 2292.16 -37.9107 2292.62C-36.0663 2292.79 -34.1677 2293.12 -32.1789 2293.67C-27.7068 2294.9 -23.2364 2296.64 -19.5061 2299.44C-13.9366 2303.62 -15.9489 2307.2 -14.5106 2313.2C-13.6551 2316.76 -12.9711 2320.32 -12.3286 2323.88C-9.98248 2325.77 -7.78432 2327.88 -6.66177 2330.26C-5.5645 2332.59 -5.27935 2335.84 -5.35695 2339.02C-0.359648 2341.56 4.93725 2343.61 10.4814 2345.03C12.176 2337.47 11.2863 2328.98 10.263 2321.71Z" fill="#2C29B1"/>
<path d="M67.8641 2210.74C68.6329 2214.58 71.8886 2216.93 75.915 2218.12C78.1276 2218.77 80.5676 2219.08 82.9643 2219.08C86.7957 2219.08 87.6584 2225.6 87.9165 2231.93C88.115 2236.76 87.9616 2241.49 88.5066 2243.12C89.1274 2244.98 93.9533 2245.01 98.7106 2244.56C100.699 2244.38 102.676 2244.11 104.327 2243.85C97.1134 2222.66 81.1 2205.53 60.6163 2196.87C61.8922 2199.19 63.4894 2201.64 64.879 2204.01C66.2759 2206.4 67.458 2208.71 67.8641 2210.74Z" fill="#EEEEEF"/>
<path d="M74.5305 56.342C-2.52356 82.9782 -60.9751 116.178 -56.0256 130.495L-51.3643 128.884C-55.8336 115.959 0.921866 84.6071 75.4007 58.8605C149.881 33.1143 213.881 22.7224 218.349 35.6485L223.009 34.0358C218.06 19.7192 151.584 29.7064 74.5305 56.342Z" fill="#FF8B25"/>
<path d="M76.0489 60.7358C4.33216 85.5274 -50.4731 115.264 -46.3634 127.155L-16.2857 116.757C-18.8982 109.2 23.656 87.6303 78.7614 68.5813C133.867 49.5324 180.657 40.2169 183.269 47.7736L213.346 37.3764C209.235 25.486 147.766 35.9452 76.0489 60.7358Z" fill="#FFD025"/>
<path d="M163.608 51.4472C179.108 96.2871 155.324 145.202 110.485 160.701C65.6457 176.203 16.7309 152.418 1.22982 107.579C-14.2703 62.739 9.514 13.8242 54.3539 -1.67595C99.1923 -17.1764 148.108 6.60727 163.608 51.4472Z" fill="#7578F4"/>
<path d="M163.902 52.3116C178.924 97.3137 154.622 145.973 109.621 160.995C64.6191 176.019 15.9598 151.716 0.936028 106.715C-14.0867 61.7127 10.216 13.0533 55.2181 -1.96943C100.219 -16.9926 148.879 7.30955 163.902 52.3116Z" fill="#7578F4"/>
<path d="M88.6098 146.082C78.4596 149.471 68.7826 147.879 66.9957 142.528C65.2104 137.178 71.9897 130.096 82.1408 126.707C92.2915 123.319 101.968 124.908 103.754 130.26C105.54 135.61 98.7609 142.693 88.6098 146.082ZM110.961 86.9705C108.824 80.5695 99.0956 78.0496 89.2328 81.3415C79.3706 84.6344 73.1083 92.4925 75.2454 98.8934C77.3831 105.295 87.1103 107.815 96.9725 104.522C106.835 101.23 113.099 93.3724 110.961 86.9705ZM24.7481 60.0109C35.1968 56.5228 42.3168 49.6447 40.6493 44.6515C38.9827 39.6578 29.1602 38.4393 18.7109 41.9264C8.26021 45.4156 1.13962 52.2927 2.80718 57.2859C4.47378 62.2797 14.2974 63.5001 24.7481 60.0109ZM69.5687 19.3084C78.2332 16.4164 84.2886 11.1633 83.0895 7.57592C81.8929 3.98838 73.8975 3.42588 65.232 6.31851C56.5665 9.21114 50.5131 14.4656 51.7107 18.0525C52.9083 21.6395 60.9037 22.202 69.5687 19.3084ZM145.829 21.5633C143.015 21.2598 139.934 21.558 136.863 22.5835C127.972 25.5507 122.569 33.3597 124.794 40.0262C127.02 46.6911 136.031 49.6884 144.922 46.7206C150.736 44.7802 155.039 40.7642 156.712 36.356C153.595 30.9768 149.926 26.0416 145.829 21.5633ZM108.809 26.9261C107.142 21.9363 98.5838 20.2951 89.6938 23.2623C80.8033 26.2311 74.948 32.6825 76.6135 37.6743C78.2799 42.6656 86.8374 44.3058 95.7279 41.3371C104.618 38.3699 110.474 31.9179 108.809 26.9261ZM121.979 109.63C122.785 112.048 128.708 112.249 135.208 110.079C141.705 107.911 146.32 104.191 145.513 101.774C144.705 99.3569 138.782 99.1565 132.283 101.326C125.784 103.495 121.172 107.212 121.979 109.63ZM160.785 94.244C161.434 96.1885 163.539 97.4216 166.347 97.8199C167.295 93.496 167.902 89.0813 168.17 84.6148C162.933 87.011 159.717 91.0432 160.785 94.244ZM24.141 115.954C36.3005 111.896 44.5075 103.666 42.475 97.5752C40.4409 91.4835 28.9351 89.8359 16.7756 93.8942C9.30014 96.3905 3.33135 100.463 0.304038 104.644C0.515923 105.335 0.705938 106.025 0.936117 106.714C2.18641 110.459 3.69062 114.047 5.38514 117.495C10.2774 118.731 17.0927 118.307 24.141 115.954ZM158.87 69.7023C157.409 65.3262 148.533 64.3476 139.044 67.5157C129.555 70.6828 123.047 76.7993 124.507 81.1744C125.968 85.552 134.846 86.5296 144.334 83.363C153.824 80.1943 160.331 74.0784 158.87 69.7023ZM140.731 129.771C132.359 132.565 126.591 137.887 127.848 141.653C128.728 144.285 132.81 145.456 138.045 144.972C143.812 140.069 148.87 134.468 153.105 128.326C149.831 127.777 145.37 128.222 140.731 129.771ZM46.8682 75.7135C48.2183 79.7554 56.9301 80.4896 66.3282 77.3532C75.7248 74.2165 82.25 68.3951 80.9014 64.3536C79.5513 60.3117 70.8395 59.5776 61.4425 62.7159C52.0458 65.8526 45.5196 71.672 46.8682 75.7135ZM118.534 7.51192C120.719 6.78304 122.63 5.7079 124.167 4.44254C118.31 1.18691 112.081 -1.3841 105.61 -3.20571C103.895 -1.03979 103.196 1.40194 103.931 3.60069C105.388 7.96606 111.927 9.71805 118.534 7.51192ZM18.6 23.3003C26.0137 20.8257 31.2404 16.4685 30.2719 13.5689C30.0823 13.0009 29.6648 12.5351 29.0667 12.1645C24.6562 15.6598 20.6345 19.5556 17.0384 23.7806C17.5558 23.6343 18.0749 23.4755 18.6 23.3003ZM50.9036 143.433C49.8581 140.302 41.4174 140.301 32.0476 143.429C30.333 144.002 28.7079 144.64 27.2004 145.318C30.8955 148.414 34.8418 151.174 38.9811 153.6C46.6597 150.481 51.8274 146.199 50.9036 143.433Z" fill="#A3B6FC"/>
<path d="M91.225 104.987C16.7452 130.734 -47.2541 141.127 -51.7224 128.2L-56.3831 129.812C-51.4351 144.128 15.0426 134.142 92.0951 107.505C169.15 80.8698 227.6 47.6701 222.652 33.3539L217.991 34.9647C222.46 47.8903 165.704 79.2399 91.225 104.987Z" fill="#FF8B25"/>
<path d="M87.8648 95.2665C32.7594 114.315 -14.0307 123.631 -16.6427 116.075L-46.72 126.471C-42.6093 138.362 18.8606 127.904 90.5763 103.113C162.294 78.3205 217.099 48.5839 212.989 36.6945L182.912 47.0908C185.524 54.6491 142.97 76.2176 87.8648 95.2665Z" fill="#FFD025"/>
</g>
<defs>
<linearGradient id="paint0_linear_102_756" x1="713.421" y1="1.70412" x2="716.584" y2="1338.73" gradientUnits="userSpaceOnUse">
<stop stop-color="#08080B"/>
<stop offset="1" stop-color="#0D0E12" stop-opacity="0"/>
</linearGradient>
<clipPath id="clip0_102_756">
<rect width="1440" height="6469" fill="white"/>
</clipPath>
</defs>
</svg>
