<svg width="62" height="40" viewBox="0 0 62 40" fill="none" xmlns="http://www.w3.org/2000/svg">
<path d="M57.2913 12.9877C57.3748 13.2171 57.0332 13.3326 56.4844 13.3719C56.2318 13.3597 55.9848 13.2935 55.7599 13.1778C55.6464 13.0377 55.5404 12.8918 55.4422 12.7407C55.3927 12.6549 55.239 11.4128 55.1274 10.9792C55.0404 10.5848 55.0129 10.1796 55.0457 9.77707L55.0886 7.37635C55.0952 7.19756 55.1421 7.02257 55.2257 6.86441C55.5188 6.33082 55.6786 5.73435 55.6916 5.12574C55.7175 5.02915 55.7434 4.93256 55.6218 4.8068C55.5001 4.12893 55.5689 3.43058 55.8207 2.78954C56.2019 2.33264 56.4357 1.84658 56.7976 1.38451C56.8183 1.30724 56.839 1.22996 57.0213 1.20635C57.4762 1.13153 57.4597 0.961449 57.53 0.814665C57.672 0.591751 57.8509 0.394615 58.0589 0.231692C58.2313 0.134037 58.4151 0.0580964 58.6061 0.00560421C58.8509 -0.0180385 59.0971 0.0334878 59.3119 0.153317C59.4432 0.281661 59.6983 0.256845 59.8915 0.308608L60.104 0.365549C60.5402 0.884099 60.9088 1.45597 61.2009 2.06744C61.2878 2.09073 61.0858 4.00363 61.1184 4.22977C61.151 4.45591 61.0106 4.43899 60.9216 4.53938C60.8326 4.63976 60.8224 6.10714 60.8069 6.16509C60.6784 6.45159 60.743 6.78985 60.3163 7.0689C60.2663 7.11574 60.2472 7.18688 60.2671 7.25243C60.1168 7.78987 59.8822 8.30008 59.5722 8.76408C59.4563 9.01711 59.3587 9.27811 59.2801 9.54509C59.2801 9.54509 59.1962 9.62615 59.164 9.66927C59.1102 9.71787 59.0664 9.77645 59.0349 9.84175C58.7641 10.4544 58.5362 11.0852 58.3531 11.7296C58.3143 11.8745 57.804 12.5039 57.789 12.6758C57.7739 12.8478 57.247 12.8826 57.2913 12.9877Z" fill="#6E41E2"/>
<path d="M30.1507 15.9853C30.4391 16.1454 30.0959 16.4986 29.3514 16.9203C28.9949 17.0931 28.6143 17.211 28.2225 17.27C27.9897 17.2437 27.7593 17.1993 27.5334 17.1371C27.4464 17.1138 26.5837 16.1994 26.2439 15.922C25.9248 15.6541 25.6609 15.3267 25.4669 14.958C25.0832 14.2651 24.6215 13.5927 24.194 12.9087C24.1008 12.7488 24.0426 12.5709 24.0232 12.3868C23.9517 11.7522 23.6796 11.1571 23.2465 10.6878C23.1751 10.6066 23.1501 10.5067 22.9562 10.4962C22.7623 10.4856 21.7082 9.1265 21.706 8.82568C21.67 8.22592 21.5386 7.67308 21.4465 7.08936C21.4672 7.01209 21.3442 6.96878 21.519 6.8189C21.8164 6.44307 21.6484 6.33594 21.5977 6.17742C21.5049 5.94538 21.4588 5.69731 21.462 5.44742C21.5134 5.23504 21.6058 5.03472 21.7339 4.8577C21.955 4.62597 22.2226 4.44365 22.5191 4.3227C22.762 4.30496 22.9845 4.054 23.2153 3.88809C23.2939 3.82323 23.3785 3.76616 23.4681 3.71769C24.1638 3.79326 24.8392 3.99881 25.4591 4.32365L26.1602 5.18444C26.512 5.61 26.8683 6.05747 26.9397 6.13872C27.0111 6.21997 27.0084 6.38487 27.0108 6.53045C27.0132 6.67604 28.0849 7.85355 28.1003 7.95084C28.2113 8.27047 28.5009 8.50336 28.3148 9.04358C28.2889 9.14018 28.3294 9.18209 28.3648 9.24333C28.6376 9.76957 28.8355 10.3314 28.9528 10.9124C29.0637 11.192 29.1911 11.4646 29.3345 11.729C29.3345 11.729 29.3034 11.8449 29.2879 11.9029C29.2796 11.9767 29.2841 12.0515 29.3011 12.1238C29.5711 12.8012 29.8815 13.4618 30.2309 14.1019C30.3131 14.2585 30.2522 15.1428 30.3582 15.3266C30.4643 15.5103 30.0303 15.9323 30.1507 15.9853Z" fill="#6E41E2"/>
<path d="M12.4135 37.2077C12.695 37.2003 12.6539 37.6241 12.3769 38.2332C12.2291 38.4984 12.0391 38.7377 11.8143 38.9417C11.6165 39.0233 11.4186 39.1049 11.2601 39.1556C11.1016 39.2062 10.0395 39.0356 9.62401 39.0795C9.25907 39.0846 8.89536 39.036 8.54458 38.9352C7.82979 38.7437 7.06015 38.641 6.33381 38.4153C6.16829 38.3632 6.02215 38.2627 5.91416 38.1269C5.4995 37.6872 4.9524 37.3951 4.3563 37.2953C4.25971 37.2695 4.16311 37.2436 4.01614 37.3284C3.31305 37.3338 2.62511 37.1241 2.04445 36.7276L0.873888 35.2234C0.819214 35.157 0.709681 35.1794 0.747302 34.9617C0.876712 34.4788 0.646784 34.4482 0.50587 34.3173C0.298946 34.1446 0.134187 33.927 0.0241583 33.6809C-0.0152183 33.4562 -0.00637871 33.2257 0.0500904 33.0046C0.185448 32.7001 0.38534 32.4287 0.635937 32.2091C0.845251 32.0138 1.01903 31.7837 1.1495 31.5289L1.34047 31.2798C1.89949 31.0179 2.48956 30.8281 3.09647 30.715C3.09647 30.715 3.51182 30.8263 3.96581 30.948C4.41979 31.0696 4.88344 31.1939 4.93173 31.2068C4.98003 31.2197 5.08679 31.3622 5.15043 31.4725C5.21407 31.5827 6.59932 31.8607 6.65727 31.8762C6.89667 32.0646 7.24649 32.0341 7.34442 32.5573C7.36942 32.6571 7.42996 32.663 7.48533 32.6882C7.9759 32.9234 8.42724 33.2329 8.82343 33.6058C9.04706 33.7756 9.28284 33.9287 9.52888 34.064C9.52888 34.064 9.58286 34.1716 9.62081 34.2232C9.63008 34.3225 9.67004 34.4164 9.73514 34.492C10.2735 34.9083 10.8329 35.2966 11.4111 35.6554C11.556 35.6942 11.9893 36.4729 12.2011 36.571C12.4129 36.6692 12.2891 37.2469 12.4135 37.2077Z" fill="#6E41E2"/>
</svg>
