<svg width="28" height="28" viewBox="0 0 28 28" fill="none" xmlns="http://www.w3.org/2000/svg">
<path d="M14.2229 0.704102C6.76044 0.704102 0.703979 6.76056 0.703979 14.223C0.703979 21.6854 6.76044 27.7419 14.2229 27.7419C21.6853 27.7419 27.7417 21.6854 27.7417 14.223C27.7417 6.76056 21.6853 0.704102 14.2229 0.704102ZM14.2229 25.0381C8.26103 25.0381 3.40775 20.1848 3.40775 14.223C3.40775 8.26115 8.26103 3.40788 14.2229 3.40788C20.1847 3.40788 25.038 8.26115 25.038 14.223C25.038 20.1848 20.1847 25.0381 14.2229 25.0381ZM20.428 8.24763L11.5191 17.1566L8.01769 13.6687L6.11153 15.5749L11.5191 20.9824L22.3342 10.1673L20.428 8.24763Z" fill="#06FFB4"/>
</svg>
