<svg width="22" height="22" viewBox="0 0 22 22" fill="none" xmlns="http://www.w3.org/2000/svg">
<path d="M11.0002 1.8335C5.94016 1.8335 1.8335 5.94016 1.8335 11.0002C1.8335 16.0602 5.94016 20.1668 11.0002 20.1668C16.0602 20.1668 20.1668 16.0602 20.1668 11.0002C20.1668 5.94016 16.0602 1.8335 11.0002 1.8335ZM11.0002 18.3335C6.95766 18.3335 3.66683 15.0427 3.66683 11.0002C3.66683 6.95766 6.95766 3.66683 11.0002 3.66683C15.0427 3.66683 18.3335 6.95766 18.3335 11.0002C18.3335 15.0427 15.0427 18.3335 11.0002 18.3335ZM15.2077 6.9485L9.16683 12.9893L6.79266 10.6243L5.50016 11.9168L9.16683 15.5835L16.5002 8.25016L15.2077 6.9485Z" fill="#111111"/>
</svg>
