<svg  viewBox="0 0 46 40" fill="none" xmlns="http://www.w3.org/2000/svg">
<path d="M18.918 39.588C17.8447 39.588 17.0627 39.22 16.572 38.484C16.112 37.7787 15.882 36.8587 15.882 35.724C15.882 34.4973 15.974 33.4087 16.158 32.458C16.3727 31.5073 16.618 30.5413 16.894 29.56C15.3913 29.6827 13.8733 29.8053 12.34 29.928C10.8067 30.02 9.27333 30.0967 7.74 30.158C7.188 30.5873 6.60533 30.9247 5.992 31.17C5.37867 31.4153 4.67333 31.538 3.876 31.538C2.71067 31.538 1.79067 31.2927 1.116 30.802C0.441333 30.3113 0.104 29.5293 0.104 28.456C0.104 27.2293 0.472 26.3247 1.208 25.742C1.97467 25.1287 2.94067 24.6993 4.106 24.454C5.63933 22.5833 7.31067 20.7127 9.12 18.842C10.9293 16.9713 12.7233 15.116 14.502 13.276C16.2807 11.436 17.8753 9.62667 19.286 7.848C20.7273 6.03867 21.816 4.27533 22.552 2.558C22.92 1.69933 23.426 1.10133 24.07 0.763999C24.7447 0.395998 25.4653 0.211997 26.232 0.211997C27.3053 0.211997 28.026 0.625998 28.394 1.454C28.7927 2.282 28.992 3.27866 28.992 4.444C28.992 4.72 28.8847 5.42533 28.67 6.56C28.4553 7.664 28.1487 9.09 27.75 10.838C27.382 12.5553 26.9527 14.472 26.462 16.588C26.002 18.6733 25.5267 20.8353 25.036 23.074C27.06 22.8593 28.808 22.6907 30.28 22.568C31.752 22.4147 32.6873 22.338 33.086 22.338C33.9753 22.338 34.696 22.43 35.248 22.614C35.8 22.798 36.076 23.258 36.076 23.994C36.076 24.6687 35.6467 25.236 34.788 25.696C33.96 26.1253 33.0553 26.5087 32.074 26.846C31.0927 27.1833 29.912 27.5207 28.532 27.858C27.152 28.1953 25.542 28.502 23.702 28.778C23.3953 30.0353 23.0887 31.2313 22.782 32.366C22.4753 33.5007 22.184 34.804 21.908 36.276C21.6933 37.2573 21.3713 38.0547 20.942 38.668C20.5433 39.2813 19.8687 39.588 18.918 39.588ZM20.574 14.242C19.0713 16.082 17.5073 17.922 15.882 19.762C14.2873 21.5713 12.754 23.212 11.282 24.684C12.4167 24.5307 13.5667 24.3927 14.732 24.27C15.928 24.1473 17.124 24.0247 18.32 23.902L20.574 14.242ZM40.8686 37.196C39.918 37.196 39.0286 36.9047 38.2006 36.322C37.3726 35.7393 36.9586 34.7887 36.9586 33.47C36.9586 32.458 37.2193 31.6453 37.7406 31.032C38.262 30.388 38.86 29.9127 39.5346 29.606C40.24 29.2993 40.838 29.146 41.3286 29.146C41.85 29.146 42.4326 29.2687 43.0766 29.514C43.7513 29.7287 44.334 30.1427 44.8246 30.756C45.3153 31.3387 45.5606 32.182 45.5606 33.286C45.5606 34.3593 45.1006 35.2793 44.1806 36.046C43.2913 36.8127 42.1873 37.196 40.8686 37.196Z" fill="#6E41E2"/>
</svg>
