<svg width="50" height="50" viewBox="0 0 50 50" fill="none" xmlns="http://www.w3.org/2000/svg">
<path d="M18.7496 13.5334C20.7682 12.9693 22.8514 12.6874 24.9996 12.6874C27.1478 12.6874 29.2314 12.9693 31.2501 13.5334C36.5703 10.093 38.1089 10.9735 38.1089 10.9735C39.7306 14.7765 38.3787 17.6024 38.3787 17.6024C40.093 19.4471 40.9507 21.6826 40.9507 24.3083C40.9507 26.1527 40.7275 27.7854 40.2834 29.207C39.8387 30.6288 39.264 31.7674 38.5589 32.625C37.8531 33.4824 36.974 34.2041 35.9217 34.7896C34.8691 35.3757 33.8487 35.7986 32.8616 36.0592C31.874 36.3198 30.762 36.5158 29.5252 36.646C30.6532 37.6221 31.2174 39.163 31.2174 41.2679V48.1357C31.2174 48.5259 31.3531 48.8517 31.6247 49.1119C31.8958 49.3718 32.3242 49.4483 32.9102 49.3394C37.9454 47.6688 42.0524 44.6577 45.2315 40.3066C48.4101 35.9557 50 31.0571 50 25.6095C49.9989 21.0752 48.8807 16.8929 46.6465 13.0626C44.4108 9.23222 41.3785 6.1997 37.5484 3.96434C33.7178 1.72891 29.5359 0.611328 24.9998 0.611328C20.4642 0.611328 16.281 1.72918 12.4512 3.96434C8.62081 6.19956 5.58843 9.23222 3.35287 13.0626C1.11765 16.8929 0 21.0756 0 25.6105C0 31.0581 1.58935 35.9566 4.76881 40.3075C7.94799 44.6587 12.0549 47.6696 17.0894 49.3404C17.6755 49.4492 18.1093 49.3727 18.3914 49.1128C18.6736 48.8526 18.8144 48.5268 18.8144 48.1367C18.8144 48.0716 18.8089 47.486 18.798 46.3789C18.7869 45.272 18.7816 44.5778 18.7816 43.7538C18.7816 43.7538 18.0981 42.8539 17.0085 42.1153C16.352 41.68 15.6441 41.5787 14.9759 41.4812C13.486 41.264 12.6195 41.5523 11.6711 41.5664C10.8558 41.5786 9.67037 41.4139 9.00053 40.8047C7.29595 39.2351 6.61297 38.4035 6.18889 37.4057C6.06352 37.1108 6.16785 36.6287 6.21851 36.4555C6.25104 36.3443 6.54252 36.2646 7.06674 36.3976C7.6696 36.5505 7.88063 37.1376 8.52629 37.8248C9.00888 38.3385 9.61353 38.804 10.4468 39.0409C11.9757 39.5189 14.167 38.5022 15.6028 38.6283C17.5604 38.7636 18.3976 39.6543 18.8468 39.9986C19.042 38.544 19.5738 37.4266 20.4416 36.6454C19.2047 36.5154 18.0927 36.3196 17.1051 36.0594C16.1179 35.7987 15.0979 35.3757 14.0456 34.7892C12.9926 34.2036 12.1192 33.4762 11.4249 32.6086C10.7306 31.7405 10.1607 30.6008 9.7162 29.1906C9.27144 27.7798 9.04903 26.1524 9.04903 24.308C9.04903 21.6816 9.90635 19.4467 11.6208 17.602C11.6208 17.602 10.2521 14.6832 11.8941 10.9249C11.8941 10.9249 13.5969 10.2924 18.7496 13.5334Z" fill="white"/>
</svg>
