<svg  viewBox="0 0 202 14" fill="none" xmlns="http://www.w3.org/2000/svg">
<path d="M127.104 7.17379C133.32 7.29931 139.535 7.42483 145.751 7.50207C148.02 7.50207 150.274 7.40552 152.542 7.45379L176.52 7.9269C180.063 8.02345 183.638 8.04276 187.165 8.06207C191.786 7.92521 196.416 8.14575 200.949 8.71862C201.291 8.7712 201.603 8.88146 201.85 9.03724C202.007 9.12984 202.045 9.27589 201.944 9.39448C201.565 9.68214 201.113 9.92992 200.607 10.1283C198.874 10.9147 196.847 11.4132 194.718 11.5766C190.211 11.8276 185.642 12.1366 181.058 12.3393L177.593 12.4841H174.143C171.827 12.4841 169.481 12.3876 167.196 12.291C161.649 12.069 155.899 12.4552 150.227 12.5421C144.011 12.629 137.795 12.6676 131.486 12.7159L119.955 12.8028C114.128 12.8607 108.269 12.8028 102.504 12.9959C100.251 13.0731 98.0284 13.2372 95.8218 13.411L92.4962 13.691C91.3773 13.7683 90.274 13.8166 89.1551 13.8648C88.0363 13.9131 87.2282 13.9903 86.2336 14C82.5507 14 81.3697 13.6041 80.5771 12.2331C80.367 11.9188 80.1905 11.5963 80.0488 11.2676C79.7069 10.2248 81.1832 9.33655 83.825 8.91172C87.7691 8.22181 91.8049 7.75326 95.8839 7.51172C99.9864 7.28966 104.167 7.18345 108.316 7.09655C111.424 7.03862 114.532 7.01931 117.64 7H126.964L127.104 7.17379Z" fill="#6E41E2"/>
<path d="M61.7751 0.173793C69.9272 0.29931 78.0793 0.424828 86.2314 0.502069C89.2069 0.502069 92.162 0.405517 95.1375 0.453793L126.584 0.926897C131.231 1.02345 135.918 1.04276 140.545 1.06207C146.604 0.925206 152.677 1.14575 158.622 1.71862C159.07 1.7712 159.479 1.88146 159.804 2.03724C160.009 2.12984 160.059 2.27589 159.926 2.39448C159.429 2.68214 158.837 2.92992 158.173 3.12828C155.901 3.91469 153.242 4.41319 150.449 4.57655C144.539 4.82759 138.547 5.13655 132.535 5.33931L127.99 5.48414H123.466C120.429 5.48414 117.352 5.38759 114.356 5.29103C107.08 5.06897 99.5396 5.45517 92.1009 5.54207C83.9488 5.62897 75.7967 5.66759 67.5224 5.71586L52.4003 5.80276C44.7577 5.86069 37.0744 5.80276 29.5133 5.99586C26.5582 6.0731 23.6438 6.23724 20.7498 6.41103L16.3885 6.69103C14.9211 6.76828 13.4741 6.81655 12.0067 6.86483C10.5394 6.9131 9.4796 6.99034 8.17527 7C3.34517 7 1.79628 6.60414 0.756887 5.2331C0.481269 4.91885 0.249789 4.59631 0.0639608 4.26759C-0.384403 3.22483 1.55171 2.33655 5.01634 1.91172C10.189 1.22181 15.4819 0.753262 20.8314 0.511724C26.2117 0.289655 31.694 0.183448 37.1355 0.0965517C41.2115 0.0386207 45.2876 0.0193103 49.3636 0H61.5917L61.7751 0.173793Z" fill="#6E41E2"/>
</svg>
