<svg width="308" height="8" viewBox="0 0 308 8" fill="none" xmlns="http://www.w3.org/2000/svg">
<path d="M118.917 0.198621C134.61 0.342069 150.303 0.485517 165.995 0.573793C171.723 0.573793 177.412 0.463448 183.14 0.518621L243.674 1.05931C252.619 1.16966 261.643 1.19172 270.548 1.21379C282.214 1.05738 293.903 1.30943 305.347 1.96414C306.21 2.02422 306.998 2.15024 307.622 2.32828C308.018 2.4341 308.114 2.60102 307.858 2.73655C306.901 3.06531 305.761 3.34849 304.484 3.57517C300.109 4.47393 294.991 5.04364 289.615 5.23034C278.238 5.51724 266.704 5.87035 255.13 6.10207L246.381 6.26759H237.672C231.826 6.26759 225.902 6.15724 220.135 6.0469C206.13 5.7931 191.614 6.23448 177.294 6.33379C161.601 6.4331 145.909 6.47724 129.981 6.53241L100.871 6.63172C86.1586 6.69793 71.3682 6.63172 56.8131 6.85241C51.1245 6.94069 45.5144 7.12828 39.9435 7.3269L31.5478 7.6469C28.7231 7.73517 25.9377 7.79034 23.113 7.84552C20.2883 7.90069 18.2482 7.98897 15.7374 8C6.43945 8 3.45783 7.54759 1.45701 5.98069C0.926443 5.62154 0.480844 5.25292 0.123125 4.87724C-0.739976 3.68552 2.98705 2.67034 9.65646 2.18483C19.6138 1.39635 29.8026 0.860871 40.1004 0.584828C50.4576 0.331034 61.011 0.209655 71.4859 0.110345C79.3322 0.0441379 87.1786 0.022069 95.025 0H118.564L118.917 0.198621Z" fill="#6E41E2"/>
</svg>
