<svg  viewBox="0 0 112 100" fill="none" xmlns="http://www.w3.org/2000/svg">
<path d="M17.468 19.308C17.0427 19.308 16.72 19.176 16.5 18.912C16.2947 18.648 16.192 18.2887 16.192 17.834C16.192 17.4673 16.2067 17.152 16.236 16.888C16.2653 16.624 16.324 16.3453 16.412 16.052C16.5 15.744 16.61 15.37 16.742 14.93C16.8887 14.4753 17.072 13.896 17.292 13.192C17.424 12.7813 17.5853 12.246 17.776 11.586C17.9813 10.9113 18.1867 10.178 18.392 9.386C18.5973 8.57933 18.766 7.77267 18.898 6.966C19.0447 6.14467 19.118 5.38933 19.118 4.7C19.118 4.23067 19.0153 3.798 18.81 3.402C17.446 4.75133 16.1553 6.51133 14.938 8.682C13.7353 10.8527 12.6647 13.3753 11.726 16.25C11.4473 16.9687 11.1247 17.4527 10.758 17.702C10.3913 17.9367 10.0393 18.054 9.702 18.054C9.59933 18.054 9.44533 17.9953 9.24 17.878C9.03467 17.746 8.844 17.5113 8.668 17.174C8.492 16.8367 8.404 16.36 8.404 15.744C8.404 15.5973 8.44067 15.414 8.514 15.194C8.58733 14.9593 8.69733 14.71 8.844 14.446C8.976 13.6833 9.07133 12.8693 9.13 12.004C9.20333 11.124 9.24733 10.2513 9.262 9.386C9.29133 8.506 9.306 7.68467 9.306 6.922C9.306 6.33533 9.262 5.822 9.174 5.382C8.45533 6.29133 7.77333 7.39133 7.128 8.682C6.48267 9.97267 5.896 11.344 5.368 12.796C4.85467 14.248 4.42933 15.6707 4.092 17.064C4.004 17.4013 3.90133 17.7167 3.784 18.01C3.66667 18.2887 3.49067 18.516 3.256 18.692C3.036 18.8533 2.71333 18.934 2.288 18.934C1.81867 18.934 1.46667 18.7433 1.232 18.362C0.997333 17.9807 0.88 17.4747 0.88 16.844C0.88 16.36 0.982667 15.7367 1.188 14.974C1.39333 14.1967 1.672 13.3533 2.024 12.444C2.376 11.52 2.77933 10.5813 3.234 9.628C3.70333 8.66 4.19467 7.72867 4.708 6.834C5.22133 5.93933 5.742 5.14 6.27 4.436C6.81267 3.71733 7.326 3.15267 7.81 2.742C8.30867 2.31667 8.76333 2.104 9.174 2.104C9.18867 2.104 9.21067 2.104 9.24 2.104C9.56267 2.104 9.856 2.13333 10.12 2.192C10.3987 2.236 10.6407 2.39 10.846 2.654C11.066 2.90333 11.2567 3.32133 11.418 3.908C11.5793 4.49467 11.7187 5.32333 11.836 6.394C11.8653 6.658 11.8873 6.97333 11.902 7.34C11.9167 7.692 11.924 8.05867 11.924 8.44C12.408 7.35467 12.936 6.33533 13.508 5.382C14.0947 4.42867 14.696 3.58533 15.312 2.852C15.9427 2.11867 16.566 1.54667 17.182 1.136C17.798 0.725333 18.37 0.519999 18.898 0.519999C19.514 0.519999 20.086 0.673999 20.614 0.981999C21.142 1.27533 21.5673 1.774 21.89 2.478C22.2127 3.182 22.374 4.14267 22.374 5.36C22.374 6.65067 22.2567 7.90467 22.022 9.122C21.7873 10.3247 21.494 11.4613 21.142 12.532C20.79 13.6027 20.438 14.5853 20.086 15.48C19.734 16.36 19.4407 17.1227 19.206 17.768C19.0153 18.2227 18.7953 18.5967 18.546 18.89C18.2967 19.1687 17.9373 19.308 17.468 19.308ZM29.2681 19.726C28.2267 19.726 27.3907 19.3593 26.7601 18.626C26.1294 17.878 25.8141 16.8807 25.8141 15.634C25.8141 15.238 25.8654 14.8347 25.9681 14.424C26.0854 14.0133 26.2247 13.632 26.3861 13.28C26.2981 13.148 26.2247 12.9793 26.1661 12.774C26.1221 12.554 26.1001 12.2973 26.1001 12.004C26.1001 11.0507 26.2687 10.178 26.6061 9.386C26.9434 8.57933 27.3981 7.88267 27.9701 7.296C28.5421 6.70933 29.1727 6.25467 29.8621 5.932C30.5514 5.60933 31.2481 5.448 31.9521 5.448C33.1547 5.448 34.1374 5.85133 34.9001 6.658C35.6774 7.46467 36.0661 8.71867 36.0661 10.42C36.0661 11.2707 35.9341 12.136 35.6701 13.016C35.4061 13.896 35.0467 14.7393 34.5921 15.546C34.1521 16.338 33.6387 17.0493 33.0521 17.68C32.4801 18.3107 31.8641 18.8093 31.2041 19.176C30.5587 19.5427 29.9134 19.726 29.2681 19.726ZM28.9161 12.29C28.9894 12.4513 29.0261 12.642 29.0261 12.862C29.0261 13.082 28.9821 13.3093 28.8941 13.544C28.8061 13.7787 28.7181 14.094 28.6301 14.49C28.5421 14.8713 28.4981 15.4213 28.4981 16.14C28.4981 16.3307 28.5201 16.492 28.5641 16.624C28.6227 16.7413 28.7474 16.8 28.9381 16.8C29.4367 16.8 29.9061 16.6387 30.3461 16.316C30.8007 15.9933 31.2041 15.568 31.5561 15.04C31.9227 14.512 32.2307 13.9253 32.4801 13.28C32.7441 12.62 32.9421 11.9527 33.0741 11.278C33.2207 10.5887 33.2941 9.95067 33.2941 9.364C33.2941 8.98267 33.2207 8.71867 33.0741 8.572C32.9274 8.42533 32.6707 8.352 32.3041 8.352C31.8054 8.352 31.2921 8.51333 30.7641 8.836C30.2507 9.144 29.8181 9.56933 29.4661 10.112C29.1141 10.64 28.9381 11.2413 28.9381 11.916C28.9381 12.048 28.9307 12.1727 28.9161 12.29ZM41.652 20.122C41.0213 20.122 40.574 20.034 40.31 19.858C40.0607 19.682 39.936 19.4253 39.936 19.088C39.936 18.7947 40.0387 18.5453 40.244 18.34C40.4493 18.12 40.904 17.9 41.608 17.68C42.4293 17.4307 43.2067 17.1447 43.94 16.822C44.688 16.4847 45.2967 16.118 45.766 15.722C46.25 15.326 46.492 14.908 46.492 14.468C46.492 14.1747 46.3893 13.962 46.184 13.83C45.9933 13.698 45.766 13.632 45.502 13.632C45.282 13.632 44.9593 13.6687 44.534 13.742C44.1233 13.8007 43.6687 13.8813 43.17 13.984C42.6713 14.072 42.1873 14.1527 41.718 14.226C41.2633 14.2847 40.8747 14.314 40.552 14.314C39.7893 14.314 39.2247 14.1453 38.858 13.808C38.4913 13.456 38.308 13.0087 38.308 12.466C38.308 12.1727 38.462 11.7693 38.77 11.256C39.078 10.7427 39.4887 10.178 40.002 9.562C40.5153 8.946 41.0873 8.33 41.718 7.714C42.3487 7.098 42.9867 6.53333 43.632 6.02C44.292 5.492 44.9153 5.074 45.502 4.766C46.0887 4.44333 46.5873 4.282 46.998 4.282C47.4673 4.282 47.8413 4.42867 48.12 4.722C48.4133 5.01533 48.56 5.41133 48.56 5.91C48.56 6.14467 48.538 6.40133 48.494 6.68C48.45 6.944 48.34 7.186 48.164 7.406C47.988 7.61133 47.7167 7.758 47.35 7.846C46.9833 7.934 46.4847 7.91933 45.854 7.802C45.3553 8.16867 44.8347 8.572 44.292 9.012C43.764 9.43733 43.2653 9.88467 42.796 10.354C42.3267 10.8087 41.938 11.256 41.63 11.696C42.1727 11.52 42.7887 11.3807 43.478 11.278C44.1673 11.1607 44.864 11.102 45.568 11.102C46.4187 11.102 47.108 11.256 47.636 11.564C48.1787 11.8573 48.5747 12.2533 48.824 12.752C49.088 13.2507 49.22 13.8007 49.22 14.402C49.22 15.0767 49 15.7513 48.56 16.426C48.12 17.1007 47.5333 17.7167 46.8 18.274C46.0667 18.8313 45.2527 19.2787 44.358 19.616C43.4633 19.9533 42.5613 20.122 41.652 20.122ZM67.5096 7.912C67.5096 8.088 67.4509 8.242 67.3336 8.374C67.2162 8.506 67.0696 8.60867 66.8936 8.682C66.6442 8.78467 66.2116 8.91667 65.5956 9.078C64.9796 9.23933 64.2316 9.42267 63.3516 9.628C62.4862 9.83333 61.5549 10.046 60.5576 10.266C59.5602 10.4713 58.5629 10.6693 57.5656 10.86C57.1842 12.268 56.7956 13.72 56.3996 15.216C56.0036 16.6973 55.6076 18.1567 55.2116 19.594C55.0649 20.1073 54.8889 20.496 54.6836 20.76C54.4782 21.0387 54.1262 21.178 53.6276 21.178C53.0849 21.178 52.7182 21.002 52.5276 20.65C52.3516 20.3127 52.3296 19.8507 52.4616 19.264C52.8429 17.6653 53.1949 16.1767 53.5176 14.798C53.8549 13.4193 54.1262 12.3047 54.3316 11.454C53.4516 11.6007 52.6816 11.718 52.0216 11.806C51.3616 11.8793 50.8922 11.9087 50.6136 11.894C50.3056 11.8647 50.0489 11.74 49.8436 11.52C49.6382 11.3 49.5429 11.0287 49.5576 10.706C49.5869 10.4127 49.7189 10.1633 49.9536 9.958C50.1882 9.738 50.4669 9.606 50.7896 9.562C51.2442 9.518 51.8309 9.452 52.5496 9.364C53.2682 9.276 54.0602 9.17333 54.9256 9.056C55.1162 8.308 55.3362 7.538 55.5856 6.746C55.8349 5.93933 56.0916 5.16933 56.3556 4.436C56.6342 3.688 56.8982 3.03533 57.1476 2.478C57.3969 1.92067 57.6242 1.51733 57.8296 1.268C57.9909 1.07733 58.1889 0.930665 58.4236 0.827999C58.6729 0.725332 58.9149 0.673999 59.1496 0.673999C59.4576 0.673999 59.7069 0.783999 59.8976 1.004C60.0882 1.224 60.1836 1.48067 60.1836 1.774C60.1836 1.89133 60.1762 2.016 60.1616 2.148C60.1469 2.26533 60.1176 2.38267 60.0736 2.5C59.7949 3.23333 59.4942 4.12067 59.1716 5.162C58.8636 6.20333 58.5409 7.34733 58.2036 8.594C59.3036 8.43267 60.3816 8.27133 61.4376 8.11C62.5082 7.934 63.4762 7.77267 64.3416 7.626C65.2216 7.46467 65.9256 7.32533 66.4536 7.208C66.7469 7.10533 66.9962 7.12733 67.2016 7.274C67.4069 7.406 67.5096 7.61867 67.5096 7.912ZM16.676 37.25C16.676 38.394 16.5733 39.604 16.368 40.88C16.1773 42.1413 15.862 43.3807 15.422 44.598C14.9967 45.8007 14.432 46.8933 13.728 47.876C13.024 48.8587 12.1733 49.6433 11.176 50.23C10.1933 50.8167 9.042 51.11 7.722 51.11C6.21133 51.11 4.994 50.626 4.07 49.658C3.146 48.69 2.684 47.2087 2.684 45.214C2.684 44.2313 2.794 43.2707 3.014 42.332C3.24867 41.3787 3.498 40.5207 3.762 39.758C3.73267 39.626 3.718 39.472 3.718 39.296C3.718 38.6653 3.81333 38.0713 4.004 37.514C4.20933 36.942 4.466 36.4433 4.774 36.018C5.09667 35.578 5.434 35.2333 5.786 34.984C6.15267 34.7347 6.49733 34.61 6.82 34.61C7.15733 34.61 7.45067 34.7273 7.7 34.962C7.964 35.182 8.096 35.5707 8.096 36.128C8.096 36.4653 7.97133 36.9347 7.722 37.536C7.48733 38.1227 7.216 38.8267 6.908 39.648C6.6 40.4547 6.32133 41.364 6.072 42.376C5.83733 43.3733 5.72 44.444 5.72 45.588C5.72 47.172 6.512 47.964 8.096 47.964C8.91733 47.964 9.62133 47.7293 10.208 47.26C10.8093 46.776 11.3007 46.1307 11.682 45.324C12.078 44.5173 12.4007 43.608 12.65 42.596C12.8993 41.584 13.09 40.5427 13.222 39.472C13.354 38.3867 13.4493 37.3453 13.508 36.348C13.552 35.7907 13.7207 35.3873 14.014 35.138C14.322 34.8887 14.6887 34.764 15.114 34.764C15.3927 34.764 15.6493 34.8153 15.884 34.918C16.1187 35.006 16.3093 35.226 16.456 35.578C16.6027 35.93 16.676 36.4873 16.676 37.25ZM23.0677 52.122C22.437 52.122 21.9897 52.034 21.7257 51.858C21.4764 51.682 21.3517 51.4253 21.3517 51.088C21.3517 50.7947 21.4544 50.5453 21.6597 50.34C21.865 50.12 22.3197 49.9 23.0237 49.68C23.845 49.4307 24.6224 49.1447 25.3557 48.822C26.1037 48.4847 26.7124 48.118 27.1817 47.722C27.6657 47.326 27.9077 46.908 27.9077 46.468C27.9077 46.1747 27.805 45.962 27.5997 45.83C27.409 45.698 27.1817 45.632 26.9177 45.632C26.6977 45.632 26.375 45.6687 25.9497 45.742C25.539 45.8007 25.0844 45.8813 24.5857 45.984C24.087 46.072 23.603 46.1527 23.1337 46.226C22.679 46.2847 22.2904 46.314 21.9677 46.314C21.205 46.314 20.6404 46.1453 20.2737 45.808C19.907 45.456 19.7237 45.0087 19.7237 44.466C19.7237 44.1727 19.8777 43.7693 20.1857 43.256C20.4937 42.7427 20.9044 42.178 21.4177 41.562C21.931 40.946 22.503 40.33 23.1337 39.714C23.7644 39.098 24.4024 38.5333 25.0477 38.02C25.7077 37.492 26.331 37.074 26.9177 36.766C27.5044 36.4433 28.003 36.282 28.4137 36.282C28.883 36.282 29.257 36.4287 29.5357 36.722C29.829 37.0153 29.9757 37.4113 29.9757 37.91C29.9757 38.1447 29.9537 38.4013 29.9097 38.68C29.8657 38.944 29.7557 39.186 29.5797 39.406C29.4037 39.6113 29.1324 39.758 28.7657 39.846C28.399 39.934 27.9004 39.9193 27.2697 39.802C26.771 40.1687 26.2504 40.572 25.7077 41.012C25.1797 41.4373 24.681 41.8847 24.2117 42.354C23.7424 42.8087 23.3537 43.256 23.0457 43.696C23.5884 43.52 24.2044 43.3807 24.8937 43.278C25.583 43.1607 26.2797 43.102 26.9837 43.102C27.8344 43.102 28.5237 43.256 29.0517 43.564C29.5944 43.8573 29.9904 44.2533 30.2397 44.752C30.5037 45.2507 30.6357 45.8007 30.6357 46.402C30.6357 47.0767 30.4157 47.7513 29.9757 48.426C29.5357 49.1007 28.949 49.7167 28.2157 50.274C27.4824 50.8313 26.6684 51.2787 25.7737 51.616C24.879 51.9533 23.977 52.122 23.0677 52.122ZM36.8607 51.748C35.9513 51.748 35.218 51.4327 34.6607 50.802C34.1033 50.1567 33.8247 49.1227 33.8247 47.7C33.8247 46.7907 33.9273 45.8813 34.1327 44.972C34.3527 44.048 34.6533 43.1753 35.0347 42.354C35.4307 41.518 35.8853 40.7773 36.3987 40.132C36.9267 39.4867 37.506 38.9807 38.1367 38.614C38.7673 38.2327 39.42 38.042 40.0947 38.042C41.2387 38.042 42.1333 38.35 42.7787 38.966C43.424 39.582 43.7467 40.3667 43.7467 41.32C43.7467 42.0533 43.5413 42.7207 43.1307 43.322C42.7347 43.9087 42.192 44.4367 41.5027 44.906C40.8133 45.3753 40.0433 45.8007 39.1927 46.182C38.342 46.5633 37.4693 46.908 36.5747 47.216C36.5013 47.744 36.4647 48.2133 36.4647 48.624C36.4647 48.8733 36.604 48.998 36.8827 48.998C37.5427 48.998 38.2467 48.8953 38.9947 48.69C39.7573 48.47 40.5273 48.1913 41.3047 47.854C42.082 47.502 42.83 47.1427 43.5487 46.776C44.2673 46.3947 44.92 46.0353 45.5067 45.698C46.108 45.346 46.5993 45.0673 46.9807 44.862C47.3767 44.642 47.6333 44.532 47.7507 44.532C48.0733 44.532 48.308 44.6273 48.4547 44.818C48.6013 45.0087 48.6747 45.214 48.6747 45.434C48.6747 45.5367 48.4767 45.764 48.0807 46.116C47.6993 46.468 47.1713 46.886 46.4967 47.37C45.8367 47.8393 45.0887 48.3307 44.2527 48.844C43.4313 49.3427 42.5733 49.8193 41.6787 50.274C40.7987 50.714 39.9407 51.066 39.1047 51.33C38.2833 51.6087 37.5353 51.748 36.8607 51.748ZM36.9487 45.258C37.55 44.906 38.144 44.5393 38.7307 44.158C39.332 43.762 39.8307 43.322 40.2267 42.838C40.6227 42.3393 40.8207 41.76 40.8207 41.1C40.8207 40.9093 40.7693 40.7847 40.6667 40.726C40.564 40.6527 40.4173 40.616 40.2267 40.616C39.7133 40.616 39.244 40.8433 38.8187 41.298C38.408 41.7527 38.0413 42.3393 37.7187 43.058C37.4107 43.762 37.154 44.4953 36.9487 45.258ZM57.0451 39.23C57.8518 37.3087 58.5631 35.3287 59.1791 33.29C59.2965 32.8793 59.4651 32.564 59.6851 32.344C59.9198 32.124 60.2425 32.014 60.6531 32.014C60.9905 32.014 61.2471 32.1167 61.4231 32.322C61.5991 32.5127 61.6871 32.7767 61.6871 33.114C61.6871 33.3927 61.5698 33.8913 61.3351 34.61C61.1005 35.314 60.8145 36.2087 60.4771 37.294C60.1398 38.3793 59.8025 39.6333 59.4651 41.056C59.1278 42.4787 58.8418 44.0407 58.6071 45.742C58.3725 47.4433 58.2551 49.262 58.2551 51.198C58.2551 51.726 58.1525 52.1587 57.9471 52.496C57.7565 52.848 57.4191 53.024 56.9351 53.024C56.4071 53.024 56.0185 52.8407 55.7691 52.474C55.5345 52.1073 55.4171 51.638 55.4171 51.066C55.4171 49.9367 55.4538 48.998 55.5271 48.25C55.6151 47.4873 55.7031 46.8347 55.7911 46.292C55.0725 47.524 54.3098 48.5873 53.5031 49.482C52.7111 50.362 51.9485 51.0367 51.2151 51.506C50.4818 51.99 49.8511 52.232 49.3231 52.232C48.4578 52.232 47.7538 51.99 47.2111 51.506C46.6685 51.022 46.3971 50.2887 46.3971 49.306C46.3971 48.5433 46.5805 47.7587 46.9471 46.952C47.3138 46.1307 47.7978 45.324 48.3991 44.532C49.0005 43.74 49.6605 42.9993 50.3791 42.31C51.1125 41.606 51.8458 40.99 52.5791 40.462C53.3125 39.9193 53.9945 39.494 54.6251 39.186C55.2558 38.878 55.7691 38.724 56.1651 38.724C56.6051 38.724 56.8985 38.8927 57.0451 39.23ZM56.5391 40.418C56.4511 40.4767 56.3558 40.5353 56.2531 40.594C56.1651 40.638 56.0771 40.6893 55.9891 40.748C55.4318 41.1 54.8378 41.5253 54.2071 42.024C53.5765 42.508 52.9531 43.0507 52.3371 43.652C51.7211 44.2387 51.1565 44.8547 50.6431 45.5C50.1445 46.1307 49.7411 46.7613 49.4331 47.392C49.1398 48.008 48.9931 48.602 48.9931 49.174C48.9931 49.2767 49.0371 49.35 49.1251 49.394C49.2131 49.438 49.2938 49.46 49.3671 49.46C49.8805 49.46 50.4305 49.2327 51.0171 48.778C51.6185 48.3233 52.2271 47.6927 52.8431 46.886C53.4738 46.0647 54.0971 45.104 54.7131 44.004C55.3438 42.904 55.9525 41.7087 56.5391 40.418Z" fill="#FF5C00"/>
<path d="M53.8448 93.7446L53.325 95.1516L53.8448 93.7446ZM111.859 82.4156C111.876 81.5874 111.219 80.9018 110.391 80.8842L96.8938 80.5986C96.0655 80.5811 95.3799 81.2383 95.3624 82.0666C95.3449 82.8948 96.0021 83.5804 96.8303 83.598L108.828 83.8518L108.574 95.8491C108.556 96.6774 109.213 97.363 110.042 97.3805C110.87 97.3981 111.556 96.7409 111.573 95.9126L111.859 82.4156ZM53.325 95.1516C68.8633 100.891 90.9986 103.02 111.397 83.4668L109.321 81.301C90.0249 99.7975 69.2338 97.8302 54.3646 92.3375L53.325 95.1516ZM35.1646 61.7644C33.0524 75.0432 38.4779 89.6671 53.325 95.1516L54.3646 92.3375C41.1951 87.4727 36.1788 74.4857 38.1273 62.2356L35.1646 61.7644Z" fill="#FF5C00"/>
</svg>
