  <svg  viewBox="0 0 39 41" fill="none" xmlns="http://www.w3.org/2000/svg">
                <path d="M13.064 40.542C12.5427 40.542 12.0673 40.4653 11.638 40.312C11.2393 40.1893 10.902 39.9287 10.626 39.53C9.36867 39.7447 8.12667 39.9133 6.9 40.036C5.67333 40.1587 4.52333 40.22 3.45 40.22C2.53 40.22 1.80933 39.99 1.288 39.53C0.766667 39.1007 0.506 38.4873 0.506 37.69C0.506 37.23 0.766667 36.7087 1.288 36.126C1.80933 35.5433 2.77533 34.9913 4.186 34.47C5.59667 33.918 7.65133 33.4887 10.35 33.182C10.5647 31.7407 10.8867 30.0387 11.316 28.076C11.7453 26.0827 12.2667 23.9667 12.88 21.728C13.4933 19.4587 14.214 17.22 15.042 15.012C13.9073 16.208 12.7113 17.22 11.454 18.048C10.2273 18.876 9.04667 19.5047 7.912 19.934C6.808 20.3633 5.85733 20.578 5.06 20.578C4.416 20.578 3.87933 20.4707 3.45 20.256C3.05133 20.0413 2.852 19.6427 2.852 19.06C2.852 18.324 3.20467 17.6493 3.91 17.036C4.61533 16.392 5.382 15.7633 6.21 15.15C7.46733 14.1993 8.81667 13.0647 10.258 11.746C11.73 10.4273 13.0947 9.01667 14.352 7.514C15.64 6.01133 16.6367 4.53933 17.342 3.098C17.6793 2.454 18.0473 1.948 18.446 1.58C18.8447 1.18133 19.4887 0.981998 20.378 0.981998C21.2673 0.981998 21.9113 1.38066 22.31 2.178C22.7087 2.94466 22.908 3.86466 22.908 4.938C22.908 5.36733 22.7853 6.25666 22.54 7.606C22.2947 8.92467 21.9573 10.55 21.528 12.482C21.0987 14.3833 20.6233 16.484 20.102 18.784C19.5807 21.0533 19.044 23.384 18.492 25.776C17.94 28.168 17.4187 30.4833 16.928 32.722C17.94 32.6913 18.9827 32.676 20.056 32.676C21.344 32.676 22.4633 32.7833 23.414 32.998C24.3647 33.2127 24.84 33.6727 24.84 34.378C24.84 35.114 24.518 35.666 23.874 36.034C23.2607 36.3713 22.5093 36.678 21.62 36.954C20.792 37.1993 19.8567 37.46 18.814 37.736C17.7713 38.0427 16.6673 38.3187 15.502 38.564C15.1953 39.2693 14.8273 39.7753 14.398 40.082C13.9687 40.3887 13.524 40.542 13.064 40.542ZM33.8276 38.196C32.8769 38.196 31.9876 37.9047 31.1596 37.322C30.3316 36.7393 29.9176 35.7887 29.9176 34.47C29.9176 33.458 30.1783 32.6453 30.6996 32.032C31.2209 31.388 31.8189 30.9127 32.4936 30.606C33.1989 30.2993 33.7969 30.146 34.2876 30.146C34.8089 30.146 35.3916 30.2687 36.0356 30.514C36.7103 30.7287 37.2929 31.1427 37.7836 31.756C38.2743 32.3387 38.5196 33.182 38.5196 34.286C38.5196 35.3593 38.0596 36.2793 37.1396 37.046C36.2503 37.8127 35.1463 38.196 33.8276 38.196Z" fill="#6E41E2" />
</svg>