<svg  viewBox="0 0 70 86" fill="none" xmlns="http://www.w3.org/2000/svg">
<path d="M4.84114 41.6775C5.9423 44.2828 7.06603 46.8325 8.18223 49.4007C8.59168 50.333 9.06625 51.2379 9.47194 52.1796C10.8852 55.5051 12.2854 58.836 13.5554 62.2221L15.3194 66.7044C16.1447 68.6126 16.655 70.642 16.8306 72.7137C16.8347 73.3952 16.5975 73.2882 16.2583 72.7944C15.7332 72.0515 15.2724 71.2652 14.881 70.444C14.6921 69.9788 14.4623 69.5078 14.2603 69.0481L13.9239 68.3612L13.5855 67.7059L12.389 64.8569C11.5944 62.9588 10.759 61.0549 10.0223 59.094C9.14825 56.7535 7.94354 54.43 6.88186 52.0998L3.41453 44.3686C2.71502 42.7681 2.02102 41.1806 1.37187 39.5358C1.249 39.2269 1.11686 38.9143 1.01077 38.5906C0.904683 38.267 0.891656 38.2725 0.842373 38.1014C0.79309 37.9303 0.72702 37.774 0.670755 37.5137C0.520364 37.0671 0.548077 36.5797 0.748122 36.153C0.869702 35.953 1.01668 35.7696 1.18538 35.6073C1.3515 35.4373 1.54918 35.2693 1.66293 35.1752C2.75177 34.3004 3.86385 33.6078 4.93913 32.8462C6.61618 31.6921 8.20809 30.4819 9.79248 29.2902C10.1485 29.0246 10.4674 28.7439 10.8345 28.5044C11.3022 28.1766 11.7976 27.8902 12.315 27.6483C12.6128 27.5515 12.9296 27.5282 13.2383 27.5805C13.3628 27.5864 13.4868 27.6007 13.6095 27.6232C13.767 27.6871 13.794 27.8599 13.6641 28.2065C13.4796 28.6775 13.1964 29.1035 12.8334 29.4558C10.2368 32.1578 6.84056 33.9848 3.99717 36.2843C3.74913 36.4967 3.49183 36.7052 3.26984 36.9065L3.11124 37.058L3.20256 37.3648L3.35994 37.828C3.79933 39.0855 4.35918 40.3919 4.9005 41.6908L4.84114 41.6775Z" fill="#FFE600"/>
<path d="M31.7127 57.7948C31.7127 57.7948 33.9096 58.5245 34.7358 57.446C35.562 56.3675 33.2618 61.0783 33.2618 61.0783L31.7127 57.7948Z" fill="#FFE600"/>
<path d="M38.9301 49.0251L33.1725 46.9908L31.0645 46.308L27.3532 45.0286C26.1394 44.536 24.8917 44.1268 23.6477 43.7083C22.5428 43.3463 21.4303 43.0027 20.3364 42.6667L16.0849 41.3623C15.6586 41.1893 15.7142 41.2119 16.1074 41.3067C16.5006 41.4015 17.2114 41.4849 18.0424 41.6711C21.014 42.3266 23.9781 43.0006 26.882 43.8229L32.2558 45.3669L38.1352 47.1809L41.7338 48.339C43.56 48.9183 45.375 49.5253 47.2015 50.0507C48.6162 50.4737 50.0298 50.7667 51.4486 51.1266C51.7451 51.247 52.07 51.2709 52.4241 51.3822C53.5719 51.7185 53.8881 51.9763 54.0119 52.4691C54.0454 52.5829 54.0667 52.7001 54.0752 52.8185C54.0826 53.1992 53.5322 53.332 52.6546 53.1809C49.9915 52.6738 47.3695 51.9705 44.8101 51.0768L38.9188 49.0529L38.9301 49.0251Z" fill="#FFE600"/>
<path d="M23.2664 39.0101L22.684 37.0147C22.6109 36.7692 22.5118 36.5347 22.448 36.293C22.2537 35.4155 22.0817 34.5363 21.9135 33.6479L21.6779 32.4731C21.5526 31.9926 21.5031 31.4955 21.5312 30.9998C21.5643 30.6787 22.0451 31.0896 22.1967 31.5936C22.4185 32.5362 22.7611 33.4738 22.9995 34.4555C23.1838 35.0385 23.3979 35.6116 23.6408 36.1727L24.3219 38.1111L24.7561 39.3017C24.9871 39.9027 25.205 40.5091 25.4788 41.0843C25.7177 41.5194 25.9784 41.9421 26.2599 42.3509C26.3264 42.4364 26.3873 42.526 26.4424 42.6193C26.6318 42.9767 26.5902 43.1325 26.2417 43.3796C26.165 43.4423 26.0841 43.4996 25.9995 43.5511C25.7437 43.721 25.401 43.6704 25.2052 43.4339C24.6398 42.7049 24.1984 41.8877 23.8989 41.0151C23.6552 40.3658 23.4224 39.7426 23.2105 39.0414L23.2664 39.0101Z" fill="#FFE600"/>
<path d="M7.54281 42.8386C8.73434 46.3116 10.0393 49.7442 11.3444 53.1768C11.8301 54.4532 12.4944 55.6617 12.9338 56.9192C14.6217 61.4029 16.2146 65.9345 17.7702 70.5048C18.4229 72.5396 19.1649 74.5674 19.8492 76.6043L20.5115 78.589C20.6603 79.2861 20.8073 79.9609 20.891 80.6855C21.1437 82.2014 21.0554 83.7545 20.6324 85.232C20.1774 86.3532 19.7183 85.7028 19.15 84.9757C18.2879 84.0987 17.5272 83.1276 16.8822 82.0805C16.6177 81.5091 16.3216 80.9357 16.0069 80.3547C15.7468 79.7573 15.5192 79.1462 15.3253 78.524L13.9701 74.7365L13.2832 72.8389L12.6857 70.8805C12.2912 69.5657 11.9097 68.2453 11.545 66.9102C10.4836 63.6898 9.24338 60.5311 7.83003 57.4489C6.45465 53.9769 5.09056 50.4771 3.78609 46.9368C2.95753 44.7767 2.17933 42.5723 1.48534 40.2401L1.31426 39.5448C1.24698 39.2585 1.19851 38.9258 1.14251 38.6117C1.05553 38.0058 1.08954 37.3887 1.24258 36.7961C1.52939 36.2365 1.8919 35.719 2.31988 35.2583C2.81247 34.7891 3.11288 34.5009 3.47091 34.2038C4.84916 33.0148 6.23237 31.9465 7.55825 30.8333C8.59324 29.9583 9.57264 29.0607 10.528 28.1426C11.4834 27.2244 12.3759 26.2484 13.3846 25.4382C13.8358 25.071 14.2054 24.6921 14.6566 24.3248C15.2072 23.8276 15.8213 23.4055 16.4827 23.0694C16.9278 22.9273 17.4003 22.8934 17.8611 22.9704C18.0556 23.0494 18.3121 23.0024 18.4902 23.0423C18.6683 23.0821 18.9044 23.4046 18.8739 23.9318C18.8109 24.6549 18.5625 25.3496 18.1526 25.9486C17.4526 27.0351 16.7009 28.0899 15.9326 29.1055C15.5552 29.6123 15.1327 30.0838 14.6702 30.5142C14.2297 30.9614 13.7745 31.3918 13.3192 31.8222C11.4889 33.54 9.56626 35.1664 7.81441 36.7974L6.85381 37.6486C6.70091 37.7826 6.55632 37.9257 6.42085 38.0773L6.25473 38.2473C6.24375 38.2332 6.22609 38.226 6.2084 38.2285C6.16086 38.0797 6.3122 38.6376 6.4015 38.976L6.76676 40.2034C7.04299 41.0386 7.34702 41.885 7.66407 42.726L7.54281 42.8386Z" fill="#FFE600"/>
<path d="M64.7889 36.6829C64.7692 39.4806 64.9626 42.2757 65.3673 45.0441C65.7673 47.8612 66.3272 50.6569 67.0014 53.5962L67.6809 56.6023L67.6618 57.4471L67.6411 57.8704L67.6438 58.0766L67.6062 58.1692L67.458 58.1091C67.3984 58.3743 67.2955 58.6279 67.1534 58.8596C66.9772 59.0915 66.7756 59.3029 66.5523 59.4898C66.0659 59.8804 65.5583 60.2436 65.0316 60.5778L64.3647 60.9979L63.8934 61.2815C57.2133 65.1106 50.5456 68.6966 44.032 72.6472C41.1597 74.4063 38.2649 76.2209 35.5647 78.1145C33.8019 79.3202 32.0853 80.5985 30.3854 81.862C28.6855 83.1256 26.8527 84.238 25.2417 85.5484C24.2646 86.3606 23.988 85.9785 24.2619 84.6652C24.8639 82.6576 25.9312 80.8204 27.3769 79.3029C30.7575 76.3685 34.3167 73.6464 38.034 71.1521C41.7896 68.7586 45.6298 66.529 49.5697 64.4262C51.897 63.2122 54.2476 61.7811 56.5575 60.3442L62.4571 56.63C62.4872 56.5559 62.673 56.5234 62.6513 56.4175L62.597 56.1256C62.6346 56.033 62.561 55.8952 62.5375 55.7669L62.465 55.4138L61.8923 52.969C61.5942 51.6825 61.2665 50.3624 61.0115 48.9962C60.4468 46.2908 60.0438 43.5542 59.8046 40.8009C59.7185 39.8163 59.6678 38.8244 59.6393 37.8308C59.6139 37.3348 59.6201 36.8409 59.617 36.3432L59.6142 35.7917L59.6402 35.4353C59.6624 35.2191 59.6604 35.0011 59.6341 34.7853C59.4553 34.6657 59.2656 34.5634 59.0674 34.4798L57.1401 33.6977C55.8877 33.1139 54.4811 32.91 53.2157 32.3317L49.3271 30.8509L45.4123 29.4348C44.1336 28.9159 42.821 28.4804 41.516 28.0263C37.4636 26.6301 33.3572 25.6328 29.2702 24.4814C28.3708 24.2244 27.473 24.0435 26.5756 23.7549C25.6783 23.4663 25.0685 23.2404 24.507 23.0018C24.0472 22.7313 23.6318 22.3916 23.2753 21.9947C22.7522 21.4019 22.3968 20.6802 22.2459 19.9042C22.1595 19.5968 22.0916 19.2846 22.0425 18.9691C22.0282 18.4992 22.414 18.2133 23.1655 17.9571C24.202 17.5942 25.3013 17.4455 26.397 17.5201C30.2372 18.2539 34.036 19.1903 37.7774 20.3253C39.7058 20.8921 41.6204 21.4928 43.5213 22.1275C45.4196 22.7683 47.3367 23.3629 49.1787 24.1427L54.7383 26.3989C55.3631 26.6363 55.9699 26.9186 56.5539 27.2436C57.1427 27.6012 57.7201 27.9866 58.2831 28.3014L60.1919 29.076C60.3865 29.155 61.1926 29.4822 61.7298 29.7541C62.0384 29.8839 62.3379 30.0343 62.6263 30.2043L63.0711 30.3847C63.1945 30.4686 63.3015 30.5742 63.3871 30.6964C63.5908 30.8968 63.7464 31.1408 63.8422 31.4099L64.0279 31.7767C64.1732 31.6846 63.7298 31.9795 64.3446 31.5814L64.3701 31.6781L64.4229 31.8938L64.8769 33.5673L64.924 35.6585L64.9247 36.6409L64.7889 36.6829Z" fill="#FFE600"/>
<path d="M37.9715 49.8448C35.3689 48.9182 32.7458 48.0156 30.1056 47.1816C29.1527 46.8704 28.1396 46.7075 27.1942 46.3778C23.8243 45.1614 20.4469 43.9635 17.0298 42.8898C16.266 42.6445 15.4981 42.4624 14.7343 42.2172L12.4555 41.5299C11.4913 41.2465 10.5195 40.9817 9.57037 40.6612L8.85688 40.3717L8.16797 39.995C7.69942 39.7401 7.24015 39.489 6.78114 39.184C6.48866 39.0006 6.36149 38.8087 6.42662 38.7811C6.49175 38.7536 6.65505 38.7767 6.94687 38.7224C7.34533 38.6595 7.74003 38.5747 8.12917 38.4684L8.93049 38.2755C9.07929 38.228 9.22231 38.2213 9.38413 38.1682L9.80366 38.1982C11.875 38.4128 13.9576 38.5996 15.995 38.8977C17.9611 39.3717 20.0027 39.952 21.9899 40.6398C24.3478 41.4779 26.9012 41.8342 29.3989 42.5672C32.0987 43.3606 34.7852 44.2134 37.4604 45.094L42.4121 46.7473C44.9038 47.575 47.3819 48.5158 49.868 49.3305C50.8209 49.6416 51.7927 49.9065 52.7644 50.1713L54.2405 50.5761C54.4722 50.6701 54.7394 50.703 54.9748 50.7877L55.6883 51.0773C56.1145 51.2502 56.5223 51.4157 56.9485 51.5887C58.4393 52.4095 58.7837 52.9701 58.6338 53.9777C58.6211 54.1944 58.5915 54.4097 58.5452 54.6217C58.3824 55.2355 57.4486 55.5688 56.2872 55.3457C55.4021 55.2132 54.517 55.0806 53.6058 54.9591C52.728 54.7882 51.864 54.553 51.0207 54.2554C49.3094 53.712 47.5593 53.1313 45.8168 52.5321C43.2139 51.6593 40.5929 50.7251 37.9434 49.8874L37.9715 49.8448Z" fill="#FFE600"/>
<path d="M42.8261 39.717C41.5235 40.2676 40.2208 40.8182 38.9182 41.3687L34.8971 43.0069C33.9146 43.4068 32.9909 43.9277 31.9752 44.3033L30.5706 44.8126C29.8561 45.0779 29.1201 45.2811 28.3708 45.4199C28.0141 45.4365 27.6568 45.4285 27.3013 45.396C26.9792 45.3002 26.6742 45.1546 26.3972 44.9644C25.8253 44.5057 25.3764 43.9118 25.0911 43.2365C24.9126 42.905 24.7602 42.5626 24.6078 42.2201L24.3238 41.4573C24.1496 41.0089 24.0015 40.5495 23.8589 40.1031L23.0348 37.4268C22.5857 35.874 21.9844 34.3241 21.392 32.8319C20.9523 31.8978 20.5871 30.9304 20.2997 29.9388C20.0336 28.9459 19.8102 27.9271 19.5256 26.9267C19.356 26.3074 19.5716 26.2547 20.1867 26.5474C21.1521 27.0164 22.0212 27.6619 22.7491 28.4506L23.2806 29.1088C23.4686 29.3135 23.6257 29.5445 23.747 29.7945L24.4453 31.265C24.8991 32.2478 25.3305 33.2323 25.7304 34.2147C26.5303 36.1797 27.2742 38.176 27.8997 40.0918C27.9655 40.2391 28.0038 40.3973 28.0125 40.5584C28.0368 40.6598 28.0686 40.7593 28.1076 40.856C28.1447 40.9578 28.2092 41.0475 28.2938 41.1151C28.3865 41.1527 28.4907 41.1086 28.5967 41.0869C28.6965 41.0578 28.7941 41.0217 28.8888 40.9788L29.4862 40.7032L39.0199 36.2514L41.4802 35.1885L44.1503 34.1137C45.0056 33.7268 45.9097 33.4583 46.8376 33.3156C47.2509 33.2955 47.6646 33.3465 48.0606 33.4666C48.3667 33.7486 48.6181 34.0848 48.8022 34.4582C49.2276 35.3007 49.5955 36.1712 49.9033 37.0635L50.6217 38.963C51.379 40.8999 52.3412 42.7041 53.238 44.5897C53.4364 45.0048 53.6685 45.3904 53.8224 45.809C53.905 46.0044 53.969 46.1923 54.0313 46.3578C54.0936 46.5234 54.0761 46.6997 54.092 46.8465C54.1112 47.113 54.0899 47.3809 54.0286 47.641C53.9704 47.8638 53.8641 48.0711 53.7173 48.2485C53.5267 48.4509 53.3154 48.6328 53.087 48.7913C52.8708 48.9518 52.6916 49.1273 52.5072 49.236C51.9911 49.5769 50.7244 49.2679 49.9869 48.2132C49.6842 47.8493 49.4256 47.451 49.2166 47.0264C48.9828 46.6186 48.7658 46.196 48.558 45.7771C48.1333 44.9356 47.7476 44.0776 47.3787 43.2049C47.0098 42.3321 46.6577 41.4446 46.2775 40.5996L45.7458 39.2506L45.5461 38.7055C45.5461 38.7055 45.5461 38.7055 45.5686 38.6499C45.5912 38.5943 45.5686 38.6499 45.5038 38.6236L45.2748 38.7358L44.8021 38.9432L42.8794 39.825L42.8261 39.717Z" fill="#FFE600"/>
<path d="M18.551 51.3745C19.0828 51.2341 19.6071 51.1123 20.1224 50.9329C20.3065 50.8781 20.4483 50.7414 20.6379 50.6997C21.3017 50.5266 21.9875 50.4056 22.6273 50.2119C22.9026 50.113 23.1571 49.9638 23.3779 49.7719C23.6688 49.5338 23.8823 49.1672 24.3647 49.255C24.669 49.3029 25.9279 51.9183 25.5606 52.2117C24.8988 52.708 24.0994 52.9868 23.2726 53.0099C22.7395 53.0202 22.3775 53.3806 21.9699 53.5605C21.5623 53.7404 20.9709 53.9213 20.4779 54.099C19.9849 54.2766 19.8622 54.3132 19.5626 54.4398C19.1196 54.6017 18.6848 54.7854 18.26 54.9904C17.9471 55.1764 17.7225 55.5169 17.3836 55.7139C17.3268 55.7704 17.2605 55.8166 17.1879 55.8504C16.8958 55.9585 16.7163 55.8425 16.3713 55.3895L16.1314 55.0763C15.9047 54.786 15.8163 54.411 15.8896 54.0501C15.9985 53.6216 16.1655 53.2101 16.3859 52.8269C16.6138 52.545 16.8703 52.2874 17.1511 52.0583C17.5413 51.6554 18.1044 51.5709 18.5901 51.3579L18.551 51.3745Z" fill="#FFE600"/>
<path d="M36.2982 62.5047C36.1527 62.7498 35.9626 62.9655 35.7379 63.1407L34.059 64.6718C33.8376 64.7654 33.6358 64.9965 33.3866 65.0788C33.3557 65.0528 33.3278 65.0234 33.3035 64.9911C32.151 63.4964 31.1723 61.8755 30.3862 60.1595L29.8663 59.0205L29.5943 58.4676L29.4675 57.8226C29.342 57.3076 29.0581 56.8902 28.998 56.6392C28.8879 56.3323 28.8439 56.0055 28.8691 55.6804C28.8963 55.4539 29.4509 55.2042 30.0884 55.0959C30.7259 54.9877 31.5394 54.9509 31.7998 55.2401L32.1248 55.6094L32.1804 55.6319C32.1804 55.6319 32.1804 55.6319 32.1465 55.7153C32.0797 55.9941 32.0613 56.2823 32.0921 56.5674C32.0967 56.7703 32.1445 56.97 32.2322 57.153C32.2965 57.2871 32.3596 57.2911 32.4367 57.4735C32.4604 57.5008 32.4808 57.5308 32.4975 57.5629C32.5717 57.593 32.6152 57.8049 32.6855 57.8442C32.7444 57.8464 32.803 57.8372 32.8584 57.8173C32.9764 57.7749 33.0842 57.7084 33.175 57.622C33.3288 57.4764 33.4565 57.3056 33.5527 57.1169C33.815 56.7289 33.9931 56.2901 34.0754 55.8289C34.1143 55.5056 34.1053 55.1783 34.0486 54.8576C34.0317 54.527 33.9963 54.1888 34.0054 53.8472C34.0025 53.6949 33.9624 53.5276 34.0466 53.3999C34.3241 52.8757 34.7667 52.7424 35.7755 53.0223C36.0034 53.0771 36.2276 53.1465 36.4467 53.2299C37.0611 53.4412 37.6115 53.8057 38.0458 54.2889L38.3685 54.7436C38.4416 54.8817 38.4982 55.0278 38.5372 55.179C38.6173 55.4667 38.6675 55.762 38.6869 56.06C38.6695 56.3452 38.6302 56.6288 38.5694 56.908L38.4904 57.1026L38.3881 57.5144L38.1687 58.321C37.7287 59.8077 37.1444 61.2477 36.4239 62.6205L36.2982 62.5047Z" fill="#FFE600"/>
<path d="M32.0253 11.6022C32.3126 11.7188 31.9528 11.9937 31.2115 12.4375C30.8547 12.626 30.4725 12.7617 30.0767 12.8404C29.8422 12.8213 29.6103 12.7779 29.3847 12.7106C28.974 12.2817 28.5881 11.8297 28.229 11.3567C27.9828 11.052 27.8024 10.6996 27.6994 10.3216C27.4617 9.5776 27.2165 8.85215 26.9788 8.10817C26.9356 7.93571 26.9276 7.75629 26.9555 7.58068C27.0453 6.98354 26.968 6.37319 26.7322 5.81729C26.7066 5.7206 26.7072 5.6129 26.5589 5.55273C26.4107 5.49257 26.0345 3.83984 26.1155 3.61369C26.2656 3.03734 26.4457 2.46923 26.6551 1.91168C26.6852 1.83755 26.6429 1.75563 26.7566 1.6615C26.9527 1.56189 27.0706 1.35507 27.0564 1.13561C27.0926 0.892504 27.16 0.655058 27.2568 0.429108C27.3556 0.292816 27.4768 0.174145 27.6151 0.0780734C27.7288 -0.0160638 28.137 0.041686 28.1796 0.0697535C28.2222 0.0978209 28.5082 0.0843949 28.6828 0.0796966L28.8536 0.0842644C29.058 0.2508 29.2467 0.435736 29.4172 0.636747C29.6246 0.832475 29.8219 1.03861 30.0084 1.25436C30.0084 1.25436 30.2014 1.65643 30.4537 2.0718C30.706 2.48717 30.8263 2.9353 30.8909 3.01547C30.9555 3.09564 30.8899 3.23088 30.8578 3.33656C30.8257 3.44225 31.4732 4.66552 31.501 4.6768C31.5275 4.95734 31.7267 5.21088 31.4669 5.55869C31.433 5.64209 31.4218 5.66989 31.4586 5.73878C31.5878 6.21944 31.6553 6.71464 31.6592 7.21237C31.7013 7.46195 31.764 7.70761 31.8468 7.94681C31.8468 7.94681 31.8092 8.03947 31.7904 8.0858C31.7716 8.13213 31.7377 8.21553 31.769 8.27139C31.8708 8.86044 32.0347 9.43705 32.2581 9.99154C32.3392 10.1108 32.1553 10.8564 32.255 10.9831C32.3546 11.1099 31.9141 11.5571 32.0253 11.6022Z" fill="#FFE600"/>
<path d="M59.7323 19.5976C59.6991 19.9187 59.2787 19.7049 58.6389 19.1539C58.3629 18.8775 58.1269 18.5638 57.9379 18.2219C57.8858 17.9989 57.8515 17.772 57.8355 17.5436C57.8731 17.4509 58.4485 16.3786 58.6287 15.9877C58.7933 15.6284 59.0271 15.3052 59.3169 15.0366C59.8841 14.4898 60.4218 13.9094 60.9798 13.3588C61.1072 13.2293 61.2618 13.1298 61.4325 13.0677C62.0106 12.8455 62.5119 12.4603 62.8754 11.9588C62.913 11.8662 63.0357 11.8297 62.9995 11.6531C63.3246 11.05 63.7926 10.5359 64.3625 10.1557L65.9978 9.55667C66.0722 9.5329 66.0542 9.41768 66.2636 9.51343C66.4481 9.63952 66.6959 9.61825 66.8562 9.46254C67.0619 9.33068 67.2875 9.23274 67.5243 9.17248C67.7103 9.16878 67.8953 9.19994 68.0698 9.26434C68.2777 9.39774 68.4481 9.58204 68.5648 9.79977C68.6028 9.99865 68.8324 10.1242 68.9932 10.2866L69.1502 10.4582C69.1307 11.072 69.0289 11.6805 68.8477 12.2672C68.8477 12.2672 68.5615 12.6799 68.2678 13.1111C67.9741 13.5423 67.6324 13.9324 67.5835 14.0529C67.5346 14.1734 67.3768 14.1633 67.2633 14.2036C67.1498 14.2439 66.2875 15.4912 66.2409 15.5262C65.9726 15.7087 65.8355 16.02 65.3807 15.9973C65.2973 15.9635 65.2504 16.0524 65.2093 16.1004C64.8101 16.4797 64.3678 16.811 63.8915 17.0873C63.6716 17.2639 63.4618 17.4525 63.2629 17.6524C63.2441 17.6987 63.1531 17.6834 63.101 17.7055C63.0489 17.7275 62.9598 17.7345 62.9187 17.7825C62.3876 18.194 61.8876 18.6439 61.4226 19.1288C61.3625 19.2771 60.5148 19.4511 60.4063 19.6121C60.2978 19.7731 59.7216 19.5177 59.7323 19.5976Z" fill="#FFE600"/>
<path d="M40.4536 39.9521L37.6399 41.1414C37.2974 41.2938 36.977 41.4983 36.6383 41.6415C35.4231 42.1628 34.1931 42.6673 32.9982 43.2184C32.4659 43.4664 31.95 43.7535 31.4435 44.0444C30.7928 44.5015 30.0462 44.804 29.2608 44.9286C28.958 44.9568 28.9912 44.6357 29.0692 44.2572C29.0827 43.8413 29.2441 43.4438 29.5242 43.136C30.1095 42.6717 30.7449 42.2743 31.4187 41.9515C32.1138 41.5957 32.8269 41.2763 33.5553 40.9947C34.4029 40.5968 35.2261 40.1489 36.0206 39.6533C36.933 39.1602 37.8564 38.6931 38.7575 38.2278L40.4978 37.4231C41.3763 37.0134 42.2751 36.6335 43.1519 36.2015C43.8203 35.8576 44.4316 35.415 45.1428 35.0453C45.3029 34.9699 45.452 34.8686 45.6083 34.8025C45.84 34.7125 46.0986 34.7223 46.3228 34.8296C46.547 34.937 46.7169 35.1323 46.7921 35.3692L46.9242 35.6818C46.9666 35.8595 46.9514 36.0461 46.8807 36.2146C46.8143 36.4222 46.7037 36.6129 46.5566 36.7738C46.349 37.0119 46.1002 37.2107 45.822 37.3606C45.5595 37.5023 45.2782 37.6903 44.9933 37.8337C44.4329 38.1243 43.8204 38.4369 43.2137 38.7087L40.4571 39.9967L40.4536 39.9521Z" fill="#FFE600"/>
</svg>
