<svg width="1440" height="901" viewBox="0 0 1440 901" fill="none" xmlns="http://www.w3.org/2000/svg">
<path d="M1306.85 194.825C1169.45 195.15 1443.79 -360.998 1443.79 -360.998L1100.49 -360.185C1009.22 -359.969 999.765 -262.52 862.368 -245.938C810.841 -239.718 629.764 -208.791 714.565 -359.271L452.118 -358.65C391.724 -149.638 547.609 -50.817 529.925 49.3793C512.241 149.576 444.227 438.415 309.819 438.733C175.412 439.051 200.089 768.912 334.552 792.159C469.015 815.405 519.997 903.376 520.2 988.941L708.618 988.495C708.618 988.495 710.851 773.595 645.139 773.75C579.429 773.906 453.828 709.397 507.244 561.985C525.219 512.379 613.088 367.316 588.503 228.185C563.919 89.0542 616.646 -37.5936 671.248 -81.3499C725.851 -125.109 921.764 -193.655 896.927 -110.558C874.938 -36.9833 734.882 98.2139 821.579 192.207C908.274 286.199 762.594 653.43 898.671 625.865C1104.66 584.136 1149.52 607.595 1203.51 701.729C1257.5 795.866 1260.68 987.187 1260.68 987.187L1446.99 986.746C1446.99 986.746 1444.24 194.499 1306.85 194.825ZM1056.41 389.834C972.698 354.684 942.888 378.32 930.788 314.093C918.688 249.868 961.29 186.507 1005.03 130.733C1055.44 66.4445 1028.35 -110.869 1049.06 -193.397C1069.77 -275.928 1261.35 -21.1293 1148.5 177.524C1035.66 376.181 1190.54 271.686 1205.85 430.721C1221.17 589.753 1140.13 424.984 1056.41 389.834ZM335.102 995.182L107.783 995.721C107.379 824.871 -4.01031 904.808 -4.01031 904.808L-5.78951 153.553C93.9032 44.1514 86.9911 -351.982 86.9911 -351.982L331.91 -352.562C331.91 -352.562 183.648 -204.002 356.379 -55.7241C529.109 92.5565 336.943 284.471 231.816 262.087C32.5761 219.662 22.3562 381.899 109.937 560.045C197.517 738.191 103.718 816.181 179.363 816.002C334.677 815.634 335.102 995.182 335.102 995.182ZM1206.07 993.12L1174.27 993.195C1174.27 993.195 1174.58 964.121 1087.57 902.223C995.732 836.892 845.732 944.036 793.393 967.723C741.06 991.415 763.622 788.012 812.445 761.479C1030.2 643.136 1069.36 778.546 1135.09 790.173C1200.83 801.803 1206.07 993.12 1206.07 993.12ZM770.129 519.105C733.064 574.218 772.936 606.33 810.866 715.733C848.795 825.133 768.351 799.109 748.074 815.561C727.796 832.013 618.699 827.865 617.92 785.389C617.142 742.911 601.117 672.973 588.479 615.106C575.841 557.242 624.084 444.901 662.473 418.053C745.336 360.099 807.2 463.993 770.129 519.105ZM1113.17 -51.4557C1145.03 9.2791 1130.64 94.7168 1115.12 150.071C1099.61 205.424 1099.95 199.577 1082.08 246.342C1064.21 293.11 1010.52 282.523 1012.91 239.869C1015.29 197.215 1069.17 144.55 1081.72 95.0383C1096.12 38.2422 1081.3 -112.193 1113.17 -51.4557ZM1442.31 242.964C1442.31 242.964 1427.44 232.829 1413.62 175.48C1399.81 118.128 1377.36 89.4907 1384.74 24.6755C1392.12 -40.1396 1430.5 -88.5225 1441.49 -103.195L1442.31 242.964Z" fill="url(#paint0_linear_1434_71061)" fill-opacity="0.9"/>
<path d="M400.792 201.279C399.362 201.286 398.198 200.13 398.191 198.698C398.185 197.271 399.338 196.109 400.767 196.102C402.197 196.096 403.363 197.247 403.37 198.674C403.377 200.106 402.221 201.272 400.792 201.279ZM1156.35 233.549C1156.34 232.119 1155.18 230.966 1153.75 230.973C1152.32 230.979 1151.16 232.144 1151.17 233.573C1151.18 235.003 1152.34 236.156 1153.77 236.149C1155.2 236.142 1156.35 234.978 1156.35 233.549ZM1176.67 233.452C1176.66 232.023 1175.5 230.87 1174.07 230.876C1172.64 230.883 1171.49 232.047 1171.5 233.477C1171.5 234.906 1172.67 236.059 1174.1 236.053C1175.53 236.046 1176.68 234.882 1176.67 233.452ZM1259.31 500.982C1259.76 502.337 1261.22 503.071 1262.58 502.62C1263.94 502.169 1264.67 500.704 1264.22 499.346C1263.77 497.989 1262.3 497.257 1260.94 497.709C1259.59 498.162 1258.85 499.625 1259.31 500.982ZM599.413 128.063C599.864 129.42 601.331 130.154 602.689 129.7C604.044 129.249 604.778 127.784 604.324 126.429C603.873 125.072 602.406 124.338 601.051 124.791C599.693 125.243 598.962 126.707 599.413 128.063ZM247.601 99.4635C247.594 98.0339 246.43 96.8808 245.001 96.8876C243.571 96.8943 242.416 98.0584 242.423 99.488C242.429 100.918 243.596 102.075 245.025 102.068C246.455 102.062 247.608 100.893 247.601 99.4635ZM1074.03 50.3368C1074.02 48.905 1072.86 47.7519 1071.43 47.7587C1070 47.7654 1068.84 48.9295 1068.85 50.3613C1068.86 51.7886 1070.02 52.944 1071.45 52.9372C1072.88 52.9304 1074.04 51.7641 1074.03 50.3368ZM772.769 99.5686C772.762 98.1368 771.596 96.9815 770.166 96.9882C768.736 96.995 767.583 98.1613 767.59 99.5932C767.597 101.023 768.761 102.176 770.191 102.169C771.62 102.162 772.775 100.998 772.769 99.5686ZM182.98 432.202C182.973 430.772 181.809 429.617 180.379 429.623C178.95 429.63 177.794 430.797 177.801 432.226C177.808 433.656 178.974 434.809 180.404 434.802C181.833 434.795 182.986 433.631 182.98 432.202ZM1078.33 411.903C1078.32 410.471 1077.16 409.316 1075.73 409.323C1074.3 409.329 1073.14 410.496 1073.15 411.928C1073.16 413.355 1074.32 414.508 1075.75 414.501C1077.18 414.494 1078.34 413.33 1078.33 411.903ZM400.159 67.7931C400.153 66.3636 398.986 65.2105 397.559 65.2173C396.127 65.224 394.974 66.3881 394.981 67.8177C394.988 69.2472 396.152 70.4003 397.584 70.3935C399.011 70.3868 400.166 69.2227 400.159 67.7931ZM330.067 312.197C330.06 310.768 328.896 309.614 327.467 309.621C326.037 309.628 324.884 310.792 324.891 312.222C324.898 313.653 326.062 314.804 327.491 314.798C328.921 314.791 330.074 313.629 330.067 312.197ZM866.25 133.168C866.243 131.738 865.077 130.585 863.647 130.592C862.22 130.599 861.064 131.763 861.071 133.192C861.078 134.622 862.244 135.775 863.672 135.768C865.101 135.761 866.257 134.597 866.25 133.168ZM875.412 160.226C875.405 158.796 874.239 157.643 872.809 157.65C871.382 157.657 870.226 158.821 870.233 160.25C870.24 161.68 871.406 162.833 872.834 162.826C874.263 162.819 875.419 161.655 875.412 160.226ZM1061.71 394.223C1061.71 392.794 1060.54 391.641 1059.11 391.648C1057.68 391.654 1056.53 392.818 1056.54 394.248C1056.54 395.678 1057.71 396.831 1059.14 396.824C1060.57 396.817 1061.72 395.653 1061.71 394.223ZM1140.2 276.412C1140.2 274.982 1139.03 273.829 1137.6 273.836C1136.17 273.842 1135.02 275.007 1135.02 276.436C1135.03 277.866 1136.2 279.019 1137.62 279.012C1139.05 279.005 1140.21 277.841 1140.2 276.412ZM295.545 151.226C295.538 149.797 294.372 148.644 292.945 148.65C291.513 148.657 290.36 149.821 290.367 151.251C290.373 152.68 291.537 153.833 292.969 153.827C294.397 153.82 295.552 152.656 295.545 151.226ZM217.529 329.576C217.522 328.149 216.356 326.993 214.926 327C213.497 327.007 212.344 328.173 212.35 329.601C212.357 331.032 213.521 332.185 214.951 332.179C216.38 332.172 217.536 331.008 217.529 329.576ZM279.399 194.087C279.392 192.657 278.228 191.504 276.799 191.511C275.367 191.518 274.214 192.682 274.221 194.111C274.227 195.541 275.391 196.696 276.823 196.69C278.253 196.683 279.406 195.517 279.399 194.087ZM1139.34 93.4803C1139.33 92.0507 1138.16 90.8976 1136.73 90.9044C1135.31 90.9112 1134.15 92.0752 1134.16 93.5048C1134.16 94.9344 1135.33 96.0874 1136.76 96.0807C1138.19 96.0739 1139.34 94.9098 1139.34 93.4803ZM1190.73 454.589C1190.73 453.159 1189.56 452.006 1188.13 452.013C1186.7 452.019 1185.55 453.183 1185.55 454.613C1185.56 456.043 1186.73 457.196 1188.15 457.189C1189.58 457.182 1190.74 456.018 1190.73 454.589ZM347.397 239.968C347.391 238.539 346.227 237.386 344.797 237.393C343.367 237.399 342.214 238.563 342.221 239.993C342.228 241.423 343.392 242.578 344.822 242.571C346.251 242.564 347.404 241.398 347.397 239.968Z" fill="#5B5B5B" fill-opacity="0.2"/>
<path d="M253.604 500.77C255.034 500.763 256.198 501.916 256.205 503.346C256.211 504.776 255.058 505.94 253.629 505.946C252.199 505.953 251.033 504.8 251.026 503.37C251.019 501.941 252.175 500.777 253.604 500.77Z" fill="#5B5B5B" fill-opacity="0.2"/>
<path d="M352.877 429.581C354.306 429.574 355.473 430.727 355.479 432.156C355.486 433.586 354.331 434.75 352.901 434.757C351.474 434.764 350.308 433.611 350.301 432.181C350.294 430.751 351.449 429.587 352.877 429.581Z" fill="#5B5B5B" fill-opacity="0.2"/>
<defs>
<linearGradient id="paint0_linear_1434_71061" x1="718.397" y1="-359.28" x2="721.603" y2="994.267" gradientUnits="userSpaceOnUse">
<stop stop-color="#F7F7F7"/>
<stop offset="1" stop-color="#F7F7F7" stop-opacity="0"/>
</linearGradient>
</defs>
</svg>
