<svg viewBox="0 0 148 94" fill="none" xmlns="http://www.w3.org/2000/svg">
<path d="M75.3687 35.0571C35.7771 30.0033 2.92067 31.8706 1.98188 39.2268L4.37682 39.5327C5.22407 32.8911 36.9348 31.4664 75.2034 36.3511C113.473 41.2362 143.808 50.5807 142.96 57.2224L145.355 57.5272C146.294 50.171 114.96 40.111 75.3687 35.0571Z" fill="#5E25FF"/>
<path d="M75.0803 37.3148C38.231 32.6112 7.72676 33.751 6.94653 39.8606L22.401 41.8331C22.8966 37.9503 46.2519 37.7318 74.566 41.3461C102.88 44.9603 125.432 51.0383 124.936 54.9212L140.39 56.8937C141.17 50.7842 111.93 42.0189 75.0803 37.3148Z" fill="#25B1FF"/>
<path d="M115.512 52.2615C112.571 75.301 91.51 91.5938 68.4711 88.6527C45.4317 85.7122 29.1389 64.6511 32.0794 41.6117C35.0205 18.5722 56.0816 2.27938 79.121 5.22044C102.16 8.161 118.453 29.2221 115.512 52.2615Z" fill="#A5F475"/>
<path d="M115.453 52.7042C112.268 75.7111 91.0347 91.7793 68.0283 88.5935C45.0214 85.4084 28.9533 64.1753 32.1385 41.1684C35.3242 18.1615 56.5573 2.09339 79.5642 5.2791C102.57 8.46431 118.639 29.6973 115.453 52.7042Z" fill="#FFCC4D"/>
<path d="M62.05 77.4868C56.8607 76.7684 52.9611 73.9677 53.3396 71.232C53.7186 68.4969 58.2314 66.8626 63.4212 67.5809C68.6105 68.2999 72.5106 71.0994 72.1316 73.8351C71.7525 76.5703 67.2397 78.2051 62.05 77.4868ZM84.6979 56.4091C85.1508 53.1366 81.4301 49.9175 76.3879 49.2191C71.3458 48.5212 66.8913 50.6083 66.4383 53.8808C65.9854 57.1538 69.7056 60.3723 74.7477 61.0702C79.7898 61.7686 84.2449 59.6821 84.6979 56.4091ZM52.7312 25.8519C58.0731 26.5916 62.691 25.1208 63.0441 22.568C63.3978 20.015 59.3532 17.3466 54.0114 16.6064C48.6684 15.8668 44.0505 17.337 43.6973 19.8899C43.3436 22.4428 47.3883 25.1124 52.7312 25.8519ZM81.2373 17.7321C85.6669 18.3456 89.4647 17.3565 89.718 15.5221C89.9724 13.6882 86.5868 11.7045 82.1567 11.091C77.7266 10.4775 73.9294 11.4677 73.6755 13.3015C73.4217 15.1354 76.8072 17.1191 81.2373 17.7321ZM114.204 35.2886C113.036 34.5439 111.619 34.0055 110.049 33.7882C105.504 33.1586 101.437 35.4108 100.965 38.8189C100.494 42.2264 103.795 45.4989 108.341 46.1284C111.313 46.5401 114.074 45.7131 115.765 44.1426C115.566 41.1054 115.029 38.1432 114.204 35.2886ZM96.7978 29.5988C97.1505 27.0476 93.7525 24.4683 89.2076 23.8388C84.6622 23.2098 80.6919 24.7681 80.3381 27.32C79.9849 29.8718 83.3829 32.4504 87.9282 33.0794C92.4731 33.709 96.444 32.1506 96.7978 29.5988ZM84.6085 68.7438C84.4372 69.9799 86.9918 71.3546 90.3148 71.8147C93.6367 72.2749 96.469 71.6456 96.6403 70.41C96.811 69.1739 94.256 67.7992 90.9335 67.3391C87.611 66.879 84.7798 67.5076 84.6085 68.7438ZM104.976 70.4241C104.839 71.4181 105.494 72.4165 106.64 73.2012C107.995 71.5102 109.22 69.7052 110.308 67.8039C107.49 67.7174 105.203 68.7878 104.976 70.4241ZM40.3115 50.2633C46.5278 51.1245 51.9161 49.2971 52.3477 46.1832C52.7787 43.0688 48.0888 39.8464 41.8726 38.9852C38.0506 38.4564 34.5473 38.9463 32.3109 40.1229C32.2538 40.472 32.1871 40.8163 32.1383 41.1686C31.8733 43.0832 31.7538 44.9841 31.7483 46.8646C33.6261 48.4698 36.7081 49.7646 40.3115 50.2633ZM109.468 59.2411C109.777 57.0038 106.096 54.6462 101.245 53.9747C96.3936 53.3027 92.2095 54.5722 91.8998 56.809C91.5896 59.0468 95.2722 61.4044 100.123 62.0764C104.974 62.7479 109.158 61.4784 109.468 59.2411ZM88.4599 81.6536C84.1802 81.0609 80.4933 82.1425 80.2268 84.068C80.0408 85.4139 81.5774 86.8145 83.9791 87.7393C87.5744 86.841 91.0103 85.4827 94.2024 83.7081C92.8854 82.7559 90.8317 81.9818 88.4599 81.6536ZM59.0244 37.5465C58.7387 39.613 62.4012 41.8277 67.2057 42.4934C72.0096 43.1587 76.137 42.0223 76.4233 39.9562C76.7091 37.8897 73.0466 35.675 68.2421 35.0103C63.4382 34.3451 59.3108 35.4804 59.0244 37.5465ZM105.282 23.1941C106.399 23.349 107.471 23.2925 108.42 23.0713C106.558 20.3706 104.384 17.8895 101.94 15.6845C100.717 16.262 99.8806 17.1816 99.725 18.3057C99.4161 20.5375 101.904 22.7266 105.282 23.1941ZM58.0092 8.41068C61.7993 8.93559 65.0389 8.1595 65.244 6.67696C65.2842 6.38659 65.2022 6.09152 65.0203 5.79903C62.326 6.37433 59.7152 7.20978 57.2197 8.28214C57.4785 8.33035 57.7407 8.37343 58.0092 8.41068ZM46.0832 68.1328C46.3046 66.5323 42.6017 64.6983 37.8115 64.0349C36.9349 63.9136 36.0832 63.8407 35.2744 63.8108C36.2231 65.9714 37.3547 68.0399 38.6438 70.0031C42.69 70.3033 45.8874 69.5473 46.0832 68.1328Z" fill="#D69D12"/>
<path d="M72.1253 60.025C33.8561 55.1404 3.52062 45.7965 4.36843 39.1548L1.97353 38.8494C1.03417 46.2051 32.3688 56.2657 71.9599 61.319C111.552 66.3734 144.407 64.5061 145.347 57.1504L142.952 56.8445C142.105 63.4861 110.394 64.9097 72.1253 60.025Z" fill="#5E25FF"/>
<path d="M72.7628 55.0309C44.4487 51.4167 21.8972 45.3386 22.3928 41.4563L6.93875 39.4832C6.15907 45.5928 35.399 54.3586 72.2479 59.0622C109.098 63.7657 139.602 62.6259 140.382 56.5169L124.928 54.5438C124.432 58.4273 101.077 58.6451 72.7628 55.0309Z" fill="#25B1FF"/>
</svg>
