<svg viewBox="0 0 69 86" fill="none" xmlns="http://www.w3.org/2000/svg">
<path d="M4.26607 41.6775C5.36723 44.2828 6.49095 46.8325 7.60716 49.4007C8.0166 50.333 8.49118 51.2379 8.89687 52.1796C10.3101 55.5051 11.7103 58.836 12.9803 62.2221L14.7443 66.7044C15.5696 68.6126 16.08 70.642 16.2556 72.7137C16.2596 73.3952 16.0224 73.2882 15.6832 72.7944C15.1581 72.0515 14.6974 71.2652 14.3059 70.444C14.117 69.9788 13.8872 69.5078 13.6853 69.0481L13.3489 68.3612L13.0105 67.7059L11.8139 64.8569C11.0194 62.9588 10.184 61.0549 9.44725 59.094C8.57317 56.7535 7.36847 54.43 6.30678 52.0998L2.83945 44.3686C2.13995 42.7681 1.44594 41.1806 0.796796 39.5358C0.673923 39.2269 0.541783 38.9143 0.435696 38.5906C0.32961 38.267 0.316583 38.2725 0.2673 38.1014C0.218017 37.9303 0.151947 37.774 0.0956816 37.5137C-0.0547095 37.0671 -0.0269965 36.5797 0.173049 36.153C0.294629 35.953 0.441605 35.7696 0.610308 35.6073C0.776429 35.4373 0.974108 35.2693 1.08785 35.1752C2.1767 34.3004 3.28878 33.6078 4.36406 32.8462C6.04111 31.6921 7.63302 30.4819 9.2174 29.2902C9.57341 29.0246 9.89236 28.7439 10.2594 28.5044C10.7272 28.1766 11.2225 27.8902 11.74 27.6483C12.0377 27.5515 12.3545 27.5282 12.6632 27.5805C12.7878 27.5864 12.9118 27.6007 13.0344 27.6232C13.1919 27.6871 13.2189 27.8599 13.089 28.2065C12.9046 28.6775 12.6213 29.1035 12.2583 29.4558C9.66174 32.1578 6.26548 33.9848 3.4221 36.2843C3.17406 36.4967 2.91676 36.7052 2.69477 36.9065L2.53617 37.058L2.62749 37.3648L2.78487 37.828C3.22426 39.0855 3.78411 40.3919 4.32542 41.6908L4.26607 41.6775Z" fill="#00FFF0"/>
<path d="M31.1377 57.7948C31.1377 57.7948 33.3345 58.5245 34.1607 57.446C34.9869 56.3675 32.6867 61.0783 32.6867 61.0783L31.1377 57.7948Z" fill="#00FFF0"/>
<path d="M38.355 49.0251L32.5974 46.9908L30.4894 46.308L26.7782 45.0286C25.5643 44.536 24.3166 44.1268 23.0727 43.7083C21.9677 43.3463 20.8552 43.0027 19.7613 42.6667L15.5098 41.3623C15.0835 41.1893 15.1391 41.2119 15.5323 41.3067C15.9255 41.4015 16.6363 41.4849 17.4673 41.6711C20.4389 42.3266 23.403 43.0006 26.3069 43.8229L31.6807 45.3669L37.5601 47.1809L41.1587 48.339C42.985 48.9183 44.7999 49.5253 46.6264 50.0507C48.0412 50.4737 49.4547 50.7667 50.8735 51.1266C51.17 51.247 51.4949 51.2709 51.849 51.3822C52.9968 51.7185 53.313 51.9763 53.4369 52.4691C53.4704 52.5829 53.4916 52.7001 53.5001 52.8185C53.5075 53.1992 52.9572 53.332 52.0796 53.1809C49.4165 52.6738 46.7945 51.9705 44.2351 51.0768L38.3437 49.0529L38.355 49.0251Z" fill="#00FFF0"/>
<path d="M22.6913 39.0101L22.1089 37.0147C22.0359 36.7692 21.9368 36.5347 21.873 36.293C21.6787 35.4155 21.5066 34.5363 21.3384 33.6479L21.1029 32.4731C20.9775 31.9926 20.928 31.4955 20.9561 30.9998C20.9893 30.6787 21.47 31.0896 21.6216 31.5936C21.8435 32.5362 22.186 33.4738 22.4244 34.4555C22.6087 35.0385 22.8228 35.6116 23.0658 36.1727L23.7469 38.1111L24.181 39.3017C24.412 39.9027 24.6299 40.5091 24.9038 41.0843C25.1426 41.5194 25.4033 41.9421 25.6848 42.3509C25.7513 42.4364 25.8123 42.526 25.8673 42.6193C26.0568 42.9767 26.0151 43.1325 25.6666 43.3796C25.59 43.4423 25.509 43.4996 25.4244 43.5511C25.1686 43.721 24.8259 43.6704 24.6302 43.4339C24.0647 42.7049 23.6233 41.8877 23.3238 41.0151C23.0801 40.3658 22.8474 39.7426 22.6355 39.0414L22.6913 39.0101Z" fill="#00FFF0"/>
<path d="M6.96773 42.8386C8.15927 46.3116 9.46428 49.7442 10.7693 53.1768C11.255 54.4532 11.9193 55.6617 12.3587 56.9192C14.0466 61.4029 15.6395 65.9345 17.1951 70.5048C17.8479 72.5396 18.5898 74.5674 19.2741 76.6043L19.9364 78.589C20.0852 79.2861 20.2323 79.9609 20.3159 80.6855C20.5687 82.2014 20.4803 83.7545 20.0574 85.232C19.6024 86.3532 19.1432 85.7028 18.5749 84.9757C17.7128 84.0987 16.9521 83.1276 16.3072 82.0805C16.0426 81.5091 15.7465 80.9357 15.4319 80.3547C15.1717 79.7573 14.9441 79.1462 14.7502 78.524L13.395 74.7365L12.7081 72.8389L12.1107 70.8805C11.7161 69.5657 11.3346 68.2453 10.9699 66.9102C9.90855 63.6898 8.66831 60.5311 7.25496 57.4489C5.87958 53.9769 4.51548 50.4771 3.21101 46.9368C2.38246 44.7767 1.60426 42.5723 0.910266 40.2401L0.739186 39.5448C0.671909 39.2585 0.623433 38.9258 0.567437 38.6117C0.480452 38.0058 0.514464 37.3887 0.667504 36.7961C0.954321 36.2365 1.31683 35.719 1.74481 35.2583C2.2374 34.7891 2.53781 34.5009 2.89583 34.2038C4.27408 33.0148 5.6573 31.9465 6.98317 30.8333C8.01817 29.9583 8.99757 29.0607 9.95293 28.1426C10.9083 27.2244 11.8008 26.2484 12.8095 25.4382C13.2607 25.071 13.6303 24.6921 14.0815 24.3248C14.6322 23.8276 15.2462 23.4055 15.9076 23.0694C16.3527 22.9273 16.8252 22.8934 17.286 22.9704C17.4806 23.0494 17.7371 23.0024 17.9151 23.0423C18.0932 23.0821 18.3293 23.4046 18.2988 23.9318C18.2358 24.6549 17.9874 25.3496 17.5775 25.9486C16.8776 27.0351 16.1258 28.0899 15.3575 29.1055C14.9802 29.6123 14.5576 30.0838 14.0951 30.5142C13.6547 30.9614 13.1994 31.3918 12.7441 31.8222C10.9139 33.54 8.99119 35.1664 7.23934 36.7974L6.27874 37.6486C6.12584 37.7826 5.98125 37.9257 5.84578 38.0773L5.67966 38.2473C5.66868 38.2332 5.65102 38.226 5.63333 38.2285C5.58579 38.0797 5.73713 38.6376 5.82643 38.976L6.19169 40.2034C6.46792 41.0386 6.77195 41.885 7.089 42.726L6.96773 42.8386Z" fill="#00FFF0"/>
<path d="M64.2138 36.6829C64.1941 39.4806 64.3875 42.2757 64.7922 45.0441C65.1923 47.8612 65.7521 50.6569 66.4263 53.5962L67.1058 56.6023L67.0868 57.4471L67.0661 57.8704L67.0688 58.0766L67.0312 58.1692L66.8829 58.1091C66.8234 58.3743 66.7204 58.6279 66.5783 58.8596C66.4022 59.0915 66.2005 59.3029 65.9772 59.4898C65.4909 59.8804 64.9832 60.2436 64.4565 60.5778L63.7896 60.9979L63.3184 61.2815C56.6382 65.1106 49.9705 68.6966 43.4569 72.6472C40.5846 74.4063 37.6898 76.2209 34.9896 78.1145C33.2269 79.3202 31.5102 80.5985 29.8103 81.862C28.1104 83.1256 26.2776 84.238 24.6666 85.5484C23.6895 86.3606 23.4129 85.9785 23.6869 84.6652C24.2888 82.6576 25.3561 80.8204 26.8018 79.3029C30.1825 76.3685 33.7416 73.6464 37.4589 71.1521C41.2145 68.7586 45.0548 66.529 48.9946 64.4262C51.3219 63.2122 53.6726 61.7811 55.9824 60.3442L61.882 56.63C61.9121 56.5559 62.098 56.5234 62.0762 56.4175L62.022 56.1256C62.0596 56.033 61.986 55.8952 61.9625 55.7669L61.89 55.4138L61.3172 52.969C61.0191 51.6825 60.6915 50.3624 60.4365 48.9962C59.8717 46.2908 59.4687 43.5542 59.2295 40.8009C59.1435 39.8163 59.0927 38.8244 59.0642 37.8308C59.0389 37.3348 59.0451 36.8409 59.042 36.3432L59.0392 35.7917L59.0651 35.4353C59.0873 35.2191 59.0853 35.0011 59.059 34.7853C58.8803 34.6657 58.6905 34.5634 58.4923 34.4798L56.565 33.6977C55.3126 33.1139 53.906 32.91 52.6406 32.3317L48.7521 30.8509L44.8372 29.4348C43.5585 28.9159 42.2459 28.4804 40.9409 28.0263C36.8885 26.6301 32.7821 25.6328 28.6951 24.4814C27.7958 24.2244 26.8979 24.0435 26.0006 23.7549C25.1032 23.4663 24.4934 23.2404 23.9319 23.0018C23.4722 22.7313 23.0567 22.3916 22.7002 21.9947C22.1771 21.4019 21.8217 20.6802 21.6708 19.9042C21.5844 19.5968 21.5165 19.2846 21.4675 18.9691C21.4531 18.4992 21.8389 18.2133 22.5904 17.9571C23.6269 17.5942 24.7263 17.4455 25.8219 17.5201C29.6622 18.2539 33.4609 19.1903 37.2023 20.3253C39.1307 20.8921 41.0453 21.4928 42.9462 22.1275C44.8445 22.7683 46.7617 23.3629 48.6036 24.1427L54.1633 26.3989C54.788 26.6363 55.3948 26.9186 55.9789 27.2436C56.5676 27.6012 57.1451 27.9866 57.708 28.3014L59.6168 29.076C59.8114 29.155 60.6176 29.4822 61.1547 29.7541C61.4633 29.8839 61.7628 30.0343 62.0512 30.2043L62.496 30.3847C62.6194 30.4686 62.7264 30.5742 62.812 30.6964C63.0157 30.8968 63.1713 31.1408 63.2671 31.4099L63.4528 31.7767C63.5981 31.6846 63.1547 31.9795 63.7695 31.5814L63.795 31.6781L63.8478 31.8938L64.3018 33.5673L64.3489 35.6585L64.3496 36.6409L64.2138 36.6829Z" fill="#00FFF0"/>
<path d="M37.3964 49.8448C34.7939 48.9182 32.1707 48.0156 29.5306 47.1816C28.5776 46.8704 27.5645 46.7075 26.6191 46.3778C23.2492 45.1614 19.8718 43.9635 16.4548 42.8898C15.6909 42.6445 14.923 42.4624 14.1592 42.2172L11.8804 41.5299C10.9162 41.2465 9.94446 40.9817 8.99529 40.6612L8.28181 40.3717L7.59289 39.995C7.12435 39.7401 6.66508 39.489 6.20607 39.184C5.91359 39.0006 5.78641 38.8087 5.85154 38.7811C5.91668 38.7536 6.07998 38.7767 6.37179 38.7224C6.77025 38.6595 7.16495 38.5747 7.5541 38.4684L8.35542 38.2755C8.50422 38.228 8.64724 38.2213 8.80906 38.1682L9.22859 38.1982C11.2999 38.4128 13.3825 38.5996 15.42 38.8977C17.386 39.3717 19.4276 39.952 21.4149 40.6398C23.7727 41.4779 26.3262 41.8342 28.8238 42.5672C31.5236 43.3606 34.2101 44.2134 36.8854 45.094L41.8371 46.7473C44.3287 47.575 46.8068 48.5158 49.2929 49.3305C50.2458 49.6416 51.2176 49.9065 52.1893 50.1713L53.6654 50.5761C53.8971 50.6701 54.1643 50.703 54.3997 50.7877L55.1132 51.0773C55.5395 51.2502 55.9472 51.4157 56.3734 51.5887C57.8642 52.4095 58.2086 52.9701 58.0588 53.9777C58.0461 54.1944 58.0164 54.4097 57.9701 54.6217C57.8074 55.2355 56.8735 55.5688 55.7121 55.3457C54.827 55.2132 53.9419 55.0806 53.0307 54.9591C52.1529 54.7882 51.2889 54.553 50.4456 54.2554C48.7344 53.712 46.9843 53.1313 45.2417 52.5321C42.6389 51.6593 40.0178 50.7251 37.3683 49.8874L37.3964 49.8448Z" fill="#00FFF0"/>
<path d="M42.251 39.717C40.9484 40.2676 39.6458 40.8182 38.3431 41.3687L34.322 43.0069C33.3395 43.4068 32.4159 43.9277 31.4001 44.3033L29.9955 44.8126C29.2811 45.0779 28.5451 45.2811 27.7957 45.4199C27.4391 45.4365 27.0817 45.4285 26.7262 45.396C26.4042 45.3002 26.0991 45.1546 25.8221 44.9644C25.2502 44.5057 24.8013 43.9118 24.516 43.2365C24.3376 42.905 24.1851 42.5626 24.0327 42.2201L23.7487 41.4573C23.5745 41.0089 23.4264 40.5495 23.2838 40.1031L22.4597 37.4268C22.0106 35.874 21.4093 34.3241 20.8169 32.8319C20.3773 31.8978 20.012 30.9304 19.7246 29.9388C19.4585 28.9459 19.2352 27.9271 18.9505 26.9267C18.7809 26.3074 18.9966 26.2547 19.6116 26.5474C20.577 27.0164 21.4461 27.6619 22.174 28.4506L22.7055 29.1088C22.8935 29.3135 23.0506 29.5445 23.1719 29.7945L23.8702 31.265C24.324 32.2478 24.7554 33.2323 25.1554 34.2147C25.9552 36.1797 26.6991 38.176 27.3246 40.0918C27.3905 40.2391 27.4287 40.3973 27.4374 40.5584C27.4618 40.6598 27.4935 40.7593 27.5325 40.856C27.5696 40.9578 27.6341 41.0475 27.7188 41.1151C27.8114 41.1527 27.9156 41.1086 28.0216 41.0869C28.1214 41.0578 28.219 41.0217 28.3137 40.9788L28.9112 40.7032L38.4448 36.2514L40.9051 35.1885L43.5752 34.1137C44.4306 33.7268 45.3347 33.4583 46.2625 33.3156C46.6758 33.2955 47.0895 33.3465 47.4855 33.4666C47.7917 33.7486 48.0431 34.0848 48.2271 34.4582C48.6526 35.3007 49.0205 36.1712 49.3282 37.0635L50.0467 38.963C50.8039 40.8999 51.7661 42.7041 52.6629 44.5897C52.8614 45.0048 53.0934 45.3904 53.2473 45.809C53.3299 46.0044 53.394 46.1923 53.4563 46.3578C53.5186 46.5234 53.501 46.6997 53.517 46.8465C53.5362 47.113 53.5148 47.3809 53.4536 47.641C53.3953 47.8638 53.2891 48.0711 53.1423 48.2485C52.9516 48.4509 52.7403 48.6328 52.5119 48.7913C52.2957 48.9518 52.1165 49.1273 51.9322 49.236C51.4161 49.5769 50.1493 49.2679 49.4118 48.2132C49.1091 47.8493 48.8506 47.451 48.6415 47.0264C48.4077 46.6186 48.1907 46.196 47.9829 45.7771C47.5582 44.9356 47.1725 44.0776 46.8036 43.2049C46.4347 42.3321 46.0826 41.4446 45.7025 40.5996L45.1707 39.2506L44.971 38.7055C44.971 38.7055 44.971 38.7055 44.9936 38.6499C45.0161 38.5943 44.9936 38.6499 44.9287 38.6236L44.6997 38.7358L44.227 38.9432L42.3043 39.825L42.251 39.717Z" fill="#00FFF0"/>
<path d="M17.9759 51.3745C18.5077 51.2341 19.032 51.1123 19.5473 50.9329C19.7314 50.8781 19.8732 50.7414 20.0628 50.6997C20.7266 50.5266 21.4125 50.4056 22.0522 50.2119C22.3275 50.113 22.5821 49.9638 22.8028 49.7719C23.0937 49.5338 23.3072 49.1672 23.7896 49.255C24.0939 49.3029 25.3528 51.9183 24.9856 52.2117C24.3237 52.708 23.5244 52.9868 22.6975 53.0099C22.1645 53.0202 21.8024 53.3806 21.3948 53.5605C20.9873 53.7404 20.3958 53.9213 19.9029 54.099C19.4099 54.2766 19.2871 54.3132 18.9875 54.4398C18.5445 54.6017 18.1097 54.7854 17.6849 54.9904C17.372 55.1764 17.1474 55.5169 16.8085 55.7139C16.7517 55.7704 16.6855 55.8166 16.6128 55.8504C16.3207 55.9585 16.1412 55.8425 15.7962 55.3895L15.5564 55.0763C15.3296 54.786 15.2412 54.411 15.3145 54.0501C15.4235 53.6216 15.5904 53.2101 15.8109 52.8269C16.0388 52.545 16.2952 52.2874 16.5761 52.0583C16.9662 51.6554 17.5293 51.5709 18.015 51.3579L17.9759 51.3745Z" fill="#00FFF0"/>
<path d="M35.7231 62.5047C35.5776 62.7498 35.3876 62.9655 35.1629 63.1407L33.4839 64.6718C33.2625 64.7654 33.0608 64.9965 32.8115 65.0788C32.7806 65.0528 32.7527 65.0234 32.7284 64.9911C31.5759 63.4964 30.5972 61.8755 29.8111 60.1595L29.2913 59.0205L29.0192 58.4676L28.8924 57.8226C28.7669 57.3076 28.483 56.8902 28.423 56.6392C28.3128 56.3323 28.2689 56.0055 28.2941 55.6804C28.3212 55.4539 28.8758 55.2042 29.5133 55.0959C30.1508 54.9877 30.9643 54.9509 31.2247 55.2401L31.5497 55.6094L31.6053 55.6319C31.6053 55.6319 31.6053 55.6319 31.5714 55.7153C31.5046 55.9941 31.4862 56.2823 31.517 56.5674C31.5216 56.7703 31.5694 56.97 31.6571 57.153C31.7214 57.2871 31.7846 57.2911 31.8616 57.4735C31.8853 57.5008 31.9057 57.5308 31.9225 57.5629C31.9966 57.593 32.0401 57.8049 32.1105 57.8442C32.1693 57.8464 32.228 57.8372 32.2833 57.8173C32.4013 57.7749 32.5092 57.7084 32.6 57.622C32.7537 57.4764 32.8814 57.3056 32.9776 57.1169C33.24 56.7289 33.418 56.2901 33.5003 55.8289C33.5392 55.5056 33.5302 55.1783 33.4736 54.8576C33.4566 54.527 33.4212 54.1888 33.4303 53.8472C33.4274 53.6949 33.3874 53.5276 33.4716 53.3999C33.749 52.8757 34.1916 52.7424 35.2004 53.0223C35.4284 53.0771 35.6525 53.1465 35.8716 53.2299C36.4861 53.4412 37.0365 53.8057 37.4708 54.2889L37.7935 54.7436C37.8665 54.8817 37.9231 55.0278 37.9621 55.179C38.0422 55.4667 38.0924 55.762 38.1119 56.06C38.0944 56.3452 38.0551 56.6288 37.9943 56.908L37.9154 57.1026L37.813 57.5144L37.5936 58.321C37.1537 59.8077 36.5693 61.2477 35.8488 62.6205L35.7231 62.5047Z" fill="#00FFF0"/>
<path d="M31.4503 11.6022C31.7375 11.7188 31.3777 11.9937 30.6364 12.4375C30.2797 12.626 29.8974 12.7617 29.5017 12.8404C29.2671 12.8213 29.0352 12.7779 28.8097 12.7106C28.3989 12.2817 28.0131 11.8297 27.654 11.3567C27.4077 11.052 27.2273 10.6996 27.1243 10.3216C26.8866 9.5776 26.6414 8.85215 26.4038 8.10817C26.3605 7.93571 26.3526 7.75629 26.3804 7.58068C26.4702 6.98354 26.3929 6.37319 26.1571 5.81729C26.1316 5.7206 26.1321 5.6129 25.9839 5.55273C25.8356 5.49257 25.4595 3.83984 25.5404 3.61369C25.6905 3.03734 25.8707 2.46923 26.08 1.91168C26.1101 1.83755 26.0678 1.75563 26.1816 1.6615C26.3776 1.56189 26.4955 1.35507 26.4813 1.13561C26.5176 0.892504 26.5849 0.655058 26.6817 0.429108C26.7806 0.292816 26.9017 0.174145 27.04 0.0780734C27.1537 -0.0160638 27.562 0.041686 27.6045 0.0697535C27.6471 0.0978209 27.9332 0.0843949 28.1077 0.0796966L28.2786 0.0842644C28.4829 0.2508 28.6716 0.435736 28.8422 0.636747C29.0495 0.832475 29.2469 1.03861 29.4333 1.25436C29.4333 1.25436 29.6263 1.65643 29.8786 2.0718C30.1309 2.48717 30.2513 2.9353 30.3159 3.01547C30.3805 3.09564 30.3148 3.23088 30.2827 3.33656C30.2506 3.44225 30.8981 4.66552 30.9259 4.6768C30.9524 4.95734 31.1517 5.21088 30.8918 5.55869C30.858 5.64209 30.8467 5.66989 30.8835 5.73878C31.0128 6.21944 31.0802 6.71464 31.0841 7.21237C31.1262 7.46195 31.1889 7.70761 31.2717 7.94681C31.2717 7.94681 31.2341 8.03947 31.2153 8.0858C31.1965 8.13213 31.1626 8.21553 31.1939 8.27139C31.2957 8.86044 31.4597 9.43705 31.683 9.99154C31.7641 10.1108 31.5803 10.8564 31.6799 10.9831C31.7796 11.1099 31.3391 11.5571 31.4503 11.6022Z" fill="#00FFF0"/>
<path d="M59.1572 19.5976C59.1241 19.9187 58.7036 19.7049 58.0638 19.1539C57.7878 18.8775 57.5518 18.5638 57.3629 18.2219C57.3107 17.9989 57.2765 17.772 57.2604 17.5436C57.298 17.4509 57.8734 16.3786 58.0537 15.9877C58.2182 15.6284 58.452 15.3052 58.7418 15.0366C59.309 14.4898 59.8468 13.9094 60.4047 13.3588C60.5321 13.2293 60.6868 13.1298 60.8574 13.0677C61.4356 12.8455 61.9368 12.4603 62.3003 11.9588C62.3379 11.8662 62.4606 11.8297 62.4244 11.6531C62.7495 11.05 63.2175 10.5359 63.7875 10.1557L65.4227 9.55667C65.4971 9.5329 65.4791 9.41768 65.6885 9.51343C65.873 9.63952 66.1208 9.61825 66.2811 9.46254C66.4868 9.33068 66.7124 9.23274 66.9492 9.17248C67.1352 9.16878 67.3202 9.19994 67.4947 9.26434C67.7026 9.39774 67.873 9.58204 67.9897 9.79977C68.0277 9.99865 68.2574 10.1242 68.4181 10.2866L68.5751 10.4582C68.5556 11.072 68.4539 11.6805 68.2726 12.2672C68.2726 12.2672 67.9865 12.6799 67.6928 13.1111C67.3991 13.5423 67.0573 13.9324 67.0084 14.0529C66.9595 14.1734 66.8017 14.1633 66.6882 14.2036C66.5748 14.2439 65.7125 15.4912 65.6659 15.5262C65.3976 15.7087 65.2604 16.02 64.8056 15.9973C64.7222 15.9635 64.6753 16.0524 64.6342 16.1004C64.235 16.4797 63.7927 16.811 63.3164 17.0873C63.0966 17.2639 62.8867 17.4525 62.6878 17.6524C62.669 17.6987 62.5781 17.6834 62.526 17.7055C62.4739 17.7275 62.3847 17.7345 62.3436 17.7825C61.8125 18.194 61.3125 18.6439 60.8476 19.1288C60.7874 19.2771 59.9398 19.4511 59.8313 19.6121C59.7227 19.7731 59.1465 19.5177 59.1572 19.5976Z" fill="#00FFF0"/>
<path d="M39.8785 39.9521L37.0648 41.1414C36.7224 41.2938 36.4019 41.4983 36.0633 41.6415C34.848 42.1628 33.6181 42.6673 32.4231 43.2184C31.8908 43.4664 31.375 43.7535 30.8684 44.0444C30.2177 44.5015 29.4712 44.804 28.6858 44.9286C28.3829 44.9568 28.4161 44.6357 28.4941 44.2572C28.5077 43.8413 28.669 43.4438 28.9491 43.136C29.5344 42.6717 30.1698 42.2743 30.8436 41.9515C31.5387 41.5957 32.2519 41.2763 32.9802 40.9947C33.8278 40.5968 34.6511 40.1489 35.4455 39.6533C36.3579 39.1602 37.2813 38.6931 38.1824 38.2278L39.9227 37.4231C40.8013 37.0134 41.7001 36.6335 42.5769 36.2015C43.2452 35.8576 43.8565 35.415 44.5678 35.0453C44.7278 34.9699 44.8769 34.8686 45.0332 34.8025C45.2649 34.7125 45.5235 34.7223 45.7478 34.8296C45.972 34.937 46.1418 35.1323 46.217 35.3692L46.3491 35.6818C46.3916 35.8595 46.3763 36.0461 46.3056 36.2146C46.2392 36.4222 46.1287 36.6129 45.9816 36.7738C45.7739 37.0119 45.5251 37.2107 45.247 37.3606C44.9844 37.5023 44.7031 37.6903 44.4183 37.8337C43.8579 38.1243 43.2453 38.4369 42.6386 38.7087L39.882 39.9967L39.8785 39.9521Z" fill="#00FFF0"/>
</svg>
