<svg width="1440" height="446" viewBox="0 0 1440 446" fill="none" xmlns="http://www.w3.org/2000/svg">
<g clip-path="url(#clip0_447_26897)">
<rect width="1440" height="446" fill="#190F33"/>
<path d="M336.323 -90.1487C334.61 -90.1406 333.216 -91.5248 333.208 -93.2403C333.199 -94.9503 334.581 -96.3423 336.294 -96.3504C338.007 -96.3585 339.404 -94.9797 339.412 -93.2696C339.42 -91.5542 338.036 -90.1568 336.323 -90.1487ZM586.374 440.884C586.366 439.171 584.968 437.789 583.258 437.797C581.543 437.806 580.161 439.2 580.169 440.913C580.177 442.626 581.572 444.01 583.288 444.002C584.998 443.994 586.382 442.596 586.374 440.884ZM918.521 298.605C918.513 296.893 917.116 295.511 915.406 295.519C913.693 295.527 912.309 296.922 912.317 298.635C912.325 300.348 913.722 301.732 915.435 301.724C917.145 301.716 918.529 300.318 918.521 298.605ZM1241.55 -51.4862C1241.55 -53.199 1240.15 -54.5805 1238.44 -54.5724C1236.72 -54.5643 1235.34 -53.1696 1235.35 -51.4569C1235.36 -49.7441 1236.75 -48.3626 1238.47 -48.3707C1240.18 -48.3788 1241.56 -49.7735 1241.55 -51.4862ZM1265.91 -51.6016C1265.9 -53.3143 1264.51 -54.6959 1262.79 -54.6877C1261.08 -54.6796 1259.7 -53.285 1259.7 -51.5722C1259.71 -49.8594 1261.11 -48.4779 1262.82 -48.486C1264.53 -48.4942 1265.91 -49.8888 1265.91 -51.6016ZM1364.91 268.926C1365.45 270.55 1367.21 271.429 1368.84 270.888C1370.46 270.348 1371.34 268.593 1370.79 266.967C1370.25 265.34 1368.5 264.464 1366.87 265.004C1365.25 265.548 1364.37 267.3 1364.91 268.926ZM1168.17 693.789C1168.71 695.415 1170.46 696.295 1172.09 695.754C1173.71 695.21 1174.59 693.453 1174.05 691.826C1173.51 690.203 1171.75 689.329 1170.13 689.87C1168.5 690.41 1167.63 692.165 1168.17 693.789ZM574.292 -177.869C574.832 -176.243 576.59 -175.363 578.216 -175.907C579.84 -176.448 580.719 -178.202 580.176 -179.826C579.635 -181.452 577.877 -182.332 576.254 -181.788C574.627 -181.247 573.751 -179.493 574.292 -177.869ZM335.317 319.565C335.858 321.188 337.615 322.07 339.242 321.527C340.865 320.986 341.745 319.226 341.201 317.602C340.66 315.976 338.903 315.097 337.279 315.64C335.653 316.181 334.776 317.938 335.317 319.565ZM354.37 584.252C354.911 585.875 356.668 586.757 358.292 586.214C359.918 585.673 360.798 583.913 360.254 582.289C359.713 580.663 357.956 579.784 356.332 580.327C354.706 580.87 353.829 582.625 354.37 584.252ZM959.68 59.8234C959.672 58.1106 958.275 56.7291 956.565 56.7372C954.852 56.7453 953.468 58.14 953.476 59.8528C953.484 61.5656 954.881 62.947 956.594 62.9389C958.304 62.9308 959.688 61.5362 959.68 59.8234ZM1242.04 497.229C1242.04 495.516 1240.64 494.134 1238.93 494.142C1237.22 494.15 1235.83 495.545 1235.84 497.258C1235.85 498.971 1237.25 500.355 1238.96 500.347C1240.67 500.339 1242.05 498.941 1242.04 497.229ZM1082.23 373.543C1082.22 371.83 1080.83 370.446 1079.12 370.454C1077.4 370.462 1076.02 371.859 1076.03 373.572C1076.04 375.285 1077.43 376.666 1079.15 376.658C1080.86 376.65 1082.24 375.256 1082.23 373.543ZM982.895 542.25C982.887 540.538 981.492 539.154 979.78 539.162C978.064 539.17 976.683 540.567 976.691 542.28C976.699 543.993 978.094 545.377 979.809 545.369C981.522 545.361 982.903 543.963 982.895 542.25ZM104.97 718.415C104.962 716.7 103.565 715.318 101.854 715.327C100.139 715.335 98.7575 716.729 98.7656 718.445C98.7737 720.155 100.168 721.536 101.884 721.528C103.594 721.52 104.978 720.125 104.97 718.415ZM178.135 374.721C178.127 373.009 176.732 371.627 175.017 371.635C173.304 371.643 171.922 373.038 171.93 374.751C171.939 376.466 173.333 377.848 175.046 377.84C176.762 377.832 178.143 376.437 178.135 374.721ZM487.576 120.152C487.568 118.439 486.173 117.055 484.46 117.063C482.748 117.071 481.366 118.468 481.374 120.181C481.382 121.894 482.777 123.276 484.49 123.267C486.203 123.259 487.584 121.865 487.576 120.152ZM152.786 -212.134C152.777 -213.847 151.383 -215.228 149.67 -215.22C147.957 -215.212 146.573 -213.817 146.581 -212.104C146.589 -210.392 147.987 -209.005 149.699 -209.013C151.412 -209.021 152.794 -210.421 152.786 -212.134ZM1142.93 -270.992C1142.92 -272.708 1141.53 -274.089 1139.81 -274.081C1138.1 -274.073 1136.72 -272.679 1136.72 -270.963C1136.73 -269.253 1138.13 -267.869 1139.84 -267.877C1141.56 -267.885 1142.94 -269.282 1142.93 -270.992ZM781.989 -212.008C781.981 -213.723 780.584 -215.107 778.871 -215.099C777.158 -215.091 775.777 -213.694 775.785 -211.978C775.793 -210.266 777.187 -208.884 778.9 -208.892C780.613 -208.9 781.997 -210.295 781.989 -212.008ZM803.093 121.758C803.085 120.045 801.69 118.664 799.977 118.672C798.265 118.68 796.88 120.075 796.888 121.788C796.897 123.5 798.294 124.882 800.007 124.874C801.719 124.866 803.101 123.471 803.093 121.758ZM682.957 233.011C682.949 231.298 681.552 229.916 679.839 229.925C678.126 229.933 676.745 231.327 676.753 233.04C676.761 234.753 678.156 236.137 679.868 236.129C681.581 236.121 682.965 234.724 682.957 233.011ZM681.861 1.68605C681.853 -0.0267307 680.456 -1.41094 678.743 -1.40282C677.03 -1.39471 675.649 0.00265748 675.657 1.71544C675.665 3.42822 677.06 4.80972 678.773 4.80161C680.485 4.79349 681.87 3.39883 681.861 1.68605ZM75.3622 186.52C75.3541 184.807 73.9594 183.423 72.2466 183.431C70.5339 183.439 69.1497 184.837 69.1578 186.55C69.1659 188.262 70.5633 189.644 72.276 189.636C73.9888 189.628 75.3703 188.233 75.3622 186.52ZM1350.23 693.327C1350.22 691.614 1348.82 690.23 1347.11 690.238C1345.39 690.246 1344.02 691.644 1344.02 693.356C1344.03 695.069 1345.42 696.451 1347.14 696.443C1348.85 696.434 1350.23 695.04 1350.23 693.327ZM1148.08 162.2C1148.07 160.485 1146.68 159.101 1144.97 159.109C1143.25 159.117 1141.87 160.514 1141.88 162.23C1141.89 163.94 1143.28 165.321 1145 165.313C1146.71 165.305 1148.09 163.91 1148.08 162.2ZM977.627 49.8592C977.611 46.4337 974.821 43.6653 971.396 43.6815C967.97 43.6977 965.205 46.4924 965.221 49.918C965.237 53.3436 968.029 56.1066 971.455 56.0904C974.88 56.0741 977.643 53.2848 977.627 49.8592ZM977.771 80.2428C977.763 78.53 976.371 77.1485 974.655 77.1566C972.943 77.1647 971.561 78.5594 971.569 80.2721C971.577 81.9849 972.972 83.3664 974.685 83.3583C976.4 83.3501 977.779 81.9555 977.771 80.2428ZM139.796 443.999C139.788 442.286 138.393 440.905 136.677 440.913C134.967 440.921 133.583 442.316 133.591 444.029C133.599 445.741 134.997 447.123 136.707 447.115C138.422 447.107 139.804 445.712 139.796 443.999ZM922.034 36.4661C922.026 34.7533 920.628 33.3718 918.916 33.3799C917.206 33.388 915.821 34.7827 915.829 36.4955C915.838 38.2082 917.235 39.5898 918.945 39.5817C920.658 39.5735 922.042 38.1789 922.034 36.4661ZM335.566 -250.078C335.557 -251.791 334.16 -253.172 332.45 -253.164C330.735 -253.156 329.353 -251.761 329.361 -250.049C329.369 -248.336 330.764 -246.954 332.479 -246.962C334.19 -246.971 335.574 -248.365 335.566 -250.078ZM483.141 493.128C483.133 491.415 481.738 490.033 480.023 490.042C478.312 490.05 476.928 491.444 476.936 493.157C476.945 494.87 478.342 496.251 480.052 496.243C481.767 496.235 483.149 494.84 483.141 493.128ZM251.588 42.7427C251.58 41.0299 250.185 39.6484 248.472 39.6565C246.76 39.6646 245.378 41.0593 245.386 42.7721C245.394 44.4875 246.789 45.8663 248.502 45.8582C250.215 45.8501 251.596 44.4582 251.588 42.7427ZM561.854 -26.7686C561.846 -28.4814 560.451 -29.8629 558.736 -29.8548C557.026 -29.8467 555.642 -28.452 555.65 -26.7393C555.658 -25.0265 557.055 -23.645 558.765 -23.6531C560.481 -23.6612 561.862 -25.0559 561.854 -26.7686ZM893.989 -171.753C893.981 -173.465 892.583 -174.847 890.871 -174.839C889.161 -174.831 887.776 -173.436 887.784 -171.723C887.793 -170.011 889.19 -168.629 890.9 -168.637C892.613 -168.645 893.997 -170.04 893.989 -171.753ZM904.966 -139.334C904.958 -141.047 903.56 -142.429 901.848 -142.42C900.138 -142.412 898.753 -141.018 898.762 -139.305C898.77 -137.592 900.167 -136.211 901.877 -136.219C903.59 -136.227 904.974 -137.622 904.966 -139.334ZM984.011 -17.9448C984.003 -19.6575 982.605 -21.039 980.893 -21.0309C979.183 -21.0228 977.798 -19.6282 977.807 -17.9154C977.815 -16.2026 979.212 -14.8211 980.922 -14.8292C982.635 -14.8373 984.019 -16.232 984.011 -17.9448ZM1128.17 141.018C1128.17 139.306 1126.77 137.924 1125.06 137.932C1123.35 137.94 1121.96 139.335 1121.97 141.048C1121.98 142.761 1123.38 144.142 1125.09 144.134C1126.8 144.126 1128.18 142.731 1128.17 141.018ZM1222.21 -0.132004C1222.2 -1.84475 1220.81 -3.22627 1219.09 -3.21816C1217.38 -3.21006 1216 -1.81536 1216.01 -0.102616C1216.02 1.61016 1217.41 2.99165 1219.12 2.98355C1220.84 2.97544 1222.22 1.58078 1222.21 -0.132004ZM210.227 -150.117C210.219 -151.83 208.822 -153.211 207.112 -153.203C205.396 -153.195 204.015 -151.8 204.023 -150.087C204.031 -148.375 205.426 -146.993 207.141 -147.001C208.851 -147.009 210.235 -148.404 210.227 -150.117ZM116.756 63.5644C116.748 61.8543 115.35 60.4701 113.638 60.4782C111.925 60.4863 110.543 61.8837 110.551 63.5938C110.56 65.3093 111.954 66.6908 113.667 66.6827C115.38 66.6745 116.764 65.2799 116.756 63.5644ZM190.883 -98.7652C190.875 -100.478 189.48 -101.86 187.767 -101.851C186.052 -101.843 184.67 -100.449 184.678 -98.7359C184.686 -97.0231 186.081 -95.6389 187.796 -95.647C189.509 -95.6551 190.891 -97.0525 190.883 -98.7652ZM1221.17 -219.302C1221.17 -221.015 1219.77 -222.396 1218.06 -222.388C1216.35 -222.38 1214.96 -220.986 1214.97 -219.273C1214.98 -217.56 1216.37 -216.179 1218.08 -216.187C1219.8 -216.195 1221.18 -217.589 1221.17 -219.302ZM1282.75 213.342C1282.74 211.629 1281.35 210.248 1279.63 210.256C1277.92 210.264 1276.54 211.659 1276.55 213.371C1276.56 215.084 1277.95 216.466 1279.66 216.457C1281.38 216.449 1282.76 215.055 1282.75 213.342ZM1214.46 649.31C1214.46 647.597 1213.06 646.213 1211.35 646.221C1209.64 646.229 1208.25 647.626 1208.26 649.339C1208.27 651.052 1209.67 652.433 1211.38 652.425C1213.09 652.417 1214.47 651.023 1214.46 649.31ZM998.205 693.628C998.197 691.915 996.799 690.531 995.087 690.539C993.377 690.547 991.992 691.945 992.001 693.657C992.009 695.37 993.406 696.752 995.116 696.744C996.829 696.735 998.213 695.341 998.205 693.628ZM858.914 420.995C858.906 419.283 857.509 417.901 855.796 417.909C854.086 417.917 852.702 419.312 852.71 421.025C852.718 422.737 854.115 424.119 855.826 424.111C857.538 424.103 858.923 422.708 858.914 420.995ZM612.084 294.989C612.076 293.276 610.681 291.894 608.966 291.903C607.256 291.911 605.871 293.305 605.879 295.018C605.888 296.731 607.285 298.112 608.995 298.104C610.71 298.096 612.092 296.702 612.084 294.989ZM549.85 295.284C549.842 293.571 548.448 292.189 546.732 292.197C545.022 292.205 543.638 293.6 543.646 295.313C543.654 297.026 545.051 298.407 546.761 298.399C548.477 298.391 549.858 296.996 549.85 295.284ZM384.856 426.342C384.848 424.629 383.453 423.247 381.74 423.255C380.028 423.264 378.643 424.658 378.651 426.371C378.66 428.086 380.057 429.468 381.77 429.46C383.482 429.452 384.864 428.057 384.856 426.342ZM698.227 444.589C698.219 442.878 696.822 441.494 695.109 441.502C693.396 441.51 692.015 442.908 692.023 444.618C692.031 446.333 693.426 447.715 695.139 447.707C696.851 447.699 698.236 446.304 698.227 444.589ZM139.796 443.999C139.788 442.286 138.393 440.905 136.677 440.913C134.967 440.921 133.583 442.316 133.591 444.029C133.599 445.741 134.997 447.123 136.707 447.115C138.422 447.107 139.804 445.712 139.796 443.999ZM272.351 -43.7945C272.343 -45.5073 270.949 -46.8888 269.236 -46.8807C267.523 -46.8726 266.142 -45.4779 266.15 -43.7652C266.158 -42.0524 267.553 -40.6682 269.265 -40.6763C270.978 -40.6844 272.36 -42.0818 272.351 -43.7945Z" fill="#442F7A"/>
</g>
<defs>
<clipPath id="clip0_447_26897">
<rect width="1440" height="446" fill="white"/>
</clipPath>
</defs>
</svg>
