<svg viewBox="0 0 41 40" fill="none" xmlns="http://www.w3.org/2000/svg">
<path d="M26.612 23.304C26.612 24.4693 26.152 25.696 25.232 26.984C24.312 28.2413 23.116 29.4833 21.644 30.71C20.172 31.9367 18.562 33.102 16.814 34.206C15.0967 35.2793 13.3947 36.23 11.708 37.058C10.052 37.9167 8.58 38.576 7.292 39.036C6.004 39.5267 5.06867 39.772 4.486 39.772C3.382 39.772 2.47733 39.5727 1.772 39.174C1.06667 38.7753 0.714 38.07 0.714 37.058C0.714 36.2913 0.898 35.6933 1.266 35.264C1.634 34.8347 2.15533 34.4667 2.83 34.16C4.45533 33.424 6.12667 32.642 7.844 31.814C9.56133 30.986 11.202 30.1427 12.766 29.284C14.3607 28.4253 15.7713 27.582 16.998 26.754C18.2553 25.926 19.252 25.144 19.988 24.408C20.724 23.6413 21.092 22.9667 21.092 22.384C21.092 21.7093 20.8313 21.2187 20.31 20.912C19.8193 20.6053 19.16 20.406 18.332 20.314C17.504 20.1913 16.584 20.13 15.572 20.13C14.192 20.13 13.042 20.1913 12.122 20.314C11.202 20.4367 10.4047 20.5593 9.73 20.682C9.086 20.774 8.488 20.82 7.936 20.82C7.016 20.82 6.35667 20.6207 5.958 20.222C5.55933 19.7927 5.36 19.2253 5.36 18.52C5.36 17.9373 5.57467 17.3393 6.004 16.726C6.43333 16.1127 7.12333 15.6527 8.074 15.346C10.0673 14.702 11.8307 13.9967 13.364 13.23C14.928 12.4327 16.1393 11.5587 16.998 10.608C17.8873 9.65733 18.332 8.63 18.332 7.526C18.332 7.18866 18.1633 6.95866 17.826 6.836C17.5193 6.71333 16.8753 6.652 15.894 6.652C15.0047 6.652 14.008 6.75933 12.904 6.974C11.8307 7.18867 10.7727 7.44933 9.73 7.756C8.718 8.032 7.844 8.27733 7.108 8.492C6.40267 8.70667 5.958 8.814 5.774 8.814C4.42467 8.814 3.75 8.13933 3.75 6.79C3.75 6.48333 3.98 5.99266 4.44 5.318C4.9 4.64333 5.59 3.95333 6.51 3.248C7.43 2.512 8.56467 1.88333 9.914 1.362C11.294 0.840665 12.8887 0.579998 14.698 0.579998C16.4767 0.579998 18.0253 0.932665 19.344 1.638C20.6933 2.34333 21.736 3.30933 22.472 4.536C23.2387 5.732 23.622 7.09666 23.622 8.63C23.622 9.79533 23.254 10.9607 22.518 12.126C21.8127 13.2607 20.9233 14.2727 19.85 15.162C21.9047 15.7753 23.5453 16.8333 24.772 18.336C25.9987 19.808 26.612 21.464 26.612 23.304ZM36.0053 37.196C35.0547 37.196 34.1653 36.9047 33.3373 36.322C32.5093 35.7393 32.0953 34.7887 32.0953 33.47C32.0953 32.458 32.356 31.6453 32.8773 31.032C33.3987 30.388 33.9967 29.9127 34.6713 29.606C35.3767 29.2993 35.9747 29.146 36.4653 29.146C36.9867 29.146 37.5693 29.2687 38.2133 29.514C38.888 29.7287 39.4707 30.1427 39.9613 30.756C40.452 31.3387 40.6973 32.182 40.6973 33.286C40.6973 34.3593 40.2373 35.2793 39.3173 36.046C38.428 36.8127 37.324 37.196 36.0053 37.196Z" fill="#6E41E2"/>
</svg>
