<svg width="87" height="63" viewBox="0 0 87 63" fill="none" xmlns="http://www.w3.org/2000/svg">
<path d="M4.42 3.18C3.87333 3.18 3.48667 3.15333 3.26 3.1C3.03333 3.03333 2.89333 2.94667 2.84 2.84C2.8 2.73333 2.78 2.62667 2.78 2.52C2.78 2.37333 2.85333 2.24 3 2.12C3.16 1.98667 3.48 1.88 3.96 1.8C4.57333 1.66667 5.29333 1.53333 6.12 1.4C6.96 1.25333 7.85333 1.12 8.8 0.999999C9.74667 0.866666 10.6933 0.746666 11.64 0.64C12.6 0.533333 13.5133 0.453333 14.38 0.399999C15.26 0.333333 16.04 0.299999 16.72 0.299999C17.6267 0.299999 18.24 0.379999 18.56 0.539999C18.8933 0.699999 19.06 0.873333 19.06 1.06C19.06 1.23333 18.9667 1.39333 18.78 1.54C18.6067 1.68667 18.3067 1.76 17.88 1.76C17.7067 1.76 17.3067 1.8 16.68 1.88C16.0533 1.94667 15.2867 2.04 14.38 2.16C13.4867 2.26667 12.54 2.38667 11.54 2.52C11.4733 2.97333 11.3733 3.57333 11.24 4.32C11.1067 5.05333 10.9533 5.86 10.78 6.74C10.62 7.62 10.4533 8.50667 10.28 9.4C10.12 10.28 9.96667 11.1 9.82 11.86C9.68667 12.62 9.57333 13.2467 9.48 13.74C9.38667 14.2333 9.33333 14.5267 9.32 14.62C9.26667 15.0333 9.14667 15.3467 8.96 15.56C8.78667 15.76 8.59333 15.86 8.38 15.86C8.12667 15.86 7.91333 15.7533 7.74 15.54C7.58 15.3133 7.5 14.92 7.5 14.36C7.5 14.1733 7.54 13.8133 7.62 13.28C7.7 12.7333 7.80667 12.0867 7.94 11.34C8.07333 10.5933 8.22 9.8 8.38 8.96C8.54 8.12 8.7 7.3 8.86 6.5C9.02 5.68667 9.16667 4.95333 9.3 4.3C9.43333 3.63333 9.53333 3.11333 9.6 2.74C8.54667 2.86 7.55333 2.96667 6.62 3.06C5.7 3.14 4.96667 3.18 4.42 3.18ZM17.2786 16.38C17.0653 16.38 16.8853 16.2933 16.7386 16.12C16.5919 15.9467 16.5186 15.7067 16.5186 15.4C16.5186 15.1733 16.5653 14.8 16.6586 14.28C16.7653 13.7467 16.8786 13.1267 16.9986 12.42C17.1319 11.7133 17.2453 10.98 17.3386 10.22C17.4319 9.44667 17.4786 8.70667 17.4786 8C17.4786 7.65333 17.5653 7.4 17.7386 7.24C17.9253 7.06667 18.1319 6.98 18.3586 6.98C18.5719 6.98 18.7319 7.11333 18.8386 7.38C18.9453 7.64667 18.9653 8.18 18.8986 8.98C19.5119 7.62 20.1853 6.52667 20.9186 5.7C21.6653 4.86 22.4053 4.26 23.1386 3.9C23.8719 3.52667 24.5319 3.34 25.1186 3.34C25.5053 3.34 25.7853 3.42 25.9586 3.58C26.1453 3.72667 26.2386 3.89333 26.2386 4.08C26.2386 4.33333 26.1319 4.53333 25.9186 4.68C25.7186 4.81333 25.3653 4.97333 24.8586 5.16C24.2719 5.38667 23.7319 5.65333 23.2386 5.96C22.7586 6.25333 22.2986 6.64 21.8586 7.12C21.4319 7.6 21.0119 8.21333 20.5986 8.96C20.1853 9.69333 19.7719 10.6 19.3586 11.68C18.9453 12.76 18.5053 14.06 18.0386 15.58C17.9586 15.8733 17.8519 16.08 17.7186 16.2C17.5986 16.32 17.4519 16.38 17.2786 16.38ZM27.2644 16.1C27.011 16.1 26.7844 16.0067 26.5844 15.82C26.3844 15.62 26.2844 15.3133 26.2844 14.9C26.2844 14.6067 26.3244 14.2 26.4044 13.68C26.4844 13.1467 26.591 12.5667 26.7244 11.94C26.8577 11.3133 26.9977 10.6933 27.1444 10.08C27.3044 9.45333 27.4644 8.89333 27.6244 8.4C27.7844 7.90667 27.9244 7.54 28.0444 7.3C28.151 7.11333 28.251 6.99333 28.3444 6.94C28.451 6.88667 28.551 6.86 28.6444 6.86C28.831 6.86 28.991 6.92 29.1244 7.04C29.271 7.16 29.3444 7.39333 29.3444 7.74C29.3444 7.94 29.3044 8.27333 29.2244 8.74C29.1577 9.19333 29.0644 9.72667 28.9444 10.34C28.8377 10.94 28.7177 11.56 28.5844 12.2C28.4644 12.8267 28.3444 13.4267 28.2244 14C28.1044 14.5733 28.011 15.0533 27.9444 15.44C27.891 15.6533 27.7977 15.82 27.6644 15.94C27.5444 16.0467 27.411 16.1 27.2644 16.1ZM29.2244 5.04C28.9177 5.04 28.6244 4.94667 28.3444 4.76C28.0777 4.57333 27.9444 4.27333 27.9444 3.86C27.9444 3.51333 28.0244 3.23333 28.1844 3.02C28.3577 2.80667 28.5577 2.65333 28.7844 2.56C29.0244 2.45333 29.231 2.4 29.4044 2.4C29.5777 2.4 29.771 2.44 29.9844 2.52C30.211 2.58667 30.4044 2.72 30.5644 2.92C30.7244 3.10667 30.8044 3.38667 30.8044 3.76C30.8044 4.01333 30.7177 4.24 30.5444 4.44C30.371 4.62667 30.1577 4.77333 29.9044 4.88C29.6644 4.98667 29.4377 5.04 29.2244 5.04ZM33.2977 21.28C32.271 21.28 31.5177 21.18 31.0377 20.98C30.5577 20.78 30.3177 20.5133 30.3177 20.18C30.3177 19.9667 30.3843 19.7933 30.5177 19.66C30.6643 19.5267 30.8443 19.46 31.0577 19.46C31.2843 19.46 31.611 19.4933 32.0377 19.56C32.4643 19.64 32.8843 19.68 33.2977 19.68C34.671 19.68 35.7977 19.2733 36.6777 18.46C37.5577 17.6467 38.231 16.4 38.6977 14.72C39.1643 13.0267 39.4777 10.8667 39.6377 8.24C39.2377 9.05333 38.7843 9.86667 38.2777 10.68C37.7843 11.48 37.251 12.2133 36.6777 12.88C36.1177 13.5333 35.5377 14.06 34.9377 14.46C34.3377 14.86 33.7443 15.06 33.1577 15.06C32.5977 15.06 32.1843 14.92 31.9177 14.64C31.6643 14.36 31.5377 13.9 31.5377 13.26C31.5377 12.6867 31.6977 12.08 32.0177 11.44C32.3377 10.7867 32.7643 10.1333 33.2977 9.48C33.831 8.82667 34.4177 8.20667 35.0577 7.62C35.6977 7.02 36.3377 6.49333 36.9777 6.04C37.631 5.57333 38.2377 5.20667 38.7977 4.94C39.3577 4.67333 39.811 4.54 40.1577 4.54C40.5043 4.54 40.771 4.66 40.9577 4.9C41.1443 5.14 41.2377 5.59333 41.2377 6.26C41.2377 7.82 41.1843 9.34 41.0777 10.82C40.9843 12.2867 40.791 13.6533 40.4977 14.92C40.2043 16.1867 39.7643 17.2933 39.1777 18.24C38.6043 19.2 37.8377 19.9467 36.8777 20.48C35.9177 21.0133 34.7243 21.28 33.2977 21.28ZM39.2777 6.28C38.611 6.70667 37.9243 7.18667 37.2177 7.72C36.511 8.25333 35.851 8.82 35.2377 9.42C34.6377 10.02 34.151 10.64 33.7777 11.28C33.4043 11.92 33.2177 12.56 33.2177 13.2C33.2177 13.4 33.3443 13.5 33.5977 13.5C33.7977 13.5 34.071 13.3467 34.4177 13.04C34.7777 12.72 35.1777 12.3 35.6177 11.78C36.0577 11.2467 36.5043 10.6667 36.9577 10.04C37.4243 9.4 37.8577 8.75333 38.2577 8.1C38.6577 7.44667 38.9977 6.84 39.2777 6.28ZM45.9477 21.28C44.921 21.28 44.1677 21.18 43.6877 20.98C43.2077 20.78 42.9677 20.5133 42.9677 20.18C42.9677 19.9667 43.0343 19.7933 43.1677 19.66C43.3143 19.5267 43.4943 19.46 43.7077 19.46C43.9343 19.46 44.261 19.4933 44.6877 19.56C45.1143 19.64 45.5343 19.68 45.9477 19.68C47.321 19.68 48.4477 19.2733 49.3277 18.46C50.2077 17.6467 50.881 16.4 51.3477 14.72C51.8143 13.0267 52.1277 10.8667 52.2877 8.24C51.8877 9.05333 51.4343 9.86667 50.9277 10.68C50.4343 11.48 49.901 12.2133 49.3277 12.88C48.7677 13.5333 48.1877 14.06 47.5877 14.46C46.9877 14.86 46.3943 15.06 45.8077 15.06C45.2477 15.06 44.8343 14.92 44.5677 14.64C44.3143 14.36 44.1877 13.9 44.1877 13.26C44.1877 12.6867 44.3477 12.08 44.6677 11.44C44.9877 10.7867 45.4143 10.1333 45.9477 9.48C46.481 8.82667 47.0677 8.20667 47.7077 7.62C48.3477 7.02 48.9877 6.49333 49.6277 6.04C50.281 5.57333 50.8877 5.20667 51.4477 4.94C52.0077 4.67333 52.461 4.54 52.8077 4.54C53.1543 4.54 53.421 4.66 53.6077 4.9C53.7943 5.14 53.8877 5.59333 53.8877 6.26C53.8877 7.82 53.8343 9.34 53.7277 10.82C53.6343 12.2867 53.441 13.6533 53.1477 14.92C52.8543 16.1867 52.4143 17.2933 51.8277 18.24C51.2543 19.2 50.4877 19.9467 49.5277 20.48C48.5677 21.0133 47.3743 21.28 45.9477 21.28ZM51.9277 6.28C51.261 6.70667 50.5743 7.18667 49.8677 7.72C49.161 8.25333 48.501 8.82 47.8877 9.42C47.2877 10.02 46.801 10.64 46.4277 11.28C46.0543 11.92 45.8677 12.56 45.8677 13.2C45.8677 13.4 45.9943 13.5 46.2477 13.5C46.4477 13.5 46.721 13.3467 47.0677 13.04C47.4277 12.72 47.8277 12.3 48.2677 11.78C48.7077 11.2467 49.1543 10.6667 49.6077 10.04C50.0743 9.4 50.5077 8.75333 50.9077 8.1C51.3077 7.44667 51.6477 6.84 51.9277 6.28ZM65.5377 7.38C65.5377 7.80667 65.4043 8.22667 65.1377 8.64C64.871 9.04 64.5177 9.42667 64.0777 9.8C63.6377 10.16 63.151 10.5 62.6177 10.82C62.0843 11.14 61.551 11.42 61.0177 11.66C60.4843 11.9 59.9977 12.0933 59.5577 12.24C59.451 12.76 59.3977 13.22 59.3977 13.62C59.3977 13.8733 59.4577 14.0533 59.5777 14.16C59.6977 14.2667 59.8843 14.32 60.1377 14.32C60.6977 14.32 61.291 14.22 61.9177 14.02C62.5443 13.82 63.1843 13.56 63.8377 13.24C64.491 12.92 65.1177 12.58 65.7177 12.22C66.3177 11.86 66.8643 11.52 67.3577 11.2C67.8643 10.88 68.2843 10.62 68.6177 10.42C68.951 10.22 69.171 10.12 69.2777 10.12C69.4377 10.12 69.5577 10.1733 69.6377 10.28C69.731 10.3733 69.7777 10.4867 69.7777 10.62C69.7777 10.7267 69.611 10.9333 69.2777 11.24C68.9577 11.5467 68.5243 11.9067 67.9777 12.32C67.431 12.72 66.8177 13.1333 66.1377 13.56C65.4577 13.9867 64.751 14.3867 64.0177 14.76C63.2977 15.1333 62.5977 15.4333 61.9177 15.66C61.251 15.8867 60.651 16 60.1177 16C59.4243 16 58.8843 15.74 58.4977 15.22C58.111 14.7 57.9177 13.8933 57.9177 12.8C57.9177 12.0667 58.011 11.3267 58.1977 10.58C58.3977 9.83333 58.6643 9.12 58.9977 8.44C59.3443 7.74667 59.7243 7.13333 60.1377 6.6C60.5643 6.05333 61.011 5.62667 61.4777 5.32C61.9443 5 62.3977 4.84 62.8377 4.84C63.6777 4.84 64.3377 5.07333 64.8177 5.54C65.2977 6.00667 65.5377 6.62 65.5377 7.38ZM59.9777 10.7C60.391 10.4467 60.8177 10.18 61.2577 9.9C61.6977 9.62 62.1043 9.33333 62.4777 9.04C62.851 8.74667 63.151 8.44 63.3777 8.12C63.6177 7.78667 63.7377 7.44667 63.7377 7.1C63.7377 6.60667 63.471 6.36 62.9377 6.36C62.6043 6.36 62.251 6.57333 61.8777 7C61.5177 7.41333 61.171 7.95333 60.8377 8.62C60.5043 9.28667 60.2177 9.98 59.9777 10.7ZM69.552 16.38C69.3387 16.38 69.1587 16.2933 69.012 16.12C68.8654 15.9467 68.792 15.7067 68.792 15.4C68.792 15.1733 68.8387 14.8 68.932 14.28C69.0387 13.7467 69.152 13.1267 69.272 12.42C69.4054 11.7133 69.5187 10.98 69.612 10.22C69.7054 9.44667 69.752 8.70667 69.752 8C69.752 7.65333 69.8387 7.4 70.012 7.24C70.1987 7.06667 70.4054 6.98 70.632 6.98C70.8454 6.98 71.0054 7.11333 71.112 7.38C71.2187 7.64667 71.2387 8.18 71.172 8.98C71.7854 7.62 72.4587 6.52667 73.192 5.7C73.9387 4.86 74.6787 4.26 75.412 3.9C76.1454 3.52667 76.8054 3.34 77.392 3.34C77.7787 3.34 78.0587 3.42 78.232 3.58C78.4187 3.72667 78.512 3.89333 78.512 4.08C78.512 4.33333 78.4054 4.53333 78.192 4.68C77.992 4.81333 77.6387 4.97333 77.132 5.16C76.5454 5.38667 76.0054 5.65333 75.512 5.96C75.032 6.25333 74.572 6.64 74.132 7.12C73.7054 7.6 73.2854 8.21333 72.872 8.96C72.4587 9.69333 72.0454 10.6 71.632 11.68C71.2187 12.76 70.7787 14.06 70.312 15.58C70.232 15.8733 70.1254 16.08 69.992 16.2C69.872 16.32 69.7254 16.38 69.552 16.38ZM80.6963 16.44C80.4029 16.44 80.1763 16.3533 80.0163 16.18C79.8696 16.02 79.7963 15.8333 79.7963 15.62C79.7963 15.4333 79.8763 15.26 80.0363 15.1C80.2096 14.9267 80.4429 14.7733 80.7363 14.64C81.2696 14.36 81.7696 14.08 82.2363 13.8C82.7163 13.52 83.1029 13.22 83.3963 12.9C83.6896 12.58 83.8363 12.24 83.8363 11.88C83.8363 11.5733 83.7363 11.34 83.5363 11.18C83.3363 11.0067 83.0629 10.92 82.7163 10.92C82.5163 10.92 82.2363 10.96 81.8763 11.04C81.5163 11.1067 81.1229 11.1867 80.6963 11.28C80.2829 11.36 79.8763 11.44 79.4763 11.52C79.0763 11.5867 78.7363 11.62 78.4563 11.62C77.9496 11.62 77.5696 11.5 77.3163 11.26C77.0629 11.0067 76.9363 10.6667 76.9363 10.24C76.9363 10.0267 77.0629 9.70667 77.3163 9.28C77.5696 8.85333 77.9029 8.38 78.3163 7.86C78.7429 7.32667 79.2096 6.79333 79.7163 6.26C80.2229 5.72667 80.7363 5.23333 81.2563 4.78C81.7896 4.32667 82.2829 3.96 82.7363 3.68C83.2029 3.4 83.5896 3.26 83.8963 3.26C84.2029 3.26 84.4363 3.36 84.5963 3.56C84.7563 3.76 84.8363 4.01333 84.8363 4.32C84.8363 4.56 84.7963 4.76667 84.7163 4.94C84.6363 5.1 84.4696 5.22667 84.2163 5.32C83.9763 5.41333 83.6029 5.46667 83.0963 5.48C82.5763 5.89333 82.0229 6.36667 81.4363 6.9C80.8629 7.42 80.3363 7.96 79.8563 8.52C79.3896 9.06667 79.0496 9.59333 78.8363 10.1C79.2763 9.95333 79.8096 9.82667 80.4363 9.72C81.0763 9.6 81.7229 9.54 82.3763 9.54C83.4029 9.54 84.1629 9.77333 84.6563 10.24C85.1629 10.6933 85.4163 11.2933 85.4163 12.04C85.4163 12.52 85.2629 13.02 84.9563 13.54C84.6629 14.0467 84.2763 14.52 83.7963 14.96C83.3163 15.4 82.8029 15.7533 82.2563 16.02C81.7096 16.3 81.1896 16.44 80.6963 16.44Z" fill="#FFCC4D"/>
<path d="M1 61C0.447715 61 0 61.4477 0 62C0 62.5523 0.447715 63 1 63V61ZM44.7071 33.2929C44.3166 32.9024 43.6834 32.9024 43.2929 33.2929L36.9289 39.6569C36.5384 40.0474 36.5384 40.6805 36.9289 41.0711C37.3195 41.4616 37.9526 41.4616 38.3431 41.0711L44 35.4142L49.6569 41.0711C50.0474 41.4616 50.6805 41.4616 51.0711 41.0711C51.4616 40.6805 51.4616 40.0474 51.0711 39.6569L44.7071 33.2929ZM1 63C7.34784 63 13.2598 63.0007 18.5333 62.559C23.805 62.1175 28.519 61.229 32.4584 59.4077C36.4246 57.574 39.5899 54.8013 41.7458 50.6482C43.8891 46.5195 45 41.0943 45 34H43C43 40.9057 41.9155 45.9805 39.9707 49.7268C38.0386 53.4487 35.2233 55.926 31.6191 57.5923C27.988 59.271 23.5418 60.1325 18.3664 60.566C13.1927 60.9993 7.37047 61 1 61V63Z" fill="#FFCC4D"/>
</svg>
