<svg width="70" height="84" viewBox="0 0 70 84" fill="none" xmlns="http://www.w3.org/2000/svg">
<path d="M12.8112 31.7417C14.4428 32.8162 16.1527 33.7652 17.9264 34.5807C19.7418 35.4426 21.6 36.133 23.4983 36.7716C24.2021 37.0008 24.9084 37.199 25.6147 37.3973C26.321 37.5955 27.0374 37.7586 27.7437 37.9568C32.7823 39.3338 37.9287 40.2747 43.1268 40.7691C45.4334 40.9764 47.7513 41.0268 50.0646 40.9198C51.5348 40.8509 53.0101 40.7199 54.4597 40.5245C55.9094 40.329 57.363 40.2298 58.7936 39.9464C59.6888 39.7934 59.7188 40.1509 59.0658 40.7801C58.6334 41.2114 58.1472 41.5845 57.6193 41.8899C57.2912 42.111 56.9449 42.3036 56.5843 42.4655L55.9886 42.718C55.776 42.7776 55.5602 42.8253 55.3423 42.8607C52.2418 43.4007 49.0975 43.6454 45.9513 43.5916C42.8212 43.565 39.6986 43.2822 36.6141 42.746C32.9279 42.097 29.0958 41.5391 25.3435 40.5919C21.2227 39.5485 17.2294 38.0495 13.4366 36.1221C11.0351 34.9184 8.8129 33.3823 6.83486 31.5586C5.27024 30.124 4.04628 28.3538 3.25352 26.3792C2.83746 25.3359 2.62112 24.223 2.61589 23.099C2.61654 21.8801 2.98785 20.6905 3.67999 19.69C4.74211 18.2707 6.20706 17.2087 7.88153 16.6441C9.39329 16.0657 10.99 15.7436 12.6066 15.6909C13.3007 15.651 13.9966 15.6555 14.6901 15.7044C17.275 15.971 18.0189 16.5226 18.355 17.4192C18.4474 17.6149 18.5176 17.8203 18.5644 18.0317C18.6405 18.6691 17.5695 18.9298 15.8962 19.0034C14.6628 19.0467 13.4356 19.1985 12.2285 19.4572C11.1021 19.6541 10.0001 19.973 8.94187 20.4083C8.12622 20.7017 7.41053 21.2227 6.8786 21.9104C6.47957 22.4676 6.34449 23.1732 6.50925 23.8396C6.81155 25.4222 7.53793 26.8916 8.60995 28.0891C9.83937 29.4763 11.2638 30.6753 12.838 31.648L12.8112 31.7417Z" fill="#6E41E2"/>
<path d="M12.4421 45.0383C13.4409 45.8423 14.4966 46.5721 15.6008 47.2218C16.0098 47.4671 16.4607 47.6104 16.8656 47.8482C18.3128 48.718 19.8266 49.4704 21.3927 50.0981C22.0908 50.3637 22.8074 50.5776 23.5365 50.738C23.9983 50.8654 24.4793 50.9032 24.9343 51.0541C25.3894 51.2049 25.8436 51.3364 26.2953 51.499C26.5789 51.5875 26.5235 51.8251 26.2383 52.0724C25.8327 52.4011 25.3386 52.6004 24.8196 52.6447C24.6897 52.6578 24.5489 52.6869 24.4224 52.6883L24.0329 52.6389L23.2799 52.5159C22.7698 52.4253 22.2705 52.3188 21.778 52.1888C20.7864 51.9407 19.8196 51.6013 18.8899 51.1748C17.7789 50.65 16.5384 50.3351 15.3999 49.7961C14.1443 49.1692 12.9321 48.4579 11.7716 47.6669C11.0651 47.1831 10.3727 46.6718 9.70954 46.1245C8.69267 45.2838 7.76206 44.3428 6.93167 43.3155C6.24353 42.5242 5.65717 41.649 5.1864 40.7104C5.07369 40.502 4.97996 40.2838 4.90636 40.0584C4.74669 39.1621 4.95963 38.8368 5.39543 38.6142C5.49102 38.5509 5.59133 38.4951 5.69544 38.4473C6.02862 38.3408 6.40431 38.6146 6.72556 39.0565C6.9765 39.3528 7.20963 39.6639 7.42372 39.9882C7.65453 40.2834 7.87034 40.5869 8.13116 40.8655C8.61528 41.4434 9.17026 41.972 9.70097 42.5634C10.5322 43.4566 11.4468 44.2674 12.4322 44.9847L12.4421 45.0383Z" fill="#6E41E2"/>
<path d="M3.73688 32.2472C2.83072 31.4425 2.03434 30.5208 1.36841 29.506C0.632143 28.3672 0.173863 27.0695 0.0309316 25.7186C-0.0921329 24.329 0.153422 22.9314 0.742549 21.6684L1.17882 20.8051L1.71736 20.0033C2.11909 19.4293 2.59584 18.9124 3.13475 18.4664C5.05793 17.0349 7.3122 16.1202 9.68457 15.8088C11.793 15.4749 13.9249 15.3138 16.0593 15.3271C20.253 15.3388 24.4288 15.879 28.489 16.9351C32.5605 17.9531 36.4945 19.4631 40.2052 21.4321C42.9569 22.8764 45.529 24.6434 47.8677 26.6961C50.2855 28.819 52.2571 31.4065 53.6666 34.3066C54.9109 36.9324 55.6155 39.7837 55.7381 42.6899C55.8251 44.1984 55.6936 45.7116 55.3477 47.1821C54.9646 48.746 54.2472 50.2072 53.2455 51.4639C52.2649 52.6831 51.0518 53.6927 49.6776 54.4332C48.399 55.1162 47.0421 55.6392 45.6372 55.9907C42.9376 56.6538 40.1604 56.9423 37.3829 56.8479C34.6981 56.7777 32.0251 56.4642 29.3962 55.9113C26.8016 55.3543 24.2451 54.6308 21.7424 53.7453C16.7174 52.0049 11.9995 49.4715 7.76563 46.2402C6.81761 45.5099 5.90839 44.7299 5.04173 43.9036C4.6139 43.4815 4.18941 43.0478 3.79237 42.6283C3.26869 42.0343 2.82375 41.3745 2.46866 40.6654C2.10744 39.9392 1.88378 39.1516 1.80912 38.343C1.71317 37.5475 1.9692 36.7497 2.50945 36.1608C3.63793 35.0604 5.45655 35.1621 7.05571 35.5237C7.24541 35.566 7.47756 35.6142 7.62897 35.658L8.05991 35.7828C8.35108 35.8672 8.64225 35.9515 8.91843 36.0442C9.49327 36.217 10.0381 36.4065 10.607 36.622C11.7042 36.9969 12.802 37.4798 13.8765 37.9559C16.0152 38.9082 18.093 39.993 20.0981 41.2041C22.738 42.7554 25.1833 44.62 27.3812 46.7578C28.5278 47.8909 29.5276 49.1652 30.3569 50.5503C31.2614 52.0438 31.8196 53.7232 31.9901 55.4636C32.1102 57.2766 31.6978 59.0851 30.8041 60.6642L30.121 61.7731C29.8502 62.1493 29.5505 62.5037 29.2248 62.8329C28.6087 63.452 27.9184 63.9915 27.1696 64.4389C25.7809 65.2751 24.2646 65.8754 22.6818 66.2156C21.1448 66.5752 19.5686 66.7368 17.991 66.6966C15.9768 66.5954 15.1713 66.0386 15.3067 65.786C15.4421 65.5334 16.4197 65.3344 17.8766 64.8493C19.7922 64.2281 21.607 63.3283 23.2636 62.1785C24.2269 61.5561 25.0962 60.7973 25.8445 59.9255C26.4516 59.0708 26.8741 58.0976 27.0847 57.0687C27.2351 56.1241 27.1478 55.1567 26.8307 54.2548C26.4304 53.17 25.8576 52.1579 25.1345 51.2579C23.4213 49.1744 21.4099 47.3584 19.1663 45.8693C16.8394 44.2822 14.3853 42.8925 11.8295 41.7146C10.5238 41.1207 9.23473 40.5571 7.9496 40.0897C7.6227 39.976 7.29164 39.8548 6.97718 39.7637L6.36324 39.5732C6.24262 39.5319 6.28507 39.5379 6.23098 39.5286C6.17689 39.5192 6.11848 39.5911 6.16074 39.6858L6.23123 39.8141L6.47289 40.0934L6.81012 40.4575C7.27112 40.9399 7.76628 41.4131 8.27979 41.8664C10.4253 43.7026 12.7554 45.3086 15.2323 46.6583C20.3134 49.3767 25.7796 51.2936 31.4395 52.3418C34.8171 52.9686 38.2678 53.0939 41.6816 52.7137C45.0062 52.3128 48.3266 51.1557 50.0393 48.8734C50.9134 47.7028 51.4156 46.2939 51.4801 44.8313C51.5307 44.0309 51.5245 43.2278 51.4617 42.4282C51.4026 42.0178 51.3701 41.6024 51.311 41.192L51.0654 39.9791C50.2319 36.7276 48.591 33.7423 46.2967 31.3031C43.6806 28.4865 40.5946 26.1522 37.1783 24.4059C33.7081 22.6075 30.0398 21.2257 26.2488 20.289C22.4549 19.3143 18.5518 18.8363 14.6362 18.8668C12.7204 18.8977 10.8131 19.1298 8.94526 19.5593C7.14136 20.001 5.48162 20.7763 4.64253 22.0113C4.04641 22.8161 3.67984 23.7692 3.58226 24.768C3.56464 25.2386 3.62157 25.7091 3.75091 26.1617C3.89956 26.6424 4.11467 27.0998 4.38994 27.5203C5.74932 29.3679 7.51557 30.8738 9.55028 31.9201C13.7025 34.2898 18.4425 35.8402 23.1295 37.223C30.2326 39.3931 37.5916 40.6007 45.0121 40.814C48.6564 40.8865 52.2948 40.4885 55.8384 39.6297L57.1093 39.2873L58.3763 38.8487C59.2006 38.5864 60.0029 38.2588 60.7757 37.8689C62.2115 37.2017 63.412 36.1115 64.2182 34.7428C64.7315 33.7115 64.9217 32.5479 64.7636 31.4056C64.5696 30.1509 64.179 28.9352 63.6063 27.8036C62.3786 25.3938 60.8049 23.179 58.9357 21.2303C57.0557 19.2166 55.0164 17.3595 52.8379 15.6773C50.632 14.0323 48.3 12.5658 45.8637 11.2914C43.7034 10.1583 41.4895 9.21257 39.1914 8.27424C37.0572 7.4024 35.2572 6.72886 33.7417 6.16307C32.2262 5.59728 31.0161 5.08822 30.0198 4.64742C28.5692 4.09981 27.2377 3.27476 26.099 2.21787C25.7072 1.88236 25.3443 1.51412 25.0142 1.11709C24.7156 0.573896 25.4992 0.413905 27.2537 0.541434C29.9153 0.799908 32.5499 1.28913 35.1278 2.00365C40.3548 3.36433 45.4187 5.2946 50.2294 7.76022C51.4567 8.40747 52.6706 9.10159 53.8603 9.85845C55.075 10.6163 56.2474 11.4408 57.3722 12.3282C59.6149 14.1178 61.6921 16.1079 63.5782 18.2741C65.6047 20.542 67.2984 23.0895 68.6081 25.8395C69.3348 27.4196 69.7885 29.1127 69.9498 30.846C70.1434 32.8519 69.7748 34.8722 68.8858 36.6782C67.9972 38.4125 66.6802 39.8877 65.0613 40.9624C63.6866 41.8891 62.1946 42.6261 60.6251 43.1537C57.8215 44.1352 54.9152 44.7897 51.9632 45.1044C47.7021 45.5269 43.4079 45.4807 39.1568 44.9667C34.999 44.465 30.8811 43.6709 26.8336 42.5903C22.8203 41.5274 18.867 40.2469 14.9912 38.7545C12.9975 37.9835 11.052 37.0917 9.16557 36.084C7.18727 35.0602 5.33975 33.7988 3.66347 32.3274L3.73688 32.2472Z" fill="#6E41E2"/>
<path d="M10.7731 75.3847C10.9331 76.1771 11.2596 76.9259 11.7308 77.5809C11.9398 77.8458 12.1844 78.0802 12.4576 78.2775C12.4775 78.3524 12.6814 78.4849 13.0518 78.51C13.7284 78.484 14.398 78.3636 15.0416 78.1522C16.4984 77.7769 17.914 77.2548 19.2668 76.5939C20.6897 75.907 22.107 75.1323 23.5177 74.3326C24.7539 73.5844 25.9329 72.7445 27.0451 71.8201C28.4249 70.5751 29.9052 69.4477 31.4708 68.4496C31.9877 68.1586 32.4272 68.7095 32.5 69.5823C32.6484 70.6147 32.3615 71.6626 31.7085 72.4731C30.3844 73.926 28.9707 75.2936 27.4758 76.568C25.9753 77.8966 24.2969 79.0068 22.4897 79.8664C21.384 80.3786 20.3154 80.9968 19.18 81.5973C18.0203 82.2678 16.7847 82.7956 15.4997 83.1694C14.689 83.387 13.8538 83.4982 13.0147 83.5C12.5322 83.4989 12.0511 83.4461 11.5797 83.3424C11.0818 83.2344 10.6002 83.0612 10.1471 82.8271C9.38871 82.4175 8.69429 81.898 8.0861 81.2853C7.48967 80.6894 6.97128 80.0193 6.54349 79.2914C5.67458 77.6636 5.10082 75.8932 4.84909 74.063C4.53629 71.5359 4.38887 68.9908 4.40776 66.4442C4.37788 64.5335 3.89092 62.6388 3.93674 60.7791C3.93404 60.3693 3.87118 59.9667 3.90603 59.5646C4.01796 58.053 4.46407 57.6293 5.90625 57.3477C6.2291 57.2607 6.55195 57.1737 6.89092 57.1805C7.99138 57.0934 8.99259 57.8209 9.25631 58.8991C9.53115 59.7532 9.75961 60.6108 9.94171 61.4721L10.2292 62.7511C10.3057 63.1718 10.3538 63.5971 10.3731 64.0243C10.4281 65.6962 10.3683 67.3367 10.3492 68.9304C10.2347 71.0913 10.4235 73.2577 10.91 75.3657L10.7731 75.3847Z" fill="#6E41E2"/>
</svg>
