<svg  viewBox="0 0 45 38" fill="none" xmlns="http://www.w3.org/2000/svg">
<path d="M5.014 37.978C3.48067 37.978 2.392 37.61 1.748 36.874C1.13467 36.1687 0.828 35.4327 0.828 34.666C0.828 33.9913 0.981333 33.3627 1.288 32.78C1.62533 32.1667 2.208 31.676 3.036 31.308C3.864 30.94 5.04467 30.7867 6.578 30.848C8.11133 30.0507 9.66 29.0693 11.224 27.904C12.8187 26.7387 14.3367 25.4507 15.778 24.04C17.25 22.6293 18.5533 21.188 19.688 19.716C20.8533 18.2133 21.758 16.7413 22.402 15.3C23.0767 13.828 23.414 12.448 23.414 11.16C23.414 9.78 22.9847 8.73733 22.126 8.032C21.298 7.32666 20.1327 6.974 18.63 6.974C17.342 6.974 16.1613 7.12733 15.088 7.434C14.0147 7.71 13.064 8.04733 12.236 8.446C11.408 8.84467 10.7027 9.19733 10.12 9.504C9.568 9.78 9.12333 9.918 8.786 9.918C8.20333 9.918 7.682 9.67267 7.222 9.182C6.762 8.66067 6.624 7.986 6.808 7.158C6.93067 6.606 7.29867 5.94667 7.912 5.18C8.52533 4.41333 9.36867 3.64666 10.442 2.88C11.5153 2.11333 12.788 1.48466 14.26 0.993998C15.7627 0.472664 17.4493 0.211997 19.32 0.211997C22.3253 0.211997 24.7633 1.132 26.634 2.972C28.5353 4.812 29.486 7.618 29.486 11.39C29.486 13.874 28.8267 16.312 27.508 18.704C26.22 21.096 24.5027 23.3653 22.356 25.512C20.2093 27.6587 17.8633 29.6213 15.318 31.4C17.618 31.308 19.412 31.17 20.7 30.986C21.988 30.7713 23.0153 30.5873 23.782 30.434C24.5793 30.2807 25.346 30.204 26.082 30.204C27.1247 30.204 27.9373 30.4187 28.52 30.848C29.1027 31.2773 29.394 31.8907 29.394 32.688C29.394 33.2707 29.2407 33.838 28.934 34.39C28.658 34.942 28.106 35.448 27.278 35.908C26.45 36.3373 25.254 36.6747 23.69 36.92C22.126 37.196 20.0713 37.334 17.526 37.334C16.0233 37.334 14.4747 37.3187 12.88 37.288C11.316 37.2573 9.798 37.2113 8.326 37.15C7.46733 37.4567 6.79267 37.6713 6.302 37.794C5.842 37.9167 5.41267 37.978 5.014 37.978ZM39.7573 37.196C38.8066 37.196 37.9173 36.9047 37.0893 36.322C36.2613 35.7393 35.8473 34.7887 35.8473 33.47C35.8473 32.458 36.108 31.6453 36.6293 31.032C37.1506 30.388 37.7486 29.9127 38.4233 29.606C39.1286 29.2993 39.7266 29.146 40.2173 29.146C40.7386 29.146 41.3213 29.2687 41.9653 29.514C42.64 29.7287 43.2226 30.1427 43.7133 30.756C44.204 31.3387 44.4493 32.182 44.4493 33.286C44.4493 34.3593 43.9893 35.2793 43.0693 36.046C42.18 36.8127 41.076 37.196 39.7573 37.196Z" fill="#6E41E2"/>
</svg>
