<svg version="1.1" id="Layer_1" xmlns="http://www.w3.org/2000/svg" xmlns:xlink="http://www.w3.org/1999/xlink" x="0px" y="0px" viewBox="0 0 74.6 44.1" style="enable-background:new 0 0 74.6 44.1;" xml:space="preserve">
 <style type="text/css">
  .st0{fill-rule:evenodd;clip-rule:evenodd;fill:#67EADD;}
 </style>
 <g>
  <path class="st0" d="M73.2,4.3c2.6,4.3,1.4,10-2.9,12.6c-2.8,1.8-6.3,1.8-9,0.3l0,0l0,0l0,0c-0.3-0.1-0.5-0.2-1-0.3
		c-0.5-0.1-1.1,0-1.7,0.2l0,0c-0.3,0.1-0.6,0.3-0.9,0.4c-1.8,1.2-2.4,3.6-1.3,5.4l4.2,6.8c2.6,4.3,1.4,10-2.9,12.6
		c-4.2,2.7-9.9,1.4-12.5-2.9L41,32.8c-1.2-1.9-3.6-2.4-5.4-1.3c-1.1,0.7-1.8,2-1.8,3.3v0c0,3.1-1.5,6.1-4.3,7.8
		c-4.2,2.7-9.9,1.4-12.5-2.9L1.4,14.6C-1.3,10.3,0,4.6,4.3,2c4.2-2.7,9.9-1.4,12.5,2.9l4.2,6.7c1.1,1.8,3.5,2.4,5.3,1.3l0.1,0
		c1.2-0.7,1.8-2,1.8-3.2c0-3.1,1.5-6.2,4.3-7.9c4.2-2.7,9.9-1.4,12.5,2.9l4.2,6.8c1.2,1.9,3.6,2.4,5.4,1.3c0.4-0.3,0.8-0.7,1.2-1.4
		c-0.1,0.3-0.1,0.2,0-0.1c0.3-0.5,0.4-0.9,0.5-1.2c0.1-0.3,0.1-0.5,0.2-0.8c0.3-3.5,1.5-6.1,4.3-7.9C64.9-1.3,70.5,0,73.2,4.3
		L73.2,4.3z">
  </path>
 </g>
</svg>