<svg width="1000" height="542" viewBox="0 0 1000 542" fill="none" xmlns="http://www.w3.org/2000/svg">
<g clip-path="url(#clip0_1624_95088)">
<rect width="1000" height="541.872" rx="12" fill="#F5DC83"/>
<rect x="-2641.01" y="44" width="3595.7" height="139.833" rx="16.0792" fill="white"/>
<g clip-path="url(#clip1_1624_95088)">
<path d="M59.9061 92.7095H29.9186C27.8569 92.7095 26.1888 94.3963 26.1888 96.4579L26.1701 130.194L33.667 122.697H59.9061C61.9678 122.697 63.6546 121.01 63.6546 118.949V96.4579C63.6546 94.3963 61.9678 92.7095 59.9061 92.7095ZM59.9061 118.949H32.1114L29.9186 121.141V96.4579H59.9061V118.949ZM42.101 115.2H56.1577V111.452H45.8495L42.101 115.2ZM49.3355 104.198C49.7104 103.824 49.7104 103.243 49.3355 102.868L46.0181 99.5504C45.6433 99.1755 45.0623 99.1755 44.6874 99.5504L33.667 110.571V115.2H38.2963L49.3355 104.198Z" fill="black" fill-opacity="0.87"/>
<path d="M86.9253 122.952H82.536V101.912H94.5958V105.567H86.9253V110.993H94.0633V114.634H86.9253V122.952ZM105.001 106.56C106.488 106.56 107.768 106.848 108.843 107.424C109.917 107.99 110.747 108.815 111.333 109.899C111.918 110.983 112.21 112.307 112.21 113.871V116.001H101.834C101.882 117.238 102.252 118.212 102.943 118.922C103.643 119.623 104.612 119.973 105.85 119.973C106.876 119.973 107.816 119.867 108.67 119.656C109.524 119.445 110.402 119.128 111.304 118.706V122.103C110.508 122.496 109.673 122.784 108.8 122.966C107.936 123.148 106.886 123.239 105.648 123.239C104.036 123.239 102.607 122.942 101.36 122.347C100.122 121.752 99.1481 120.846 98.4382 119.627C97.7378 118.409 97.3876 116.874 97.3876 115.022C97.3876 113.142 97.7042 111.578 98.3374 110.331C98.9802 109.074 99.8725 108.134 101.014 107.51C102.156 106.877 103.485 106.56 105.001 106.56ZM105.029 109.683C104.175 109.683 103.465 109.957 102.899 110.503C102.343 111.05 102.022 111.909 101.935 113.079H108.095C108.085 112.427 107.965 111.847 107.735 111.338C107.514 110.83 107.178 110.427 106.727 110.129C106.286 109.832 105.72 109.683 105.029 109.683ZM122.414 106.56C123.901 106.56 125.182 106.848 126.256 107.424C127.331 107.99 128.161 108.815 128.746 109.899C129.331 110.983 129.624 112.307 129.624 113.871V116.001H119.248C119.296 117.238 119.665 118.212 120.356 118.922C121.056 119.623 122.025 119.973 123.263 119.973C124.289 119.973 125.23 119.867 126.083 119.656C126.937 119.445 127.815 119.128 128.717 118.706V122.103C127.921 122.496 127.086 122.784 126.213 122.966C125.35 123.148 124.299 123.239 123.061 123.239C121.45 123.239 120.02 122.942 118.773 122.347C117.535 121.752 116.561 120.846 115.851 119.627C115.151 118.409 114.801 116.874 114.801 115.022C114.801 113.142 115.117 111.578 115.751 110.331C116.393 109.074 117.286 108.134 118.427 107.51C119.569 106.877 120.898 106.56 122.414 106.56ZM122.443 109.683C121.589 109.683 120.879 109.957 120.313 110.503C119.756 111.05 119.435 111.909 119.348 113.079H125.508C125.498 112.427 125.378 111.847 125.148 111.338C124.927 110.83 124.592 110.427 124.141 110.129C123.699 109.832 123.133 109.683 122.443 109.683ZM138.287 123.239C136.493 123.239 135.03 122.539 133.898 121.138C132.775 119.728 132.214 117.661 132.214 114.936C132.214 112.182 132.785 110.1 133.927 108.69C135.068 107.27 136.56 106.56 138.402 106.56C139.17 106.56 139.846 106.666 140.431 106.877C141.017 107.088 141.52 107.371 141.942 107.726C142.374 108.081 142.739 108.479 143.036 108.92H143.18C143.123 108.613 143.051 108.162 142.964 107.568C142.887 106.963 142.849 106.344 142.849 105.711V100.559H147.253V122.952H143.885L143.036 120.865H142.849C142.571 121.306 142.221 121.709 141.799 122.074C141.386 122.429 140.892 122.712 140.316 122.923C139.741 123.134 139.064 123.239 138.287 123.239ZM139.827 119.742C141.026 119.742 141.871 119.387 142.36 118.678C142.859 117.958 143.123 116.879 143.151 115.44V114.965C143.151 113.401 142.911 112.206 142.432 111.381C141.952 110.547 141.06 110.129 139.755 110.129C138.786 110.129 138.028 110.547 137.481 111.381C136.934 112.216 136.661 113.42 136.661 114.993C136.661 116.567 136.934 117.752 137.481 118.548C138.038 119.344 138.82 119.742 139.827 119.742ZM156.233 100.559V105.769C156.233 106.373 156.214 106.973 156.175 107.568C156.146 108.162 156.108 108.623 156.06 108.949H156.233C156.655 108.287 157.231 107.726 157.96 107.265C158.689 106.795 159.634 106.56 160.795 106.56C162.598 106.56 164.062 107.265 165.184 108.676C166.307 110.086 166.868 112.154 166.868 114.878C166.868 116.711 166.609 118.251 166.091 119.498C165.573 120.735 164.848 121.671 163.918 122.304C162.987 122.928 161.908 123.239 160.68 123.239C159.5 123.239 158.569 123.028 157.888 122.606C157.207 122.184 156.655 121.709 156.233 121.182H155.931L155.197 122.952H151.844V100.559H156.233ZM159.384 110.072C158.617 110.072 158.008 110.23 157.557 110.547C157.106 110.863 156.775 111.338 156.564 111.971C156.362 112.604 156.252 113.406 156.233 114.375V114.849C156.233 116.413 156.463 117.613 156.924 118.447C157.384 119.272 158.224 119.685 159.442 119.685C160.344 119.685 161.059 119.268 161.586 118.433C162.124 117.598 162.392 116.394 162.392 114.821C162.392 113.247 162.124 112.062 161.586 111.266C161.049 110.47 160.315 110.072 159.384 110.072ZM177.086 106.531C179.244 106.531 180.899 107.002 182.05 107.942C183.202 108.882 183.777 110.311 183.777 112.23V122.952H180.712L179.863 120.764H179.748C179.287 121.34 178.817 121.81 178.338 122.175C177.858 122.539 177.306 122.808 176.683 122.98C176.059 123.153 175.301 123.239 174.409 123.239C173.459 123.239 172.605 123.057 171.847 122.693C171.099 122.328 170.509 121.772 170.077 121.023C169.645 120.265 169.429 119.306 169.429 118.145C169.429 116.437 170.029 115.18 171.228 114.375C172.428 113.559 174.226 113.108 176.625 113.022L179.417 112.935V112.23C179.417 111.386 179.196 110.767 178.755 110.374C178.314 109.98 177.7 109.784 176.913 109.784C176.136 109.784 175.373 109.894 174.625 110.115C173.876 110.335 173.128 110.614 172.38 110.949L170.926 107.985C171.78 107.534 172.735 107.179 173.79 106.92C174.855 106.661 175.953 106.531 177.086 106.531ZM179.417 115.497L177.719 115.555C176.299 115.593 175.311 115.847 174.754 116.317C174.207 116.787 173.934 117.406 173.934 118.174C173.934 118.845 174.131 119.325 174.524 119.613C174.917 119.891 175.431 120.03 176.064 120.03C177.004 120.03 177.795 119.752 178.438 119.196C179.091 118.639 179.417 117.848 179.417 116.821V115.497ZM194.844 123.239C193.252 123.239 191.894 122.952 190.771 122.376C189.649 121.791 188.795 120.889 188.21 119.67C187.625 118.452 187.332 116.893 187.332 114.993C187.332 113.027 187.663 111.424 188.325 110.187C188.997 108.94 189.922 108.023 191.102 107.438C192.292 106.853 193.669 106.56 195.233 106.56C196.346 106.56 197.305 106.671 198.111 106.891C198.926 107.102 199.636 107.357 200.241 107.654L198.946 111.05C198.255 110.772 197.612 110.547 197.017 110.374C196.422 110.192 195.828 110.1 195.233 110.1C194.465 110.1 193.827 110.283 193.319 110.647C192.81 111.002 192.431 111.54 192.182 112.259C191.932 112.979 191.808 113.88 191.808 114.965C191.808 116.03 191.942 116.912 192.211 117.613C192.479 118.313 192.868 118.836 193.376 119.181C193.885 119.517 194.504 119.685 195.233 119.685C196.144 119.685 196.955 119.565 197.665 119.325C198.375 119.076 199.066 118.73 199.737 118.289V122.045C199.066 122.467 198.36 122.769 197.622 122.952C196.892 123.144 195.967 123.239 194.844 123.239ZM207.868 100.559V110.575C207.868 111.18 207.844 111.784 207.796 112.389C207.748 112.993 207.695 113.597 207.638 114.202H207.695C207.993 113.78 208.295 113.362 208.602 112.95C208.919 112.537 209.254 112.139 209.609 111.755L214.114 106.862H219.064L212.675 113.842L219.453 122.952H214.387L209.753 116.432L207.868 117.944V122.952H203.479V100.559H207.868Z" fill="#4F4F4F"/>
</g>
<line x1="258.592" y1="86.4819" x2="258.592" y2="136.422" stroke="#F0F0F0" stroke-width="2.49701"/>
<path d="M314.903 112.23C314.903 114.6 314.447 116.581 313.536 118.174C312.634 119.757 311.324 120.951 309.607 121.757C307.89 122.554 305.822 122.952 303.404 122.952H297.447V101.912H304.052C306.259 101.912 308.173 102.305 309.794 103.092C311.416 103.869 312.672 105.025 313.565 106.56C314.457 108.086 314.903 109.976 314.903 112.23ZM310.269 112.345C310.269 110.791 310.039 109.515 309.578 108.517C309.127 107.51 308.456 106.766 307.563 106.287C306.681 105.807 305.587 105.567 304.282 105.567H301.908V119.268H303.822C306 119.268 307.616 118.687 308.672 117.526C309.737 116.365 310.269 114.638 310.269 112.345ZM327.898 106.56C328.119 106.56 328.373 106.575 328.661 106.603C328.958 106.623 329.198 106.651 329.38 106.69L329.049 110.806C328.905 110.758 328.699 110.724 328.431 110.705C328.172 110.676 327.946 110.662 327.754 110.662C327.188 110.662 326.636 110.734 326.099 110.878C325.572 111.021 325.097 111.256 324.675 111.583C324.252 111.899 323.917 112.321 323.667 112.849C323.427 113.367 323.307 114.005 323.307 114.763V122.952H318.918V106.862H322.242L322.89 109.568H323.106C323.422 109.021 323.816 108.522 324.286 108.071C324.766 107.611 325.308 107.246 325.912 106.978C326.526 106.699 327.188 106.56 327.898 106.56ZM338.893 106.531C341.052 106.531 342.707 107.002 343.858 107.942C345.009 108.882 345.585 110.311 345.585 112.23V122.952H342.519L341.67 120.764H341.555C341.095 121.34 340.625 121.81 340.145 122.175C339.665 122.539 339.114 122.808 338.49 122.98C337.866 123.153 337.108 123.239 336.216 123.239C335.266 123.239 334.412 123.057 333.655 122.693C332.906 122.328 332.316 121.772 331.884 121.023C331.453 120.265 331.237 119.306 331.237 118.145C331.237 116.437 331.836 115.18 333.036 114.375C334.235 113.559 336.034 113.108 338.432 113.022L341.224 112.935V112.23C341.224 111.386 341.004 110.767 340.562 110.374C340.121 109.98 339.507 109.784 338.72 109.784C337.943 109.784 337.18 109.894 336.432 110.115C335.684 110.335 334.935 110.614 334.187 110.949L332.734 107.985C333.587 107.534 334.542 107.179 335.597 106.92C336.662 106.661 337.761 106.531 338.893 106.531ZM341.224 115.497L339.526 115.555C338.106 115.593 337.118 115.847 336.562 116.317C336.015 116.787 335.741 117.406 335.741 118.174C335.741 118.845 335.938 119.325 336.331 119.613C336.725 119.891 337.238 120.03 337.871 120.03C338.811 120.03 339.603 119.752 340.246 119.196C340.898 118.639 341.224 117.848 341.224 116.821V115.497ZM359.012 110.158H355.212V122.952H350.823V110.158H348.405V108.042L350.823 106.862V105.682C350.823 104.31 351.053 103.245 351.514 102.488C351.984 101.72 352.641 101.183 353.485 100.876C354.339 100.559 355.347 100.401 356.508 100.401C357.361 100.401 358.139 100.473 358.839 100.617C359.539 100.751 360.11 100.905 360.552 101.077L359.429 104.301C359.093 104.195 358.729 104.099 358.335 104.013C357.942 103.927 357.491 103.883 356.983 103.883C356.368 103.883 355.918 104.071 355.63 104.445C355.352 104.809 355.212 105.279 355.212 105.855V106.862H359.012V110.158ZM368.323 119.742C368.802 119.742 369.268 119.694 369.719 119.599C370.179 119.503 370.635 119.383 371.086 119.239V122.506C370.616 122.717 370.03 122.889 369.33 123.024C368.639 123.168 367.881 123.239 367.056 123.239C366.097 123.239 365.233 123.086 364.466 122.779C363.708 122.462 363.108 121.92 362.667 121.153C362.235 120.376 362.019 119.296 362.019 117.915V110.158H359.918V108.302L362.336 106.834L363.602 103.437H366.409V106.862H370.913V110.158H366.409V117.915C366.409 118.529 366.581 118.989 366.927 119.296C367.282 119.594 367.747 119.742 368.323 119.742Z" fill="#4F4F4F"/>
<path fill-rule="evenodd" clip-rule="evenodd" d="M406.397 106.731C405.859 106.103 404.913 106.03 404.285 106.569L396.52 113.224L388.755 106.569C388.127 106.03 387.181 106.103 386.643 106.731C386.104 107.359 386.177 108.305 386.805 108.844L395.545 116.335C396.106 116.816 396.934 116.816 397.495 116.335L406.235 108.844C406.863 108.305 406.936 107.359 406.397 106.731Z" fill="black" fill-opacity="0.87"/>
<line x1="458.946" y1="86.4819" x2="458.946" y2="136.422" stroke="#F0F0F0" stroke-width="2.49701"/>
<rect x="495.152" y="93.9731" width="84.8985" height="34.9582" rx="17.4791" fill="#6E41E2" fill-opacity="0.3"/>
<g filter="url(#filter0_ddd_1624_95088)">
<path fill-rule="evenodd" clip-rule="evenodd" d="M555.081 136.422C568.871 136.422 580.051 125.243 580.051 111.452C580.051 97.6615 568.871 86.4819 555.081 86.4819C541.29 86.4819 530.111 97.6615 530.111 111.452C530.111 125.243 541.29 136.422 555.081 136.422Z" fill="#212121" fill-opacity="0.08"/>
</g>
<path fill-rule="evenodd" clip-rule="evenodd" d="M555.081 136.422C568.871 136.422 580.051 125.243 580.051 111.452C580.051 97.6615 568.871 86.4819 555.081 86.4819C541.29 86.4819 530.111 97.6615 530.111 111.452C530.111 125.243 541.29 136.422 555.081 136.422Z" fill="#6200EE"/>
<rect x="617.506" y="71.4668" width="194.922" height="79.9702" rx="9.98806" fill="#6E41E2"/>
<g clip-path="url(#clip2_1624_95088)">
<path d="M660.192 99.9961C663.412 99.9961 665.762 100.639 667.242 101.925C668.732 103.211 669.478 105.037 669.478 107.404C669.478 108.474 669.307 109.492 668.966 110.46C668.624 111.416 668.067 112.263 667.293 113.003C666.53 113.731 665.523 114.312 664.271 114.744C663.02 115.165 661.483 115.376 659.663 115.376H656.812V124.952H653.313V99.9961H660.192ZM659.919 102.932H656.812V112.423H659.287C660.732 112.423 661.944 112.263 662.923 111.945C663.902 111.615 664.641 111.091 665.142 110.374C665.643 109.657 665.893 108.713 665.893 107.541C665.893 105.993 665.409 104.838 664.442 104.076C663.475 103.313 661.967 102.932 659.919 102.932ZM691.38 106.141V124.952H688.632L688.154 122.374H687.966C687.579 123.023 687.079 123.563 686.464 123.996C685.85 124.428 685.161 124.753 684.399 124.969C683.636 125.185 682.828 125.293 681.975 125.293C680.53 125.293 679.301 125.054 678.288 124.576C677.287 124.098 676.524 123.359 676.001 122.357C675.489 121.344 675.232 120.041 675.232 118.448V106.141H678.681V117.97C678.681 119.484 679.005 120.616 679.653 121.367C680.313 122.118 681.315 122.494 682.658 122.494C683.966 122.494 685.002 122.238 685.764 121.726C686.538 121.202 687.09 120.445 687.42 119.455C687.761 118.454 687.932 117.231 687.932 115.785V106.141H691.38ZM701.932 98.3916V104.912C701.932 105.663 701.909 106.397 701.863 107.114C701.829 107.831 701.795 108.383 701.761 108.77H701.932C702.444 107.95 703.166 107.256 704.099 106.687C705.044 106.107 706.256 105.817 707.735 105.817C710.022 105.817 711.855 106.636 713.232 108.275C714.608 109.902 715.297 112.32 715.297 115.529C715.297 117.646 714.978 119.433 714.341 120.889C713.715 122.346 712.828 123.444 711.678 124.184C710.54 124.923 709.197 125.293 707.65 125.293C706.182 125.293 704.993 125.026 704.082 124.491C703.172 123.945 702.461 123.296 701.949 122.545H701.693L701.044 124.952H698.501V98.3916H701.932ZM706.967 108.633C705.727 108.633 704.737 108.878 703.997 109.367C703.269 109.857 702.745 110.596 702.427 111.586C702.108 112.576 701.943 113.822 701.932 115.324V115.581C701.932 117.811 702.296 119.518 703.024 120.701C703.752 121.885 705.072 122.477 706.984 122.477C708.554 122.477 709.744 121.873 710.552 120.667C711.371 119.461 711.781 117.737 711.781 115.495C711.781 113.219 711.377 111.507 710.569 110.357C709.761 109.208 708.56 108.633 706.967 108.633ZM724.773 124.952H721.325V98.3916H724.773V124.952ZM735.29 106.141V124.952H731.859V106.141H735.29ZM733.6 99.0232C734.146 99.0232 734.613 99.1825 735 99.5011C735.398 99.8198 735.597 100.338 735.597 101.054C735.597 101.771 735.398 102.295 735 102.625C734.613 102.943 734.146 103.103 733.6 103.103C733.043 103.103 732.57 102.943 732.183 102.625C731.808 102.295 731.62 101.771 731.62 101.054C731.62 100.338 731.808 99.8198 732.183 99.5011C732.57 99.1825 733.043 99.0232 733.6 99.0232ZM754.803 119.694C754.803 120.912 754.501 121.942 753.898 122.784C753.306 123.615 752.442 124.24 751.304 124.661C750.166 125.083 748.8 125.293 747.207 125.293C745.887 125.293 744.749 125.191 743.793 124.986C742.837 124.792 741.972 124.508 741.199 124.132V121.094C742.029 121.492 742.991 121.845 744.083 122.152C745.176 122.46 746.245 122.613 747.292 122.613C748.76 122.613 749.819 122.38 750.467 121.913C751.127 121.447 751.457 120.815 751.457 120.019C751.457 119.552 751.326 119.142 751.065 118.79C750.803 118.425 750.342 118.067 749.682 117.714C749.033 117.35 748.1 116.935 746.883 116.468C745.688 116.002 744.664 115.535 743.81 115.068C742.968 114.602 742.325 114.039 741.881 113.379C741.438 112.719 741.216 111.865 741.216 110.818C741.216 109.191 741.864 107.95 743.162 107.097C744.47 106.232 746.194 105.8 748.334 105.8C749.472 105.8 750.541 105.914 751.543 106.141C752.555 106.369 753.523 106.687 754.444 107.097L753.335 109.743C752.516 109.39 751.673 109.1 750.809 108.872C749.944 108.633 749.062 108.514 748.163 108.514C746.991 108.514 746.092 108.702 745.466 109.077C744.851 109.453 744.544 109.97 744.544 110.63C744.544 111.142 744.686 111.569 744.971 111.911C745.267 112.252 745.756 112.588 746.439 112.918C747.122 113.236 748.043 113.618 749.204 114.061C750.353 114.494 751.343 114.943 752.174 115.41C753.016 115.876 753.665 116.445 754.12 117.117C754.575 117.788 754.803 118.647 754.803 119.694ZM763.937 98.3916V105.697C763.937 106.278 763.92 106.847 763.886 107.404C763.852 107.962 763.812 108.428 763.767 108.804H763.972C764.37 108.144 764.859 107.598 765.44 107.165C766.031 106.721 766.697 106.391 767.437 106.175C768.188 105.948 768.979 105.834 769.809 105.834C771.277 105.834 772.518 106.073 773.531 106.551C774.543 107.029 775.311 107.774 775.835 108.787C776.358 109.788 776.62 111.091 776.62 112.696V124.952H773.223V113.157C773.223 111.655 772.893 110.528 772.233 109.777C771.573 109.014 770.56 108.633 769.195 108.633C767.898 108.633 766.862 108.895 766.088 109.418C765.314 109.931 764.763 110.687 764.432 111.689C764.102 112.69 763.937 113.919 763.937 115.376V124.952H760.507V98.3916H763.937Z" fill="white"/>
</g>
<rect x="849.884" y="71.499" width="79.9044" height="79.9045" rx="39.9522" fill="#515151"/>
<path d="M894.127 122.699L892.602 117.691H884.932L883.406 122.699H878.599L886.025 101.573H891.48L898.934 122.699H894.127ZM891.537 113.949L890.012 109.056C889.916 108.73 889.786 108.313 889.623 107.804C889.47 107.286 889.311 106.763 889.148 106.236C888.995 105.699 888.87 105.233 888.774 104.84C888.678 105.233 888.544 105.723 888.371 106.308C888.208 106.883 888.05 107.43 887.896 107.948C887.743 108.466 887.632 108.836 887.565 109.056L886.054 113.949H891.537Z" fill="white"/>
<rect x="-2641.01" y="44" width="3595.7" height="139.833" rx="16.0792" stroke="#4F4F4F" stroke-width="3.53676"/>
<g clip-path="url(#clip3_1624_95088)">
<rect x="257" y="207.87" width="512.649" height="289.656" rx="19.7695" fill="white"/>
<g clip-path="url(#clip4_1624_95088)">
<rect x="257" y="207.87" width="512.649" height="69.4949" rx="5.79796" fill="white"/>
<path d="M300.584 254.802C300.584 256.029 300.277 257.081 299.664 257.958C299.06 258.827 298.206 259.492 297.102 259.954C295.998 260.417 294.686 260.648 293.166 260.648C292.402 260.648 291.671 260.605 290.972 260.52C290.284 260.445 289.642 260.332 289.047 260.181C288.453 260.03 287.915 259.841 287.434 259.615V256.868C288.217 257.189 289.123 257.491 290.151 257.774C291.18 258.048 292.242 258.185 293.336 258.185C294.289 258.185 295.087 258.057 295.729 257.803C296.38 257.538 296.87 257.17 297.201 256.699C297.531 256.227 297.696 255.661 297.696 255C297.696 254.339 297.536 253.787 297.215 253.344C296.894 252.891 296.384 252.476 295.686 252.098C294.997 251.721 294.091 251.32 292.968 250.895C292.185 250.612 291.473 250.291 290.831 249.932C290.189 249.564 289.632 249.144 289.161 248.673C288.698 248.201 288.34 247.649 288.085 247.016C287.83 246.375 287.703 245.639 287.703 244.808C287.703 243.666 287.981 242.69 288.538 241.878C289.104 241.067 289.892 240.448 290.902 240.024C291.911 239.59 293.082 239.373 294.412 239.373C295.507 239.373 296.526 239.481 297.47 239.698C298.423 239.915 299.329 240.212 300.187 240.59L299.267 242.996C298.465 242.666 297.658 242.397 296.847 242.189C296.035 241.982 295.195 241.878 294.327 241.878C293.525 241.878 292.846 241.996 292.289 242.232C291.742 242.468 291.322 242.803 291.029 243.237C290.746 243.671 290.604 244.185 290.604 244.78C290.604 245.45 290.755 246.007 291.057 246.45C291.359 246.894 291.836 247.295 292.487 247.653C293.138 248.012 293.987 248.394 295.035 248.8C296.215 249.253 297.215 249.734 298.036 250.244C298.866 250.753 299.499 251.367 299.933 252.084C300.367 252.801 300.584 253.707 300.584 254.802ZM317.046 260.336L314.668 252.183C314.564 251.815 314.451 251.409 314.328 250.966C314.215 250.522 314.102 250.079 313.989 249.635C313.876 249.192 313.772 248.781 313.677 248.404C313.592 248.017 313.526 247.705 313.479 247.469H313.366C313.319 247.705 313.253 248.017 313.168 248.404C313.083 248.781 312.984 249.196 312.87 249.649C312.767 250.093 312.653 250.541 312.531 250.994C312.418 251.447 312.304 251.857 312.191 252.226L309.7 260.336H306.557L302.226 244.752H305.128L307.265 252.919C307.407 253.466 307.543 254.033 307.676 254.618C307.808 255.203 307.921 255.755 308.015 256.274C308.11 256.793 308.18 257.236 308.228 257.604H308.341C308.388 257.359 308.445 257.057 308.511 256.699C308.586 256.331 308.666 255.948 308.751 255.552C308.836 255.146 308.926 254.755 309.02 254.377C309.124 254 309.218 253.669 309.303 253.386L311.936 244.752H315.022L317.556 253.372C317.679 253.787 317.806 254.254 317.938 254.773C318.07 255.283 318.188 255.788 318.292 256.288C318.396 256.788 318.467 257.218 318.504 257.576H318.617C318.655 257.255 318.726 256.84 318.83 256.331C318.934 255.821 319.052 255.269 319.184 254.674C319.316 254.07 319.457 253.485 319.608 252.919L321.774 244.752H324.633L320.274 260.336H317.046ZM330.239 244.766V260.365H327.394V244.766H330.239ZM328.838 238.863C329.29 238.863 329.677 238.995 329.998 239.259C330.329 239.524 330.494 239.953 330.494 240.547C330.494 241.142 330.329 241.576 329.998 241.85C329.677 242.114 329.29 242.246 328.838 242.246C328.375 242.246 327.983 242.114 327.663 241.85C327.351 241.576 327.196 241.142 327.196 240.547C327.196 239.953 327.351 239.524 327.663 239.259C327.983 238.995 328.375 238.863 328.838 238.863ZM340.53 258.341C340.935 258.341 341.346 258.308 341.761 258.241C342.176 258.166 342.535 258.072 342.837 257.958V260.138C342.516 260.28 342.087 260.398 341.549 260.492C341.02 260.596 340.478 260.648 339.921 260.648C339.072 260.648 338.303 260.502 337.614 260.209C336.925 259.916 336.373 259.416 335.958 258.709C335.552 258.001 335.349 257.019 335.349 255.764V246.96H333.183V245.643L335.448 244.596L336.453 241.227H338.208V244.766H342.724V246.96H338.208V255.722C338.208 256.599 338.416 257.255 338.831 257.689C339.256 258.124 339.822 258.341 340.53 258.341ZM352.264 260.648C350.83 260.648 349.575 260.36 348.499 259.784C347.423 259.209 346.588 258.331 345.994 257.152C345.409 255.962 345.116 254.462 345.116 252.65C345.116 250.763 345.432 249.22 346.064 248.021C346.697 246.814 347.57 245.922 348.683 245.346C349.806 244.77 351.089 244.483 352.533 244.483C353.383 244.483 354.175 244.568 354.911 244.737C355.657 244.907 356.28 245.12 356.78 245.374L355.931 247.682C355.402 247.474 354.831 247.29 354.218 247.13C353.614 246.969 353.038 246.889 352.491 246.889C351.491 246.889 350.66 247.111 350 247.554C349.348 247.988 348.858 248.63 348.527 249.479C348.197 250.329 348.032 251.376 348.032 252.622C348.032 253.83 348.192 254.854 348.513 255.694C348.844 256.524 349.325 257.156 349.957 257.59C350.599 258.024 351.396 258.241 352.349 258.241C353.189 258.241 353.944 258.147 354.614 257.958C355.284 257.77 355.902 257.529 356.468 257.236V259.742C355.921 260.044 355.317 260.27 354.657 260.421C353.996 260.572 353.199 260.648 352.264 260.648ZM362.994 238.339V244.398C362.994 244.879 362.98 245.351 362.952 245.813C362.923 246.276 362.89 246.663 362.852 246.974H363.022C363.353 246.427 363.758 245.974 364.24 245.615C364.73 245.247 365.282 244.973 365.896 244.794C366.519 244.605 367.174 244.511 367.863 244.511C369.081 244.511 370.109 244.709 370.949 245.105C371.789 245.502 372.426 246.12 372.86 246.96C373.294 247.79 373.511 248.871 373.511 250.201V260.365H370.694V250.584C370.694 249.338 370.421 248.404 369.873 247.781C369.326 247.149 368.486 246.832 367.354 246.832C366.278 246.832 365.419 247.049 364.778 247.484C364.136 247.908 363.678 248.536 363.404 249.366C363.131 250.197 362.994 251.216 362.994 252.424V260.365H360.149V238.339H362.994ZM389.308 260.365L383.377 244.766H386.392L389.719 254.066C389.936 254.679 390.148 255.349 390.356 256.076C390.573 256.802 390.719 257.402 390.795 257.873H390.894C390.988 257.392 391.149 256.788 391.375 256.062C391.602 255.335 391.819 254.67 392.026 254.066L395.339 244.766H398.368L392.423 260.365H389.308ZM406.917 244.483C408.276 244.483 409.442 244.775 410.414 245.36C411.386 245.936 412.131 246.752 412.65 247.809C413.169 248.866 413.429 250.112 413.429 251.546V253.16H402.841C402.869 254.83 403.298 256.113 404.129 257.01C404.959 257.897 406.125 258.341 407.625 258.341C408.616 258.341 409.498 258.246 410.272 258.057C411.046 257.869 411.848 257.59 412.679 257.222V259.615C411.895 259.973 411.107 260.233 410.315 260.393C409.531 260.563 408.593 260.648 407.498 260.648C405.988 260.648 404.662 260.346 403.52 259.742C402.388 259.138 401.505 258.246 400.873 257.067C400.241 255.878 399.925 254.415 399.925 252.678C399.925 250.961 400.213 249.494 400.788 248.276C401.364 247.049 402.175 246.11 403.223 245.459C404.27 244.808 405.502 244.483 406.917 244.483ZM406.903 246.691C405.752 246.691 404.827 247.068 404.129 247.823C403.431 248.569 403.02 249.64 402.897 251.036H410.57C410.56 250.178 410.423 249.423 410.159 248.772C409.895 248.121 409.494 247.611 408.956 247.243C408.427 246.875 407.743 246.691 406.903 246.691ZM424.81 244.483C425.093 244.483 425.399 244.502 425.73 244.539C426.06 244.568 426.343 244.605 426.579 244.653L426.282 247.3C426.055 247.243 425.791 247.196 425.489 247.158C425.197 247.12 424.923 247.101 424.668 247.101C424.064 247.101 423.488 247.215 422.941 247.441C422.394 247.668 421.913 247.998 421.497 248.432C421.082 248.857 420.757 249.38 420.521 250.003C420.285 250.617 420.167 251.32 420.167 252.112V260.365H417.307V244.766H419.601L419.94 247.583H420.068C420.388 247.016 420.775 246.497 421.228 246.026C421.691 245.554 422.219 245.181 422.814 244.907C423.418 244.624 424.083 244.483 424.81 244.483ZM439.772 256.005C439.772 257.015 439.522 257.869 439.021 258.567C438.531 259.256 437.814 259.775 436.87 260.124C435.926 260.473 434.794 260.648 433.473 260.648C432.378 260.648 431.434 260.563 430.642 260.393C429.849 260.233 429.132 259.997 428.49 259.685V257.166C429.179 257.496 429.976 257.789 430.882 258.043C431.788 258.298 432.675 258.425 433.543 258.425C434.761 258.425 435.638 258.232 436.176 257.845C436.724 257.458 436.997 256.934 436.997 256.274C436.997 255.887 436.889 255.547 436.672 255.255C436.455 254.953 436.072 254.655 435.525 254.363C434.987 254.061 434.213 253.717 433.204 253.33C432.213 252.943 431.363 252.556 430.656 252.169C429.957 251.782 429.424 251.315 429.056 250.768C428.688 250.22 428.504 249.512 428.504 248.644C428.504 247.295 429.042 246.266 430.118 245.558C431.203 244.841 432.633 244.483 434.407 244.483C435.351 244.483 436.238 244.577 437.068 244.766C437.908 244.954 438.71 245.219 439.474 245.558L438.554 247.752C437.875 247.46 437.177 247.219 436.459 247.031C435.742 246.832 435.011 246.733 434.265 246.733C433.293 246.733 432.548 246.889 432.029 247.2C431.519 247.512 431.264 247.941 431.264 248.489C431.264 248.913 431.382 249.267 431.618 249.55C431.864 249.833 432.269 250.112 432.836 250.385C433.402 250.65 434.166 250.966 435.129 251.334C436.082 251.692 436.903 252.065 437.592 252.452C438.29 252.839 438.828 253.311 439.205 253.868C439.583 254.424 439.772 255.137 439.772 256.005ZM446.311 244.766V260.365H443.466V244.766H446.311ZM444.91 238.863C445.363 238.863 445.75 238.995 446.071 239.259C446.401 239.524 446.566 239.953 446.566 240.547C446.566 241.142 446.401 241.576 446.071 241.85C445.75 242.114 445.363 242.246 444.91 242.246C444.448 242.246 444.056 242.114 443.735 241.85C443.424 241.576 443.268 241.142 443.268 240.547C443.268 239.953 443.424 239.524 443.735 239.259C444.056 238.995 444.448 238.863 444.91 238.863ZM464.798 252.537C464.798 253.82 464.628 254.967 464.288 255.977C463.958 256.977 463.472 257.826 462.83 258.525C462.198 259.213 461.434 259.742 460.537 260.11C459.641 260.469 458.626 260.648 457.494 260.648C456.437 260.648 455.465 260.469 454.578 260.11C453.7 259.742 452.941 259.213 452.299 258.525C451.657 257.826 451.162 256.977 450.813 255.977C450.464 254.967 450.289 253.82 450.289 252.537C450.289 250.829 450.581 249.376 451.167 248.177C451.752 246.969 452.587 246.054 453.672 245.431C454.767 244.799 456.069 244.483 457.579 244.483C459.013 244.483 460.273 244.799 461.358 245.431C462.444 246.063 463.288 246.979 463.892 248.177C464.496 249.376 464.798 250.829 464.798 252.537ZM453.205 252.537C453.205 253.735 453.356 254.769 453.658 255.637C453.969 256.496 454.441 257.156 455.073 257.619C455.715 258.081 456.541 258.312 457.551 258.312C458.541 258.312 459.358 258.081 459.999 257.619C460.641 257.156 461.113 256.496 461.415 255.637C461.717 254.769 461.868 253.735 461.868 252.537C461.868 251.348 461.717 250.329 461.415 249.479C461.113 248.63 460.641 247.979 459.999 247.526C459.367 247.073 458.541 246.847 457.522 246.847C456.031 246.847 454.937 247.347 454.238 248.347C453.549 249.338 453.205 250.735 453.205 252.537ZM476.504 244.483C478.307 244.483 479.689 244.936 480.652 245.842C481.624 246.747 482.11 248.201 482.11 250.201V260.365H479.293V250.584C479.293 249.338 479.019 248.404 478.472 247.781C477.925 247.149 477.085 246.832 475.952 246.832C474.339 246.832 473.206 247.309 472.555 248.262C471.913 249.215 471.592 250.598 471.592 252.41V260.365H468.747V244.766H470.998L471.408 246.96H471.564C471.894 246.412 472.314 245.955 472.824 245.587C473.334 245.219 473.9 244.945 474.523 244.766C475.155 244.577 475.815 244.483 476.504 244.483Z" fill="#4F4F4F"/>
<rect width="512.649" height="110.081" transform="translate(257 277.365)" fill="white"/>
<path d="M323.158 332.36C323.158 334.691 322.71 336.639 321.814 338.206C320.927 339.763 319.639 340.938 317.949 341.73C316.26 342.514 314.227 342.905 311.848 342.905H305.988V322.21H312.485C314.656 322.21 316.539 322.597 318.133 323.371C319.728 324.136 320.964 325.273 321.842 326.783C322.72 328.283 323.158 330.142 323.158 332.36ZM318.6 332.473C318.6 330.944 318.374 329.689 317.921 328.708C317.478 327.717 316.817 326.985 315.939 326.514C315.071 326.042 313.995 325.806 312.712 325.806H310.376V339.282H312.259C314.401 339.282 315.991 338.711 317.029 337.569C318.077 336.427 318.6 334.728 318.6 332.473ZM335.941 326.783C336.158 326.783 336.408 326.797 336.691 326.825C336.983 326.844 337.219 326.872 337.399 326.91L337.073 330.958C336.931 330.911 336.729 330.878 336.464 330.859C336.21 330.831 335.988 330.817 335.799 330.817C335.242 330.817 334.7 330.888 334.171 331.029C333.652 331.171 333.185 331.402 332.77 331.723C332.355 332.034 332.024 332.449 331.779 332.968C331.543 333.478 331.425 334.105 331.425 334.851V342.905H327.108V327.08H330.378L331.015 329.741H331.227C331.538 329.203 331.925 328.712 332.388 328.269C332.859 327.816 333.393 327.457 333.987 327.193C334.591 326.919 335.242 326.783 335.941 326.783ZM346.755 326.754C348.878 326.754 350.506 327.217 351.639 328.141C352.771 329.066 353.337 330.472 353.337 332.36V342.905H350.322L349.487 340.754H349.374C348.921 341.32 348.458 341.782 347.987 342.141C347.515 342.499 346.972 342.764 346.359 342.934C345.745 343.103 345 343.188 344.122 343.188C343.188 343.188 342.348 343.009 341.603 342.65C340.867 342.292 340.286 341.745 339.862 341.008C339.437 340.263 339.225 339.319 339.225 338.177C339.225 336.498 339.814 335.261 340.994 334.469C342.174 333.667 343.943 333.223 346.302 333.138L349.048 333.053V332.36C349.048 331.529 348.831 330.921 348.397 330.534C347.963 330.147 347.359 329.953 346.585 329.953C345.821 329.953 345.071 330.062 344.335 330.279C343.599 330.496 342.862 330.77 342.126 331.1L340.697 328.184C341.537 327.74 342.476 327.391 343.514 327.136C344.561 326.882 345.642 326.754 346.755 326.754ZM349.048 335.573L347.378 335.63C345.981 335.667 345.009 335.917 344.462 336.38C343.924 336.842 343.655 337.451 343.655 338.206C343.655 338.866 343.849 339.338 344.236 339.621C344.622 339.895 345.127 340.032 345.75 340.032C346.675 340.032 347.453 339.758 348.086 339.211C348.727 338.663 349.048 337.885 349.048 336.875V335.573ZM366.544 330.321H362.807V342.905H358.49V330.321H356.112V328.241L358.49 327.08V325.919C358.49 324.57 358.716 323.522 359.169 322.777C359.632 322.022 360.278 321.493 361.108 321.191C361.948 320.88 362.939 320.724 364.081 320.724C364.921 320.724 365.685 320.795 366.374 320.936C367.063 321.069 367.625 321.22 368.059 321.389L366.955 324.56C366.624 324.456 366.266 324.362 365.879 324.277C365.492 324.192 365.048 324.15 364.548 324.15C363.944 324.15 363.501 324.334 363.218 324.702C362.944 325.06 362.807 325.523 362.807 326.089V327.08H366.544V330.321ZM375.702 339.749C376.174 339.749 376.632 339.701 377.076 339.607C377.528 339.513 377.977 339.395 378.42 339.253V342.466C377.958 342.674 377.382 342.844 376.693 342.976C376.014 343.118 375.268 343.188 374.457 343.188C373.513 343.188 372.664 343.037 371.909 342.735C371.163 342.424 370.574 341.891 370.139 341.136C369.715 340.371 369.502 339.31 369.502 337.951V330.321H367.436V328.495L369.814 327.051L371.06 323.711H373.82V327.08H378.25V330.321H373.82V337.951C373.82 338.555 373.99 339.008 374.329 339.31C374.679 339.602 375.136 339.749 375.702 339.749Z" fill="#4F4F4F"/>
<g clip-path="url(#clip5_1624_95088)">
<g clip-path="url(#clip6_1624_95088)">
<path d="M675.907 341.905L670.569 327.866H673.282L676.276 336.236C676.471 336.788 676.662 337.391 676.849 338.045C677.045 338.699 677.176 339.238 677.244 339.663H677.333C677.418 339.23 677.563 338.686 677.767 338.032C677.97 337.378 678.166 336.78 678.353 336.236L681.334 327.866H684.06L678.709 341.905H675.907ZM697.016 327.573C697.016 328.414 696.851 329.144 696.519 329.764C696.188 330.376 695.729 330.877 695.143 331.268C694.557 331.658 693.878 331.934 693.105 332.096V332.185C694.583 332.372 695.695 332.843 696.443 333.599C697.199 334.355 697.577 335.353 697.577 336.593C697.577 337.671 697.322 338.631 696.812 339.472C696.303 340.313 695.517 340.971 694.455 341.447C693.402 341.922 692.048 342.16 690.392 342.16C689.398 342.16 688.476 342.079 687.627 341.918C686.778 341.757 685.971 341.498 685.206 341.141V338.81C685.979 339.2 686.816 339.506 687.716 339.727C688.616 339.939 689.483 340.045 690.315 340.045C691.937 340.045 693.101 339.731 693.806 339.103C694.519 338.474 694.876 337.608 694.876 336.504C694.876 335.773 694.685 335.179 694.303 334.72C693.92 334.253 693.351 333.909 692.595 333.688C691.848 333.467 690.914 333.357 689.793 333.357H688.047V331.242H689.818C690.863 331.242 691.721 331.106 692.392 330.835C693.071 330.554 693.576 330.164 693.908 329.662C694.239 329.161 694.405 328.575 694.405 327.904C694.405 327.03 694.116 326.354 693.538 325.879C692.969 325.395 692.162 325.153 691.118 325.153C690.472 325.153 689.882 325.225 689.347 325.369C688.82 325.505 688.328 325.688 687.869 325.917C687.419 326.146 686.982 326.405 686.557 326.694L685.296 324.923C685.984 324.397 686.816 323.947 687.793 323.573C688.778 323.199 689.903 323.012 691.169 323.012C693.08 323.012 694.532 323.433 695.526 324.274C696.519 325.114 697.016 326.214 697.016 327.573ZM708.571 341.905H706.036V329.306C706.036 328.856 706.036 328.444 706.036 328.07C706.044 327.688 706.057 327.327 706.074 326.987C706.091 326.639 706.108 326.303 706.125 325.981C705.904 326.21 705.671 326.431 705.424 326.643C705.187 326.847 704.91 327.081 704.596 327.344L702.469 329.064L701.157 327.382L706.443 323.28H708.571V341.905Z" fill="#4F4F4F"/>
</g>
</g>
<rect width="512.649" height="110.081" transform="translate(257 387.445)" fill="#F0F0F0"/>
<path d="M312.599 432.291C315.269 432.291 317.218 432.867 318.445 434.018C319.672 435.16 320.285 436.736 320.285 438.746C320.285 439.652 320.148 440.52 319.874 441.35C319.601 442.171 319.153 442.903 318.53 443.544C317.916 444.186 317.095 444.696 316.067 445.073C315.038 445.441 313.769 445.625 312.259 445.625H310.376V452.986H305.988V432.291H312.599ZM312.372 435.886H310.376V442.03H311.82C312.641 442.03 313.354 441.921 313.958 441.704C314.562 441.487 315.029 441.147 315.359 440.685C315.689 440.223 315.854 439.628 315.854 438.901C315.854 437.882 315.571 437.127 315.005 436.637C314.439 436.136 313.561 435.886 312.372 435.886ZM338.375 437.16V452.986H335.063L334.483 450.962H334.256C333.916 451.5 333.492 451.938 332.982 452.278C332.473 452.618 331.911 452.868 331.298 453.028C330.684 453.189 330.047 453.269 329.387 453.269C328.254 453.269 327.268 453.071 326.428 452.674C325.588 452.269 324.933 451.641 324.461 450.792C323.998 449.942 323.767 448.838 323.767 447.479V437.16H328.084V446.404C328.084 447.536 328.287 448.39 328.693 448.966C329.099 449.541 329.745 449.829 330.632 449.829C331.51 449.829 332.199 449.631 332.699 449.235C333.199 448.829 333.548 448.239 333.747 447.465C333.954 446.682 334.058 445.729 334.058 444.606V437.16H338.375ZM347.222 430.96V436.085C347.222 436.679 347.203 437.269 347.166 437.854C347.137 438.439 347.1 438.892 347.052 439.213H347.222C347.637 438.562 348.204 438.01 348.921 437.557C349.638 437.094 350.568 436.863 351.709 436.863C353.484 436.863 354.923 437.557 356.027 438.944C357.131 440.331 357.683 442.365 357.683 445.045C357.683 446.847 357.428 448.362 356.919 449.589C356.409 450.806 355.696 451.726 354.781 452.349C353.866 452.962 352.804 453.269 351.596 453.269C350.435 453.269 349.52 453.061 348.85 452.646C348.18 452.231 347.637 451.764 347.222 451.245H346.925L346.203 452.986H342.905V430.96H347.222ZM350.322 440.317C349.567 440.317 348.968 440.473 348.525 440.784C348.081 441.095 347.755 441.563 347.548 442.185C347.35 442.808 347.241 443.596 347.222 444.549V445.016C347.222 446.555 347.449 447.734 347.902 448.555C348.355 449.367 349.18 449.773 350.379 449.773C351.266 449.773 351.969 449.362 352.488 448.541C353.016 447.72 353.281 446.536 353.281 444.988C353.281 443.441 353.016 442.275 352.488 441.492C351.96 440.709 351.238 440.317 350.322 440.317ZM365.567 452.986H361.25V430.96H365.567V452.986ZM374.428 437.16V452.986H370.111V437.16H374.428ZM372.277 430.96C372.919 430.96 373.471 431.111 373.933 431.413C374.395 431.706 374.627 432.258 374.627 433.07C374.627 433.872 374.395 434.428 373.933 434.74C373.471 435.042 372.919 435.193 372.277 435.193C371.626 435.193 371.069 435.042 370.607 434.74C370.154 434.428 369.927 433.872 369.927 433.07C369.927 432.258 370.154 431.706 370.607 431.413C371.069 431.111 371.626 430.96 372.277 430.96ZM390.013 448.286C390.013 449.362 389.759 450.273 389.249 451.018C388.749 451.754 387.999 452.316 386.998 452.703C385.998 453.08 384.752 453.269 383.261 453.269C382.157 453.269 381.209 453.198 380.416 453.057C379.633 452.915 378.84 452.679 378.038 452.349V448.782C378.897 449.169 379.817 449.49 380.798 449.744C381.789 449.99 382.657 450.112 383.403 450.112C384.243 450.112 384.842 449.99 385.201 449.744C385.569 449.49 385.753 449.159 385.753 448.753C385.753 448.489 385.677 448.253 385.526 448.046C385.385 447.829 385.073 447.588 384.592 447.324C384.111 447.05 383.356 446.696 382.327 446.262C381.336 445.847 380.52 445.427 379.878 445.002C379.246 444.578 378.774 444.078 378.463 443.502C378.161 442.917 378.01 442.176 378.01 441.28C378.01 439.817 378.576 438.717 379.708 437.981C380.85 437.236 382.374 436.863 384.281 436.863C385.262 436.863 386.196 436.962 387.083 437.16C387.98 437.359 388.9 437.675 389.843 438.109L388.541 441.223C387.758 440.883 387.017 440.605 386.319 440.388C385.63 440.171 384.927 440.062 384.21 440.062C383.577 440.062 383.101 440.147 382.78 440.317C382.459 440.487 382.299 440.746 382.299 441.095C382.299 441.35 382.379 441.577 382.539 441.775C382.709 441.973 383.03 442.195 383.502 442.44C383.983 442.676 384.686 442.983 385.611 443.36C386.508 443.728 387.286 444.115 387.947 444.521C388.607 444.917 389.117 445.413 389.475 446.007C389.834 446.592 390.013 447.352 390.013 448.286ZM397.7 430.96V435.448C397.7 436.231 397.671 436.976 397.615 437.684C397.567 438.392 397.53 438.892 397.501 439.185H397.728C398.068 438.637 398.469 438.194 398.931 437.854C399.403 437.514 399.922 437.264 400.488 437.104C401.054 436.943 401.663 436.863 402.314 436.863C403.456 436.863 404.452 437.066 405.301 437.472C406.15 437.868 406.811 438.496 407.283 439.354C407.754 440.204 407.99 441.308 407.99 442.667V452.986H403.673V443.743C403.673 442.61 403.465 441.756 403.05 441.18C402.635 440.605 401.993 440.317 401.125 440.317C400.257 440.317 399.573 440.52 399.073 440.926C398.573 441.322 398.219 441.912 398.011 442.695C397.803 443.469 397.7 444.417 397.7 445.54V452.986H393.382V430.96H397.7ZM418.961 436.863C420.423 436.863 421.683 437.146 422.74 437.712C423.797 438.269 424.613 439.081 425.189 440.147C425.765 441.213 426.052 442.516 426.052 444.054V446.149H415.847C415.894 447.366 416.257 448.324 416.936 449.022C417.625 449.711 418.578 450.056 419.796 450.056C420.806 450.056 421.73 449.952 422.57 449.744C423.41 449.537 424.274 449.225 425.161 448.81V452.151C424.377 452.538 423.556 452.821 422.698 453C421.848 453.179 420.815 453.269 419.598 453.269C418.012 453.269 416.606 452.976 415.379 452.391C414.162 451.806 413.204 450.914 412.506 449.716C411.817 448.518 411.473 447.008 411.473 445.186C411.473 443.337 411.784 441.799 412.407 440.572C413.039 439.336 413.917 438.411 415.04 437.797C416.163 437.175 417.47 436.863 418.961 436.863ZM418.989 439.935C418.149 439.935 417.451 440.204 416.894 440.742C416.347 441.28 416.031 442.124 415.946 443.275H422.004C421.995 442.634 421.877 442.063 421.65 441.563C421.433 441.062 421.103 440.666 420.659 440.374C420.225 440.081 419.668 439.935 418.989 439.935ZM434.574 453.269C432.809 453.269 431.37 452.58 430.257 451.202C429.152 449.815 428.6 447.781 428.6 445.101C428.6 442.393 429.162 440.345 430.285 438.958C431.408 437.561 432.875 436.863 434.687 436.863C435.442 436.863 436.107 436.967 436.683 437.175C437.259 437.382 437.754 437.661 438.169 438.01C438.594 438.359 438.953 438.75 439.245 439.185H439.387C439.33 438.883 439.259 438.439 439.174 437.854C439.099 437.259 439.061 436.651 439.061 436.028V430.96H443.393V452.986H440.08L439.245 450.933H439.061C438.787 451.367 438.443 451.764 438.028 452.122C437.622 452.472 437.136 452.75 436.57 452.958C436.004 453.165 435.338 453.269 434.574 453.269ZM436.088 449.829C437.268 449.829 438.098 449.48 438.58 448.782C439.07 448.074 439.33 447.012 439.358 445.597V445.13C439.358 443.592 439.122 442.417 438.651 441.605C438.179 440.784 437.301 440.374 436.018 440.374C435.065 440.374 434.319 440.784 433.781 441.605C433.243 442.426 432.974 443.61 432.974 445.158C432.974 446.706 433.243 447.871 433.781 448.654C434.328 449.438 435.098 449.829 436.088 449.829Z" fill="#4F4F4F"/>
<g clip-path="url(#clip7_1624_95088)">
<g clip-path="url(#clip8_1624_95088)">
<path d="M675.907 451.986L670.569 437.947H673.282L676.276 446.317C676.471 446.869 676.662 447.472 676.849 448.126C677.045 448.78 677.176 449.319 677.244 449.744H677.333C677.418 449.311 677.563 448.767 677.767 448.113C677.97 447.459 678.166 446.86 678.353 446.317L681.334 437.947H684.06L678.709 451.986H675.907ZM697.016 437.654C697.016 438.495 696.851 439.225 696.519 439.845C696.188 440.456 695.729 440.958 695.143 441.348C694.557 441.739 693.878 442.015 693.105 442.176V442.265C694.583 442.452 695.695 442.924 696.443 443.68C697.199 444.435 697.577 445.433 697.577 446.673C697.577 447.752 697.322 448.712 696.812 449.553C696.303 450.393 695.517 451.052 694.455 451.527C693.402 452.003 692.048 452.241 690.392 452.241C689.398 452.241 688.476 452.16 687.627 451.999C686.778 451.837 685.971 451.578 685.206 451.221V448.89C685.979 449.281 686.816 449.587 687.716 449.807C688.616 450.02 689.483 450.126 690.315 450.126C691.937 450.126 693.101 449.812 693.806 449.183C694.519 448.555 694.876 447.688 694.876 446.584C694.876 445.854 694.685 445.259 694.303 444.801C693.92 444.334 693.351 443.99 692.595 443.769C691.848 443.548 690.914 443.438 689.793 443.438H688.047V441.323H689.818C690.863 441.323 691.721 441.187 692.392 440.915C693.071 440.635 693.576 440.244 693.908 439.743C694.239 439.242 694.405 438.656 694.405 437.985C694.405 437.11 694.116 436.435 693.538 435.959C692.969 435.475 692.162 435.233 691.118 435.233C690.472 435.233 689.882 435.305 689.347 435.45C688.82 435.586 688.328 435.768 687.869 435.998C687.419 436.227 686.982 436.486 686.557 436.775L685.296 435.004C685.984 434.477 686.816 434.027 687.793 433.653C688.778 433.28 689.903 433.093 691.169 433.093C693.08 433.093 694.532 433.513 695.526 434.354C696.519 435.195 697.016 436.295 697.016 437.654ZM712.686 442.648C712.686 444.159 712.571 445.51 712.342 446.699C712.113 447.888 711.747 448.894 711.246 449.718C710.754 450.542 710.108 451.171 709.31 451.604C708.52 452.028 707.565 452.241 706.443 452.241C705.034 452.241 703.87 451.863 702.953 451.107C702.036 450.351 701.352 449.26 700.902 447.833C700.452 446.397 700.227 444.669 700.227 442.648C700.227 440.66 700.43 438.953 700.838 437.526C701.246 436.091 701.904 434.991 702.813 434.227C703.73 433.454 704.94 433.067 706.443 433.067C707.87 433.067 709.042 433.45 709.96 434.214C710.885 434.97 711.569 436.066 712.011 437.501C712.461 438.928 712.686 440.643 712.686 442.648ZM702.8 442.648C702.8 444.304 702.919 445.684 703.157 446.788C703.394 447.892 703.781 448.72 704.316 449.272C704.851 449.816 705.56 450.088 706.443 450.088C707.327 450.088 708.036 449.816 708.571 449.272C709.115 448.729 709.505 447.905 709.743 446.801C709.981 445.697 710.1 444.312 710.1 442.648C710.1 441.017 709.981 439.654 709.743 438.558C709.505 437.454 709.119 436.626 708.584 436.074C708.057 435.513 707.344 435.233 706.443 435.233C705.543 435.233 704.826 435.513 704.29 436.074C703.764 436.626 703.382 437.454 703.144 438.558C702.915 439.654 702.8 441.017 702.8 442.648Z" fill="#4F4F4F"/>
</g>
</g>
</g>
</g>
<rect x="257" y="207.87" width="512.649" height="289.656" rx="19.7695" stroke="#4F4F4F" stroke-width="4.34847"/>
</g>
<rect x="0.5" y="0.5" width="999" height="540.872" rx="11.5" stroke="black"/>
<defs>
<filter id="filter0_ddd_1624_95088" x="522.62" y="81.4879" width="64.9224" height="64.9225" filterUnits="userSpaceOnUse" color-interpolation-filters="sRGB">
<feFlood flood-opacity="0" result="BackgroundImageFix"/>
<feColorMatrix in="SourceAlpha" type="matrix" values="0 0 0 0 0 0 0 0 0 0 0 0 0 0 0 0 0 0 127 0" result="hardAlpha"/>
<feOffset dy="2.49701"/>
<feGaussianBlur stdDeviation="3.74552"/>
<feColorMatrix type="matrix" values="0 0 0 0 0 0 0 0 0 0 0 0 0 0 0 0 0 0 0.2 0"/>
<feBlend mode="normal" in2="BackgroundImageFix" result="effect1_dropShadow_1624_95088"/>
<feColorMatrix in="SourceAlpha" type="matrix" values="0 0 0 0 0 0 0 0 0 0 0 0 0 0 0 0 0 0 127 0" result="hardAlpha"/>
<feOffset dy="4.99403"/>
<feGaussianBlur stdDeviation="1.24851"/>
<feColorMatrix type="matrix" values="0 0 0 0 0 0 0 0 0 0 0 0 0 0 0 0 0 0 0.12 0"/>
<feBlend mode="normal" in2="effect1_dropShadow_1624_95088" result="effect2_dropShadow_1624_95088"/>
<feColorMatrix in="SourceAlpha" type="matrix" values="0 0 0 0 0 0 0 0 0 0 0 0 0 0 0 0 0 0 127 0" result="hardAlpha"/>
<feOffset dy="2.49701"/>
<feGaussianBlur stdDeviation="1.24851"/>
<feColorMatrix type="matrix" values="0 0 0 0 0 0 0 0 0 0 0 0 0 0 0 0 0 0 0.14 0"/>
<feBlend mode="normal" in2="effect2_dropShadow_1624_95088" result="effect3_dropShadow_1624_95088"/>
<feBlend mode="normal" in="SourceGraphic" in2="effect3_dropShadow_1624_95088" result="shape"/>
</filter>
<clipPath id="clip0_1624_95088">
<rect width="1000" height="541.872" rx="12" fill="white"/>
</clipPath>
<clipPath id="clip1_1624_95088">
<rect x="22.4216" y="88.9517" width="197.466" height="45" rx="9.98806" fill="white"/>
</clipPath>
<clipPath id="clip2_1624_95088">
<rect x="649.967" y="83.9517" width="130" height="55" rx="9.98806" fill="white"/>
</clipPath>
<clipPath id="clip3_1624_95088">
<rect x="257" y="207.87" width="512.649" height="289.656" rx="19.7695" fill="white"/>
</clipPath>
<clipPath id="clip4_1624_95088">
<rect x="257" y="207.87" width="512.649" height="289.656" rx="5.79796" fill="white"/>
</clipPath>
<clipPath id="clip5_1624_95088">
<rect x="661.872" y="317.91" width="61.3939" height="28.9898" rx="5.79796" fill="white"/>
</clipPath>
<clipPath id="clip6_1624_95088">
<rect x="670.569" y="304.905" width="44" height="55" rx="5.79796" fill="white"/>
</clipPath>
<clipPath id="clip7_1624_95088">
<rect x="661.872" y="427.991" width="61.3939" height="28.9898" rx="5.79796" fill="white"/>
</clipPath>
<clipPath id="clip8_1624_95088">
<rect x="670.569" y="414.986" width="44" height="55" rx="5.79796" fill="white"/>
</clipPath>
</defs>
</svg>
