<svg width="1000" height="542" viewBox="0 0 1000 542" fill="none" xmlns="http://www.w3.org/2000/svg">
<g clip-path="url(#clip0_1626_95464)">
<rect width="1000" height="541.872" rx="12" fill="white"/>
<g clip-path="url(#clip1_1626_95464)">
<rect width="2217" height="1170.08" transform="translate(-608 -560)" fill="#90EDB5"/>
<path d="M500.034 346.274L500.034 379.762" stroke="#4F4F4F" stroke-width="5.43787"/>
<path d="M477.708 396.506C477.708 391.883 481.457 388.134 486.08 388.134H513.987C518.611 388.134 522.359 391.883 522.359 396.506V424.413C522.359 429.037 518.611 432.785 513.987 432.785H486.08C481.457 432.785 477.708 429.037 477.708 424.413V396.506Z" fill="#4F4F4F"/>
<path d="M500.034 401.53V419.39" stroke="white" stroke-width="4.18603" stroke-linecap="round" stroke-linejoin="round"/>
<path d="M491.103 410.46H508.964" stroke="white" stroke-width="4.18603" stroke-linecap="round" stroke-linejoin="round"/>
<path d="M498.111 484.94C499.173 486.002 500.895 486.002 501.956 484.94L519.26 467.637C520.321 466.575 520.321 464.854 519.26 463.792C518.198 462.73 516.476 462.73 515.414 463.792L500.034 479.172L484.653 463.792C483.591 462.73 481.87 462.73 480.808 463.792C479.746 464.854 479.746 466.575 480.808 467.637L498.111 484.94ZM497.315 441.157L497.315 483.017H502.753L502.753 441.157L497.315 441.157Z" fill="#4F4F4F"/>
<g filter="url(#filter0_i_1626_95464)">
<rect x="136.935" y="108.011" width="726.839" height="229.449" rx="24.7223" fill="white"/>
<g clip-path="url(#clip2_1626_95464)">
<path opacity="0.6" d="M305.786 154.365H197.533C189.667 154.365 183.289 160.742 183.289 168.609V276.861C183.289 284.728 189.667 291.105 197.533 291.105H305.786C313.652 291.105 320.029 284.728 320.029 276.861V168.609C320.029 160.742 313.652 154.365 305.786 154.365Z" fill="#E3DAF9"/>
<mask id="mask0_1626_95464" style="mask-type:luminance" maskUnits="userSpaceOnUse" x="210" y="184" width="83" height="78">
<path d="M292.853 184.277H210.466V261.194H292.853V184.277Z" fill="white"/>
</mask>
<g mask="url(#mask0_1626_95464)">
<path d="M248.937 216.622C245.522 222.362 242.251 227.921 238.911 233.437C238.054 234.854 237.629 236.007 238.314 237.807C240.206 242.781 237.538 247.621 232.522 248.935C227.792 250.174 223.184 247.065 222.246 242.001C221.414 237.519 224.893 233.126 229.834 232.425C230.248 232.366 230.671 232.359 231.367 232.307L238.884 219.702C234.156 215.001 231.342 209.505 231.965 202.696C232.405 197.882 234.298 193.722 237.758 190.313C244.384 183.784 254.493 182.727 262.296 187.738C269.789 192.552 273.221 201.928 270.295 209.954C268.09 209.356 265.868 208.753 263.426 208.09C264.345 203.628 263.666 199.622 260.656 196.189C258.668 193.923 256.117 192.735 253.216 192.297C247.4 191.419 241.69 195.155 239.995 200.863C238.072 207.342 240.983 212.634 248.937 216.622Z" fill="#6E41E2"/>
<path d="M258.688 209.833C261.094 214.077 263.537 218.385 265.958 222.654C278.193 218.868 287.419 225.641 290.728 232.893C294.726 241.653 291.993 252.028 284.142 257.432C276.084 262.98 265.892 262.032 258.753 254.906C260.572 253.382 262.401 251.852 264.355 250.218C271.407 254.785 277.574 254.57 282.153 249.162C286.058 244.548 285.973 237.668 281.955 233.151C277.318 227.938 271.108 227.779 263.6 232.783C260.486 227.258 257.318 221.777 254.302 216.212C253.285 214.336 252.162 213.248 249.87 212.851C246.043 212.188 243.572 208.901 243.423 205.218C243.278 201.577 245.423 198.285 248.776 197.002C252.098 195.732 255.997 196.757 258.231 199.582C260.057 201.889 260.637 204.486 259.676 207.332C259.409 208.126 259.063 208.893 258.688 209.833Z" fill="#6E41E2"/>
<path d="M264.438 244.526H249.708C248.296 250.333 245.247 255.021 239.992 258.003C235.908 260.32 231.505 261.106 226.819 260.349C218.192 258.958 211.137 251.191 210.516 242.446C209.813 232.539 216.623 223.733 225.699 221.755C226.326 224.03 226.959 226.328 227.586 228.598C219.258 232.847 216.376 238.2 218.707 244.894C220.758 250.784 226.586 254.013 232.914 252.765C239.376 251.49 242.635 246.119 242.237 237.5C248.363 237.5 254.495 237.437 260.621 237.531C263.014 237.569 264.861 237.321 266.663 235.212C269.63 231.741 275.092 232.054 278.288 235.332C281.553 238.682 281.397 244.072 277.941 247.28C274.606 250.376 269.338 250.211 266.219 246.875C265.578 246.187 265.072 245.371 264.438 244.526Z" fill="#6E41E2"/>
</g>
</g>
<path d="M376.827 206.735H372.325V188.784C372.325 188.186 372.331 187.588 372.344 186.991C372.357 186.393 372.369 185.808 372.382 185.236C372.407 184.663 372.439 184.116 372.477 183.595C372.21 183.888 371.88 184.205 371.485 184.549C371.104 184.892 370.697 185.248 370.264 185.617L367.06 188.173L364.808 185.331L373.088 178.845H376.827V206.735ZM386.804 204.37C386.804 203.327 387.071 202.596 387.605 202.176C388.152 201.744 388.814 201.527 389.589 201.527C390.365 201.527 391.027 201.744 391.573 202.176C392.133 202.596 392.413 203.327 392.413 204.37C392.413 205.387 392.133 206.125 391.573 206.583C391.027 207.028 390.365 207.25 389.589 207.25C388.814 207.25 388.152 207.028 387.605 206.583C387.071 206.125 386.804 205.387 386.804 204.37ZM451.914 178.845L444.626 206.735H439.628L434.973 190.024C434.859 189.617 434.732 189.134 434.592 188.574C434.452 188.015 434.312 187.442 434.172 186.857C434.045 186.272 433.931 185.738 433.829 185.255C433.74 184.759 433.676 184.377 433.638 184.11C433.613 184.377 433.555 184.752 433.466 185.236C433.377 185.719 433.269 186.253 433.142 186.838C433.028 187.41 432.9 187.983 432.761 188.555C432.621 189.115 432.493 189.611 432.379 190.043L427.801 206.735H422.821L415.553 178.845H420.151L424.176 195.194C424.303 195.715 424.43 196.281 424.557 196.892C424.697 197.489 424.825 198.093 424.939 198.704C425.066 199.314 425.181 199.912 425.282 200.497C425.384 201.069 425.467 201.591 425.53 202.062C425.594 201.578 425.677 201.044 425.778 200.459C425.88 199.861 425.988 199.257 426.103 198.647C426.23 198.024 426.357 197.426 426.484 196.853C426.624 196.281 426.764 195.766 426.904 195.308L431.444 178.845H435.908L440.544 195.365C440.684 195.836 440.817 196.364 440.945 196.949C441.084 197.534 441.218 198.132 441.345 198.742C441.472 199.353 441.587 199.944 441.689 200.516C441.79 201.089 441.873 201.604 441.937 202.062C442.026 201.438 442.14 200.726 442.28 199.925C442.42 199.124 442.579 198.31 442.757 197.483C442.935 196.656 443.113 195.893 443.291 195.194L447.297 178.845H451.914ZM463.818 185.217C465.7 185.217 467.315 185.604 468.663 186.38C470.011 187.156 471.048 188.256 471.773 189.681C472.498 191.105 472.86 192.809 472.86 194.793V197.197H458.762C458.813 199.244 459.36 200.821 460.403 201.928C461.459 203.034 462.934 203.588 464.829 203.588C466.177 203.588 467.385 203.46 468.453 203.206C469.535 202.939 470.647 202.551 471.792 202.042V205.686C470.736 206.182 469.662 206.545 468.568 206.774C467.474 207.002 466.164 207.117 464.638 207.117C462.565 207.117 460.74 206.716 459.163 205.915C457.599 205.101 456.371 203.893 455.481 202.29C454.604 200.688 454.165 198.698 454.165 196.319C454.165 193.954 454.565 191.944 455.367 190.291C456.168 188.638 457.293 187.379 458.743 186.514C460.193 185.649 461.885 185.217 463.818 185.217ZM463.818 188.593C462.406 188.593 461.261 189.051 460.384 189.967C459.519 190.882 459.01 192.224 458.858 193.992H468.473C468.46 192.936 468.282 192.002 467.938 191.188C467.608 190.374 467.099 189.738 466.412 189.28C465.738 188.822 464.873 188.593 463.818 188.593ZM482.399 177.052V184.205C482.399 185.032 482.373 185.846 482.322 186.647C482.284 187.436 482.246 188.053 482.208 188.498H482.399C482.971 187.582 483.766 186.813 484.783 186.189C485.814 185.554 487.13 185.236 488.732 185.236C491.238 185.236 493.254 186.158 494.78 188.002C496.306 189.833 497.069 192.548 497.069 196.148C497.069 198.539 496.719 200.548 496.02 202.176C495.32 203.804 494.335 205.038 493.063 205.877C491.804 206.704 490.322 207.117 488.618 207.117C487.015 207.117 485.718 206.824 484.726 206.239C483.747 205.642 482.977 204.948 482.418 204.16H482.094L481.273 206.735H477.916V177.052H482.399ZM487.55 188.879C486.278 188.879 485.267 189.134 484.516 189.642C483.779 190.151 483.244 190.914 482.914 191.932C482.583 192.936 482.411 194.215 482.399 195.766V196.167C482.399 198.52 482.768 200.319 483.505 201.566C484.256 202.812 485.616 203.435 487.588 203.435C489.152 203.435 490.354 202.806 491.193 201.546C492.033 200.275 492.452 198.456 492.452 196.09C492.452 193.699 492.033 191.9 491.193 190.692C490.367 189.483 489.152 188.879 487.55 188.879ZM506.741 177.052V184.511C506.741 185.287 506.715 186.043 506.665 186.781C506.626 187.519 506.582 188.091 506.531 188.498H506.779C507.224 187.76 507.771 187.156 508.42 186.685C509.068 186.202 509.793 185.84 510.594 185.598C511.408 185.356 512.273 185.236 513.189 185.236C514.804 185.236 516.178 185.509 517.31 186.056C518.441 186.59 519.306 187.423 519.904 188.555C520.514 189.687 520.82 191.156 520.82 192.962V206.735H516.337V193.801C516.337 192.161 516 190.933 515.326 190.119C514.651 189.293 513.609 188.879 512.197 188.879C510.836 188.879 509.755 189.165 508.954 189.738C508.165 190.297 507.599 191.13 507.256 192.237C506.913 193.331 506.741 194.666 506.741 196.243V206.735H502.258V177.052H506.741ZM545.791 196.129C545.791 197.884 545.562 199.442 545.105 200.802C544.647 202.163 543.979 203.314 543.102 204.255C542.224 205.184 541.168 205.896 539.935 206.392C538.701 206.875 537.309 207.117 535.757 207.117C534.307 207.117 532.978 206.875 531.77 206.392C530.562 205.896 529.512 205.184 528.622 204.255C527.745 203.314 527.064 202.163 526.581 200.802C526.098 199.442 525.856 197.884 525.856 196.129C525.856 193.801 526.257 191.83 527.058 190.215C527.872 188.587 529.029 187.347 530.53 186.495C532.031 185.643 533.817 185.217 535.89 185.217C537.836 185.217 539.553 185.643 541.041 186.495C542.529 187.347 543.693 188.587 544.532 190.215C545.372 191.843 545.791 193.814 545.791 196.129ZM530.473 196.129C530.473 197.667 530.657 198.984 531.026 200.077C531.407 201.171 531.992 202.011 532.781 202.596C533.569 203.168 534.587 203.454 535.833 203.454C537.08 203.454 538.097 203.168 538.886 202.596C539.674 202.011 540.253 201.171 540.622 200.077C540.99 198.984 541.175 197.667 541.175 196.129C541.175 194.59 540.99 193.286 540.622 192.218C540.253 191.137 539.674 190.316 538.886 189.757C538.097 189.185 537.073 188.898 535.814 188.898C533.957 188.898 532.603 189.522 531.751 190.768C530.899 192.014 530.473 193.801 530.473 196.129ZM569.638 196.129C569.638 197.884 569.409 199.442 568.951 200.802C568.493 202.163 567.825 203.314 566.948 204.255C566.07 205.184 565.015 205.896 563.781 206.392C562.547 206.875 561.155 207.117 559.603 207.117C558.153 207.117 556.824 206.875 555.616 206.392C554.408 205.896 553.359 205.184 552.468 204.255C551.591 203.314 550.91 202.163 550.427 200.802C549.944 199.442 549.702 197.884 549.702 196.129C549.702 193.801 550.103 191.83 550.904 190.215C551.718 188.587 552.875 187.347 554.376 186.495C555.877 185.643 557.664 185.217 559.737 185.217C561.683 185.217 563.399 185.643 564.887 186.495C566.375 187.347 567.539 188.587 568.379 190.215C569.218 191.843 569.638 193.814 569.638 196.129ZM554.319 196.129C554.319 197.667 554.503 198.984 554.872 200.077C555.254 201.171 555.839 202.011 556.627 202.596C557.416 203.168 558.433 203.454 559.679 203.454C560.926 203.454 561.943 203.168 562.732 202.596C563.52 202.011 564.099 201.171 564.468 200.077C564.837 198.984 565.021 197.667 565.021 196.129C565.021 194.59 564.837 193.286 564.468 192.218C564.099 191.137 563.52 190.316 562.732 189.757C561.943 189.185 560.919 188.898 559.66 188.898C557.804 188.898 556.449 189.522 555.597 190.768C554.745 192.014 554.319 193.801 554.319 196.129ZM579.271 177.052V191.397C579.271 192.046 579.246 192.758 579.195 193.534C579.144 194.297 579.093 195.016 579.043 195.69H579.138C579.469 195.245 579.863 194.723 580.321 194.125C580.791 193.528 581.236 193.006 581.656 192.561L588.104 185.617H593.255L584.804 194.698L593.808 206.735H588.543L581.79 197.464L579.271 199.62V206.735H574.788V177.052H579.271Z" fill="#4F4F4F"/>
<path d="M392.32 242.829L385.927 266.735H383.131L378.389 250.645C378.247 250.187 378.111 249.73 377.98 249.272C377.86 248.803 377.745 248.362 377.636 247.947C377.527 247.522 377.435 247.152 377.358 246.835C377.293 246.508 377.244 246.263 377.211 246.1C377.189 246.263 377.146 246.503 377.08 246.819C377.026 247.135 376.95 247.5 376.851 247.915C376.764 248.329 376.655 248.77 376.524 249.239C376.405 249.708 376.274 250.182 376.132 250.662L371.521 266.735H368.725L362.38 242.829H365.274L369.117 257.824C369.248 258.325 369.368 258.821 369.477 259.312C369.597 259.791 369.7 260.26 369.788 260.718C369.886 261.176 369.973 261.623 370.049 262.059C370.125 262.495 370.196 262.92 370.262 263.334C370.316 262.909 370.387 262.468 370.474 262.01C370.562 261.541 370.654 261.067 370.752 260.587C370.861 260.107 370.976 259.622 371.096 259.132C371.226 258.641 371.363 258.151 371.504 257.66L375.805 242.829H378.667L383.147 257.775C383.299 258.287 383.441 258.794 383.572 259.295C383.703 259.797 383.817 260.287 383.915 260.767C384.024 261.236 384.117 261.688 384.193 262.124C384.281 262.549 384.357 262.953 384.422 263.334C384.499 262.8 384.591 262.239 384.7 261.65C384.809 261.061 384.935 260.445 385.076 259.802C385.229 259.159 385.392 258.494 385.567 257.807L389.41 242.829H392.32ZM402.589 248.487C404.115 248.487 405.423 248.825 406.513 249.501C407.603 250.177 408.437 251.125 409.015 252.346C409.593 253.556 409.882 254.973 409.882 256.597V258.282H397.504C397.536 260.385 398.06 261.988 399.073 263.089C400.087 264.19 401.515 264.74 403.358 264.74C404.491 264.74 405.494 264.637 406.366 264.43C407.238 264.223 408.143 263.917 409.081 263.514V265.901C408.176 266.305 407.276 266.599 406.383 266.784C405.5 266.97 404.453 267.062 403.243 267.062C401.521 267.062 400.016 266.714 398.73 266.016C397.455 265.307 396.463 264.272 395.754 262.909C395.045 261.546 394.691 259.879 394.691 257.905C394.691 255.976 395.013 254.308 395.656 252.902C396.31 251.485 397.226 250.395 398.403 249.632C399.591 248.868 400.987 248.487 402.589 248.487ZM402.556 250.711C401.106 250.711 399.951 251.185 399.09 252.133C398.229 253.082 397.716 254.406 397.553 256.107H407.037C407.026 255.038 406.857 254.101 406.53 253.294C406.214 252.477 405.729 251.844 405.074 251.397C404.42 250.94 403.581 250.711 402.556 250.711ZM417.207 241.292V247.653C417.207 248.383 417.186 249.092 417.142 249.779C417.109 250.465 417.082 251 417.06 251.381H417.207C417.698 250.574 418.406 249.893 419.333 249.337C420.26 248.781 421.442 248.503 422.881 248.503C425.127 248.503 426.915 249.283 428.245 250.842C429.586 252.389 430.256 254.695 430.256 257.758C430.256 259.775 429.951 261.476 429.34 262.86C428.73 264.244 427.869 265.291 426.757 266C425.645 266.708 424.331 267.062 422.816 267.062C421.399 267.062 420.232 266.801 419.317 266.278C418.412 265.743 417.714 265.095 417.224 264.332H417.011L416.455 266.735H414.493V241.292H417.207ZM422.44 250.776C421.143 250.776 420.113 251.032 419.349 251.545C418.586 252.046 418.036 252.809 417.698 253.834C417.371 254.848 417.207 256.134 417.207 257.693V257.84C417.207 260.097 417.583 261.824 418.336 263.024C419.088 264.212 420.456 264.806 422.44 264.806C424.108 264.806 425.356 264.195 426.184 262.974C427.024 261.754 427.444 260.009 427.444 257.742C427.444 255.431 427.029 253.692 426.201 252.526C425.383 251.359 424.13 250.776 422.44 250.776ZM437.712 241.292V248.896C437.712 249.332 437.701 249.773 437.68 250.22C437.658 250.656 437.62 251.06 437.565 251.43H437.745C438.116 250.798 438.584 250.269 439.151 249.844C439.729 249.408 440.383 249.081 441.114 248.863C441.844 248.634 442.618 248.52 443.435 248.52C444.874 248.52 446.074 248.749 447.033 249.206C448.003 249.664 448.728 250.373 449.208 251.332C449.698 252.291 449.943 253.534 449.943 255.06V266.735H447.262V255.24C447.262 253.747 446.918 252.629 446.232 251.888C445.556 251.147 444.515 250.776 443.108 250.776C441.778 250.776 440.716 251.032 439.92 251.545C439.135 252.046 438.568 252.787 438.219 253.768C437.881 254.75 437.712 255.949 437.712 257.366V266.735H434.998V241.292H437.712ZM470.988 257.742C470.988 259.214 470.797 260.527 470.416 261.683C470.034 262.838 469.484 263.814 468.764 264.61C468.045 265.405 467.173 266.016 466.148 266.441C465.134 266.855 463.984 267.062 462.698 267.062C461.499 267.062 460.398 266.855 459.395 266.441C458.403 266.016 457.541 265.405 456.811 264.61C456.092 263.814 455.53 262.838 455.127 261.683C454.734 260.527 454.538 259.214 454.538 257.742C454.538 255.78 454.871 254.112 455.536 252.738C456.201 251.354 457.149 250.302 458.381 249.582C459.624 248.852 461.101 248.487 462.812 248.487C464.447 248.487 465.875 248.852 467.096 249.582C468.328 250.313 469.282 251.37 469.958 252.755C470.645 254.128 470.988 255.791 470.988 257.742ZM457.351 257.742C457.351 259.181 457.541 260.429 457.923 261.486C458.305 262.544 458.893 263.361 459.689 263.939C460.485 264.517 461.509 264.806 462.763 264.806C464.006 264.806 465.025 264.517 465.821 263.939C466.628 263.361 467.222 262.544 467.603 261.486C467.985 260.429 468.176 259.181 468.176 257.742C468.176 256.314 467.985 255.082 467.603 254.046C467.222 253 466.633 252.193 465.837 251.626C465.041 251.06 464.011 250.776 462.747 250.776C460.883 250.776 459.515 251.392 458.642 252.624C457.781 253.856 457.351 255.562 457.351 257.742ZM491.133 257.742C491.133 259.214 490.942 260.527 490.561 261.683C490.179 262.838 489.629 263.814 488.909 264.61C488.19 265.405 487.318 266.016 486.293 266.441C485.279 266.855 484.129 267.062 482.843 267.062C481.644 267.062 480.543 266.855 479.54 266.441C478.548 266.016 477.687 265.405 476.956 264.61C476.237 263.814 475.675 262.838 475.272 261.683C474.88 260.527 474.683 259.214 474.683 257.742C474.683 255.78 475.016 254.112 475.681 252.738C476.346 251.354 477.294 250.302 478.526 249.582C479.769 248.852 481.246 248.487 482.957 248.487C484.593 248.487 486.021 248.852 487.242 249.582C488.473 250.313 489.427 251.37 490.103 252.755C490.79 254.128 491.133 255.791 491.133 257.742ZM477.496 257.742C477.496 259.181 477.687 260.429 478.068 261.486C478.45 262.544 479.038 263.361 479.834 263.939C480.63 264.517 481.655 264.806 482.908 264.806C484.151 264.806 485.17 264.517 485.966 263.939C486.773 263.361 487.367 262.544 487.748 261.486C488.13 260.429 488.321 259.181 488.321 257.742C488.321 256.314 488.13 255.082 487.748 254.046C487.367 253 486.778 252.193 485.982 251.626C485.187 251.06 484.157 250.776 482.892 250.776C481.028 250.776 479.66 251.392 478.788 252.624C477.927 253.856 477.496 255.562 477.496 257.742ZM498.524 241.292V254.504C498.524 254.94 498.508 255.475 498.475 256.107C498.442 256.728 498.415 257.279 498.393 257.758H498.508C498.737 257.475 499.069 257.055 499.505 256.499C499.952 255.943 500.328 255.496 500.634 255.158L506.586 248.814H509.774L502.563 256.467L510.297 266.735H507.027L500.699 258.249L498.524 260.244V266.735H495.826V241.292H498.524ZM529.87 266.735H527.074V245.282H519.552V242.829H537.359V245.282H529.87V266.735ZM548.707 248.487C549.067 248.487 549.443 248.509 549.836 248.552C550.228 248.585 550.577 248.634 550.882 248.699L550.539 251.218C550.245 251.141 549.917 251.081 549.558 251.038C549.198 250.994 548.86 250.972 548.544 250.972C547.824 250.972 547.143 251.12 546.5 251.414C545.868 251.697 545.312 252.112 544.832 252.657C544.352 253.191 543.976 253.839 543.704 254.602C543.431 255.355 543.295 256.194 543.295 257.121V266.735H540.564V248.814H542.821L543.115 252.117H543.23C543.6 251.452 544.047 250.847 544.57 250.302C545.094 249.746 545.699 249.304 546.386 248.977C547.083 248.65 547.857 248.487 548.707 248.487ZM556.981 248.814V266.735H554.267V248.814H556.981ZM555.657 242.11C556.104 242.11 556.485 242.257 556.802 242.551C557.129 242.835 557.292 243.282 557.292 243.892C557.292 244.492 557.129 244.939 556.802 245.233C556.485 245.527 556.104 245.674 555.657 245.674C555.188 245.674 554.796 245.527 554.48 245.233C554.174 244.939 554.022 244.492 554.022 243.892C554.022 243.282 554.174 242.835 554.48 242.551C554.796 242.257 555.188 242.11 555.657 242.11ZM567.741 274.78C565.386 274.78 563.571 274.339 562.296 273.456C561.02 272.584 560.383 271.357 560.383 269.777C560.383 268.654 560.737 267.695 561.445 266.899C562.165 266.103 563.157 265.574 564.421 265.313C563.953 265.095 563.549 264.768 563.211 264.332C562.884 263.896 562.721 263.394 562.721 262.827C562.721 262.173 562.901 261.601 563.26 261.11C563.631 260.609 564.192 260.129 564.945 259.671C564.007 259.29 563.244 258.647 562.655 257.742C562.078 256.826 561.789 255.763 561.789 254.553C561.789 253.267 562.056 252.171 562.59 251.267C563.124 250.351 563.898 249.653 564.912 249.174C565.926 248.694 567.152 248.454 568.591 248.454C568.907 248.454 569.223 248.471 569.539 248.503C569.867 248.525 570.177 248.563 570.472 248.618C570.766 248.661 571.022 248.716 571.24 248.781H577.388V250.531L574.085 250.94C574.412 251.365 574.685 251.877 574.903 252.477C575.121 253.076 575.23 253.741 575.23 254.472C575.23 256.259 574.625 257.682 573.415 258.739C572.205 259.786 570.542 260.309 568.428 260.309C567.926 260.309 567.414 260.266 566.891 260.178C566.356 260.473 565.948 260.8 565.664 261.159C565.392 261.519 565.255 261.933 565.255 262.402C565.255 262.751 565.359 263.029 565.566 263.236C565.784 263.443 566.095 263.596 566.498 263.694C566.901 263.781 567.387 263.825 567.953 263.825H571.109C573.061 263.825 574.554 264.234 575.59 265.051C576.636 265.869 577.159 267.062 577.159 268.632C577.159 270.616 576.353 272.137 574.739 273.194C573.126 274.252 570.793 274.78 567.741 274.78ZM567.823 272.655C569.305 272.655 570.531 272.502 571.502 272.197C572.483 271.902 573.213 271.472 573.693 270.905C574.183 270.349 574.429 269.684 574.429 268.91C574.429 268.191 574.265 267.646 573.938 267.275C573.611 266.915 573.131 266.675 572.499 266.555C571.867 266.425 571.093 266.359 570.177 266.359H567.07C566.264 266.359 565.561 266.485 564.961 266.735C564.361 266.986 563.898 267.357 563.571 267.847C563.255 268.338 563.097 268.948 563.097 269.679C563.097 270.649 563.506 271.385 564.323 271.886C565.141 272.398 566.307 272.655 567.823 272.655ZM568.526 258.331C569.823 258.331 570.799 258.004 571.453 257.349C572.107 256.695 572.434 255.742 572.434 254.488C572.434 253.147 572.101 252.144 571.436 251.479C570.771 250.803 569.79 250.465 568.493 250.465C567.25 250.465 566.291 250.814 565.615 251.512C564.95 252.199 564.618 253.207 564.618 254.537C564.618 255.758 564.956 256.695 565.631 257.349C566.307 258.004 567.272 258.331 568.526 258.331ZM585.924 274.78C583.569 274.78 581.754 274.339 580.479 273.456C579.203 272.584 578.566 271.357 578.566 269.777C578.566 268.654 578.92 267.695 579.628 266.899C580.348 266.103 581.34 265.574 582.604 265.313C582.136 265.095 581.732 264.768 581.394 264.332C581.067 263.896 580.904 263.394 580.904 262.827C580.904 262.173 581.084 261.601 581.443 261.11C581.814 260.609 582.376 260.129 583.128 259.671C582.19 259.29 581.427 258.647 580.838 257.742C580.261 256.826 579.972 255.763 579.972 254.553C579.972 253.267 580.239 252.171 580.773 251.267C581.307 250.351 582.081 249.653 583.095 249.174C584.109 248.694 585.335 248.454 586.774 248.454C587.09 248.454 587.406 248.471 587.723 248.503C588.05 248.525 588.36 248.563 588.655 248.618C588.949 248.661 589.205 248.716 589.423 248.781H595.571V250.531L592.268 250.94C592.595 251.365 592.868 251.877 593.086 252.477C593.304 253.076 593.413 253.741 593.413 254.472C593.413 256.259 592.808 257.682 591.598 258.739C590.388 259.786 588.725 260.309 586.611 260.309C586.109 260.309 585.597 260.266 585.074 260.178C584.539 260.473 584.131 260.8 583.847 261.159C583.575 261.519 583.438 261.933 583.438 262.402C583.438 262.751 583.542 263.029 583.749 263.236C583.967 263.443 584.278 263.596 584.681 263.694C585.084 263.781 585.57 263.825 586.136 263.825H589.292C591.244 263.825 592.737 264.234 593.773 265.051C594.819 265.869 595.342 267.062 595.342 268.632C595.342 270.616 594.536 272.137 592.922 273.194C591.309 274.252 588.976 274.78 585.924 274.78ZM586.006 272.655C587.488 272.655 588.715 272.502 589.685 272.197C590.666 271.902 591.396 271.472 591.876 270.905C592.366 270.349 592.612 269.684 592.612 268.91C592.612 268.191 592.448 267.646 592.121 267.275C591.794 266.915 591.314 266.675 590.682 266.555C590.05 266.425 589.276 266.359 588.36 266.359H585.253C584.447 266.359 583.744 266.485 583.144 266.735C582.545 266.986 582.081 267.357 581.754 267.847C581.438 268.338 581.28 268.948 581.28 269.679C581.28 270.649 581.689 271.385 582.506 271.886C583.324 272.398 584.49 272.655 586.006 272.655ZM586.709 258.331C588.006 258.331 588.982 258.004 589.636 257.349C590.29 256.695 590.617 255.742 590.617 254.488C590.617 253.147 590.284 252.144 589.619 251.479C588.954 250.803 587.973 250.465 586.676 250.465C585.433 250.465 584.474 250.814 583.798 251.512C583.133 252.199 582.801 253.207 582.801 254.537C582.801 255.758 583.139 256.695 583.814 257.349C584.49 258.004 585.455 258.331 586.709 258.331ZM606.004 248.487C607.53 248.487 608.838 248.825 609.928 249.501C611.018 250.177 611.852 251.125 612.43 252.346C613.008 253.556 613.297 254.973 613.297 256.597V258.282H600.918C600.951 260.385 601.474 261.988 602.488 263.089C603.502 264.19 604.93 264.74 606.772 264.74C607.906 264.74 608.909 264.637 609.781 264.43C610.653 264.223 611.558 263.917 612.495 263.514V265.901C611.591 266.305 610.691 266.599 609.797 266.784C608.914 266.97 607.868 267.062 606.658 267.062C604.935 267.062 603.431 266.714 602.145 266.016C600.869 265.307 599.877 264.272 599.169 262.909C598.46 261.546 598.106 259.879 598.106 257.905C598.106 255.976 598.427 254.308 599.071 252.902C599.725 251.485 600.64 250.395 601.818 249.632C603.006 248.868 604.401 248.487 606.004 248.487ZM605.971 250.711C604.521 250.711 603.366 251.185 602.504 252.133C601.643 253.082 601.131 254.406 600.967 256.107H610.451C610.44 255.038 610.271 254.101 609.944 253.294C609.628 252.477 609.143 251.844 608.489 251.397C607.835 250.94 606.996 250.711 605.971 250.711ZM626.051 248.487C626.411 248.487 626.787 248.509 627.179 248.552C627.572 248.585 627.92 248.634 628.226 248.699L627.882 251.218C627.588 251.141 627.261 251.081 626.901 251.038C626.541 250.994 626.203 250.972 625.887 250.972C625.168 250.972 624.487 251.12 623.843 251.414C623.211 251.697 622.655 252.112 622.175 252.657C621.696 253.191 621.32 253.839 621.047 254.602C620.775 255.355 620.638 256.194 620.638 257.121V266.735H617.908V248.814H620.164L620.459 252.117H620.573C620.944 251.452 621.391 250.847 621.914 250.302C622.437 249.746 623.042 249.304 623.729 248.977C624.427 248.65 625.201 248.487 626.051 248.487Z" fill="#8C8C8C"/>
<rect x="136.935" y="108.011" width="726.839" height="229.449" rx="24.7223" stroke="#4F4F4F" stroke-width="5.43787"/>
</g>
<rect x="136.421" y="491.728" width="726.839" height="226.661" rx="24.7223" fill="white"/>
<g clip-path="url(#clip3_1626_95464)">
<path d="M318.328 519.752H182.849C173.004 519.752 165.023 527.733 165.023 537.578V673.056C165.023 682.901 173.004 690.882 182.849 690.882H318.328C328.173 690.882 336.154 682.901 336.154 673.056V537.578C336.154 527.733 328.173 519.752 318.328 519.752Z" fill="#D9A032" fill-opacity="0.1"/>
</g>
<rect x="136.421" y="491.728" width="726.839" height="226.661" rx="24.7223" stroke="#4F4F4F" stroke-width="5.43787"/>
</g>
</g>
<rect x="0.5" y="0.5" width="999" height="540.872" rx="11.5" stroke="black"/>
<defs>
<filter id="filter0_i_1626_95464" x="134.216" y="105.292" width="732.277" height="234.886" filterUnits="userSpaceOnUse" color-interpolation-filters="sRGB">
<feFlood flood-opacity="0" result="BackgroundImageFix"/>
<feBlend mode="normal" in="SourceGraphic" in2="BackgroundImageFix" result="shape"/>
<feColorMatrix in="SourceAlpha" type="matrix" values="0 0 0 0 0 0 0 0 0 0 0 0 0 0 0 0 0 0 127 0" result="hardAlpha"/>
<feOffset dy="14.501"/>
<feComposite in2="hardAlpha" operator="arithmetic" k2="-1" k3="1"/>
<feColorMatrix type="matrix" values="0 0 0 0 0.309804 0 0 0 0 0.309804 0 0 0 0 0.309804 0 0 0 1 0"/>
<feBlend mode="normal" in2="shape" result="effect1_innerShadow_1626_95464"/>
</filter>
<clipPath id="clip0_1626_95464">
<rect width="1000" height="541.872" rx="12" fill="white"/>
</clipPath>
<clipPath id="clip1_1626_95464">
<rect width="2217" height="1170.08" fill="white" transform="translate(-608 -560)"/>
</clipPath>
<clipPath id="clip2_1626_95464">
<rect width="136.74" height="136.74" fill="white" transform="translate(183.289 154.365)"/>
</clipPath>
<clipPath id="clip3_1626_95464">
<rect x="182.776" y="538.083" width="133.953" height="133.953" rx="11.1627" fill="white"/>
</clipPath>
</defs>
</svg>
