<svg width="1000" height="542" viewBox="0 0 1000 542" fill="none" xmlns="http://www.w3.org/2000/svg">
<rect x="0.5" y="0.5" width="999" height="540.872" rx="11.5" fill="#ED9090"/>
<rect x="142" y="159.282" width="717" height="222.478" rx="27.8608" fill="white"/>
<g clip-path="url(#clip0_1624_94845)">
<path d="M312.239 270.521C312.239 237.936 285.824 211.521 253.239 211.521C220.654 211.521 194.239 237.936 194.239 270.521C194.239 303.106 220.654 329.521 253.239 329.521C285.824 329.521 312.239 303.106 312.239 270.521Z" fill="#68DBF2"/>
<path d="M227.426 288.958C232.518 288.958 236.645 284.831 236.645 279.74C236.645 274.648 232.518 270.521 227.426 270.521C222.335 270.521 218.207 274.648 218.207 279.74C218.207 284.831 222.335 288.958 227.426 288.958Z" fill="#EAC0B3"/>
<path d="M227.426 287.115H258.77V332.969C258.77 332.969 252.053 336.896 243.098 336.896C234.143 336.896 227.426 330.485 227.426 330.485V287.115Z" fill="#EAC0B3"/>
<path d="M258.421 309.446C258.421 319.375 256.817 318.435 246.376 318.435C235.935 318.435 231.117 310.387 231.117 300.458C231.117 290.531 230.721 281.583 239.147 281.583C262.973 282.461 258.421 299.518 258.421 309.446Z" fill="#C99688"/>
<path d="M278.841 278.08C278.841 294.53 276.285 314.758 256.004 314.758C235.723 314.758 226.371 294.53 226.371 278.08C221.895 258.537 222.817 235.49 253.239 235.49C283.66 235.49 278.841 261.629 278.841 278.08Z" fill="#F5D0C5"/>
<path d="M264.301 287.115H262.457C261.439 287.115 260.614 287.94 260.614 288.958C260.614 289.977 261.439 290.802 262.457 290.802H264.301C265.319 290.802 266.145 289.977 266.145 288.958C266.145 287.94 265.319 287.115 264.301 287.115Z" fill="#EAC0B3"/>
<path d="M264.301 322.146H223.739C214.574 322.146 207.145 329.575 207.145 338.74V347.958C207.145 357.123 214.574 364.552 223.739 364.552H264.301C273.466 364.552 280.895 357.123 280.895 347.958V338.74C280.895 329.575 273.466 322.146 264.301 322.146Z" fill="#E05A33"/>
<path fill-rule="evenodd" clip-rule="evenodd" d="M247.643 259.829C257.986 263.264 272.329 268.025 287.348 253.005C294.723 245.63 261.536 214.287 234.801 231.802C213.906 234.898 215.099 247.419 216.021 257.08C216.198 258.929 216.364 260.672 216.364 262.224C216.364 263.207 216.493 263.943 216.732 264.47C216.484 266.477 216.361 268.498 216.364 270.521C216.364 272.477 217.141 274.353 218.524 275.736C219.907 277.119 221.783 277.896 223.739 277.896C225.695 277.896 227.571 277.119 228.954 275.736C230.337 274.353 231.114 272.477 231.114 270.521C232.24 270.521 233.351 270.264 234.362 269.768C235.373 269.272 236.257 268.551 236.946 267.661C237.635 266.771 238.112 265.735 238.338 264.632C238.565 263.529 238.537 262.389 238.255 261.299L238.489 261.302C240.745 261.302 242.764 260.288 244.118 258.693C245.231 259.029 246.409 259.42 247.643 259.829Z" fill="#1B0B47"/>
<path d="M250.047 286.263C254.394 286.263 257.918 282.739 257.918 278.392C257.918 274.045 254.394 270.521 250.047 270.521C245.7 270.521 242.176 274.045 242.176 278.392C242.176 282.739 245.7 286.263 250.047 286.263Z" stroke="black" stroke-width="4.91667"/>
<path d="M275.86 286.263C280.207 286.263 283.731 282.739 283.731 278.392C283.731 274.045 280.207 270.521 275.86 270.521C271.513 270.521 267.989 274.045 267.989 278.392C267.989 282.739 271.513 286.263 275.86 286.263Z" stroke="black" stroke-width="4.91667"/>
<path d="M256.899 276.244L269.805 276.052" stroke="black" stroke-width="4.91667"/>
<path d="M245.864 296.333C245.864 294.867 246.446 293.46 247.484 292.422C248.521 291.385 249.928 290.802 251.395 290.802H267.989C269.456 290.802 270.863 291.385 271.9 292.422C272.937 293.46 273.52 294.867 273.52 296.333H245.864Z" fill="#1B0B47"/>
</g>
<rect x="198.739" y="216.021" width="109" height="109" rx="54.5" stroke="white" stroke-width="9"/>
<g clip-path="url(#clip1_1624_94845)">
<path d="M402.836 270.521C402.836 237.936 376.421 211.521 343.836 211.521C311.251 211.521 284.836 237.936 284.836 270.521C284.836 303.106 311.251 329.521 343.836 329.521C376.421 329.521 402.836 303.106 402.836 270.521Z" fill="#70E0BF"/>
<path d="M318.023 288.959C323.115 288.959 327.242 284.832 327.242 279.74C327.242 274.649 323.115 270.521 318.023 270.521C312.932 270.521 308.805 274.649 308.805 279.74C308.805 284.832 312.932 288.959 318.023 288.959Z" fill="#F0BD70"/>
<path d="M318.023 287.115H349.367V332.969C349.367 332.969 342.65 336.896 333.695 336.896C324.74 336.896 318.023 330.486 318.023 330.486V287.115Z" fill="#F0BD70"/>
<path d="M349.019 309.447C349.019 319.375 347.415 318.435 336.973 318.435C326.532 318.435 321.715 310.387 321.715 300.458C321.715 290.532 321.318 281.584 329.744 281.584C353.571 282.462 349.019 299.518 349.019 309.447Z" fill="#E9B05B"/>
<path d="M369.438 278.081C369.438 294.531 366.883 314.759 346.601 314.759C326.32 314.759 316.969 294.531 316.969 278.081C312.492 258.537 313.414 235.49 343.836 235.49C374.258 235.49 369.438 261.629 369.438 278.081Z" fill="#FFCB7E"/>
<path d="M354.898 287.115H353.055C352.036 287.115 351.211 287.941 351.211 288.959C351.211 289.977 352.036 290.803 353.055 290.803H354.898C355.917 290.803 356.742 289.977 356.742 288.959C356.742 287.941 355.917 287.115 354.898 287.115Z" fill="#F0BD70"/>
<path d="M354.898 322.146H314.336C305.171 322.146 297.742 329.576 297.742 338.74V347.959C297.742 357.123 305.171 364.553 314.336 364.553H354.898C364.063 364.553 371.492 357.123 371.492 347.959V338.74C371.492 329.576 364.063 322.146 354.898 322.146Z" fill="#FF4DD8"/>
<path d="M316.18 318.459H351.211V323.99C351.211 323.99 341.992 325.834 333.695 325.834C325.398 325.834 316.18 323.99 316.18 323.99V318.459Z" fill="#FF4DD8"/>
<path d="M316.18 318.459H351.211V322.146C351.211 322.146 345.68 324.912 333.695 324.912C321.711 324.912 316.18 322.146 316.18 322.146V318.459Z" fill="#D2499B"/>
<path d="M315.258 320.303C315.258 319.325 315.646 318.387 316.338 317.695C317.029 317.004 317.967 316.615 318.945 316.615H348.445C349.423 316.615 350.361 317.004 351.053 317.695C351.744 318.387 352.133 319.325 352.133 320.303C352.133 320.303 342.914 322.146 333.695 322.146C324.477 322.146 315.258 320.303 315.258 320.303Z" fill="#FF4DD8"/>
<path d="M325.399 263.145C324.239 268.677 327.243 276.017 327.243 277.422C327.243 278.826 319.995 282.999 318.024 284.349C316.053 285.698 315.258 271.442 315.258 271.442C309.727 271.442 308.805 281.583 308.805 281.583C308.805 281.583 304.668 280.219 303.274 273.286C302.333 268.603 303.825 258.372 304.196 255.77C305.118 249.317 306.039 234.567 318.024 227.192C330.008 219.817 360.43 219.817 367.805 221.661C386.047 226.221 388.488 251.135 382.555 259.458C373.336 269.599 347.524 257.614 339.227 257.614C330.93 257.614 326.56 257.614 325.399 263.145Z" fill="#AD3A20"/>
<path d="M338.174 296.333C338.174 295.845 338.368 295.376 338.714 295.03C339.06 294.684 339.529 294.49 340.018 294.49H356.875C357.364 294.49 357.833 294.684 358.179 295.03C358.525 295.376 358.719 295.845 358.719 296.333C358.719 298.778 357.748 301.123 356.019 302.852C354.29 304.581 351.945 305.552 349.5 305.552H347.393C344.948 305.552 342.603 304.581 340.874 302.852C339.145 301.123 338.174 298.778 338.174 296.333Z" fill="#66253C"/>
<path fill-rule="evenodd" clip-rule="evenodd" d="M352.603 305.018C351.607 305.373 350.558 305.554 349.5 305.553H347.393C345.012 305.553 342.723 304.631 341.006 302.982C339.289 301.332 338.277 299.082 338.182 296.703C339.59 296.175 341.681 296.236 343.744 296.297C344.401 296.315 345.053 296.334 345.68 296.334C349.755 296.334 353.055 299.223 353.055 302.787C353.055 303.571 352.895 304.323 352.603 305.018Z" fill="#B03E67"/>
<path d="M340.149 294.49H358.586V296.333C358.586 296.822 358.392 297.291 358.046 297.637C357.7 297.983 357.231 298.177 356.742 298.177H341.992C341.503 298.177 341.035 297.983 340.689 297.637C340.343 297.291 340.149 296.822 340.149 296.333V294.49Z" fill="white"/>
<path d="M343.836 295.043C343.836 294.896 343.895 294.755 343.998 294.652C344.102 294.548 344.243 294.49 344.389 294.49H346.971C347.117 294.49 347.258 294.548 347.362 294.652C347.465 294.755 347.524 294.896 347.524 295.043V299.468C347.524 299.615 347.465 299.755 347.362 299.859C347.258 299.963 347.117 300.021 346.971 300.021H344.389C344.243 300.021 344.102 299.963 343.998 299.859C343.895 299.755 343.836 299.615 343.836 299.468V295.043Z" fill="#B03E67"/>
<path d="M364.117 280.662C364.117 281.396 363.826 282.099 363.307 282.618C362.788 283.136 362.085 283.428 361.352 283.428C360.618 283.428 359.915 283.136 359.396 282.618C358.877 282.099 358.586 281.396 358.586 280.662V278.4C358.586 278.123 358.811 277.896 359.089 277.896H363.614C363.89 277.896 364.117 278.121 364.117 278.4V280.662ZM345.68 280.662C345.68 281.396 345.388 282.099 344.87 282.618C344.351 283.136 343.648 283.428 342.914 283.428C342.181 283.428 341.477 283.136 340.958 282.618C340.44 282.099 340.148 281.396 340.148 280.662V278.4C340.148 278.123 340.373 277.896 340.652 277.896H345.176C345.453 277.896 345.68 278.121 345.68 278.4V280.662Z" fill="#1B0B47"/>
<path d="M357.664 278.818H365.039M339.227 278.818H346.602H339.227Z" stroke="#1B0B47" stroke-width="2.45833" stroke-linecap="round"/>
<path d="M336.461 296.333C336.461 294.867 337.044 293.46 338.081 292.422C339.119 291.385 340.526 290.802 341.992 290.802H358.586C360.053 290.802 361.46 291.385 362.497 292.422C363.535 293.46 364.117 294.867 364.117 296.333H336.461Z" fill="#AD3A20"/>
</g>
<rect x="289.336" y="216.021" width="109" height="109" rx="54.5" stroke="white" stroke-width="9"/>
<g clip-path="url(#clip2_1624_94845)">
<path d="M493.434 270.521C493.434 237.936 467.018 211.521 434.434 211.521C401.849 211.521 375.434 237.936 375.434 270.521C375.434 303.106 401.849 329.521 434.434 329.521C467.018 329.521 493.434 303.106 493.434 270.521Z" fill="#F16063"/>
<path d="M408.621 288.958C413.712 288.958 417.84 284.831 417.84 279.74C417.84 274.648 413.712 270.521 408.621 270.521C403.53 270.521 399.402 274.648 399.402 279.74C399.402 284.831 403.53 288.958 408.621 288.958Z" fill="#EAC0B3"/>
<path d="M408.621 287.115H439.965V332.969C439.965 332.969 433.248 336.896 424.293 336.896C415.338 336.896 408.621 330.485 408.621 330.485V287.115Z" fill="#EAC0B3"/>
<path d="M439.616 309.446C439.616 319.375 438.012 318.435 427.571 318.435C417.13 318.435 412.312 310.387 412.312 300.458C412.312 290.531 411.916 281.583 420.342 281.583C444.169 282.461 439.616 299.518 439.616 309.446Z" fill="#C99688"/>
<path d="M460.036 278.08C460.036 294.53 457.48 314.758 437.199 314.758C416.918 314.758 407.566 294.53 407.566 278.08C403.09 258.537 404.012 235.49 434.434 235.49C464.855 235.49 460.036 261.629 460.036 278.08Z" fill="#F5D0C5"/>
<path d="M445.496 287.115H443.652C442.634 287.115 441.809 287.94 441.809 288.958C441.809 289.977 442.634 290.802 443.652 290.802H445.496C446.514 290.802 447.34 289.977 447.34 288.958C447.34 287.94 446.514 287.115 445.496 287.115Z" fill="#EAC0B3"/>
<path d="M445.496 322.146H404.934C395.769 322.146 388.34 329.575 388.34 338.74V347.958C388.34 357.123 395.769 364.552 404.934 364.552H445.496C454.661 364.552 462.09 357.123 462.09 347.958V338.74C462.09 329.575 454.661 322.146 445.496 322.146Z" fill="#3633E0"/>
<path d="M406.777 318.458H441.809V323.99C441.809 323.99 432.59 325.833 424.293 325.833C415.996 325.833 406.777 323.99 406.777 323.99V318.458Z" fill="#3633E0"/>
<path d="M406.777 318.458H441.809V322.146C441.809 322.146 436.277 324.912 424.293 324.912C412.309 324.912 406.777 322.146 406.777 322.146V318.458Z" fill="#362ABC"/>
<path d="M405.855 320.302C405.855 319.324 406.244 318.386 406.936 317.695C407.627 317.003 408.565 316.615 409.543 316.615H439.043C440.021 316.615 440.959 317.003 441.65 317.695C442.342 318.386 442.73 319.324 442.73 320.302C442.73 320.302 433.512 322.146 424.293 322.146C415.074 322.146 405.855 320.302 405.855 320.302Z" fill="#3633E0"/>
<path fill-rule="evenodd" clip-rule="evenodd" d="M463.934 257.614C463.933 248.893 460.499 240.522 454.374 234.313C448.25 228.104 439.928 224.555 431.207 224.433C422.487 224.312 414.069 227.629 407.774 233.665C401.48 239.702 397.815 247.974 397.571 256.692H397.559V331.364H417.84V275.309C422.422 274.427 430.34 272.488 440.348 268.383C450.423 264.252 456.708 260.347 460.017 257.99C460.464 262.644 460.309 267.504 460.165 272.021C460.099 274.134 460.034 276.17 460.034 278.078C460.034 278.83 460.019 279.586 459.988 280.344C460.414 280.209 460.812 280.062 461.166 279.901C463.932 278.64 463.932 276.957 463.932 276.957V257.614H463.934ZM403.09 272.364C401.766 273.354 400.734 274.684 400.103 276.212C399.32 278.103 399.189 280.201 399.729 282.175C400.27 284.148 401.452 285.886 403.09 287.114V272.364Z" fill="#1B0B47"/>
<path d="M428.771 296.333C428.771 295.845 428.966 295.376 429.311 295.03C429.657 294.684 430.126 294.49 430.615 294.49H447.473C447.962 294.49 448.43 294.684 448.776 295.03C449.122 295.376 449.316 295.845 449.316 296.333C449.316 298.778 448.345 301.123 446.616 302.852C444.887 304.581 442.542 305.552 440.098 305.552H437.99C435.545 305.552 433.2 304.581 431.471 302.852C429.743 301.123 428.771 298.778 428.771 296.333Z" fill="#66253C"/>
<path fill-rule="evenodd" clip-rule="evenodd" d="M443.201 305.018C442.205 305.373 441.155 305.554 440.098 305.553H437.99C435.609 305.553 433.321 304.631 431.603 302.982C429.886 301.332 428.874 299.082 428.779 296.703C430.188 296.175 432.278 296.236 434.342 296.297C434.998 296.315 435.651 296.334 436.278 296.334C440.352 296.334 443.653 299.223 443.653 302.787C443.653 303.571 443.492 304.323 443.201 305.018Z" fill="#B03E67"/>
<path d="M430.746 294.49H449.184V296.333C449.184 296.822 448.989 297.291 448.644 297.637C448.298 297.983 447.829 298.177 447.34 298.177H432.59C432.101 298.177 431.632 297.983 431.286 297.637C430.94 297.291 430.746 296.822 430.746 296.333V294.49Z" fill="white"/>
<path d="M436.277 280.662C436.277 279.134 435.039 277.896 433.512 277.896C431.984 277.896 430.746 279.134 430.746 280.662V282.505C430.746 284.033 431.984 285.271 433.512 285.271C435.039 285.271 436.277 284.033 436.277 282.505V280.662Z" fill="#1B0B47"/>
<path d="M454.715 280.662C454.715 279.134 453.477 277.896 451.949 277.896C450.422 277.896 449.184 279.134 449.184 280.662V282.505C449.184 284.033 450.422 285.271 451.949 285.271C453.477 285.271 454.715 284.033 454.715 282.505V280.662Z" fill="#1B0B47"/>
</g>
<rect x="379.934" y="216.021" width="109" height="109" rx="54.5" stroke="white" stroke-width="9"/>
<g clip-path="url(#clip3_1624_94845)">
<path d="M584.031 270.521C584.031 237.936 557.616 211.521 525.031 211.521C492.446 211.521 466.031 237.936 466.031 270.521C466.031 303.106 492.446 329.521 525.031 329.521C557.616 329.521 584.031 303.106 584.031 270.521Z" fill="#6F6FFB"/>
<path d="M499.218 288.958C504.31 288.958 508.437 284.831 508.437 279.74C508.437 274.648 504.31 270.521 499.218 270.521C494.127 270.521 490 274.648 490 279.74C490 284.831 494.127 288.958 499.218 288.958Z" fill="#F0BD70"/>
<path d="M499.218 287.115H530.562V332.969C530.562 332.969 523.845 336.896 514.89 336.896C505.935 336.896 499.218 330.485 499.218 330.485V287.115Z" fill="#F0BD70"/>
<path d="M530.562 310.84C530.562 321.265 528.936 320.276 518.362 320.276C507.788 320.276 502.909 311.827 502.909 301.402C502.909 290.977 502.508 281.583 511.04 281.583C535.171 282.505 530.562 300.416 530.562 310.84Z" fill="#E9B05B"/>
<path d="M550.633 278.08C550.633 294.53 557.429 314.758 527.797 314.758C498.164 314.758 498.164 294.53 498.164 278.08C493.687 258.537 494.609 235.49 525.031 235.49C555.453 235.49 550.633 261.629 550.633 278.08Z" fill="#FFCB7E"/>
<path d="M536.093 287.115H534.25C533.231 287.115 532.406 287.94 532.406 288.958C532.406 289.977 533.231 290.802 534.25 290.802H536.093C537.112 290.802 537.937 289.977 537.937 288.958C537.937 287.94 537.112 287.115 536.093 287.115Z" fill="#F0BD70"/>
<path d="M536.093 322.146H495.531C486.366 322.146 478.937 329.575 478.937 338.74V347.958C478.937 357.123 486.366 364.552 495.531 364.552H536.093C545.258 364.552 552.687 357.123 552.687 347.958V338.74C552.687 329.575 545.258 322.146 536.093 322.146Z" fill="#E05A33"/>
<path fill-rule="evenodd" clip-rule="evenodd" d="M550.784 271.411C552.315 270.548 553.486 269.166 554.088 267.515C554.69 265.864 554.682 264.052 554.066 262.406C555.749 261.595 557.062 260.175 557.738 258.433C558.415 256.692 558.405 254.758 557.711 253.023C557.017 251.289 555.69 249.882 553.999 249.088C552.308 248.293 550.378 248.171 548.6 248.744C551.212 255.518 551.02 263.896 550.784 271.411Z" fill="#47280B"/>
<path fill-rule="evenodd" clip-rule="evenodd" d="M532.953 253.485C531.273 254.962 529.112 255.775 526.875 255.771C524.834 255.774 522.851 255.097 521.238 253.848C520.042 255.044 518.621 255.993 517.057 256.639C515.493 257.285 513.817 257.617 512.125 257.615C510.847 257.615 509.576 257.427 508.354 257.054C507.874 257.58 507.32 258.034 506.71 258.402C507.435 259.266 507.953 260.284 508.224 261.379C508.494 262.475 508.51 263.617 508.269 264.72C508.028 265.822 507.538 266.854 506.836 267.737C506.134 268.62 505.238 269.33 504.219 269.813C504.523 270.23 504.705 270.723 504.743 271.238C504.781 271.753 504.675 272.268 504.436 272.725C504.196 273.183 503.834 273.564 503.389 273.826C502.945 274.088 502.435 274.221 501.919 274.208C501.016 275.781 499.564 276.965 497.842 277.535C496.12 278.105 494.248 278.02 492.585 277.297C490.921 276.574 489.583 275.263 488.825 273.615C488.067 271.967 487.943 270.097 488.477 268.364C487.79 267.68 487.245 266.866 486.873 265.971C486.502 265.075 486.311 264.115 486.312 263.146C486.312 261.107 487.14 259.261 488.477 257.928C488.121 256.763 488.058 255.529 488.296 254.334C488.533 253.139 489.063 252.022 489.837 251.082C488.878 249.392 488.313 247.507 488.184 245.568C488.054 243.629 488.364 241.686 489.091 239.884C489.817 238.081 490.941 236.466 492.378 235.158C493.816 233.851 495.53 232.884 497.393 232.331C497.297 231.006 497.561 229.68 498.157 228.492C498.752 227.305 499.658 226.3 500.777 225.585C501.897 224.87 503.189 224.47 504.516 224.428C505.844 224.386 507.159 224.704 508.321 225.347C509.454 223.385 511.083 221.756 513.046 220.623C515.008 219.491 517.234 218.895 519.5 218.896C522.031 218.896 524.393 219.624 526.386 220.885C527.755 219.41 529.473 218.304 531.382 217.668C533.292 217.032 535.33 216.887 537.31 217.245C539.29 217.604 541.148 218.456 542.712 219.722C544.277 220.987 545.497 222.626 546.262 224.488C547.237 224.614 548.177 224.935 549.027 225.43C549.877 225.925 550.619 226.585 551.21 227.372C551.801 228.158 552.228 229.054 552.467 230.009C552.706 230.963 552.752 231.955 552.602 232.927C556.022 235.46 558.218 239.384 558.218 243.786C558.218 251.423 551.614 257.615 543.468 257.615C539.351 257.615 535.629 256.033 532.953 253.485Z" fill="#47280B"/>
<path d="M519.369 296.333C519.369 295.845 519.563 295.376 519.909 295.03C520.255 294.684 520.724 294.49 521.213 294.49H538.07C538.559 294.49 539.028 294.684 539.374 295.03C539.719 295.376 539.914 295.845 539.914 296.333C539.914 298.778 538.942 301.123 537.214 302.852C535.485 304.581 533.14 305.552 530.695 305.552H528.588C526.143 305.552 523.798 304.581 522.069 302.852C520.34 301.123 519.369 298.778 519.369 296.333Z" fill="#66253C"/>
<path fill-rule="evenodd" clip-rule="evenodd" d="M533.798 305.017C532.802 305.373 531.752 305.553 530.695 305.552H528.587C526.206 305.552 523.917 304.631 522.2 302.981C520.483 301.331 519.471 299.081 519.376 296.702C520.785 296.175 522.875 296.236 524.939 296.296C525.595 296.315 526.248 296.333 526.875 296.333C530.949 296.333 534.25 299.222 534.25 302.786C534.25 303.57 534.089 304.322 533.798 305.017Z" fill="#B03E67"/>
<path d="M521.343 294.49H539.781V296.333C539.781 296.822 539.587 297.291 539.241 297.637C538.895 297.983 538.426 298.177 537.937 298.177H523.187C522.698 298.177 522.229 297.983 521.883 297.637C521.538 297.291 521.343 296.822 521.343 296.333V294.49Z" fill="white"/>
<path d="M526.875 280.662C526.875 279.134 525.636 277.896 524.109 277.896C522.582 277.896 521.343 279.134 521.343 280.662V282.505C521.343 284.033 522.582 285.271 524.109 285.271C525.636 285.271 526.875 284.033 526.875 282.505V280.662Z" fill="#1B0B47"/>
<path d="M545.312 280.662C545.312 279.134 544.074 277.896 542.547 277.896C541.019 277.896 539.781 279.134 539.781 280.662V282.505C539.781 284.033 541.019 285.271 542.547 285.271C544.074 285.271 545.312 284.033 545.312 282.505V280.662Z" fill="#1B0B47"/>
<path d="M516.734 283.427H513.047C511.519 283.427 510.281 284.665 510.281 286.193C510.281 287.72 511.519 288.958 513.047 288.958H516.734C518.261 288.958 519.5 287.72 519.5 286.193C519.5 284.665 518.261 283.427 516.734 283.427Z" fill="#FF859B"/>
<path d="M549.922 283.427H548.078C546.55 283.427 545.312 284.665 545.312 286.193C545.312 287.72 546.55 288.958 548.078 288.958H549.922C551.449 288.958 552.687 287.72 552.687 286.193C552.687 284.665 551.449 283.427 549.922 283.427Z" fill="#FF859B"/>
</g>
<rect x="470.531" y="216.021" width="109" height="109" rx="54.5" stroke="white" stroke-width="9"/>
<path d="M760.928 249.688H752.594V266.354H735.928V274.688H752.594V291.354H760.928V274.688H777.594V266.354H760.928V249.688ZM756.761 228.854C733.803 228.854 715.094 247.563 715.094 270.521C715.094 293.479 733.803 312.188 756.761 312.188C779.719 312.188 798.428 293.479 798.428 270.521C798.428 247.563 779.719 228.854 756.761 228.854ZM756.761 303.854C738.386 303.854 723.428 288.896 723.428 270.521C723.428 252.146 738.386 237.188 756.761 237.188C775.136 237.188 790.094 252.146 790.094 270.521C790.094 288.896 775.136 303.854 756.761 303.854Z" fill="#6E41E2"/>
<rect x="142" y="159.282" width="717" height="222.478" rx="27.8608" stroke="#4F4F4F" stroke-width="6.12821"/>
<rect x="0.5" y="0.5" width="999" height="540.872" rx="11.5" stroke="black"/>
<defs>
<clipPath id="clip0_1624_94845">
<rect x="194.239" y="211.521" width="118" height="118" rx="59" fill="white"/>
</clipPath>
<clipPath id="clip1_1624_94845">
<rect x="284.836" y="211.521" width="118" height="118" rx="59" fill="white"/>
</clipPath>
<clipPath id="clip2_1624_94845">
<rect x="375.434" y="211.521" width="118" height="118" rx="59" fill="white"/>
</clipPath>
<clipPath id="clip3_1624_94845">
<rect x="466.031" y="211.521" width="118" height="118" rx="59" fill="white"/>
</clipPath>
</defs>
</svg>
