<svg width="347" height="60" viewBox="0 0 347 60" fill="none" xmlns="http://www.w3.org/2000/svg">
<path fill-rule="evenodd" clip-rule="evenodd" d="M60.0864 30C60.0864 46.5577 46.6441 60 30.0864 60C13.5288 60 0.0864258 46.5577 0.0864258 30C0.0864258 13.4423 13.5288 0 30.0864 0C30.2732 0 30.4595 0.0016902 30.6455 0.00507061C18.175 0.271278 8.16335 10.8983 8.16335 24.0001C8.16335 36.8397 17.7785 47.3025 29.9002 47.9664C18.847 47.3308 10.0672 37.7254 10.0672 26.0193C10.0672 13.8462 19.4711 4.03846 31.0672 4.03846C42.6634 4.03846 52.0672 13.8462 52.0672 26.0193C52.0672 38.1248 42.6784 47.9839 31.0952 48H31.1249C43.8172 48 54.0865 37.2693 54.0865 24.0001C54.0865 12.9565 46.9734 3.67126 37.2702 0.867075C50.3635 4.08945 60.0864 15.9181 60.0864 30ZM30.0864 36.0001C37.8171 36.0001 44.1057 29.7115 44.1057 21.9808C44.1057 14.25 37.8171 7.96157 30.0864 7.96157C22.3556 7.96157 16.0672 14.25 16.0672 21.9808C16.0672 29.7115 22.3556 36.0001 30.0864 36.0001Z" fill="white"/>
<path d="M32.1057 35.9999C38.7403 35.9999 44.1057 30.173 44.1057 23.0192C44.1057 15.8076 38.7403 10.0384 32.1057 10.0384C25.471 10.0384 20.1056 15.8654 20.1056 23.0192C20.1056 23.3607 20.1179 23.6992 20.1418 24.0341C20.5778 18.367 24.8916 13.9615 30.0864 13.9615C35.6248 13.9615 40.0672 18.8654 40.0672 24.9808C40.0672 30.7378 36.1302 35.4212 31.048 35.9502C31.3965 35.9832 31.7492 35.9999 32.1057 35.9999Z" fill="white"/>
<path d="M35.5673 21.8077C34.6442 23.4231 32.7403 24.3462 31.4134 23.8846C30.0288 23.4231 29.7403 21.75 30.6634 20.1923C31.5865 18.5769 33.4903 17.6539 34.8173 18.1154C36.2019 18.5769 36.4903 20.25 35.5673 21.8077Z" fill="#FFFFFE"/>
<path d="M304.817 41.25C304.356 39.9231 304.125 38.1923 304.125 35.9423C304.125 33.6923 304.356 31.9616 304.817 30.6346C306.144 26.7693 309.663 24.6923 314.336 24.6923C317.798 24.6923 320.509 25.9616 322.298 28.0385C322.413 28.2116 322.471 28.5 322.24 28.6731L319.24 31.1539C319.01 31.327 318.779 31.2692 318.548 31.0385C317.394 29.8269 316.183 29.1346 314.279 29.1346C312.202 29.1346 310.644 30.0577 309.952 31.9616C309.548 33.0577 309.49 34.2692 309.49 35.9423C309.49 37.6154 309.606 38.8846 309.952 39.9808C310.644 41.8269 312.202 42.75 314.279 42.75C316.183 42.75 317.394 42.0577 318.548 40.8462C318.721 40.6154 318.952 40.6154 319.24 40.7885L322.24 43.2693C322.471 43.4423 322.413 43.6731 322.298 43.9039C320.509 45.9231 317.74 47.1923 314.336 47.1923C309.663 47.1923 306.144 45.0577 304.817 41.25ZM340.933 46.6731C340.586 46.6731 340.356 46.5577 340.183 46.2116L334.356 37.1539L331.24 40.5V46.1539C331.24 46.4423 331.067 46.6154 330.779 46.6154H326.394C326.106 46.6154 325.933 46.4423 325.933 46.1539V16.7308C325.933 16.4423 326.106 16.2693 326.394 16.2693H330.779C331.067 16.2693 331.24 16.4423 331.24 16.7308V34.2693L339.144 25.6154C339.433 25.3269 339.663 25.1539 340.067 25.1539H344.913C345.202 25.1539 345.317 25.4423 345.086 25.6154L337.817 33.4616L346.24 46.2693C346.356 46.4423 346.298 46.7308 346.009 46.7308H340.933V46.6731ZM84.721 42.0577H91.5287C94.7018 42.0577 96.4326 40.3846 96.4326 37.7885C96.4326 35.3077 94.6441 33.577 91.5287 33.577H84.721C84.548 33.577 84.4326 33.6923 84.4326 33.8654V41.7693C84.4326 41.9423 84.548 42.0577 84.721 42.0577ZM91.2403 28.9616C94.1249 28.9616 95.8557 27.3462 95.8557 24.9808C95.8557 22.5577 94.0672 20.9423 91.2403 20.9423H84.721C84.548 20.9423 84.4326 21.0577 84.4326 21.2308V28.6731C84.4326 28.8462 84.548 28.9616 84.721 28.9616H91.2403ZM78.8364 16.7308C78.8364 16.4423 79.0095 16.2693 79.298 16.2693H91.4134C98.2787 16.2693 101.567 19.5 101.567 24.3462C101.567 27.8077 99.8364 29.7693 97.8172 30.8077V30.9231C99.8364 31.6154 102.144 34.0385 102.144 37.7885C102.144 43.8462 98.1057 46.7308 90.9518 46.7308H79.298C79.0095 46.7308 78.8364 46.5577 78.8364 46.2693V16.7308ZM106.067 46.6731C105.779 46.6731 105.606 46.5 105.606 46.2116V25.5577C105.606 25.2693 105.779 25.0962 106.067 25.0962H110.452C110.74 25.0962 110.913 25.2693 110.913 25.5577V27.4039H110.971C112.067 25.7308 114.029 24.6346 116.971 24.6346C118.76 24.6346 120.606 25.3269 121.817 26.4231C122.048 26.6539 122.106 26.8269 121.933 27.0577L119.394 30.0577C119.221 30.2885 118.99 30.3462 118.702 30.1731C117.663 29.5385 116.567 29.1346 115.298 29.1346C112.298 29.1346 110.971 31.1539 110.971 34.6154V46.2693C110.971 46.5577 110.798 46.7308 110.509 46.7308H106.067V46.6731ZM136.529 39.9231C136.933 38.827 136.99 37.7885 136.99 35.9423C136.99 34.0962 136.875 33.1154 136.529 31.9616C135.836 30.1731 134.394 29.1346 132.202 29.1346C130.067 29.1346 128.51 30.1731 127.875 31.9616C127.471 33.1154 127.413 34.0962 127.413 35.9423C127.413 37.7885 127.529 38.827 127.875 39.9231C128.567 41.7116 130.067 42.75 132.202 42.75C134.394 42.6923 135.894 41.7116 136.529 39.9231ZM122.74 41.25C122.221 39.75 121.99 38.3077 121.99 35.9423C121.99 33.5769 122.221 32.1346 122.74 30.6346C124.01 26.8846 127.586 24.6923 132.26 24.6923C136.875 24.6923 140.452 26.8846 141.721 30.6346C142.24 32.1346 142.471 33.5769 142.471 35.9423C142.471 38.3077 142.24 39.75 141.721 41.25C140.452 45 136.875 47.1923 132.26 47.1923C127.586 47.1923 124.01 45 122.74 41.25ZM165.663 46.6731C165.375 46.6731 165.202 46.5 165.086 46.2116L160.644 32.4231H160.529L156.029 46.2116C155.913 46.5 155.74 46.6731 155.452 46.6731H151.529C151.24 46.6731 151.067 46.5 150.952 46.2116L143.683 25.5577C143.567 25.2693 143.74 25.0962 144.029 25.0962H148.644C148.99 25.0962 149.163 25.2116 149.279 25.5577L153.721 39.75H153.836L158.221 25.5577C158.336 25.2693 158.567 25.0962 158.856 25.0962H162.317C162.606 25.0962 162.836 25.2693 162.952 25.5577L167.625 39.75H167.74L171.952 25.5577C172.067 25.2693 172.24 25.0962 172.586 25.0962H177.202C177.49 25.0962 177.606 25.2693 177.548 25.5577L170.279 46.2116C170.163 46.5 169.99 46.6731 169.702 46.6731H165.663ZM178.356 43.7885C178.183 43.6154 178.183 43.3269 178.356 43.1539L181.067 40.5C181.24 40.327 181.529 40.327 181.759 40.5C183.433 41.9423 186.086 42.9808 188.51 42.9808C191.336 42.9808 192.779 41.8846 192.779 40.4423C192.779 39.1731 191.971 38.3654 188.971 38.077L186.49 37.8462C181.817 37.3846 179.394 35.1923 179.394 31.5C179.394 27.3462 182.567 24.6923 188.336 24.6923C191.913 24.6923 194.913 25.7885 196.99 27.3462C197.221 27.5193 197.221 27.8077 197.106 27.9808L194.74 30.6346C194.567 30.8654 194.336 30.8654 194.048 30.75C192.606 29.8269 190.298 28.9616 188.048 28.9616C185.74 28.9616 184.586 29.8846 184.586 31.2116C184.586 32.4808 185.394 33.2308 188.336 33.5193L190.817 33.75C195.663 34.2116 197.913 36.5193 197.913 40.0385C197.913 44.3077 194.567 47.3077 188.279 47.3077C183.49 47.1923 180.26 45.4616 178.356 43.7885ZM215.452 31.6731C214.817 29.9423 213.086 28.9039 210.952 28.9039C208.76 28.9039 207.029 29.9423 206.394 31.6731C206.221 32.1923 206.106 32.7693 206.106 33.5193C206.106 33.6923 206.221 33.8077 206.394 33.8077H215.452C215.625 33.8077 215.74 33.6923 215.74 33.5193C215.74 32.7693 215.683 32.1923 215.452 31.6731ZM201.548 41.1923C201.086 39.8077 200.74 38.1346 200.74 35.9423C200.74 33.6923 201.029 32.0193 201.49 30.6346C202.76 26.8846 206.336 24.6923 210.894 24.6923C215.625 24.6923 219.086 27 220.356 30.6346C220.875 32.1346 221.106 33.6346 221.106 37.0962C221.106 37.3846 220.933 37.5577 220.586 37.5577H206.394C206.221 37.5577 206.106 37.6731 206.106 37.8462C206.106 38.4808 206.221 39 206.452 39.5193C207.202 41.5962 209.048 42.8077 211.586 42.8077C214.183 42.8077 215.856 41.9423 217.01 40.7308C217.24 40.5 217.471 40.4423 217.702 40.6154L220.529 42.9231C220.76 43.0962 220.76 43.327 220.586 43.5577C218.625 45.6923 215.394 47.25 211.125 47.25C206.279 47.1923 202.875 44.9423 201.548 41.1923ZM225.144 46.6731C224.856 46.6731 224.683 46.5 224.683 46.2116V25.5577C224.683 25.2693 224.856 25.0962 225.144 25.0962H229.529C229.817 25.0962 229.99 25.2693 229.99 25.5577V27.4039H230.048C231.144 25.7308 233.106 24.6346 236.048 24.6346C237.836 24.6346 239.683 25.3269 240.894 26.4231C241.125 26.6539 241.183 26.8269 241.01 27.0577L238.471 30.0577C238.298 30.2885 238.067 30.3462 237.779 30.1731C236.74 29.5385 235.644 29.1346 234.375 29.1346C231.375 29.1346 230.048 31.1539 230.048 34.6154V46.2693C230.048 46.5577 229.875 46.7308 229.586 46.7308H225.144V46.6731ZM241.759 43.1539C241.586 42.9808 241.471 42.6923 241.644 42.4616L244.586 39.2308C244.759 39 245.048 39 245.279 39.1731C247.356 40.7308 250.471 42.4039 254.106 42.4039C257.971 42.4039 260.221 40.5577 260.221 38.0193C260.221 35.8269 258.779 34.3846 254.279 33.8077L252.548 33.577C246.317 32.7693 242.74 29.9423 242.74 24.9231C242.74 19.4423 247.067 15.75 253.702 15.75C257.74 15.75 261.606 16.9616 264.202 18.8077C264.433 18.9808 264.49 19.1539 264.317 19.4423L262.009 22.7308C261.836 22.9616 261.606 23.0193 261.317 22.8462C258.663 21.2308 256.24 20.4808 253.529 20.4808C250.24 20.4808 248.394 22.1539 248.394 24.577C248.394 26.6539 249.952 28.0962 254.394 28.6731L256.125 28.9039C262.356 29.7116 265.817 32.4808 265.817 37.7308C265.817 43.1539 261.663 47.1346 253.586 47.1346C248.913 47.1923 244.298 45.4039 241.759 43.1539ZM275.856 47.077C271.24 47.077 269.452 45 269.452 40.7885V29.4231C269.452 29.25 269.336 29.1346 269.163 29.1346H267.606C267.317 29.1346 267.144 28.9616 267.144 28.6731V25.6731C267.144 25.3846 267.317 25.2116 267.606 25.2116H269.163C269.336 25.2116 269.452 25.0962 269.452 24.9231V19.0385C269.452 18.75 269.625 18.5769 269.913 18.5769H274.298C274.586 18.5769 274.759 18.75 274.759 19.0385V24.9231C274.759 25.0962 274.875 25.2116 275.048 25.2116H278.106C278.394 25.2116 278.567 25.3846 278.567 25.6731V28.6731C278.567 28.9616 278.394 29.1346 278.106 29.1346H275.048C274.875 29.1346 274.759 29.25 274.759 29.4231V40.6154C274.759 42.1154 275.452 42.6346 276.894 42.6346H278.106C278.394 42.6346 278.567 42.8077 278.567 43.0962V46.6731C278.567 46.9616 278.394 47.1346 278.106 47.1346H275.856V47.077ZM295.529 39.4616V37.7885C295.529 37.6154 295.413 37.5 295.24 37.5H291.433C287.971 37.5 286.471 38.3654 286.471 40.3846C286.471 42.1731 287.856 43.0385 290.452 43.0385C293.74 43.0962 295.529 41.8846 295.529 39.4616ZM296.106 46.6731C295.817 46.6731 295.644 46.5 295.644 46.2116V44.6539H295.586C294.49 46.1539 292.356 47.1346 289.067 47.1346C284.856 47.1346 281.336 45.0577 281.336 40.5577C281.336 35.8846 284.856 33.6923 290.567 33.6923H295.24C295.413 33.6923 295.529 33.5769 295.529 33.4039V32.3654C295.529 29.8846 294.26 28.7885 290.394 28.7885C287.798 28.7885 286.24 29.4808 285.144 30.2885C284.913 30.4616 284.625 30.4039 284.452 30.1731L282.663 27.2308C282.548 27 282.548 26.7693 282.779 26.6539C284.625 25.3846 287.163 24.577 290.971 24.577C298.01 24.577 300.548 26.827 300.548 32.077V46.1539C300.548 46.4423 300.375 46.6154 300.086 46.6154H296.106V46.6731Z" fill="white"/>
</svg>
