<svg width="343" height="50" viewBox="0 0 343 50" fill="none" xmlns="http://www.w3.org/2000/svg">
<path d="M43.4444 12.3169L31.9382 5.67469C31.6767 5.51778 31.3628 5.62239 31.2059 5.88389C31.1536 5.93619 31.1536 6.0408 31.1536 6.1454V13.886C31.1536 14.0952 31.2582 14.2521 31.4151 14.3567L36.0177 16.9718C36.1746 17.0764 36.2792 17.2333 36.2792 17.4425L36.1746 32.7144C36.1746 32.9236 36.07 33.0805 35.9131 33.1851L27.0741 38.1538C26.8126 38.3107 26.4988 38.2061 26.3419 37.9446C26.2896 37.8923 26.2896 37.7877 26.2896 37.6831V29.4718C26.2896 29.3149 26.185 29.1056 26.0281 29.001L24.3545 28.0073C24.1976 27.9027 23.9884 27.9027 23.8315 28.0073L18.1829 31.1977C18.026 31.3023 17.9214 31.4592 17.9214 31.6684V47.4111C17.9214 47.6203 18.026 47.7772 18.1829 47.8818L21.7394 49.9216C21.8963 50.0261 22.1055 50.0261 22.2624 49.9216L43.4444 37.6831C43.6013 37.5785 43.7059 37.4216 43.7059 37.2123V12.7877C43.7059 12.5785 43.6013 12.4215 43.4444 12.3169Z" fill="white"/>
<path d="M18.1829 21.1559L19.6997 22.045C19.8566 22.1496 20.0658 22.1496 20.2227 22.045L25.9235 18.6977C26.0804 18.5931 26.185 18.4362 26.185 18.227V2.69351C26.185 2.48431 26.0804 2.32741 25.9235 2.2228L22.2624 0.0784519C22.1055 -0.0261506 21.8963 -0.0261506 21.7394 0.0784519L0.557405 12.3169C0.400501 12.4215 0.295898 12.6308 0.295898 12.7877V37.2123C0.295898 37.4216 0.400501 37.5785 0.557405 37.6831L12.2206 44.4299C12.4821 44.5868 12.7959 44.4822 12.9528 44.2207C13.0051 44.1161 13.0051 44.0638 13.0051 43.9592V36.2186C13.0051 36.0094 12.9005 35.8525 12.7436 35.7479L8.14109 33.0805C7.98418 32.9759 7.87958 32.819 7.87958 32.6098L7.98418 17.5471C7.98418 17.3379 8.08879 17.181 8.24569 17.0764L17.0846 11.8985C17.3461 11.7416 17.6599 11.8462 17.8168 12.1077C17.8691 12.2123 17.8691 12.2646 17.8691 12.3692L17.9214 20.6851C17.9214 20.8944 18.026 21.0513 18.1829 21.1559Z" fill="white"/>
<path d="M134.449 41.0826V8.86506H142.608V41.0826H134.449Z" fill="white"/>
<path d="M113.371 15.9257C118.392 15.9257 122.419 20.0052 122.419 24.9739C122.419 29.9425 118.34 34.022 113.371 34.022C108.35 34.022 104.323 29.9425 104.323 24.9739C104.323 19.9529 108.35 15.9257 113.371 15.9257ZM113.371 8.23745C104.114 8.23745 96.6348 15.7165 96.6348 24.9739C96.6348 34.2312 104.114 41.7103 113.371 41.7103C122.629 41.7103 130.108 34.2312 130.108 24.9739C130.108 15.7165 122.629 8.23745 113.371 8.23745Z" fill="white"/>
<path d="M171.53 8.86506V32.9759H170.903L161.227 8.86506H148.256V41.1349H155.892V17.0241H156.415L166.195 41.1349H179.166V8.86506H171.53Z" fill="white"/>
<path d="M77.0742 34.0743C72.0532 34.0743 67.9737 30.0471 67.9737 25.0262C67.9737 20.0052 72.0009 15.9257 77.0218 15.9257C80.7352 15.9257 84.0825 18.1747 85.4946 21.5743H93.3921C91.5616 12.4739 82.6704 6.61611 73.57 8.44665C64.4695 10.2772 58.6118 19.1684 60.4423 28.2688C62.2729 37.3692 71.1641 43.227 80.2645 41.3964C86.9591 40.0366 92.1369 34.8065 93.3921 28.1119H85.547C84.2394 31.6684 80.8398 34.0743 77.0742 34.0743Z" fill="white"/>
<path d="M213.737 41.0826H205.578V28.3734H192.974V41.0826H184.815V8.86506H192.974V21.3651H205.578V8.86506H213.737V41.0826Z" fill="white"/>
<path d="M234.919 8.28975C225.401 8.28975 217.66 15.6642 217.66 25.0262C217.66 34.3881 225.348 41.7103 234.919 41.7103C244.49 41.7103 252.126 34.4404 252.126 25.0262C252.126 15.6119 244.386 8.28975 234.919 8.28975ZM234.919 34.3881C229.898 34.3881 225.924 30.3086 225.924 24.9739C225.924 19.6391 229.898 15.5596 234.919 15.5596C239.94 15.5596 243.915 19.6914 243.915 24.9739C243.915 30.2563 239.94 34.3881 234.919 34.3881Z" fill="white"/>
<path d="M284.919 26.5952C284.919 35.8525 279.114 41.7103 270.484 41.7103C261.593 41.7103 255.683 35.8525 255.683 26.5952V8.86506H263.894V26.3337C263.894 31.1977 266.509 34.0743 270.484 34.0743C274.198 34.0743 276.76 31.1977 276.76 26.3337V8.86506H284.919V26.5952Z" fill="white"/>
<path d="M314.156 17.4948L306.206 19.1161C305.526 15.8734 303.329 14.932 301.394 14.932C299.459 14.932 297.942 15.9257 297.942 17.704C297.942 18.9592 298.622 19.796 300.034 20.2144L306.311 22.2019C311.593 23.9278 314.47 26.386 314.47 31.4069C314.47 38.6245 308.141 41.7103 301.813 41.7103C294.804 41.7103 289.156 38.0492 288.319 31.8776L296.687 30.204C297.367 33.3944 299.25 34.7542 302.074 34.7542C304.428 34.7542 305.892 33.6559 305.892 31.9822C305.892 30.727 305.212 29.8379 303.434 29.3672L297.472 27.6412C292.608 26.2291 289.313 23.7709 289.313 18.5408C289.313 11.9508 294.49 8.39435 301.499 8.39435C308.141 8.28975 313.11 11.4801 314.156 17.4948Z" fill="white"/>
<path d="M342.346 41.0826H318.34V8.86506H342.085V15.8734H326.447V21.7312H340.986V28.2688H326.447V34.0743H342.346V41.0826Z" fill="white"/>
</svg>
