<svg width="287" height="40" viewBox="0 0 287 40" fill="none" xmlns="http://www.w3.org/2000/svg">
<path d="M0.559082 37.0149H35.186L33.1959 39.801H0.559082V37.0149Z" fill="white"/>
<path d="M243.743 39.801L245.932 37.0149H286.33V39.801H243.743Z" fill="white"/>
<path d="M0.559082 31.8408H39.166L36.977 34.6269H0.559082V31.8408Z" fill="white"/>
<path d="M0.559082 26.6667H43.1461L40.9571 29.4527H0.559082V26.6667Z" fill="white"/>
<path d="M247.723 34.6269L249.912 31.8408H286.33V34.6269H247.723Z" fill="white"/>
<path d="M253.693 26.6667H286.131V29.4527H251.504L253.693 26.6667Z" fill="white"/>
<path d="M37.972 39.801L56.2805 15.3234C56.2805 15.3234 76.579 15.3234 78.9671 15.3234C81.5541 15.3234 81.5541 16.3184 80.1611 17.9104C78.967 19.5025 76.778 22.4876 75.584 24.0796C74.987 25.0746 73.7929 26.4677 77.574 26.4677C81.7531 26.4677 108.022 26.4677 108.022 26.4677C105.634 30.0497 97.2755 40 82.5491 40C70.6088 39.801 37.972 39.801 37.972 39.801Z" fill="white"/>
<path d="M142.848 26.6667L132.897 40H106.828L116.778 26.6667H142.848Z" fill="white"/>
<path d="M180.858 26.6667L170.907 40H144.639L154.589 26.6667H180.858Z" fill="white"/>
<path d="M189.415 26.6667C189.415 26.6667 187.425 29.2537 186.629 30.4478C183.246 34.8259 186.231 40 196.977 40C209.315 40 239.166 40 239.166 40L249.116 26.6667H189.415Z" fill="white"/>
<path d="M50.9073 0.199005L41.7531 12.3383C41.7531 12.3383 88.9173 12.3383 91.5044 12.3383C94.0914 12.3383 94.0914 13.3333 92.6984 14.9254C91.5044 16.5174 89.3153 19.5025 88.1213 21.0945C87.5243 21.8905 86.3302 23.4826 90.1113 23.4826C94.2904 23.4826 110.41 23.4826 110.41 23.4826C110.41 23.4826 113.793 19.1045 116.38 15.3234C120.161 10.3483 116.778 0 103.445 0C91.5044 0.199005 50.9073 0.199005 50.9073 0.199005Z" fill="white"/>
<path d="M183.047 23.4826H118.967L136.48 0.199005H162.748L152.798 13.5323H164.539L174.489 0.199005H200.758L183.047 23.4826Z" fill="white"/>
<path d="M236.977 0.199005L219.465 23.4826H191.604L209.116 0.199005H236.977Z" fill="white"/>
</svg>
