<svg width="327" height="56" viewBox="0 0 327 56" fill="none" xmlns="http://www.w3.org/2000/svg">
<path d="M27.5332 55.5V44.7995C38.8781 44.7995 47.6292 33.6141 43.2553 21.7777C42.4594 19.5808 41.1904 17.5856 39.5382 15.9334C37.8859 14.2811 35.8907 13.0122 33.6938 12.2163C31.144 11.2575 28.4002 10.9292 25.6962 11.2593C22.9921 11.5893 20.4079 12.5681 18.1636 14.1121C15.9193 15.6561 14.0815 17.7197 12.8065 20.1271C11.5316 22.5344 10.8574 25.2143 10.8413 27.9384H0.144043C0.144043 10.1042 17.4868 -4.00049 36.447 1.83794C40.5216 3.11778 44.2265 5.36345 47.2461 8.38367C50.2658 11.4039 52.5107 15.1092 53.7898 19.184C59.625 38.154 45.5236 55.5 27.5332 55.5Z" fill="white"/>
<path d="M27.6959 44.7995H16.9987V34.2617H27.6959M16.9987 53.069H8.89517V44.7995H16.9987V53.069ZM8.89517 44.7995H2.09669V37.9912H8.89517M97.8741 16.4275C94.7955 14.3186 90.7437 13.1731 86.2038 13.1731H76.3201V44.7865H86.2071C90.7459 44.7865 94.636 43.6518 97.8774 41.3823C99.6478 40.0944 101.046 38.3607 101.929 36.3575C102.905 34.2487 103.387 31.6549 103.387 28.8984C103.387 26.1419 102.902 23.5481 101.929 21.602C100.953 19.184 99.6576 17.5633 97.8741 16.4275ZM82.1553 18.5363H85.234C88.6381 18.5363 91.5541 19.1872 93.8224 20.6452C96.2534 22.1032 97.4023 24.8759 97.4023 28.9147C97.4023 32.9534 96.1005 35.8856 93.8224 37.5063C91.7168 38.8081 88.9603 39.6152 85.3935 39.6152H82.1553V18.5363ZM110.355 12.7012C109.904 12.6891 109.456 12.7696 109.038 12.9375C108.62 13.1054 108.241 13.3573 107.924 13.6775C107.554 13.9629 107.259 14.3324 107.061 14.7553C106.864 15.1782 106.77 15.6422 106.788 16.1086C106.788 17.0114 107.147 17.8772 107.785 18.5156C108.423 19.154 109.289 19.5127 110.192 19.5127C111.095 19.5127 111.961 19.154 112.599 18.5156C113.238 17.8772 113.596 17.0114 113.596 16.1086C113.608 15.6581 113.528 15.2101 113.36 14.792C113.192 14.3739 112.94 13.9946 112.62 13.6775C112.135 13.0266 111.318 12.7012 110.342 12.7012M107.413 22.4286H113.085V44.64H107.436V22.4286M133.367 24.3813C131.74 22.9233 129.787 21.9502 127.694 21.9502C126.266 21.9188 124.847 22.1928 123.533 22.7541C122.219 23.3154 121.041 24.1509 120.076 25.2046C118.051 27.3489 116.946 30.2002 116.997 33.1487C116.997 36.2306 117.973 38.9838 119.926 41.0927C121.879 43.2016 124.463 44.1746 127.545 44.1746C129.528 44.2057 131.466 43.5786 133.054 42.3912V42.8761C133.054 44.6595 132.569 46.1305 131.596 47.1069C130.623 48.0832 129.318 48.5648 127.545 48.5648C124.941 48.5648 123.33 47.5885 121.387 44.8353L117.482 48.5648L117.645 48.7276C118.455 49.8633 119.75 51.0056 121.371 52.1317C122.992 53.2577 125.097 53.7589 127.528 53.7589C130.933 53.7589 133.526 52.7826 135.469 50.677C137.412 48.5713 138.548 45.9743 138.548 42.5702V22.4286H133.045V24.3813H133.37M131.912 37.5128C130.936 38.6486 129.634 39.1401 128.007 39.1401C126.38 39.1401 125.078 38.6551 124.101 37.5128C123.125 36.3705 122.644 34.9093 122.644 33.1357C122.644 31.362 123.161 29.8845 124.137 28.7487C125.114 27.6129 126.415 27.1215 128.043 27.1215C129.67 27.1215 130.972 27.6064 131.948 28.7487C132.924 29.891 133.406 31.3522 133.406 33.1259C133.406 34.8995 132.921 36.3803 131.948 37.5031M143.778 22.4254H149.45V44.6368H143.742V22.4286M146.498 12.7012C146.048 12.69 145.601 12.7704 145.183 12.9376C144.765 13.1047 144.385 13.355 144.066 13.6734C143.748 13.9917 143.498 14.3715 143.331 14.7895C143.163 15.2076 143.083 15.6552 143.094 16.1053C143.094 17.0081 143.453 17.874 144.091 18.5124C144.73 19.1508 145.596 19.5094 146.498 19.5094C147.401 19.5094 148.267 19.1508 148.905 18.5124C149.544 17.874 149.902 17.0081 149.902 16.1053C149.914 15.6549 149.833 15.207 149.666 14.7887C149.499 14.3704 149.248 13.9906 148.929 13.6722C148.61 13.3538 148.23 13.1035 147.812 12.9366C147.393 12.7697 146.945 12.6896 146.495 12.7012M161.563 16.4275H156.06V22.4286H152.805V27.4534H156.06V36.696C156.06 39.625 156.711 41.7208 157.843 42.8566C158.976 43.9924 161.098 44.64 163.841 44.64C164.763 44.6667 165.685 44.6123 166.598 44.4773H166.923V39.4492L164.97 39.6119C163.669 39.6119 162.692 39.4492 162.367 38.9611C161.882 38.4762 161.716 37.5031 161.716 36.0321V27.6162H166.904V22.5881H161.732L161.563 16.4275ZM193.004 13.1731H198.676V44.7865H193.01V13.1926M255.248 36.862C254.419 37.8205 253.496 38.6928 252.491 39.4655C251.609 40.0007 250.595 40.2812 249.562 40.2758C248.802 40.2692 248.052 40.106 247.357 39.7964C246.663 39.4867 246.04 39.0373 245.527 38.4762C244.391 37.1744 243.9 35.7197 243.9 33.7735C243.9 31.8274 244.385 30.3694 245.527 29.0709C246.019 28.4815 246.641 28.0139 247.344 27.7045C248.047 27.3951 248.812 27.2524 249.579 27.2875C251.362 27.2875 253.305 28.4233 254.926 30.3694L258.652 26.7895C256.221 23.7076 253.142 22.2496 249.413 22.2496C246.334 22.2496 243.74 23.3854 241.472 25.6538C239.349 27.8797 238.181 30.8476 238.218 33.9232C238.218 37.1776 239.353 40.0838 241.472 42.1927C242.48 43.2888 243.709 44.1589 245.078 44.7457C246.446 45.3324 247.924 45.6225 249.413 45.5968C253.465 45.5968 256.706 43.8134 258.974 40.572L255.248 36.8424M278.1 25.657C277.247 24.5335 276.129 23.639 274.846 23.0535C273.375 22.3722 271.767 22.0382 270.147 22.0772C267.068 22.0772 264.474 23.2129 262.528 25.4813C260.686 27.8391 259.713 30.7594 259.772 33.7507C259.772 37.1549 260.748 39.9113 262.85 42.0202C264.953 44.1291 267.55 45.2746 270.954 45.2746C274.68 45.2746 277.762 43.8166 280.193 40.7347L280.356 40.572L276.629 36.9921C276.304 37.477 275.819 37.8025 275.328 38.2939C274.868 38.7787 274.314 39.1651 273.7 39.4297C272.857 39.8916 271.905 40.1165 270.944 40.0806C269.532 40.101 268.156 39.6421 267.039 38.7788C266.062 37.9685 265.581 36.8262 265.411 35.3747H280.323V33.2658C280.359 31.8281 280.139 30.3954 279.672 29.0351C279.435 27.7782 278.874 26.6048 278.045 25.631M265.945 30.8576C266.193 29.8764 266.696 28.9782 267.403 28.254C267.786 27.8722 268.244 27.5741 268.748 27.3786C269.253 27.1831 269.792 27.0945 270.332 27.1182C271.634 27.1182 272.763 27.4437 273.411 28.254C274.062 28.9049 274.387 29.8812 274.547 30.8576H265.945ZM299.658 24.2088C298.03 22.7508 295.606 22.0999 292.69 22.0999C290.907 22.1505 289.149 22.5369 287.509 23.239C286.051 24.0493 284.58 25.1916 283.783 26.8188L287.362 30.223C288.82 27.7919 290.441 26.9685 292.709 26.9685C293.77 26.9404 294.807 27.286 295.638 27.9449C296.008 28.2303 296.304 28.5998 296.501 29.0227C296.699 29.4455 296.792 29.9095 296.774 30.3759V31.5117C295.469 31.0714 294.1 30.8514 292.723 30.8608C289.967 30.8608 287.698 31.5117 285.914 32.8135C284.131 34.1152 283.311 36.0679 283.311 38.3264C283.311 40.4353 283.962 42.056 285.416 43.3513C286.871 44.6465 288.671 45.1347 290.763 45.1347C292.856 45.1347 294.815 44.3243 296.761 42.8566V44.64H302.271V30.3727C302.271 27.7691 301.461 25.67 299.667 24.212M289.781 36.2078C290.431 35.7229 291.238 35.5569 292.384 35.5569C293.823 35.6054 295.245 35.8789 296.599 36.3673V38.4762C295.257 39.6565 293.523 40.2926 291.736 40.2596C290.76 40.2596 289.953 40.0969 289.458 39.6087C288.964 39.1205 288.648 38.6324 288.648 37.9815C288.705 37.6223 288.836 37.2788 289.031 36.972C289.226 36.6653 289.483 36.4018 289.784 36.1981M323.805 24.5342C322.178 22.7508 320.079 21.9307 317.323 21.9307C315.053 21.9307 313.271 22.5816 311.976 23.8834V22.5816H306.463V44.793H312.135V32.4783C312.135 30.8511 312.461 29.3963 313.271 28.4265C313.668 27.953 314.167 27.5758 314.73 27.3233C315.294 27.0707 315.908 26.9494 316.525 26.9685C317.081 26.9414 317.636 27.0451 318.145 27.2712C318.653 27.4973 319.102 27.8395 319.454 28.2703C320.215 29.3066 320.615 30.5646 320.59 31.8502V44.819H326.236V31.8306C326.074 28.7498 325.263 26.3177 323.805 24.5342ZM186.043 24.2088C184.416 22.7508 181.991 22.0999 179.075 22.0999C177.29 22.1486 175.53 22.534 173.888 23.2357C172.43 24.0461 170.959 25.1884 170.161 26.8156L173.741 30.2197C175.199 27.7887 176.82 26.9653 179.088 26.9653C180.149 26.9372 181.185 27.2828 182.017 27.9416C182.386 28.227 182.682 28.5965 182.88 29.0194C183.077 29.4423 183.171 29.9063 183.153 30.3727V31.5084C181.848 31.0681 180.478 30.8482 179.101 30.8576C176.346 30.8576 174.076 31.5084 172.293 32.8102C170.509 34.112 169.689 36.0646 169.689 38.3232C169.689 40.4321 170.34 42.0528 171.795 43.348C173.25 44.6433 175.049 45.1314 177.142 45.1314C179.235 45.1314 181.194 44.3211 183.14 42.8533V44.6368H188.65V30.3727C188.65 27.7691 187.673 25.67 186.046 24.212M175.996 36.2078C176.647 35.7229 177.454 35.5569 178.6 35.5569C180.038 35.6054 181.46 35.8789 182.814 36.3673V38.4762C181.473 39.6565 179.739 40.2926 177.952 40.2596C176.976 40.2596 176.169 40.0969 175.674 39.6087C175.18 39.1205 174.864 38.6324 174.864 37.9815C175.106 37.3104 175.494 36.7013 176 36.1981M218.958 45.2779C215.751 45.2792 212.616 44.3294 209.948 42.5486C207.281 40.7678 205.202 38.236 203.974 35.2735C202.746 32.311 202.424 29.0508 203.049 25.9053C203.674 22.7597 205.217 19.8702 207.484 17.602C209.752 15.3339 212.641 13.789 215.786 13.1629C218.931 12.5368 222.192 12.8575 225.155 14.0844C228.118 15.3114 230.65 17.3895 232.432 20.056C234.214 22.7224 235.165 25.8574 235.165 29.0644C235.149 33.3586 233.437 37.4726 230.401 40.5097C227.365 43.5468 223.252 45.2607 218.958 45.2779ZM218.958 18.3671C216.873 18.3639 214.835 18.979 213.1 20.1347C211.365 21.2903 210.012 22.9346 209.211 24.8595C208.411 26.7843 208.2 28.9033 208.604 30.9484C209.008 32.9934 210.01 34.8726 211.482 36.3482C212.955 37.8238 214.832 38.8296 216.876 39.2382C218.92 39.6469 221.039 39.4401 222.966 38.644C224.893 37.8479 226.54 36.4982 227.699 34.7658C228.859 33.0334 229.478 30.996 229.479 28.9114C229.482 27.527 229.212 26.1556 228.684 24.876C228.155 23.5963 227.38 22.4336 226.401 21.4545C225.422 20.4755 224.26 19.6993 222.98 19.1706C221.701 18.6419 220.329 18.371 218.945 18.3736" fill="white"/>
</svg>
