<svg width="255" height="56" viewBox="0 0 255 56" fill="none" xmlns="http://www.w3.org/2000/svg">
<path d="M22.4919 28.0127H33.5294V36.1087C30.4928 38.2774 26.8438 39.4213 23.1126 39.374C14.288 39.3605 8.43193 32.8838 8.43193 23.9378V23.8163C8.43193 15.5585 14.4769 8.59595 22.4244 8.59595C24.6542 8.52523 26.8758 8.89792 28.9604 9.69239C31.0451 10.4869 32.9512 11.6873 34.5684 13.2241L39.3315 7.47601C34.8922 3.71139 30.264 1.60645 22.7348 1.60645C19.7957 1.57188 16.8796 2.1264 14.1584 3.23727C11.4371 4.34813 8.96602 5.99284 6.89083 8.07433C4.81563 10.1558 3.1784 12.6319 2.07577 15.3565C1.05458 17.8798 0.511101 20.5689 0.470911 23.287C0.467706 23.5038 0.467702 23.7207 0.470911 23.9378V24.0592C0.470911 36.6484 9.34947 46.2691 22.8562 46.2691C29.4771 46.2621 35.8732 43.8665 40.8697 39.5225V21.4145H22.4919V28.0127Z" fill="white"/>
<path d="M58.0331 12.5225C53.7473 12.4577 49.5041 13.3811 45.6328 15.2211L47.6973 21.2256C50.6217 19.8955 53.795 19.2011 57.0076 19.1881C62.189 19.1881 65.0226 21.6574 65.0226 26.1642V26.7714C62.1184 25.8248 59.0767 25.3688 56.0226 25.422C48.4394 25.422 42.8262 28.8763 42.8262 36.0952V36.2166C42.8262 42.7608 48.2235 46.2691 54.4169 46.2691C56.4155 46.3392 58.4039 45.9541 60.2319 45.143C62.0599 44.3319 63.6796 43.1159 64.9686 41.5869V45.6349H72.3764V26.2856C72.3764 17.5825 67.6808 12.5225 58.0601 12.5225M65.1575 33.8148C65.1575 37.8628 61.4469 40.6559 56.5219 40.6559C53.0001 40.6559 50.2205 38.9288 50.2205 35.8388V35.7174C50.2205 32.5734 53.0001 30.6574 57.6823 30.6574C60.2347 30.6564 62.7666 31.1134 65.1575 32.0067V33.8148Z" fill="white"/>
<path d="M84.0211 13.0622H76.5593V45.6349H84.0211V13.0622Z" fill="white"/>
<path d="M84.264 0.972264H76.249V8.06971H84.264V0.972264Z" fill="white"/>
<path d="M95.9761 27.2571C95.9761 22.1971 98.9986 19.1612 103.316 19.1612C107.634 19.1612 110.292 22.0622 110.292 27.1087V45.6349H117.754V24.9093C117.754 17.3261 113.504 12.3876 106.15 12.3876C104.101 12.3711 102.083 12.8919 100.298 13.8981C98.5133 14.9043 97.023 16.3607 95.9761 18.1222V13.0622H88.5144V45.6349H95.9761V27.2571Z" fill="white"/>
<path d="M132.853 40.3456C128.954 40.1718 125.214 38.7531 122.18 36.2976L118.847 41.3576C122.802 44.4708 127.672 46.1967 132.705 46.2691C139.451 46.2691 144.849 42.8823 144.849 36.0277V35.9063C144.849 30.0502 139.451 27.8913 134.742 26.461C134.521 26.3888 134.301 26.3175 134.083 26.2468C130.432 25.0624 127.307 24.0491 127.307 21.8463V21.7249C127.307 19.8088 128.967 18.446 131.868 18.446C135.148 18.6591 138.315 19.7242 141.057 21.536L144.012 16.2331C140.456 13.8947 136.312 12.6084 132.057 12.5225C125.58 12.5225 120.453 16.2871 120.453 22.467V22.5884C120.453 28.8088 125.85 30.7923 130.627 32.1417C130.722 32.1708 130.817 32.1998 130.912 32.2286C131.074 32.2781 131.236 32.3271 131.397 32.3758C134.91 33.4398 137.913 34.3495 137.913 36.7024V36.8373C137.913 38.9962 136.065 40.3456 132.853 40.3456Z" fill="white"/>
<path d="M154.591 0.864318H146.576V7.96177H154.591V0.864318Z" fill="white"/>
<path d="M146.886 13.0622V45.6349H154.348V13.0622H146.886Z" fill="white"/>
<path d="M183.075 17.8388C181.741 16.0825 180.013 14.6644 178.03 13.6987C176.047 12.7331 173.865 12.247 171.66 12.2796C168.07 12.2261 164.586 13.5011 161.879 15.8597C159.172 18.2182 157.431 21.4941 156.993 25.0577C156.873 25.8936 156.81 26.7366 156.804 27.5809V27.7024C156.725 30.087 157.222 32.4554 158.253 34.607C159.285 36.7585 160.819 38.6298 162.727 40.0622C163.234 40.4205 163.761 40.7494 164.306 41.0472L164.697 41.2496L176.301 36.2706C175.858 36.3937 175.407 36.4884 174.952 36.554C174.504 36.6103 174.054 36.6418 173.603 36.6484H172.942C172.511 36.6219 172.083 36.5678 171.66 36.4865C169.886 36.1722 168.246 35.3359 166.951 34.0847C166.425 33.5521 165.972 32.9534 165.601 32.3036C165.48 32.0877 165.372 31.8718 165.264 31.6559C164.942 30.9691 164.711 30.2434 164.576 29.497C164.57 29.4162 164.57 29.3349 164.576 29.2541C164.494 28.7319 164.453 28.204 164.454 27.6754V27.4865C164.45 26.8436 164.509 26.2019 164.63 25.5705C164.63 25.4482 164.669 25.3316 164.708 25.2169C164.729 25.1545 164.75 25.0926 164.765 25.0307C164.871 24.6214 165.006 24.2201 165.169 23.8298C165.397 23.2951 165.677 22.7844 166.006 22.3051C166.669 21.3604 167.519 20.5614 168.502 19.9573C170.08 19.0348 171.883 18.5678 173.711 18.6079C175.472 18.6204 177.2 19.085 178.73 19.9573L179.297 20.2946C179.694 20.5563 180.073 20.8448 180.43 21.1582C181.084 21.7537 181.644 22.4452 182.09 23.2091C182.238 23.4675 182.373 23.7332 182.495 24.0052C182.662 24.3768 182.802 24.7601 182.913 25.1522C183.142 25.9739 183.26 26.8225 183.264 27.6754V27.7968C183.259 28.5672 183.155 29.3336 182.954 30.0772C182.733 30.9223 182.383 31.728 181.915 32.4655C181.78 32.6679 181.645 32.8703 181.496 33.0592C181.197 33.4399 180.867 33.7963 180.511 34.1252L179.958 34.5974C179.847 34.6965 179.732 34.7912 179.613 34.8814C179.571 34.9133 179.529 34.9445 179.486 34.9752L179.054 35.2451L190.537 30.1851V12.9543H183.075V17.8388Z" fill="white"/>
<path d="M202.208 24.9363C202.281 24.5798 202.375 24.2283 202.492 23.8838C202.935 22.452 203.835 21.2052 205.056 20.3351C205.651 19.9139 206.312 19.5946 207.012 19.3905C207.761 19.1698 208.539 19.0607 209.319 19.0667C209.629 19.0458 209.94 19.0458 210.25 19.0667C210.812 19.1213 211.365 19.2436 211.897 19.431C212.151 19.5181 212.398 19.6217 212.639 19.7414C212.897 19.8662 213.145 20.0105 213.381 20.1732C213.42 20.2163 213.465 20.2528 213.516 20.2811L221.612 16.8133V16.7459C221.504 16.584 221.409 16.422 221.288 16.2736C220.204 14.9308 218.816 13.864 217.24 13.1604C215.664 12.4568 213.944 12.1365 212.22 12.2256C210.152 12.2069 208.116 12.7349 206.318 13.7562C204.519 14.7774 203.023 16.2556 201.979 18.0412V0.5H194.517V28.485L202.168 25.2061" fill="white"/>
<path d="M234.7 4.00824H227.238V14.2226L234.7 11.0787V4.00824Z" fill="white"/>
<path d="M177.799 35.7713C177.33 35.9717 176.848 36.1385 176.355 36.2706L164.751 41.2496C166.886 42.3553 169.255 42.9337 171.66 42.9363C173.921 42.9622 176.153 42.4274 178.157 41.3796C180.161 40.3317 181.874 38.8036 183.143 36.9318V39.455C183.235 41.6471 182.661 43.8158 181.496 45.6754C179.823 48.1581 176.895 49.4535 172.834 49.4535C168.716 49.4552 164.688 48.2547 161.243 45.9992L158.463 51.6124C162.872 54.2082 167.906 55.5518 173.023 55.4985C178.879 55.4985 183.439 54.0817 186.408 51.1132C187.888 49.5962 188.98 47.7448 189.592 45.7159C190.254 43.497 190.573 41.19 190.537 38.8748V30.1851L179.613 34.8814L178.987 35.1507C178.595 35.38 178.204 35.5824 177.799 35.7713Z" fill="white"/>
<path d="M213.516 20.3351C214.246 20.9072 214.854 21.62 215.303 22.4312C215.753 23.2424 216.035 24.1355 216.133 25.0577C216.238 25.7093 216.292 26.3679 216.295 27.0277V45.527H223.757V24.7878C223.844 21.9852 223.087 19.2211 221.585 16.8538L213.516 20.3351Z" fill="white"/>
<path d="M194.517 45.527H201.979V27.1492C201.977 26.4968 202.04 25.8459 202.168 25.2061L194.517 28.485V45.527Z" fill="white"/>
<path d="M254.144 3.68441V2.94228L238.33 9.55397L227.238 14.2226V36.527C227.238 42.1132 229.613 44.7983 233.27 45.7024C234.366 45.9643 235.49 46.0912 236.616 46.0802C237.774 46.0889 238.929 45.9621 240.057 45.7024C241.211 45.4181 242.316 44.9633 243.336 44.3531V38.2811C241.91 39.0211 240.327 39.4053 238.721 39.401C236.184 39.401 234.673 38.2271 234.673 35.3531V19.1612L254.063 11.0652L254.144 3.68441Z" fill="white"/>
<path fill-rule="evenodd" clip-rule="evenodd" d="M0.470911 23.287V24.0592C0.470911 36.6484 9.34947 46.2691 22.8562 46.2691C29.4771 46.2621 35.8732 43.8665 40.8697 39.5225V21.4145H22.4919V28.0127H33.5294V36.1087C30.4928 38.2774 26.8438 39.4213 23.1126 39.374C14.288 39.3605 8.43193 32.8838 8.43193 23.9378V23.8163C8.43193 15.5585 14.4769 8.59595 22.4244 8.59595C24.6542 8.52523 26.8758 8.89792 28.9604 9.69239C31.0451 10.4869 32.9512 11.6873 34.5684 13.2241L39.3315 7.47601C34.8922 3.71139 30.264 1.60645 22.7348 1.60645C19.7957 1.57188 16.8796 2.1264 14.1584 3.23727C11.4371 4.34813 8.96602 5.99284 6.89083 8.07433C4.81563 10.1558 3.1784 12.6319 2.07577 15.3565C1.05458 17.8798 0.511101 20.5689 0.470911 23.287ZM254.144 2.94228V3.68441L254.063 11.0652L234.673 19.1612V35.3531C234.673 38.2271 236.184 39.401 238.721 39.401C240.327 39.4053 241.91 39.0211 243.336 38.2811V44.3531C242.316 44.9633 241.211 45.4181 240.057 45.7024C238.929 45.9621 237.774 46.0889 236.616 46.0802C235.49 46.0912 234.366 45.9643 233.27 45.7024C229.613 44.7983 227.238 42.1132 227.238 36.527V14.2226L238.33 9.55397L254.144 2.94228ZM227.238 14.2226V4.00824H234.7V11.0787L227.238 14.2226ZM194.517 28.485L202.168 25.2061C202.04 25.8459 201.977 26.4968 201.979 27.1492V45.527H194.517V28.485ZM84.0211 13.0622H76.5593V45.6349H84.0211V13.0622ZM84.264 0.972264H76.249V8.06971H84.264V0.972264ZM103.316 19.1612C98.9986 19.1612 95.9761 22.1971 95.9761 27.2571V45.6349H88.5144V13.0622H95.9761V18.1222C97.023 16.3607 98.5133 14.9043 100.298 13.8981C102.083 12.8919 104.101 12.3711 106.15 12.3876C113.504 12.3876 117.754 17.3261 117.754 24.9093V45.6349H110.292V27.1087C110.292 22.0622 107.634 19.1612 103.316 19.1612ZM122.18 36.2976C125.214 38.7531 128.954 40.1718 132.853 40.3456C136.065 40.3456 137.913 38.9962 137.913 36.8373V36.7024C137.913 34.3495 134.91 33.4398 131.397 32.3758C131.236 32.3271 131.074 32.2781 130.912 32.2286C130.817 32.1998 130.722 32.1708 130.627 32.1417C125.85 30.7923 120.453 28.8088 120.453 22.5884V22.467C120.453 16.2871 125.58 12.5225 132.057 12.5225C136.312 12.6084 140.456 13.8947 144.012 16.2331L141.057 21.536C138.315 19.7242 135.148 18.6591 131.868 18.446C128.967 18.446 127.307 19.8088 127.307 21.7249V21.8463C127.307 24.0491 130.432 25.0624 134.083 26.2468C134.301 26.3175 134.521 26.3888 134.742 26.461C139.451 27.8913 144.849 30.0502 144.849 35.9063V36.0277C144.849 42.8823 139.451 46.2691 132.705 46.2691C127.672 46.1967 122.802 44.4708 118.847 41.3576L122.18 36.2976ZM154.591 0.864318H146.576V7.96177H154.591V0.864318ZM146.886 45.6349V13.0622H154.348V45.6349H146.886ZM178.03 13.6987C180.013 14.6644 181.741 16.0825 183.075 17.8388V12.9543H190.537V30.1851V38.8748C190.573 41.19 190.254 43.497 189.592 45.7159C188.98 47.7448 187.888 49.5962 186.408 51.1132C183.439 54.0817 178.879 55.4985 173.023 55.4985C167.906 55.5518 162.872 54.2082 158.463 51.6124L161.243 45.9992C164.688 48.2547 168.716 49.4552 172.834 49.4535C176.895 49.4535 179.823 48.1581 181.496 45.6754C182.661 43.8158 183.235 41.6471 183.143 39.455V36.9318C181.874 38.8036 180.161 40.3317 178.157 41.3796C176.153 42.4274 173.921 42.9622 171.66 42.9363C169.255 42.9337 166.886 42.3553 164.751 41.2496L176.355 36.2706C176.848 36.1385 177.33 35.9717 177.799 35.7713C178.204 35.5824 178.595 35.38 178.987 35.1507L179.613 34.8814C179.732 34.7912 179.847 34.6965 179.958 34.5974L180.511 34.1252C180.867 33.7963 181.197 33.4399 181.496 33.0592C181.645 32.8703 181.78 32.6679 181.915 32.4655C182.383 31.728 182.733 30.9223 182.954 30.0772C183.155 29.3336 183.259 28.5672 183.264 27.7968V27.6754C183.26 26.8225 183.142 25.9739 182.913 25.1522C182.802 24.7601 182.662 24.3768 182.495 24.0052C182.373 23.7332 182.238 23.4675 182.09 23.2091C181.644 22.4452 181.084 21.7537 180.43 21.1582C180.073 20.8448 179.694 20.5563 179.297 20.2946L178.73 19.9573C177.2 19.085 175.472 18.6204 173.711 18.6079C171.883 18.5678 170.08 19.0348 168.502 19.9573C167.519 20.5614 166.669 21.3604 166.006 22.3051C165.677 22.7844 165.397 23.2951 165.169 23.8298C165.006 24.2201 164.871 24.6214 164.765 25.0307C164.75 25.0926 164.729 25.1545 164.708 25.2169C164.669 25.3316 164.63 25.4482 164.63 25.5705C164.509 26.2019 164.45 26.8436 164.454 27.4865V27.6754C164.453 28.204 164.494 28.7319 164.576 29.2541C164.57 29.3349 164.57 29.4162 164.576 29.497C164.711 30.2434 164.942 30.9691 165.264 31.6559C165.372 31.8718 165.48 32.0877 165.601 32.3036C165.972 32.9534 166.425 33.5521 166.951 34.0847C168.246 35.3359 169.886 36.1722 171.66 36.4865C172.083 36.5678 172.511 36.6219 172.942 36.6484H173.603C174.054 36.6418 174.504 36.6103 174.952 36.554C175.407 36.4884 175.858 36.3937 176.301 36.2706L164.697 41.2496L164.306 41.0472C163.761 40.7494 163.234 40.4205 162.727 40.0622C160.819 38.6298 159.285 36.7585 158.253 34.607C157.222 32.4554 156.725 30.087 156.804 27.7024V27.5809C156.81 26.7366 156.873 25.8936 156.993 25.0577C157.431 21.4941 159.172 18.2182 161.879 15.8597C164.586 13.5011 168.07 12.2261 171.66 12.2796C173.865 12.247 176.047 12.7331 178.03 13.6987ZM215.303 22.4312C214.854 21.62 214.246 20.9072 213.516 20.3351L221.585 16.8538C223.087 19.2211 223.844 21.9852 223.757 24.7878V45.527H216.295V27.0277C216.292 26.3679 216.238 25.7093 216.133 25.0577C216.035 24.1355 215.753 23.2424 215.303 22.4312Z" fill="white"/>
</svg>
