<svg width="263" height="50" viewBox="0 0 263 50" fill="none" xmlns="http://www.w3.org/2000/svg">
<path fill-rule="evenodd" clip-rule="evenodd" d="M137.163 6.28828C138.895 6.28828 140.568 6.91778 141.747 8.01821C142.848 9.03473 143.347 10.0139 144.56 14.5183L153.043 45.5779H147.615L144.589 34.4476H129.742L126.716 45.5779H121.289L129.771 14.5136C130.974 10.0139 131.479 9.03473 132.58 8.01821C133.758 6.91778 135.427 6.28828 137.163 6.28828ZM137.163 11.217C136.824 11.217 136.484 11.3429 136.285 11.534C135.965 11.8465 135.669 12.7324 134.903 15.6607L131.105 29.5188H143.231L139.433 15.6654C138.657 12.7324 138.356 11.8465 138.041 11.534C137.842 11.3429 137.503 11.217 137.163 11.217ZM233.376 6.50521V6.632H233.382V11.556H220.5C218.457 11.556 217.523 11.556 216.955 11.9757C216.184 12.5539 216.155 13.5471 216.155 15.9438V22.9373L229.885 22.8813V23.0082L229.889 23.008V27.9369L216.155 27.9928V36.2601C216.155 36.8596 216.157 37.3716 216.172 37.8113C216.224 39.0464 216.395 39.6867 216.955 40.1062C217.517 40.521 218.448 40.521 220.496 40.521H233.382V45.5766H220.5C217.896 45.5766 215.432 45.5766 213.376 43.8653C210.878 41.725 210.878 39.0718 210.878 36.2648V15.817C210.878 13.01 210.878 10.3568 213.364 8.22116L213.37 8.21651C215.422 6.50989 217.88 6.50521 220.481 6.50521H233.376ZM72.0001 23.0696H88.0253V6.63294H93.3022V45.5776H88.0253V27.9984H72.0001V45.5776H66.7232V6.63294H72.0001V23.0696ZM100.061 8.34423C102.112 6.63759 104.571 6.63294 107.171 6.63294H120.073V11.557H107.191C105.149 11.557 104.213 11.557 103.645 11.9766C102.874 12.5548 102.845 13.548 102.845 15.9448V23.065L116.58 23.009V27.9378L102.845 27.9936V36.2611C102.845 38.6577 102.879 39.6555 103.65 40.2339C104.213 40.6487 105.144 40.6487 107.191 40.6487H120.073V45.5776H107.191C104.586 45.5776 102.122 45.5776 100.066 43.8662C97.5677 41.726 97.5677 39.0728 97.5677 36.2657V15.9448C97.5677 13.1377 97.5677 10.4845 100.056 8.34889L100.061 8.34423ZM163.302 6.63294C161.842 6.63294 159.398 6.63294 157.337 8.34889C154.848 10.4845 154.848 13.1377 154.848 15.9448V36.2657C154.848 39.0728 154.848 41.726 157.346 43.8662C159.403 45.5776 161.847 45.5776 163.307 45.5776C167.236 45.5776 173.172 45.5776 177.329 41.4975C181.427 37.478 181.427 31.9525 181.427 26.1005C181.427 20.2487 181.427 14.7231 177.329 10.7083C173.168 6.63294 167.231 6.63294 163.302 6.63294ZM163.302 40.6487C162.371 40.6487 161.488 40.6487 160.926 40.2339C160.155 39.6555 160.121 38.6577 160.121 36.2611V15.9448C160.121 13.548 160.15 12.5548 160.921 11.9766C161.488 11.557 162.371 11.557 163.302 11.557C166.508 11.557 170.898 11.678 173.492 14.2193C176.146 16.8212 176.146 20.6449 176.146 26.1005C176.146 31.5561 176.146 35.501 173.492 38.1029C170.898 40.6487 166.508 40.6487 163.302 40.6487ZM196.016 22.9069C198.553 23.6389 201.428 24.4736 203.902 26.5533C205.838 28.1806 207.908 31.2115 207.908 34.8346C207.908 40.1737 203.879 45.9184 195.026 45.9184C190.404 45.9184 186.073 44.4169 182.833 41.6937L182.474 41.3905L185.845 37.5951L186.214 37.9167C188.469 39.8752 191.68 40.9943 195.026 40.9943C198.809 40.9943 202.632 39.0918 202.632 34.8392C202.632 33.1373 201.696 31.2815 200.246 30.1158C198.793 28.9056 196.591 28.2485 194.037 27.4857L194.022 27.4812L193.616 27.3599L193.595 27.3539C191.433 26.7215 189.194 26.0667 186.801 24.1193C184.977 22.6457 183.022 19.8713 183.022 16.514C183.022 10.4942 187.96 6.28828 195.031 6.28828C199.14 6.28828 203.194 7.57524 206.158 9.81344L206.537 10.0979L203.379 14.038L202.99 13.7396C200.963 12.1589 197.989 11.217 195.031 11.217C190.06 11.217 188.299 14.0101 188.299 16.4021C188.299 17.9689 189.08 19.4796 190.448 20.5522C191.791 21.6487 194.041 22.3193 195.851 22.8592L195.87 22.8649L196.016 22.9069ZM246.395 11.5607H235.453V6.632H262.614V11.5607H251.673V45.5766H246.395V11.5607Z" fill="white"/>
<path d="M27.6387 0L6.24444 9.90401L15.746 17.1875L27.6387 0Z" fill="white"/>
<path d="M27.641 11.6806V0L15.7483 17.1875L27.641 11.6806Z" fill="white"/>
<path d="M27.641 0L49.0354 9.90401L39.5339 17.1875L27.641 0Z" fill="white"/>
<path d="M27.641 11.6806V0L39.5339 17.1875L27.641 11.6806Z" fill="white"/>
<path d="M15.746 17.1854L6.24444 9.90199L12.8068 29.5561L15.746 17.1854Z" fill="white"/>
<path d="M6.24444 9.90199L0.962891 32.1579L12.8068 29.5561L6.24444 9.90199Z" fill="white"/>
<path d="M39.5266 17.1854L49.0281 9.90199L42.4658 29.5561L39.5266 17.1854Z" fill="white"/>
<path d="M49.0338 9.90199L54.3158 32.1579L42.4715 29.5561L49.0338 9.90199Z" fill="white"/>
<path d="M15.7657 50L21.0379 39.4805L0.962891 32.1552L15.7657 50Z" fill="white"/>
<path d="M0.962891 32.1579L21.0379 39.483L12.8068 29.5561L0.962891 32.1579Z" fill="white"/>
<path d="M39.5021 50L34.23 39.4805L54.3048 32.1552L39.5021 50Z" fill="white"/>
<path d="M54.3048 32.1576L34.23 39.483L42.4608 29.5557L54.3048 32.1576Z" fill="white"/>
</svg>
