<svg width="267" height="50" viewBox="0 0 267 50" fill="none" xmlns="http://www.w3.org/2000/svg">
<path d="M36.9858 33.3666L25.3203 40.1974L13.6104 33.3666C13.3886 33.2336 13.1224 33.2336 12.8563 33.3666C12.6345 33.4997 12.5015 33.7658 12.4571 34.032V42.0603C12.4571 42.3265 12.5902 42.5926 12.8563 42.7257L25.2759 50L37.7398 42.7257C37.9616 42.5926 38.139 42.3708 38.139 42.0603V34.032C38.139 33.4553 37.5181 33.1005 36.9858 33.3666Z" fill="white"/>
<path d="M49.9363 7.24107L37.428 0.0998003C37.2062 -0.0332668 36.8958 -0.0332668 36.674 0.0998003L29.7101 4.09181C29.4884 4.22488 29.3553 4.49101 29.3553 4.75715C29.3553 5.02328 29.4884 5.24506 29.7101 5.37813L41.4644 12.1202L41.42 25.6487C41.42 26.2253 42.041 26.5801 42.5733 26.314L49.4928 22.322C49.7145 22.1889 49.8476 21.9228 49.8476 21.6567L49.9363 7.24107Z" fill="white"/>
<path d="M20.7961 4.09181L13.8766 0.0998003C13.6548 -0.0332668 13.3443 -0.0332668 13.1226 0.0998003L0.614258 7.24107L0.702968 21.6567C0.702968 21.9228 0.836036 22.1889 1.05781 22.322L7.9773 26.314C8.19908 26.4471 8.50957 26.4471 8.73135 26.314C8.95313 26.1809 9.08619 25.9148 9.08619 25.6487V12.1202L20.8404 5.42248C21.3284 5.11199 21.3284 4.44666 20.8404 4.13617" fill="white"/>
<path d="M35.5651 27.0233V15.8456C35.5651 15.5795 35.432 15.3577 35.2102 15.2247L25.5851 9.5915C25.3633 9.45843 25.0971 9.45843 24.8754 9.5915L15.2502 15.2247C15.0284 15.3577 14.8953 15.5795 14.8953 15.8456V27.0233C14.8953 27.2894 15.0284 27.5112 15.2502 27.5999L24.8754 33.2331C25.0971 33.3661 25.3633 33.3661 25.5851 33.2331L35.2102 27.5999C35.432 27.4668 35.5651 27.2451 35.5651 27.0233Z" fill="white"/>
<path d="M25.2749 21.4345L15.4723 15.7127C15.3393 15.6239 15.2062 15.6239 15.1175 15.7127C15.0288 15.757 14.9401 15.8901 14.9401 16.0231V27.0233C14.9401 27.2451 15.0731 27.5113 15.2949 27.6L24.7427 33.1001C24.9644 33.2331 25.2749 33.0557 25.2749 32.7896V21.4345Z" fill="white"/>
<path d="M25.2749 21.4345L35.0769 15.7127C35.1656 15.6239 35.2987 15.6239 35.4318 15.7127C35.5205 15.757 35.6092 15.8901 35.6092 16.0231V27.0233C35.6092 27.2451 35.4761 27.5113 35.2543 27.6L25.7622 33.1444C25.5404 33.2775 25.2743 33.1001 25.2743 32.8339L25.2749 21.4345Z" fill="white"/>
<path d="M35.0787 27.1564L25.2749 21.4345L15.4735 27.1564C15.2518 27.2895 15.2518 27.6 15.4735 27.7331L24.9213 33.2332C25.1431 33.3662 25.4092 33.3662 25.631 33.2332L35.1231 27.7331C35.3005 27.6444 35.3005 27.2895 35.0787 27.1564Z" fill="white"/>
<path d="M35.0787 15.1363L25.631 9.63621C25.4092 9.50315 25.1431 9.50315 24.9213 9.63621L15.4735 15.1363C15.2518 15.2694 15.2518 15.5799 15.4735 15.7573L25.2761 21.4792L35.0787 15.7573C35.3005 15.5799 35.3005 15.2694 35.0787 15.1363Z" fill="white"/>
<path d="M64.8838 38.1568H71.5815V2.93835H64.8838V38.1568ZM95.0457 11.8095H101.743V38.2011H95.0457V34.2091C93.3158 37.0922 90.5658 38.5116 86.7955 38.5116C84.0455 38.6003 81.3841 37.5358 79.4769 35.5398C77.4808 33.2776 76.4607 30.3058 76.6381 27.2896V11.8538H83.2914V26.3581C83.2027 28.088 83.735 29.8179 84.8882 31.1042C86.0415 32.2574 87.5496 32.8341 89.1907 32.7454C90.7875 32.8341 92.3844 32.2131 93.4932 31.1042C94.6465 29.7735 95.2231 28.088 95.09 26.3581V11.8095H95.0457ZM113.187 11.8095V15.7571C114.873 12.874 118.022 11.1885 121.393 11.4103C123.256 11.3659 125.119 11.8538 126.76 12.7853C128.357 13.7168 129.599 15.0918 130.397 16.733C132.216 13.4063 135.764 11.3216 139.579 11.4103C142.418 11.2772 145.168 12.3418 147.164 14.3378C149.204 16.5999 150.224 19.5717 150.047 22.6323V38.2011H143.349V23.6525C143.482 21.9226 142.905 20.2371 141.797 18.9064C140.688 17.7531 139.135 17.1765 137.538 17.2652C135.942 17.1765 134.345 17.7975 133.236 18.9064C132.083 20.1927 131.55 21.9226 131.639 23.6525V38.2011H124.986V23.6525C125.119 21.9226 124.542 20.2371 123.389 18.9064C122.236 17.7531 120.728 17.1765 119.086 17.2652C117.49 17.1765 115.937 17.7975 114.784 18.9064C113.631 20.1927 113.054 21.9226 113.187 23.6525V38.2011H106.489V11.8095H113.187ZM153.152 24.9388C153.019 28.5316 154.305 32.0357 156.7 34.697C158.962 37.2253 162.2 38.6447 165.571 38.556C169.075 38.6447 172.313 36.7817 173.999 33.7212V38.1568H180.652V11.8095H173.954V15.9346C172.225 13.0514 169.031 11.3216 165.66 11.4546C162.245 11.3216 158.962 12.6966 156.656 15.2249C154.305 17.8862 153.019 21.346 153.152 24.9388ZM173.954 24.9831C174.087 27.0678 173.289 29.1525 171.87 30.6606C169.208 33.4107 164.773 33.4107 162.111 30.6606C160.648 29.1082 159.894 27.0678 160.027 24.9388C159.894 22.854 160.648 20.8137 162.111 19.2612C164.817 16.5112 169.208 16.5112 171.914 19.2612C173.289 20.8137 174.043 22.8984 173.954 24.9831ZM244.968 19.483C244.968 17.2209 246.032 15.0918 247.851 13.7168C252.553 10.6119 258.629 10.6119 263.287 13.7168C265.194 15.2249 266.347 17.5314 266.392 19.9709H259.561C259.383 17.7532 258.008 16.6443 255.48 16.6443C254.46 16.5555 253.395 16.866 252.553 17.3983C251.887 17.8862 251.488 18.6846 251.488 19.483C251.532 20.4588 252.153 21.2572 253.041 21.5677C254.283 22.1444 255.569 22.5436 256.9 22.7653C258.408 23.0315 259.871 23.4307 261.335 23.8299C262.799 24.2291 264.085 25.0275 265.105 26.1364C266.17 27.334 266.746 28.8864 266.658 30.4832C266.702 32.7897 265.549 34.9631 263.642 36.2938C258.94 39.2656 252.908 39.2656 248.206 36.2938C246.21 34.7857 245.012 32.4349 244.923 29.951H251.799C252.065 32.1687 253.484 33.2776 256.012 33.2776C257.077 33.322 258.097 33.0115 258.984 32.4349C259.694 31.947 260.137 31.1042 260.137 30.2614C260.093 29.2856 259.472 28.4429 258.541 28.1324C257.299 27.5558 256.012 27.1565 254.682 26.9348C253.174 26.6686 251.71 26.3138 250.246 25.8702C248.827 25.471 247.496 24.717 246.476 23.6525C245.456 22.5879 244.923 21.0355 244.968 19.483ZM222.391 33.7655V47.0279H215.604V11.8095H222.302V15.8902C223.988 13.0071 227.181 11.2772 230.552 11.4103C233.968 11.2772 237.25 12.6522 239.556 15.1805C241.952 17.8419 243.238 21.346 243.105 24.9388C243.238 28.5316 241.996 32.0357 239.556 34.7414C237.294 37.2696 234.056 38.689 230.685 38.6003C227.226 38.6447 224.032 36.7817 222.391 33.7655ZM229.266 17.2209C227.447 17.2209 225.673 17.9749 224.387 19.2612C222.967 20.8137 222.213 22.854 222.302 24.9388C222.169 27.0235 222.923 29.1082 224.387 30.6163C227.048 33.3663 231.484 33.3663 234.145 30.6163C235.609 29.0638 236.363 27.0235 236.23 24.8944C236.363 22.8097 235.609 20.7693 234.145 19.2169C232.859 17.9749 231.129 17.2209 229.266 17.2209ZM192.539 33.7655V47.0279H185.797V11.8095H192.495V15.8902C194.181 13.0071 197.374 11.2772 200.701 11.4103C204.116 11.2772 207.399 12.6522 209.705 15.1805C212.1 17.8419 213.387 21.346 213.254 24.9388C213.387 28.5316 212.145 32.0357 209.705 34.697C207.443 37.2253 204.205 38.6447 200.834 38.556C197.374 38.6447 194.181 36.7817 192.539 33.7655ZM199.503 17.2209C197.685 17.2209 195.91 17.9749 194.624 19.2612C193.205 20.8137 192.451 22.854 192.539 24.9388C192.406 27.0235 193.16 29.1082 194.624 30.6163C197.286 33.3663 201.721 33.3663 204.382 30.6163C205.846 29.0638 206.6 27.0235 206.467 24.8944C206.6 22.8097 205.846 20.725 204.382 19.2169C203.096 17.9749 201.322 17.2209 199.503 17.2209Z" fill="white"/>
</svg>
