<svg width="148" height="50" viewBox="0 0 148 50" fill="none" xmlns="http://www.w3.org/2000/svg">
<path d="M137.278 31.2763L126.951 13.3917C126.867 13.2437 126.709 13.1525 126.539 13.1526H119.776C119.709 13.1526 119.656 13.1776 119.598 13.2026C119.578 13.1995 119.559 13.187 119.539 13.187H115.811C115.812 13.151 115.814 12.2135 115.817 12.1791C116.086 7.39469 120.27 6.18217 121.697 5.92748C121.923 5.887 122.087 5.68871 122.084 5.45873L122.076 0.474279C122.076 0.343543 122.022 0.218669 121.927 0.129076C121.832 0.0394835 121.704 -0.00690681 121.573 0.000834309C118.864 0.174274 109.482 2.28993 108.989 12.1791L108.982 13.1854H106.114C106.004 13.1858 105.899 13.2298 105.821 13.3078C105.744 13.3857 105.701 13.4912 105.701 13.601V18.4324C105.701 18.662 105.885 18.8495 106.114 18.8495H108.535C108.762 18.8495 108.948 19.0355 108.948 19.2621V40.2702C108.948 40.528 109.156 40.7358 109.412 40.7358H115.303C115.435 40.7342 115.56 40.6756 115.646 40.5749C115.751 40.4878 115.812 40.3593 115.814 40.2233V19.2792C115.814 19.1542 115.865 19.0402 115.946 18.9558C116.026 18.8887 116.127 18.8512 116.231 18.8495L121.917 18.773C122.089 18.7712 122.249 18.8627 122.334 19.0121L129.415 31.2779C129.498 31.422 129.501 31.5988 129.422 31.745L120.031 49.2156C119.951 49.3634 119.955 49.5421 120.041 49.6864C120.127 49.8307 120.282 49.9195 120.45 49.9203H127.225C127.399 49.9203 127.559 49.8239 127.642 49.6703L137.283 31.745C137.363 31.5986 137.361 31.4211 137.278 31.2763ZM147.019 13.812L139.623 27.5747C139.541 27.7251 139.385 27.82 139.214 27.8233C139.043 27.8264 138.883 27.7375 138.795 27.5903L135.248 21.5308C135.164 21.3868 135.161 21.2089 135.24 21.0621L139.386 13.387C139.466 13.2348 139.623 13.1389 139.795 13.137C140.887 13.1245 144.908 13.0901 146.611 13.1088C146.778 13.111 146.931 13.2006 147.014 13.3447C147.098 13.4888 147.1 13.6663 147.019 13.812ZM97.2399 23.9528H84.0319C83.8698 23.9547 83.7185 23.8717 83.6331 23.7338C83.5478 23.596 83.5408 23.4236 83.6147 23.2793C84.3148 21.8996 86.3335 18.8902 90.643 18.8902C94.8743 18.8902 96.9306 21.8949 97.654 23.2746C97.728 23.4189 97.7216 23.5913 97.6371 23.7298C97.5526 23.8682 97.4021 23.9527 97.2399 23.9528ZM90.6695 12.0994C82.6757 12.0994 76.1959 18.6152 76.1959 26.6512C76.1959 34.6888 82.6757 41.203 90.6695 41.203C94.9852 41.203 100.56 39.078 103.643 33.0638C103.715 32.9187 103.707 32.7469 103.622 32.6093C103.536 32.4717 103.386 32.3877 103.224 32.3872H96.1384C96.0215 32.3879 95.9095 32.4338 95.8259 32.5154C95.2965 33.0208 94.6919 33.4409 94.0336 33.7607C93.1118 34.2076 91.9945 34.4982 90.6414 34.4982C86.3804 34.4982 84.3241 31.7013 83.746 30.2169C83.6937 30.0745 83.7146 29.9155 83.8019 29.7914C83.8892 29.6673 84.0318 29.5939 84.1835 29.595L104.421 29.5981C104.654 29.5914 104.849 29.418 104.882 29.1872C104.953 28.62 105.048 28.0466 105.079 27.4622C105.327 23.4821 103.92 19.5763 101.192 16.6678C98.4638 13.7594 94.6558 12.1064 90.668 12.0994M60.8035 34.492C58.122 35.1148 55.309 34.3076 53.3659 32.3576C51.4194 30.404 50.6148 27.5865 51.2361 24.8996C51.8861 21.9312 54.2008 19.6104 57.1675 18.9527C59.849 18.3295 62.6621 19.1368 64.6051 21.0871C66.5518 23.0405 67.3565 25.8582 66.7348 28.545C66.0845 31.5133 63.77 33.8339 60.8035 34.492ZM65.2457 13.4635C58.7566 10.6276 53.2643 13.4463 51.5174 14.5745C50.6018 15.1682 50.6424 13.2307 49.7674 13.2307H44.6267C44.5033 13.2303 44.3849 13.279 44.2975 13.3661C44.2102 13.4532 44.161 13.5714 44.161 13.6948V49.5344C44.161 49.7906 44.3689 50 44.6251 50H50.4627C50.586 50 50.7043 49.9509 50.7914 49.8635C50.8785 49.7762 50.9272 49.6577 50.9268 49.5344V39.3233C50.9268 38.9639 51.3158 38.7373 51.6236 38.9217C52.9112 39.703 55.8706 41.2046 59.5081 41.2046C67.9614 41.2046 74.7427 33.8795 73.874 25.2278C73.3537 20.0605 69.9911 15.5401 65.2457 13.4635ZM16.7466 34.492C14.0651 35.1148 11.2521 34.3076 9.30897 32.3576C7.36305 30.4037 6.55906 27.5862 7.18082 24.8996C7.83073 21.9312 10.1454 19.6104 13.1122 18.9527C15.7937 18.3295 18.6068 19.1368 20.5498 21.0871C22.496 23.0408 23.3 25.8584 22.6779 28.545C22.028 31.5135 19.7133 33.8342 16.7466 34.492ZM21.1904 13.4635C14.7012 10.6276 9.21053 13.4463 7.46051 14.5745C6.54643 15.1682 6.58549 13.2307 5.71048 13.2307H0.569782C0.313484 13.2307 0.105713 13.4385 0.105713 13.6948V49.5344C0.105713 49.7906 0.313528 50 0.569782 50H6.4058C6.52915 50 6.64743 49.9509 6.73451 49.8635C6.82158 49.7762 6.87029 49.6577 6.86987 49.5344V39.3233C6.86987 38.9639 7.25894 38.7373 7.56676 38.9217C8.85584 39.703 11.8153 41.2046 15.4513 41.2046C23.9076 41.2046 30.6858 33.8795 29.8171 25.2278C29.2968 20.0605 25.9358 15.5401 21.1904 13.4635ZM39.4953 13.2323H33.6468C33.524 13.2314 33.406 13.2796 33.3189 13.3662C33.2317 13.4527 33.1828 13.5704 33.1828 13.6932V40.4139C33.1828 40.6717 33.3921 40.8796 33.6484 40.8796H39.4969C39.7535 40.8787 39.961 40.6705 39.961 40.4139V13.6963C39.9601 13.4395 39.7522 13.2316 39.4953 13.2307" fill="white"/>
</svg>
