<svg width="276" height="60" viewBox="0 0 276 60" fill="none" xmlns="http://www.w3.org/2000/svg">
<path d="M22.7226 12.1253C17.3923 12.1253 14.3016 14.5414 12.8235 16.1521C12.6443 14.7203 11.7037 12.8859 8.03073 12.8859H0.0129395V21.208H3.28277C3.82027 21.208 3.99944 21.387 3.99944 21.9239V60H13.4954V44.698C14.9735 46.0403 17.7954 47.9195 22.2298 47.9195C31.5018 47.9195 37.9967 40.5816 37.9967 30.0224C38.0415 19.3288 31.8602 12.1253 22.7226 12.1253ZM20.7965 39.6421C15.6902 39.6421 13.361 34.7651 13.361 30.2013C13.361 23.0425 17.2579 20.4922 20.9309 20.4922C25.4101 20.4922 28.456 24.34 28.456 30.1118C28.4112 36.7338 24.559 39.6421 20.7965 39.6421Z" fill="white"/>
<path d="M50.8072 38.1656V17.9867C50.8072 14.5862 49.1499 12.9307 45.7905 12.9307H37.28V21.2529H40.5498C41.0873 21.2529 41.2665 21.4319 41.2665 21.9688V42.0583C41.2665 45.5034 42.879 47.1142 46.2832 47.1142H54.7937V38.8368H51.5239C51.0312 38.8815 50.8072 38.6578 50.8072 38.1656Z" fill="white"/>
<path d="M75.6221 12.1253C70.2919 12.1253 67.2012 14.5414 65.6783 16.1521C65.4991 14.7203 64.5585 12.8859 60.8855 12.8859H52.9125V21.208H56.1823C56.7198 21.208 56.899 21.387 56.899 21.9239V60H66.4845V44.698C67.9627 46.0403 70.8294 47.9195 75.219 47.9195C84.491 47.9195 90.9858 40.5816 90.9858 30.0224C90.9858 19.3288 84.8045 12.1253 75.6221 12.1253ZM73.6961 39.6421C68.5898 39.6421 66.2606 34.7651 66.2606 30.2013C66.2606 23.0425 70.1575 20.4922 73.8304 20.4922C78.3096 20.4922 81.3555 24.34 81.3555 30.1118C81.3555 36.7338 77.5034 39.6421 73.6961 39.6421Z" fill="white"/>
<path d="M108.858 12.1253C98.6006 12.1253 91.4786 19.5078 91.4786 30.0224C91.4786 40.4027 99.1829 47.9195 109.843 47.9195C118.22 47.9195 123.326 42.953 123.55 42.774L123.953 42.4161L119.832 35.5705L119.205 36.1521C119.16 36.1969 115.398 39.6421 110.426 39.6421C105.678 39.6421 102.184 36.7338 101.333 32.17H123.863L123.908 31.5436C123.908 31.4541 124.132 29.4407 124.132 28.4564C124.132 18.7024 117.996 12.1253 108.858 12.1253ZM101.691 25.1007C102.721 21.745 105.319 19.821 108.858 19.821C111.725 19.821 113.919 22.0134 114.323 25.1007H101.691Z" fill="white"/>
<path d="M158.712 38.1655V5.10064C158.712 1.70019 157.054 0.0447081 153.65 0.0447081H145.139V8.36686H148.409C148.947 8.36686 149.126 8.54583 149.126 9.08274V15.0783C147.737 13.8255 145.005 12.17 140.257 12.17C131.03 12.17 124.58 19.5526 124.58 30.0671C124.58 40.7606 130.761 47.9642 139.899 47.9642C145.139 47.9642 148.185 45.5481 149.664 43.8479C149.843 45.3244 150.828 47.2036 154.367 47.2036H162.608V38.9262H159.428C158.891 38.8814 158.712 38.6577 158.712 38.1655ZM141.735 39.642C137.211 39.642 134.3 35.8836 134.3 30.0223C134.3 24.34 137.346 20.5369 141.87 20.5369C147.021 20.5369 149.305 25.2796 149.305 29.9776C149.305 37.1364 145.408 39.642 141.735 39.642Z" fill="white"/>
<path d="M183.795 12.4386C179.854 12.4386 176.181 14.7205 174.031 18.3446V17.584C174.031 14.4967 172.328 12.886 168.969 12.886H160.817V21.2082H164.087C164.624 21.2082 164.803 21.3871 164.803 21.924V47.1142H174.299V33.4229C174.299 31.6332 174.523 29.8883 174.971 28.2775C176.405 23.5348 180.212 21.8793 183.258 21.8793C184.333 21.8793 185.139 22.0135 185.139 22.0135L185.945 22.1478V12.707L185.363 12.6175C185.363 12.5728 184.557 12.4386 183.795 12.4386Z" fill="white"/>
<path d="M199.473 38.1656V17.9867C199.473 14.5862 197.815 12.9307 194.456 12.9307H186.752V21.2529H189.215C189.753 21.2529 189.932 21.4319 189.932 21.9688V42.0583C189.932 45.5034 191.544 47.1142 194.948 47.1142H203.459V38.8368H200.189C199.696 38.8815 199.473 38.6578 199.473 38.1656Z" fill="white"/>
<path d="M230.289 12.9307C227.333 12.9307 225.72 13.9598 224.78 16.4654L218.598 33.7361C218.375 34.3625 218.195 35.0784 218.016 35.7943C217.837 35.1231 217.613 34.3625 217.389 33.7361L211.208 16.4654C210.267 13.9151 208.744 12.9307 205.698 12.9307H200.323V21.2529H201.712C202.473 21.2529 202.697 21.5213 202.876 21.9688L212.462 47.1589H223.167L232.753 21.9688C232.932 21.5213 233.156 21.2529 233.917 21.2529H235.396V12.9307H230.289Z" fill="white"/>
<path d="M251.745 12.1253C241.487 12.1253 234.365 19.5078 234.365 30.0224C234.365 40.4027 242.07 47.9195 252.73 47.9195C261.106 47.9195 266.212 42.953 266.436 42.774L266.84 42.4161L262.719 35.5705L262.092 36.1521C262.047 36.1969 258.284 39.6421 253.357 39.6421C248.609 39.6421 245.115 36.7338 244.264 32.17H266.795L266.84 31.5436C266.84 31.4541 267.019 29.4407 267.019 28.4564C267.019 18.7024 260.882 12.1253 251.745 12.1253ZM244.578 25.1007C245.608 21.745 248.206 19.821 251.745 19.821C254.611 19.821 256.806 22.0134 257.209 25.1007H244.578Z" fill="white"/>
<path d="M50.1354 0H41.6697V8.90381H50.1354V0Z" fill="white"/>
<path d="M198.845 0H190.38V8.90381H198.845V0Z" fill="white"/>
<path d="M266.84 12.9306H268.094V16.3311H269.035V12.9306H270.289V12.1253H266.84V12.9306Z" fill="white"/>
<path d="M274.006 12.1253L273.066 15.0335L272.08 12.1253H270.781V16.3311H271.632V13.3781H271.677L272.707 16.3311H273.424L274.454 13.3781V16.3311H275.305V12.1253H274.006Z" fill="white"/>
</svg>
