<svg width="188" height="40" viewBox="0 0 188 40" fill="none" xmlns="http://www.w3.org/2000/svg">
<path d="M0.346191 3.6651C0.346191 1.64092 1.98712 0 4.01131 0H18.3477C20.3719 0 22.0129 1.64092 22.0129 3.66512V6.50078C22.0129 7.51287 21.1924 8.33333 20.1804 8.33333H2.17874C1.16665 8.33333 0.346191 7.51287 0.346191 6.50078V3.6651Z" fill="white"/>
<path d="M0.346191 15.1659C0.346191 14.1538 1.16665 13.3333 2.17874 13.3333H36.681C38.7052 13.3333 40.3462 14.9743 40.3462 16.9985V26.5008C40.3462 27.5128 39.5257 28.3333 38.5137 28.3333H4.01131C1.98712 28.3333 0.346191 26.6923 0.346191 24.6682V15.1659Z" fill="white"/>
<path d="M18.6795 35.1658C18.6795 34.1538 19.5 33.3333 20.512 33.3333H38.5137C39.5257 33.3333 40.3462 34.1538 40.3462 35.1658V36.3348C40.3462 38.359 38.7052 40 36.681 40H22.3447C20.3205 40 18.6795 38.359 18.6795 36.3348V35.1658Z" fill="white"/>
<path d="M63.0055 24.5683H66.858L74.0127 36.2635H82.7727L74.8384 23.7427C79.2412 22.2292 81.8095 18.8353 81.8095 13.9279C81.8095 7.0483 76.9939 3.33333 69.2429 3.33333H55.3462V36.2635H63.0055V24.5683ZM63.0055 18.3308V9.80013H68.8302C72.4534 9.80013 74.2879 11.3595 74.2879 14.0655C74.2879 16.7255 72.4534 18.3308 68.8302 18.3308H63.0055Z" fill="white"/>
<path d="M95.9514 36.768C100.767 36.768 105.17 34.3373 106.959 29.705L100.813 27.7328C100.125 29.8427 98.3364 30.9433 96.0432 30.9433C93.2454 30.9433 91.2734 29.063 90.7689 25.7607H107.142V23.8345C107.142 17.0007 103.152 11.5888 95.8139 11.5888C88.8425 11.5888 83.7057 17.0007 83.7057 24.1555C83.7057 31.6772 88.659 36.768 95.9514 36.768ZM95.722 17.276C98.428 17.276 99.8499 19.1105 99.8957 21.266H90.9982C91.7319 18.606 93.4747 17.276 95.722 17.276Z" fill="white"/>
<path d="M111.302 29.7967C111.302 34.75 113.916 36.4928 119.144 36.4928C120.887 36.4928 122.263 36.3553 123.547 36.1718V30.1637C122.722 30.2553 122.309 30.3012 121.437 30.3012C119.603 30.3012 118.548 29.9343 118.548 27.9163V18.1473H123.272V12.0933H118.548V5.3972H111.302V12.0933H108.229V18.1473H111.302V29.7967Z" fill="white"/>
<path d="M149.799 24.2013C149.799 16.6797 144.8 11.5888 137.691 11.5888C130.537 11.5888 125.583 16.6797 125.583 24.2013C125.583 31.723 130.537 36.768 137.691 36.768C144.8 36.768 149.799 31.723 149.799 24.2013ZM132.876 24.2013C132.876 19.9818 134.756 17.597 137.691 17.597C140.627 17.597 142.507 19.9818 142.507 24.2013C142.507 28.4208 140.627 30.8057 137.691 30.8057C134.756 30.8057 132.876 28.4208 132.876 24.2013Z" fill="white"/>
<path d="M176.225 24.2013C176.225 16.6797 171.226 11.5888 164.117 11.5888C156.962 11.5888 152.009 16.6797 152.009 24.2013C152.009 31.723 156.962 36.768 164.117 36.768C171.226 36.768 176.225 31.723 176.225 24.2013ZM159.301 24.2013C159.301 19.9818 161.182 17.597 164.117 17.597C167.053 17.597 168.933 19.9818 168.933 24.2013C168.933 28.4208 167.053 30.8057 164.117 30.8057C161.182 30.8057 159.301 28.4208 159.301 24.2013Z" fill="white"/>
<path d="M187.013 3.33333H179.675V36.2635H187.013V3.33333Z" fill="white"/>
</svg>
