<svg width="262" height="40" viewBox="0 0 262 40" fill="none" xmlns="http://www.w3.org/2000/svg">
<path d="M248.262 17.5684V23.0136H252.088V28.416C252.1 28.8988 252.074 29.4194 251.991 29.836C251.839 30.8438 250.882 32.5596 248.165 32.5596C245.465 32.5596 244.525 30.8438 244.362 29.836C244.294 29.4194 244.264 28.8988 244.264 28.416V11.3524C244.264 10.7488 244.305 10.0882 244.433 9.58819C244.619 8.67875 245.425 6.88528 248.145 6.88528C251.001 6.88528 251.714 8.77607 251.877 9.58819C251.985 10.1261 251.991 11.0283 251.991 11.0283V13.1003H261.394V11.8755C261.394 11.8755 261.436 10.5973 261.322 9.40458C260.616 2.40088 254.845 0.185055 248.228 0.185055C241.599 0.185055 235.946 2.4215 235.122 9.40458C235.048 10.0431 234.934 11.1918 234.934 11.8755V27.5723C234.934 28.2559 234.956 28.7852 235.083 30.0345C235.696 36.8455 241.599 39.2598 248.202 39.2598C254.845 39.2598 260.707 36.8455 261.331 30.0345C261.442 28.7852 261.454 28.2559 261.468 27.5723V17.5684H248.262ZM183.429 1.18941H173.986V28.8096C174.001 29.291 173.986 29.8317 173.903 30.2282C173.706 31.1554 172.921 32.9397 170.315 32.9397C167.744 32.9397 166.938 31.1554 166.755 30.2282C166.661 29.8317 166.649 29.291 166.661 28.8096V1.18941H157.221V27.9524C157.209 28.6423 157.264 30.0518 157.304 30.4209C157.956 37.3949 163.452 39.6591 170.315 39.6591C177.192 39.6591 182.685 37.3949 183.349 30.4209C183.401 30.0518 183.469 28.6423 183.429 27.9524V1.18941ZM96.67 1.18941L91.9598 30.3739L87.2525 1.18941H72.0212L71.2134 38.5249H80.5446L80.7973 3.96232L87.2175 38.5249H96.6849L103.111 3.96232L103.365 38.5249H112.719L111.884 1.18941H96.67ZM40.2766 1.18941L33.3607 38.5249H43.446L48.6577 3.96232L53.7442 38.5249H63.7595L56.8724 1.18941H40.2766ZM216.428 31.2489L207.636 1.18941H193.781V38.1356H202.946L202.414 7.11444L211.857 38.1356H225.145V1.18941H215.919L216.428 31.2489ZM131.651 10.9061C131.485 10.1688 131.533 9.3854 131.618 8.97598C131.886 7.78082 132.689 6.4773 135.002 6.4773C137.159 6.4773 138.423 7.82156 138.423 9.83892V12.1219H147.627V9.51963C147.627 1.47514 140.415 0.211422 135.193 0.211422C128.617 0.211422 123.246 2.37931 122.265 8.43233C122.006 10.0796 121.942 11.5418 122.354 13.4076C123.954 20.955 137.093 23.1444 139 27.9174C139.337 28.8216 139.24 29.9746 139.069 30.6539C138.783 31.8961 137.947 33.1454 135.47 33.1454C133.147 33.1454 131.748 31.8098 131.748 29.7967L131.746 26.2136H121.838V29.0618C121.838 37.3148 128.302 39.8049 135.265 39.8049C141.933 39.8049 147.44 37.5262 148.324 31.3495C148.745 28.1581 148.428 26.0794 148.258 25.2965C146.715 17.5555 132.711 15.227 131.651 10.9061ZM10.2292 10.8145C10.0484 10.0618 10.0906 9.26746 10.1913 8.85325C10.4464 7.66384 11.2542 6.33731 13.6085 6.33731C15.7922 6.33731 17.078 7.69452 17.078 9.72818V12.0389H26.3906V9.41608C26.3906 1.29441 19.0681 0 13.7893 0C7.15761 0 1.73885 2.20145 0.747434 8.2981C0.476088 9.97172 0.42957 11.444 0.821727 13.3305C2.4383 20.9636 15.7074 23.1708 17.638 28.0009C17.9994 28.8988 17.8901 30.0518 17.7108 30.7575C17.4045 32.0126 16.5622 33.2796 14.0645 33.2796C11.7321 33.2796 10.3371 31.921 10.3371 29.8801L10.3241 26.2875H0.30542V29.1423C0.30542 37.4898 6.86133 40 13.878 40C20.6237 40 26.1633 37.7012 27.067 31.4531C27.5162 28.2324 27.1792 26.1364 27.0277 25.3416C25.4519 17.5056 11.292 15.1848 10.2292 10.8145Z" fill="white"/>
</svg>
