<svg width="160" height="60" viewBox="0 0 160 60" fill="none" xmlns="http://www.w3.org/2000/svg">
<path d="M95.7704 22.7728C96.1547 22.6551 113.3 22.6487 113.717 22.7597C113.841 22.8969 113.808 23.0668 113.808 23.2237C113.808 28.9153 113.808 34.6134 113.808 40.3049C113.808 40.4487 113.828 40.6056 113.75 40.7493C113.58 40.9061 113.366 40.8539 113.163 40.8539C110.46 40.8604 107.756 40.8539 105.047 40.8539C102.167 40.8539 99.2816 40.8539 96.402 40.8539C96.2003 40.8539 95.9854 40.8931 95.7962 40.782C95.6659 40.6447 95.6983 40.4748 95.6983 40.318C95.6983 34.6265 95.6983 28.9283 95.6983 23.2367C95.6983 23.0864 95.6858 22.9362 95.7704 22.7728Z" fill="white"/>
<path d="M134.041 40.7755C133.618 40.8932 116.473 40.8866 116.095 40.769C115.977 40.6318 116.01 40.4619 116.01 40.305C116.01 34.6134 116.01 28.9153 116.01 23.2238C116.01 23.08 115.99 22.9231 116.082 22.7794C116.264 22.6291 116.498 22.6879 116.713 22.6879C121.045 22.6813 125.377 22.6879 129.703 22.6879C130.973 22.6879 132.244 22.6879 133.514 22.6879C133.69 22.6879 133.872 22.6552 134.029 22.7663C134.146 22.91 134.12 23.08 134.12 23.2368C134.12 28.9284 134.12 34.6265 134.12 40.3181C134.126 40.4619 134.146 40.6122 134.041 40.7755Z" fill="white"/>
<path d="M95.7896 6.92648C98.6951 5.52811 101.783 4.75704 105.027 4.63941C108.024 4.53488 110.936 5.01843 113.717 6.06399C113.835 6.48872 113.841 19.9499 113.743 20.3746C113.554 20.5315 113.32 20.4727 113.105 20.4727C108.571 20.4791 104.03 20.4727 99.4967 20.4727C98.4345 20.4727 97.3664 20.4727 96.3042 20.4727C96.1283 20.4727 95.9464 20.5053 95.7896 20.3942C95.666 20.257 95.6984 20.0871 95.6984 19.9303C95.6984 15.7678 95.6984 11.5987 95.6984 7.43624C95.6984 7.29248 95.6859 7.14216 95.7896 6.92648Z" fill="white"/>
<path d="M136.386 59.6997C136.289 59.2418 136.302 43.52 136.4 43.1541C136.589 43.0038 136.823 43.0626 137.038 43.0626C141.735 43.056 146.438 43.0626 151.135 43.0626C152.242 43.0626 153.35 43.0626 154.457 43.0626C154.633 43.0626 154.816 43.0299 154.998 43.141C155.109 43.3174 155.135 43.5396 155.141 43.7618C155.278 46.1665 154.959 48.4928 154.014 50.7214C152.633 53.9816 150.431 56.5109 147.35 58.262C146.236 58.8958 145.057 59.3596 143.832 59.6997C143.585 59.7652 143.344 59.8042 143.09 59.8042C141.038 59.8042 138.979 59.8042 136.927 59.8042C136.752 59.7976 136.569 59.8299 136.386 59.6997Z" fill="white"/>
<path d="M136.426 22.7139C139.136 22.7139 141.839 22.7139 144.517 22.7139C144.732 22.8708 144.797 23.093 144.875 23.2955C145.617 25.1186 146.086 27.0072 146.211 28.9806C146.243 29.5426 146.282 30.1045 146.275 30.6665C146.275 30.7841 146.269 30.9018 146.367 31.0847C149.715 32.6988 152.269 35.208 153.851 38.6778C154.288 39.6385 154.523 40.3507 154.523 40.7689C154.144 40.8865 140.133 40.9519 136.81 40.8473C136.667 40.8408 136.51 40.8538 136.393 40.7493C136.283 40.3049 136.302 23.1256 136.426 22.7139Z" fill="white"/>
<path d="M123.28 12.7227C126.915 11.7883 130.504 11.8601 134.022 13.069C134.159 13.533 134.159 20.0152 134.035 20.3877C133.689 20.4988 116.557 20.5184 116.108 20.4073C115.977 20.2766 116.01 20.1067 116.01 19.9499C116.01 15.8462 116.01 11.736 116.01 7.6323C116.01 7.48854 115.984 7.33823 116.082 7.20757C116.655 7.28597 118.381 8.32498 119.964 9.55994C121.176 10.4944 122.244 11.5726 123.28 12.7227Z" fill="white"/>
<path d="M106.616 59.9868C106.343 59.9345 106.069 59.8822 105.795 59.8241C104.838 59.6275 103.959 59.2683 103.288 58.5035C102.682 57.8042 102.421 56.968 102.252 56.0861C102.069 55.1388 102.044 54.1715 102.017 53.2109C101.985 51.9823 101.985 50.7472 102.017 49.5186C102.044 48.4209 102.096 47.3297 102.415 46.2645C102.858 44.7943 103.776 43.801 105.249 43.324C106.102 43.0496 106.981 42.9254 107.867 42.8993C108.988 42.8666 110.115 42.8797 111.235 42.8993C111.874 42.9123 112.499 42.9972 113.118 43.1606C114.329 43.4743 115.144 44.2127 115.528 45.4216C115.828 46.3495 115.932 47.3035 115.932 48.2706C115.932 48.4013 115.932 48.5386 115.808 48.6889C114.786 48.6889 113.73 48.6889 112.694 48.6889C112.545 48.5124 112.571 48.3294 112.571 48.153C112.557 47.8132 112.571 47.4669 112.538 47.1336C112.473 46.441 112.134 46.0555 111.457 45.9051C111.229 45.8529 110.987 45.8071 110.753 45.8006C109.6 45.7679 108.447 45.7026 107.301 45.8659C106.193 46.0228 105.646 46.5651 105.483 47.6694C105.424 48.068 105.385 48.4602 105.385 48.8649C105.392 50.6625 105.392 52.4527 105.398 54.2495C105.398 54.714 105.47 55.1645 105.581 55.6158C105.756 56.3276 106.2 56.7722 106.91 56.9547C107.21 57.0335 107.522 57.0924 107.828 57.1056C108.936 57.1513 110.043 57.2168 111.151 57.0467C112.16 56.89 112.662 56.3408 112.727 55.3213C112.747 54.9945 112.74 54.6677 112.747 54.3416C112.753 54.1649 112.727 53.9816 112.85 53.8314C113.235 53.7269 115.639 53.7269 116.016 53.8314C116.095 53.9102 116.108 54.0147 116.108 54.1193C116.127 55.0276 116.127 55.9293 115.945 56.8244C115.671 58.1767 114.935 59.1439 113.581 59.562C113.124 59.7063 112.655 59.7652 112.193 59.8498C111.665 59.9411 111.131 59.8763 110.61 60C109.281 59.9867 107.952 59.9868 106.616 59.9868Z" fill="white"/>
<path d="M123.287 49.7674C123.678 49.8719 130.335 49.8778 130.733 49.7733C130.869 49.6099 130.817 49.4074 130.817 49.2183C130.824 47.3623 130.817 45.5131 130.824 43.6572C130.824 43.4677 130.791 43.2717 130.921 43.0234C131.951 42.9515 133.012 42.9646 134.061 43.0234C134.166 43.4416 134.178 59.3662 134.087 59.7843C133.709 59.9411 131.299 59.9411 130.895 59.7843C130.785 59.6143 130.824 59.4118 130.824 59.2227C130.824 57.2492 130.824 55.2757 130.824 53.3022C130.824 53.1255 130.85 52.9496 130.765 52.7928C130.426 52.6942 123.84 52.675 123.319 52.7597C123.157 52.9098 123.208 53.113 123.208 53.3022C123.202 55.2624 123.208 57.2168 123.202 59.177C123.202 59.3795 123.235 59.5951 123.123 59.7843C122.759 59.9286 120.355 59.9411 119.918 59.7976C119.788 59.6018 119.834 59.3728 119.834 59.1572C119.834 54.5565 119.834 49.9632 119.834 45.3628C119.834 44.7812 119.834 44.2061 119.834 43.6246C119.834 43.4482 119.815 43.2652 119.899 43.1018C120.218 42.9515 122.583 42.9188 123.098 43.056C123.241 43.2325 123.202 43.4482 123.202 43.6507C123.202 45.487 123.202 47.3296 123.208 49.166C123.202 49.3618 123.169 49.5576 123.287 49.7674Z" fill="white"/>
<path d="M83.0285 31.3005C82.5919 28.4057 82.6633 25.5763 83.3347 22.7925C83.7837 22.6488 93.0343 22.6553 93.4119 22.7729C93.5231 23.1192 93.5422 40.2986 93.4318 40.756C93.2426 40.9062 93.0078 40.854 92.7929 40.854C88.9239 40.8605 85.0476 40.854 81.1779 40.854C79.3936 40.854 77.6019 40.854 75.8168 40.854C75.6475 40.854 75.4583 40.8997 75.25 40.7363C75.7977 38.6976 76.7878 36.8679 78.123 35.2212C79.465 33.5745 81.1065 32.3068 83.0285 31.3005Z" fill="white"/>
<path d="M0.603158 59.6341C0.792116 59.4383 0.792116 59.1704 0.844159 58.9282C1.31976 56.7133 1.78225 54.4917 2.27735 52.276C2.57047 50.9694 2.99388 49.7085 3.53462 48.4863C4.84393 45.5261 7.08485 43.6703 10.1791 42.8012C11.8794 42.3242 13.6122 42.0367 15.358 41.8275C16.9279 41.6381 18.4979 41.4682 20.0743 41.3179C21.4879 41.1806 22.9015 41.063 24.3021 40.8409C24.9274 40.7428 25.5463 40.6056 26.1587 40.4226C27.8719 39.9195 29.051 38.8151 29.8002 37.2141C30.4581 35.8092 30.8359 34.3129 31.1812 32.8099C31.4613 31.5814 31.7154 30.3464 31.8586 29.0917C31.9628 28.1638 32.0476 27.236 31.9173 26.3015C31.7023 24.7136 30.8359 23.7203 29.3181 23.2695C28.6471 23.0734 27.9566 22.9689 27.266 22.9166C24.8167 22.7336 22.3609 22.7925 19.9049 22.8447C18.5044 22.8709 17.1038 22.9689 15.7228 23.2695C13.9314 23.6615 12.5894 24.6156 11.8207 26.3146C11.5992 26.7981 11.4104 27.3012 11.254 27.811C10.8306 29.1897 10.5895 30.6078 10.2964 32.0127C10.2313 32.3329 10.1791 32.6531 10.0684 32.9471C9.7101 33.0778 6.88942 33.0974 6.45298 32.9798C6.36833 32.8948 6.39439 32.7903 6.41389 32.6857C6.86336 30.477 7.30635 28.2684 8.12063 26.1577C8.47241 25.256 8.9154 24.4 9.49516 23.6223C10.4592 22.335 11.7295 21.479 13.2083 20.9105C14.7782 20.3093 16.4263 20.0218 18.0875 19.8454C20.7062 19.5643 23.338 19.5317 25.9698 19.6036C27.7547 19.6558 29.5396 19.7996 31.2789 20.2897C31.7805 20.4335 32.2625 20.6099 32.7315 20.8255C34.4318 21.6162 35.3568 22.9689 35.6629 24.792C35.8714 26.0336 35.8258 27.2686 35.6825 28.5101C35.3894 31.0195 34.8552 33.483 34.067 35.8811C33.6696 37.0965 33.1615 38.2597 32.471 39.3444C31.2919 41.2068 29.6568 42.4745 27.5918 43.2194C26.1261 43.7487 24.6017 44.0428 23.0644 44.2584C21.2209 44.5133 19.3643 44.6374 17.5077 44.8073C15.6968 44.9707 13.8858 45.1602 12.1204 45.611C11.5146 45.7614 10.9283 45.9574 10.355 46.1926C8.71341 46.8657 7.5539 48.0354 6.85033 49.6621C6.49207 50.4792 6.23804 51.3287 6.0426 52.2046C5.75596 53.5046 5.47587 54.8119 5.18924 56.1119C5.15663 56.2687 5.13057 56.4254 5.10451 56.5565C5.19572 56.7 5.3065 56.6743 5.40418 56.6809C5.55398 56.6868 5.6973 56.6809 5.84717 56.6809C13.5535 56.6809 21.2534 56.6809 28.9598 56.6809C29.1943 56.6809 29.4353 56.6345 29.6503 56.7457C29.7154 57.0857 29.2855 59.2882 29.051 59.824C28.8881 59.9477 28.6862 59.9087 28.4973 59.9087C27.0186 59.9087 25.5398 59.9087 24.061 59.9087C16.5045 59.9087 8.94794 59.9087 1.39793 59.9087C1.1308 59.9087 0.863738 59.9021 0.59668 59.8954C0.603157 59.8108 0.603158 59.7188 0.603158 59.6341Z" fill="white"/>
<path d="M42.907 59.8108C42.6656 59.2418 37.6889 39.913 37.6954 39.5797C38.0211 39.4687 40.8548 39.4556 41.2979 39.5601C41.4414 39.7038 41.4539 39.9064 41.4996 40.0894C42.8157 45.4282 44.1253 50.7671 45.4473 56.1053C45.5062 56.3408 45.5187 56.6022 45.6821 56.8046C45.9295 56.7913 45.9228 56.5955 45.9619 56.452C46.19 55.6548 46.405 54.851 46.6199 54.0538C47.8904 49.3751 49.1602 44.6963 50.4307 40.0175C50.4764 39.8607 50.5088 39.6974 50.5934 39.5732C50.9453 39.4621 54.483 39.449 54.9254 39.5536C55.0557 39.6843 55.0756 39.8673 55.1212 40.0372C56.561 45.4673 58.0001 50.8973 59.4399 56.3276C59.4856 56.491 59.4856 56.6868 59.6615 56.798C59.8963 56.7457 59.8632 56.5241 59.9029 56.3732C60.215 55.1969 60.5088 54.0214 60.8084 52.8385C61.9022 48.5582 62.9968 44.2781 64.0914 39.9979C64.1304 39.8411 64.1628 39.6777 64.2607 39.5536C64.6707 39.4425 67.5113 39.449 67.8889 39.5601C67.9736 39.7692 67.8698 39.9587 67.8175 40.1548C67.0225 43.1214 66.2283 46.0816 65.4333 49.0416C64.508 52.4917 63.5768 55.9419 62.6516 59.3927C62.6125 59.5363 62.5927 59.6864 62.4889 59.7976C62.1562 59.9087 57.6092 59.9345 57.0557 59.8366C56.8864 59.7129 56.8731 59.5098 56.8275 59.3272C56.0266 56.2562 55.225 53.191 54.4241 50.12C53.9552 48.3099 53.4797 46.5063 53.0042 44.7028C52.9652 44.5525 52.9585 44.376 52.8017 44.2584C52.5544 44.2519 52.5478 44.4544 52.5021 44.6179C52.3004 45.3497 52.1046 46.0751 51.9096 46.8069C50.7826 50.9827 49.649 55.1645 48.522 59.3405C48.483 59.4973 48.4506 59.6607 48.3527 59.791C48.2092 59.9087 48.0465 59.8889 47.8838 59.8889C46.3726 59.8889 44.868 59.8889 43.356 59.8889C43.2199 59.9087 43.0697 59.922 42.907 59.8108Z" fill="white"/>
<path d="M43.8515 22.6683C43.6498 22.7598 43.6755 22.9624 43.6431 23.1257C43.0565 26.1643 42.4705 29.2094 41.8839 32.248C41.5776 33.8489 41.2714 35.4499 40.9593 37.0509C40.9262 37.2077 40.9137 37.3776 40.7635 37.5736C39.7801 37.5998 38.7573 37.5867 37.741 37.5802C37.6042 37.3711 37.6824 37.2012 37.7215 37.0313C38.3403 34.0907 38.9657 31.1436 39.5843 28.2031C40.1319 25.6219 40.6722 23.0408 41.2199 20.4596C41.2589 20.2898 41.278 20.1068 41.3759 19.9631C41.532 19.8323 41.7146 19.8519 41.8905 19.8519C43.3826 19.8519 44.8739 19.8519 46.366 19.8519C46.5287 19.8519 46.6914 19.8389 46.8415 19.9434C46.9851 20.133 47.0241 20.3747 47.0889 20.6034C48.3918 24.9489 49.688 29.2944 50.9843 33.6333C51.069 33.9143 51.1477 34.2018 51.2383 34.4828C51.278 34.6004 51.2972 34.7572 51.4989 34.7442C51.6424 34.62 51.6358 34.4305 51.6682 34.2671C52.5611 29.6537 53.4466 25.0404 54.3329 20.4335C54.3653 20.2571 54.3785 20.0806 54.4955 19.9369C54.9519 19.8062 57.264 19.8258 57.6034 19.9631C57.6291 20.3224 54.0922 37.1097 53.9096 37.5083C53.5835 37.6063 49.1021 37.639 48.4764 37.5475C48.3071 37.4299 48.288 37.2273 48.2357 37.0443C46.8548 32.3982 45.4797 27.7522 44.1054 23.1062C44.0532 22.9428 44.073 22.7337 43.8515 22.6683Z" fill="white"/>
<path d="M57.2581 37.5278C57.2383 37.1227 60.7752 20.3224 60.9578 19.9434C61.1146 19.8323 61.2964 19.8584 61.4657 19.8584C64.098 19.8584 66.7296 19.8454 69.3612 19.865C70.3321 19.8715 71.3155 19.9238 72.2599 20.1917C72.4749 20.2505 72.6898 20.3158 72.8923 20.3943C74.3188 20.9431 75.0284 22.0148 75.1396 23.5177C75.2044 24.3934 75.1263 25.269 74.9438 26.125C74.5985 27.7522 74.2599 29.3727 73.9015 30.9933C73.6806 32.0127 73.3612 32.9929 72.879 33.9207C71.889 35.8158 70.3387 36.9659 68.2607 37.3971C67.6218 37.5278 66.9769 37.5932 66.3255 37.5866C63.5047 37.5801 60.6781 37.5866 57.8573 37.5801C57.6615 37.5866 57.4665 37.6127 57.2581 37.5278ZM63.6483 22.6944C63.4723 23.0342 61.0881 34.2736 61.1013 34.7115C61.2316 34.8487 61.4009 34.8094 61.557 34.8094C63.2832 34.8094 65.0159 34.803 66.7429 34.816C67.928 34.8225 68.8533 34.3193 69.557 33.398C70.1238 32.6596 70.4749 31.8101 70.6707 30.9018C70.9835 29.4381 71.3023 27.9809 71.6151 26.5171C71.7454 25.8963 71.8566 25.269 71.8234 24.6221C71.7778 23.6354 71.3089 23.0538 70.3579 22.812C69.8566 22.6878 69.3354 22.6421 68.8209 22.6421C67.2574 22.6356 65.6873 22.6421 64.1238 22.6421C63.9611 22.6356 63.7918 22.6095 63.6483 22.6944Z" fill="white"/>
<path d="M85.0999 59.771C84.67 59.9219 82.2725 59.9411 81.7381 59.8108C81.387 58.817 81.0285 57.7917 80.6567 56.739C78.2857 56.739 75.9405 56.739 73.5563 56.739C73.1529 57.746 72.8857 58.7913 72.4749 59.8564C71.3678 59.9219 70.26 59.9087 69.1529 59.8631C69.1595 59.4449 74.4227 43.4743 74.6707 43.0626C75.0616 42.9515 78.9828 42.9449 79.465 43.0822C81.3281 48.6104 83.211 54.1781 85.0999 59.771ZM77.1264 45.7091C76.6766 46.7481 74.4359 53.7203 74.4359 54.0471C74.8467 54.1582 79.4716 54.145 79.8559 54.0147C78.9571 51.2764 78.0576 48.5385 77.1264 45.7091Z" fill="white"/>
<path d="M90.7083 45.8529C89.1647 45.8529 87.6078 45.8529 86.0708 45.8529C85.914 45.4216 85.9074 43.4873 86.0443 43.0757C86.1945 42.9581 86.3763 42.9842 86.5522 42.9842C90.5265 42.9842 94.5066 42.9842 98.4801 42.9842C98.656 42.9842 98.8386 42.9581 98.9946 43.0691C99.1382 43.4351 99.1448 45.3758 99.0079 45.7875C98.8518 45.8986 98.6693 45.8594 98.4933 45.8594C97.2684 45.8659 96.0369 45.8594 94.8128 45.8659C94.6369 45.8659 94.4543 45.8267 94.2916 45.9313C94.1614 46.1143 94.2136 46.3299 94.2136 46.5324C94.2136 50.7273 94.2136 54.9231 94.207 59.1181C94.207 59.3404 94.2394 59.562 94.1415 59.7711C93.8161 59.922 91.451 59.9544 90.9431 59.8174C90.787 59.6143 90.8452 59.3662 90.8452 59.1373C90.8386 54.9422 90.8452 50.7472 90.8386 46.552C90.8327 46.3495 90.8783 46.1338 90.7083 45.8529Z" fill="white"/>
<path d="M93.4186 8.34466C93.529 8.74981 93.529 20.0023 93.4186 20.3813C93.2817 20.5054 93.1124 20.4728 92.9563 20.4728C90.1356 20.4728 87.3148 20.4728 84.4941 20.4728C84.3505 20.4728 84.1945 20.4989 84.0642 20.3879C83.9795 20.2049 84.0833 20.0415 84.1422 19.8846C84.9954 17.5257 86.1879 15.3497 87.7381 13.3828C89.2169 11.5139 90.9365 9.89991 92.9166 8.56682C93.0668 8.47532 93.1904 8.33811 93.4186 8.34466Z" fill="white"/>
<path d="M112.206 0.0065511C112.779 0.156864 113.372 0.163415 113.952 0.254839C115.326 0.483546 116.668 0.810303 117.984 1.2873C118.114 1.33308 118.277 1.35266 118.355 1.50298C118.199 1.81663 115.932 4.11026 115.541 4.352L99.6395 3.1693C99.5681 3.0647 99.6594 3.00588 99.7183 2.94707C100.096 2.52889 100.526 2.19565 101.06 1.96039C103.399 0.940963 105.822 0.287521 108.362 0.0719161C108.467 0.0653648 108.564 0.0261317 108.662 0C109.841 0.00655133 111.027 0.0065511 112.206 0.0065511Z" fill="white"/>
<path d="M159.76 41.5662C159.74 41.6642 159.701 41.7687 159.695 41.8668C159.48 44.4741 158.535 46.8069 157.076 48.9503C157.043 48.996 156.998 49.0416 156.958 49.0806C156.953 49.0872 156.933 49.0872 156.848 49.1071C157.128 47.774 157.33 46.4541 157.349 45.1144C157.376 43.7618 157.193 42.4287 156.958 41.1349C157.271 40.6318 159.31 38.6322 159.617 38.5146C159.721 38.6518 159.662 38.8348 159.753 38.972C159.76 39.8476 159.76 40.7036 159.76 41.5662Z" fill="white"/>
<path d="M146.236 20.9889C147.226 19.989 148.184 19.0285 149.122 18.0941C149.357 18.179 149.382 18.3358 149.441 18.4665C150.191 20.2243 150.653 22.0539 150.829 23.9621C150.888 24.6155 150.9 25.2624 150.9 25.9159C150.9 26.0597 150.881 26.2164 150.978 26.419C153.741 27.7717 156.034 29.7386 157.656 32.4504C158.346 33.6005 158.874 34.8159 159.212 36.0967C158.997 36.4496 156.718 38.7497 156.379 38.9458C156.197 38.8216 156.164 38.606 156.092 38.423C155.187 36.1947 153.917 34.2147 152.191 32.5353C151.194 31.5617 150.106 30.6926 148.9 29.9869C148.797 29.928 148.699 29.8627 148.601 29.7974C148.562 29.7712 148.536 29.7386 148.438 29.6471C148.353 28.203 148.177 26.7065 147.806 25.2428C147.448 23.7856 146.888 22.4003 146.236 20.9889Z" fill="white"/>
<path d="M120.72 2.45039C123.463 3.82919 125.853 5.69801 127.905 8.07011C131.527 7.12907 135.117 7.19444 138.667 8.42292C138.53 8.75623 136.367 10.9779 135.801 11.3831C132.022 9.89977 128.094 9.50764 124.042 10.3114C123.098 9.3574 122.121 8.4556 121.065 7.6453C120.01 6.83507 118.883 6.14895 117.737 5.48895C117.925 5.13607 120.283 2.74439 120.72 2.45039Z" fill="white"/>
<path d="M147.969 15.8462C146.972 16.833 145.982 17.8131 144.947 18.8456C143.989 17.5191 142.979 16.3298 141.826 15.2646C140.673 14.1996 139.39 13.3109 138.055 12.5071C138.217 12.1869 140.491 9.86716 140.972 9.50772C142.751 9.91287 146.959 13.7029 147.969 15.8462Z" fill="white"/>
<path d="M143.24 20.4203C142.771 20.5118 136.771 20.4922 136.425 20.4073C136.302 20.2897 136.328 20.1394 136.328 19.9956C136.328 18.1725 136.328 16.3559 136.328 14.5327C136.328 14.4151 136.308 14.2909 136.393 14.1864C136.569 14.1276 136.699 14.2518 136.836 14.3302C138.464 15.232 139.93 16.3494 141.214 17.6889C141.911 18.4143 142.542 19.1984 143.096 20.0414C143.162 20.1394 143.272 20.2374 143.24 20.4203Z" fill="white"/>
</svg>
