<svg width="254" height="60" viewBox="0 0 254 60" fill="none" xmlns="http://www.w3.org/2000/svg">
<path d="M25.88 18.188L24.9749 19.1106L46.2683 40.8342L39.3135 47.9241C33.5971 53.7518 24.324 53.7518 18.6076 47.9241L0.15646 29.1146C-0.256388 43.6669 9.63609 56.4227 23.6253 59.3687C37.6144 62.3149 51.6513 54.6096 56.9549 41.0931L34.4864 18.188C32.1045 15.776 28.2619 15.776 25.88 18.188Z" fill="white"/>
<path d="M28.9603 43.5859C30.5641 43.6023 32.1202 42.9546 33.2635 41.7892L34.1843 40.8503L12.8751 19.143L19.83 12.0529C25.5464 6.24163 34.8036 6.24163 40.5359 12.0529L58.987 30.8626C59.3841 16.3102 49.4916 3.57071 35.5182 0.624604C21.5449 -2.32149 7.50811 5.38369 2.2046 18.9002L24.6571 41.773C25.8004 42.9385 27.3408 43.6023 28.9603 43.5859Z" fill="white"/>
<path d="M87.7441 25.9092H87.6647C83.8221 24.9704 80.4876 24.1612 80.4876 21.5549C80.4876 19.1268 83.0916 18.0423 85.68 18.0423C88.2681 18.0423 91.2693 19.2725 91.2693 22.769V22.9309H99.6691V22.769C99.6691 14.8857 94.5085 10.1914 85.8703 10.1914C77.2324 10.1914 71.9924 14.5781 71.9924 21.911C71.9924 30.2962 79.0266 32.0606 84.6477 33.469L84.7589 33.5013C88.7446 34.4563 92.1901 35.298 92.1901 38.1309C92.1901 40.9798 89.1096 42.5015 86.2515 42.5015C81.6625 42.5015 80.027 39.6039 80.027 37.1272V36.9653H71.4685V37.1272C71.4685 45.2857 77.2958 50.5628 86.299 50.5628C95.096 50.5628 100.796 45.6417 100.796 38.0176C100.812 29.2763 93.5715 27.3986 87.7441 25.9092Z" fill="white"/>
<path d="M118.929 18.8516C109.846 18.8516 102.987 25.6826 102.987 34.7315C102.987 43.7802 109.846 50.6274 118.929 50.6274C128.012 50.6274 134.871 43.7963 134.871 34.7477C134.871 25.6988 128.012 18.8516 118.929 18.8516ZM126.551 34.7315C126.551 39.4419 123.407 42.728 118.913 42.728C114.42 42.728 111.292 39.4419 111.292 34.7315C111.292 30.0209 114.436 26.7348 118.913 26.7348C123.407 26.7186 126.551 30.0209 126.551 34.7315Z" fill="white"/>
<path d="M154.514 18.9811C150.861 18.9164 147.352 20.4704 144.891 23.2221L143.414 19.6934H137.746V49.7857H145.955V33.9706C145.955 29.2763 148.4 26.3465 152.354 26.3465C155.673 26.3465 157.292 28.4669 157.292 32.8538V49.7534H165.502V31.5749C165.47 23.9182 161.167 18.9811 154.514 18.9811Z" fill="white"/>
<path d="M191.654 21.1826C189.32 19.6448 186.589 18.8354 183.794 18.8516C174.807 18.8516 168.281 25.5371 168.281 34.7315C168.281 43.8127 174.95 50.6599 183.794 50.6599C187.097 50.6922 190.32 49.543 192.877 47.39L193.75 49.7695H199.879V8.94492H191.654V21.1826ZM192.241 34.7315C192.289 36.8681 191.495 38.9239 190.019 40.4295C188.542 41.9348 186.525 42.7767 184.445 42.728C179.92 42.728 176.648 39.361 176.648 34.7315C176.648 30.1019 179.936 26.7348 184.445 26.7348C186.541 26.6863 188.558 27.5119 190.034 29.0336C191.511 30.5389 192.321 32.6109 192.257 34.7477H192.241V34.7315Z" fill="white"/>
<path d="M218.045 18.8516C209.328 18.8516 202.754 25.6826 202.754 34.7315C202.754 43.7802 209.344 50.6113 218.045 50.6113C224.905 50.6113 230.526 46.4996 232.685 39.8628L232.749 39.6524H224.143L224.095 39.7334C222.888 41.8702 220.681 43.1004 218.03 43.1004C214.314 43.1004 211.789 40.9149 211.075 37.1111H233.13V36.9814C233.225 36.1884 233.289 35.3951 233.289 34.6019C233.322 25.6342 226.763 18.8516 218.045 18.8516ZM218.045 26.0064C221.459 26.0064 223.936 27.8843 225.08 31.2998H211.329C212.281 27.9489 214.727 26.0227 218.061 26.0227V26.0064H218.045Z" fill="white"/>
<path d="M251.199 19.5153C247.484 19.5153 244.863 20.6484 242.784 23.1737L241.434 19.6934H236.113V49.7857H244.323V34.1487C244.323 29.3086 246.023 27.4309 250.373 27.4309H253.963V19.5315H251.199V19.5153Z" fill="white"/>
</svg>
