<svg width="202" height="60" viewBox="0 0 202 60" fill="none" xmlns="http://www.w3.org/2000/svg">
<path d="M30.9731 0C14.4046 0 0.972534 13.4317 0.972534 30.0002C0.972534 46.5694 14.4046 60 30.9731 60C47.5434 60 60.974 46.5694 60.974 30.0002C60.974 13.4328 47.5434 0.00143297 30.9727 0.00143297L30.9731 0ZM44.7311 43.2689C44.1938 44.1502 43.0402 44.4296 42.1589 43.8886C35.1151 39.5861 26.2478 38.6117 15.805 40.9976C14.7987 41.2269 13.7956 40.5964 13.5663 39.5897C13.3359 38.583 13.9639 37.5799 14.9728 37.3507C26.4008 34.7398 36.2035 35.8639 44.1114 40.6967C44.9926 41.2376 45.2721 42.3876 44.7311 43.2689ZM48.4031 35.1002C47.7261 36.2007 46.2859 36.5482 45.1861 35.8711C37.122 30.9144 24.8295 29.4789 15.2912 32.3743C14.0542 32.7479 12.7477 32.0508 12.3723 30.8159C11.9997 29.5789 12.6972 28.2749 13.9321 27.8987C24.8274 24.5928 38.3723 26.1942 47.6329 31.8849C48.7327 32.562 49.0802 34.0018 48.4031 35.1002ZM48.7184 26.594C39.0494 20.851 23.0967 20.3229 13.8651 23.1247C12.3826 23.5743 10.815 22.7375 10.3657 21.2551C9.91649 19.7719 10.7526 18.2053 12.2361 17.7546C22.8334 14.5376 40.4501 15.1592 51.5822 21.7677C52.9185 22.5591 53.3555 24.2812 52.5638 25.6127C51.7757 26.9461 50.0489 27.3857 48.7198 26.594H48.7184ZM82.5941 27.6945C77.4138 26.4593 76.4931 25.5923 76.4931 23.7707C76.4931 22.0496 78.1124 20.8914 80.5234 20.8914C82.8592 20.8914 85.1734 21.7709 87.6023 23.5815C87.674 23.6363 87.7671 23.6582 87.8567 23.6438C87.9498 23.6302 88.0286 23.5804 88.0824 23.5055L90.6116 19.9403C90.7155 19.7934 90.6868 19.591 90.5471 19.4789C87.6561 17.16 84.4032 16.0326 80.5986 16.0326C75.0064 16.0326 71.098 19.389 71.098 24.1912C71.098 29.341 74.4691 31.1645 80.2941 32.572C85.2487 33.7137 86.087 34.6703 86.087 36.3798C86.087 38.2749 84.396 39.4536 81.6734 39.4536C78.6498 39.4536 76.1815 38.4326 73.423 36.0466C73.3549 35.9857 73.2618 35.9607 73.1758 35.9642C73.0827 35.9714 73.0003 36.0144 72.9429 36.0825L70.1056 39.4571C69.9874 39.6004 70.0017 39.8082 70.1379 39.93C73.3478 42.796 77.2956 44.3078 81.5587 44.3078C87.5844 44.3078 91.4786 41.0155 91.4786 35.9177C91.4893 31.6162 88.9135 29.2339 82.6048 27.6992L82.5941 27.6945ZM105.113 22.5859C102.502 22.5859 100.359 23.6148 98.5897 25.7231V23.3501C98.5897 23.1627 98.4393 23.0101 98.253 23.0101H93.6137C93.4274 23.0101 93.277 23.1627 93.277 23.3501V49.7173C93.277 49.9036 93.4274 50.0576 93.6137 50.0576H98.253C98.4393 50.0576 98.5897 49.9036 98.5897 49.7173V41.3952C100.359 43.3763 102.502 44.3472 105.113 44.3472C109.968 44.3472 114.883 40.6107 114.883 33.4676C114.89 26.3231 109.975 22.5856 105.117 22.5856L105.113 22.5859ZM109.488 33.4676C109.488 37.1035 107.249 39.6434 104.039 39.6434C100.868 39.6434 98.4751 36.9888 98.4751 33.4676C98.4751 29.9461 100.868 27.2922 104.039 27.2922C107.195 27.2918 109.488 29.8888 109.488 33.4676ZM127.475 22.5859C121.224 22.5859 116.326 27.3993 116.326 33.5454C116.326 39.6255 121.191 44.3866 127.4 44.3866C133.673 44.3866 138.584 39.5897 138.584 33.4676C138.584 27.3664 133.705 22.5867 127.475 22.5867V22.5859ZM127.475 39.6793C124.151 39.6793 121.643 37.0067 121.643 33.4658C121.643 29.9088 124.065 27.3277 127.4 27.3277C130.746 27.3277 133.268 29.9991 133.268 33.5436C133.268 37.0999 130.832 39.6793 127.475 39.6793ZM151.932 23.0101H146.827V17.7919C146.827 17.6049 146.677 17.4523 146.491 17.4523H141.851C141.665 17.4523 141.511 17.6049 141.511 17.7919V23.0101H139.283C139.097 23.0101 138.946 23.1627 138.946 23.3501V27.3363C138.946 27.5233 139.097 27.6762 139.283 27.6762H141.511V37.9919C141.511 42.1583 143.585 44.272 147.68 44.272C149.342 44.272 150.722 43.928 152.022 43.1901C152.13 43.1327 152.194 43.0181 152.194 42.8963V39.0989C152.194 38.9843 152.133 38.8732 152.033 38.8123C151.932 38.7478 151.807 38.7442 151.703 38.798C150.811 39.2458 149.948 39.4536 148.981 39.4536C147.494 39.4536 146.827 38.7765 146.827 37.2647V27.678H151.932C152.119 27.678 152.269 27.5254 152.269 27.3381V23.3522C152.276 23.1649 152.126 23.0122 151.936 23.0122L151.932 23.0101ZM169.716 22.3896C169.716 20.5042 170.439 19.6634 172.059 19.6634C173.026 19.6634 173.803 19.8554 174.674 20.1456C174.781 20.1792 174.892 20.1624 174.978 20.0983C175.068 20.0342 175.118 19.9313 175.118 19.8224V15.914C175.118 15.7646 175.025 15.6324 174.878 15.5883C173.961 15.315 172.786 15.0345 171.023 15.0345C166.742 15.0345 164.475 17.4469 164.475 22.0084V22.99H162.246C162.06 22.99 161.906 23.1426 161.906 23.3297V27.3363C161.906 27.5233 162.06 27.6762 162.246 27.6762H164.475V43.5841C164.475 43.774 164.629 43.9245 164.815 43.9245H169.451C169.641 43.9245 169.791 43.774 169.791 43.5841V27.6773H174.122L180.757 43.5841C180.005 45.2535 179.263 45.5867 178.253 45.5867C177.436 45.5867 176.573 45.3431 175.695 44.8595C175.612 44.8165 175.512 44.8093 175.426 44.8344C175.337 44.8666 175.261 44.9311 175.226 45.0171L173.653 48.467C173.578 48.6318 173.642 48.8217 173.8 48.9076C175.441 49.7961 176.92 50.1758 178.751 50.1758C182.176 50.1758 184.071 48.5781 185.736 44.2863L193.783 23.4948C193.826 23.3902 193.811 23.272 193.747 23.1792C193.686 23.0871 193.582 23.0316 193.471 23.0316H188.642C188.495 23.0316 188.366 23.1237 188.319 23.2594L183.372 37.3865L177.955 23.2501C177.905 23.1186 177.78 23.0316 177.64 23.0316H169.716V22.3896ZM159.405 23.0101H154.766C154.58 23.0101 154.426 23.1627 154.426 23.3501V43.5841C154.426 43.774 154.58 43.9245 154.766 43.9245H159.405C159.592 43.9245 159.746 43.774 159.746 43.5841V23.3515C159.746 23.1641 159.595 23.0115 159.405 23.0115V23.0101ZM157.113 13.7964C155.275 13.7964 153.785 15.2838 153.785 17.1213C153.785 18.9598 155.275 20.449 157.113 20.449C158.95 20.449 160.437 18.9598 160.437 17.1213C160.437 15.2842 158.947 13.7964 157.113 13.7964ZM197.745 29.5162C195.911 29.5162 194.481 28.042 194.481 26.2519C194.481 24.4617 195.929 22.9707 197.763 22.9707C199.597 22.9707 201.026 24.4445 201.026 26.2332C201.026 28.0234 199.579 29.5162 197.745 29.5162ZM197.763 23.2953C196.09 23.2953 194.825 24.6243 194.825 26.2519C194.825 27.8787 196.083 29.1898 197.745 29.1898C199.418 29.1898 200.682 27.8618 200.682 26.2332C200.682 24.6064 199.425 23.2953 197.763 23.2953ZM198.486 26.5689L199.411 27.8615H198.63L197.799 26.6757H197.086V27.8615H196.434V24.4352H197.96C198.759 24.4352 199.282 24.8425 199.282 25.5282C199.285 26.0899 198.959 26.4331 198.49 26.5689H198.486ZM197.935 25.0231H197.086V26.1068H197.935C198.357 26.1068 198.612 25.8993 198.612 25.5644C198.612 25.2119 198.357 25.0231 197.935 25.0231Z" fill="white"/>
</svg>
