<svg width="61" height="60" viewBox="0 0 61 60" fill="none" xmlns="http://www.w3.org/2000/svg">
<path fill-rule="evenodd" clip-rule="evenodd" d="M48.089 26.5957C38.42 20.8537 22.469 20.325 13.235 23.127C11.753 23.574 10.187 22.7399 9.73698 21.2549C9.28698 19.7729 10.124 18.2068 11.606 17.7568C22.205 14.5378 39.821 15.1586 50.954 21.7676C52.286 22.5596 52.724 24.2823 51.932 25.6143C51.146 26.9463 49.418 27.3877 48.089 26.5957ZM47.774 35.1006C47.096 36.2016 45.656 36.5461 44.555 35.8711C36.494 30.9151 24.2 29.481 14.663 32.376C13.424 32.748 12.119 32.0519 11.744 30.8159C11.372 29.5799 12.068 28.2744 13.304 27.8994C24.197 24.5934 37.742 26.1957 47.003 31.8867C48.104 32.5617 48.449 34.0026 47.774 35.1006ZM44.102 43.2686C43.562 44.1506 42.413 44.4296 41.531 43.8896C34.487 39.5847 25.619 38.613 15.176 40.998C14.171 41.229 13.166 40.5983 12.938 39.5903C12.707 38.5853 13.334 37.5845 14.345 37.3535C25.772 34.7405 35.573 35.8648 43.481 40.6978C44.363 41.2378 44.642 42.3866 44.102 43.2686ZM30.344 0C13.775 0 0.343994 13.431 0.343994 30C0.343994 46.569 13.775 60 30.344 60C46.913 60 60.344 46.569 60.344 30C60.344 13.434 46.913 0 30.344 0Z" fill="white"/>
</svg>
