<svg width="197" height="60" viewBox="0 0 197 60" fill="none" xmlns="http://www.w3.org/2000/svg">
<path d="M96.05 3.7022H101.095V19.7307C101.095 22.5542 100.241 24.7232 98.468 26.1672C96.5305 27.6068 94.1809 28.3841 91.7672 28.3841C89.3534 28.3841 87.0039 27.6068 85.0664 26.1672C83.2936 24.7232 82.4395 22.5542 82.4395 19.7307V3.7022H87.4966V19.7307C87.4966 21.3713 87.8929 22.4958 88.6795 23.2116C89.5809 23.9135 90.6908 24.2945 91.8332 24.2945C92.9757 24.2945 94.0855 23.9135 94.987 23.2116C95.7735 22.4896 96.1023 21.3068 96.1023 19.7307L96.05 3.7022ZM112.211 13.4907C111.59 13.4584 110.972 13.6015 110.429 13.9036C109.886 14.2057 109.438 14.6546 109.138 15.1989V28.0076H104.259V9.94215H108.794L108.926 11.9791C109.544 11.2004 110.335 10.5757 111.235 10.1541C112.136 9.73238 113.122 9.52523 114.115 9.54889C114.871 9.51204 115.627 9.6268 116.337 9.8864C117.048 10.146 117.7 10.5452 118.254 11.0605C119.305 12.1112 119.83 13.884 119.83 16.4463V27.9431H114.97V16.5108C114.97 15.328 114.705 14.5415 114.245 14.1451C113.967 13.9048 113.644 13.723 113.294 13.6105C112.945 13.4981 112.576 13.4573 112.211 13.4907ZM123.114 5.27832C123.113 4.61555 123.372 3.97885 123.836 3.50557C124.396 3.05808 125.091 2.81429 125.807 2.81429C126.524 2.81429 127.219 3.05808 127.778 3.50557C128.02 3.73105 128.21 4.00639 128.334 4.31249C128.459 4.6186 128.516 4.94815 128.5 5.27832C128.501 5.94108 128.242 6.57778 127.778 7.05106C127.219 7.49855 126.524 7.74234 125.807 7.74234C125.091 7.74234 124.396 7.49855 123.836 7.05106C123.372 6.57778 123.113 5.94108 123.114 5.27832ZM128.304 9.94215V28.0076H123.443V9.94215H128.304ZM140.851 27.9431C139.92 28.2584 138.943 28.4132 137.96 28.4008C136.582 28.4537 135.23 28.0112 134.15 27.1535C133.231 26.3629 132.771 24.9834 132.771 23.015V13.4907H130.076V9.94215H132.771V5.47495H137.631V9.94215H140.728V13.4907H137.631V22.5542C137.59 22.8245 137.61 23.1008 137.69 23.3624C137.769 23.6241 137.907 23.8644 138.092 24.0658C138.505 24.3253 138.984 24.4618 139.472 24.459C139.735 24.4696 140 24.448 140.258 24.3945C140.522 24.3945 140.719 24.33 140.851 24.33V27.9431ZM158.324 25.1165C157.625 26.047 156.727 26.8101 155.697 27.3501C154.336 28.0517 152.825 28.4123 151.294 28.4008C148.471 28.4008 146.237 27.5467 144.661 25.8385C143.089 24.1725 142.238 21.953 142.295 19.6631V19.0087C142.178 16.5631 143.001 14.1653 144.596 12.3079C145.358 11.4302 146.31 10.7376 147.379 10.2825C148.449 9.82733 149.608 9.62164 150.769 9.681C153.399 9.681 155.377 10.4675 156.683 12.1112C157.989 13.7549 158.717 15.9209 158.717 18.5478V20.5848H147.223C147.338 21.6585 147.826 22.6578 148.603 23.4083C149.012 23.7744 149.489 24.0558 150.007 24.2361C150.526 24.4165 151.075 24.4923 151.623 24.459C152.458 24.5067 153.291 24.3454 154.048 23.9897C154.805 23.6341 155.462 23.0952 155.958 22.422L158.324 25.1165ZM150.704 13.4907C150.254 13.4595 149.803 13.539 149.391 13.7222C148.978 13.9053 148.617 14.1866 148.338 14.5415C147.743 15.3285 147.359 16.2551 147.223 17.2328H153.939V16.8396C153.94 15.9664 153.663 15.1156 153.15 14.4093C152.839 14.0806 152.457 13.8269 152.033 13.6678C151.609 13.5086 151.155 13.4481 150.704 13.4907ZM172.186 28.0721L171.922 26.1672C171.391 26.85 170.719 27.4106 169.952 27.811C168.615 28.4312 167.104 28.5672 165.677 28.1955C164.251 27.8239 162.998 26.9679 162.133 25.774C160.822 23.8426 160.175 21.5369 160.29 19.2053V18.8765C160.29 16.1114 160.88 13.884 162.133 12.1757C162.724 11.3416 163.515 10.6697 164.434 10.2218C165.352 9.77403 166.369 9.56478 167.39 9.6134C168.217 9.57497 169.042 9.73379 169.796 10.0767C170.549 10.4197 171.211 10.937 171.725 11.5859V2.38723H176.586V28.0721H172.186ZM165.089 19.2053C165.019 20.4826 165.292 21.7553 165.878 22.8921C166.126 23.3836 166.515 23.79 166.995 24.0593C167.475 24.3286 168.024 24.4485 168.573 24.4037C169.22 24.4341 169.863 24.2761 170.422 23.9489C170.982 23.6218 171.434 23.1394 171.725 22.5603V15.4017C171.452 14.8045 171.005 14.3034 170.443 13.9637C169.88 13.6239 169.229 13.4613 168.573 13.4969C168.018 13.4631 167.466 13.5949 166.986 13.8755C166.506 14.1561 166.121 14.5729 165.878 15.073C165.293 16.2541 165.021 17.5661 165.089 18.8827V19.2053ZM102.413 32.8035V57.1734H97.4295L87.641 41.0804V57.1734H82.5839V32.8035H87.641L97.4295 48.8965V32.8035H102.413ZM116.546 57.1734C116.292 56.6596 116.136 56.1034 116.085 55.5328C115.576 56.1192 114.948 56.5896 114.241 56.9123C113.088 57.4233 111.816 57.6076 110.565 57.4451C109.314 57.2825 108.132 56.7794 107.147 55.9906C106.58 55.5179 106.126 54.9233 105.819 54.2509C105.513 53.5786 105.362 52.8458 105.378 52.1071C105.343 51.2577 105.517 50.4126 105.883 49.6454C106.249 48.8781 106.797 48.2118 107.479 47.7044C108.859 46.6537 110.96 46.1283 113.719 46.1283H115.888V45.0776C115.934 44.34 115.699 43.6124 115.231 43.0406C114.965 42.7778 114.645 42.5767 114.293 42.4519C113.941 42.3271 113.566 42.2816 113.194 42.3186C111.486 42.3186 110.631 43.0416 110.631 44.4877H105.771C105.785 43.6955 105.982 42.9172 106.346 42.2137C106.711 41.5102 107.233 40.9005 107.872 40.4322C109.495 39.262 111.459 38.6614 113.458 38.724C115.316 38.649 117.145 39.2044 118.647 40.3001C120.027 41.3508 120.684 42.9269 120.684 45.096V52.7216C120.684 53.5581 120.75 54.3933 120.881 55.2194C120.986 55.7863 121.162 56.3376 121.406 56.8601V57.1888L116.546 57.1734ZM112.552 53.8246C113.284 53.8144 114.005 53.6346 114.656 53.2992C115.161 53.0107 115.589 52.605 115.904 52.1163V48.961H113.931C112.927 48.8876 111.928 49.1668 111.108 49.7506C110.824 49.9959 110.595 50.2985 110.436 50.6384C110.277 50.9783 110.192 51.3479 110.186 51.7231C110.178 52.0012 110.227 52.278 110.328 52.5371C110.429 52.7962 110.582 53.0324 110.776 53.2316C111.289 53.6123 111.91 53.82 112.549 53.8246H112.552ZM133.115 57.0413C132.685 57.1826 132.246 57.2924 131.8 57.3701C131.278 57.4476 130.751 57.4917 130.224 57.5022C128.846 57.5537 127.495 57.1113 126.414 56.2548C125.494 55.4642 125.035 54.0847 125.035 52.1163V42.5828H122.325V39.0435H125.019V34.5763H129.88V39.0435H132.952V42.5828H129.88V51.6463C129.838 51.9167 129.858 52.1929 129.938 52.4545C130.018 52.7162 130.155 52.9566 130.341 53.1579C130.754 53.4161 131.232 53.5524 131.72 53.5511C131.984 53.5617 132.248 53.5401 132.507 53.4866C132.771 53.4866 132.967 53.419 133.1 53.419L133.115 57.0413ZM135.152 34.3796C135.151 33.7169 135.41 33.0802 135.874 32.6069C136.433 32.1594 137.128 31.9156 137.845 31.9156C138.561 31.9156 139.256 32.1594 139.816 32.6069C140.289 33.0893 140.553 33.7379 140.553 34.4134C140.553 35.089 140.289 35.7376 139.816 36.22C139.256 36.6659 138.561 36.9087 137.845 36.9087C137.129 36.9087 136.434 36.6659 135.874 36.22C135.621 35.9884 135.423 35.7027 135.295 35.384C135.167 35.0654 135.113 34.7221 135.137 34.3796H135.152ZM140.273 39.0435V57.1704H135.398V39.0435H140.273ZM143.039 48.3066V47.9779C142.974 45.5916 143.766 43.2611 145.272 41.4092C146.784 39.6334 148.885 38.7793 151.58 38.7793C154.345 38.7793 156.44 39.6334 157.952 41.4092C159.459 43.2604 160.252 45.5914 160.185 47.9779V48.3066C160.245 50.6942 159.446 53.0238 157.933 54.8722C156.422 56.645 154.32 57.4991 151.626 57.4991C148.861 57.4991 146.765 56.645 145.254 54.8722C143.749 53.0198 142.956 50.6896 143.02 48.3036L143.039 48.3066ZM147.902 47.9103V48.239C147.846 49.5414 148.141 50.8349 148.756 51.9842C149.071 52.4628 149.5 52.8556 150.005 53.1274C150.509 53.3992 151.073 53.5415 151.646 53.5415C152.219 53.5415 152.783 53.3992 153.287 53.1274C153.791 52.8556 154.22 52.4628 154.535 51.9842C155.112 50.8209 155.405 49.5374 155.389 48.239V47.9103C155.436 46.6098 155.142 45.3197 154.535 44.1682C154.262 43.6505 153.841 43.2249 153.327 42.9446C152.813 42.6642 152.228 42.5416 151.644 42.592C151.063 42.5558 150.484 42.6845 149.973 42.9634C149.462 43.2423 149.04 43.6599 148.756 44.1682C148.155 45.3216 147.861 46.6103 147.902 47.9103ZM170.53 42.6566C169.902 42.6244 169.278 42.7743 168.733 43.0882C168.188 43.4021 167.745 43.8667 167.458 44.4262V57.1704H162.594V39.0435H167.126L167.322 41.145C167.937 40.3619 168.728 39.734 169.629 39.312C170.531 38.8899 171.52 38.6853 172.515 38.7147C173.281 38.6735 174.047 38.786 174.769 39.0456C175.491 39.3052 176.153 39.7067 176.718 40.2263C177.768 41.2771 178.294 43.0498 178.294 45.6122V57.1734H173.433V45.6122C173.433 44.4293 173.169 43.6428 172.711 43.2465C172.079 42.8044 171.312 42.5959 170.542 42.6566H170.53ZM191.302 52.1071C191.306 51.8439 191.241 51.5842 191.114 51.3537C190.987 51.1231 190.802 50.9296 190.577 50.7922C189.663 50.2793 188.66 49.9446 187.622 49.8059C185.979 49.4997 184.413 48.8733 183.013 47.9625C182.422 47.5685 181.942 47.0293 181.619 46.3967C181.297 45.764 181.142 45.0591 181.17 44.3494C181.18 43.5932 181.356 42.8484 181.685 42.1674C182.014 41.4864 182.488 40.8857 183.074 40.4076C184.389 39.2893 186.095 38.6994 188.396 38.6994C190.697 38.6994 192.599 39.2247 193.978 40.3431C194.626 40.8375 195.148 41.4764 195.505 42.2089C195.861 42.9413 196.041 43.747 196.031 44.5614H191.17C191.182 44.247 191.13 43.9335 191.017 43.6398C190.904 43.3462 190.732 43.0785 190.513 42.8532C189.921 42.3746 189.17 42.1395 188.411 42.1957C187.734 42.144 187.061 42.3298 186.506 42.7211C186.304 42.8906 186.141 43.1015 186.028 43.3395C185.914 43.5775 185.853 43.837 185.849 44.1006C185.845 44.3636 185.909 44.6231 186.036 44.8537C186.162 45.0843 186.347 45.2779 186.571 45.4155C187.384 45.8652 188.276 46.1552 189.198 46.2697C190.904 46.5931 192.547 47.1919 194.061 48.0424C195.373 48.832 196.031 50.1439 196.031 51.9197C196.024 52.6904 195.836 53.4488 195.482 54.1335C195.128 54.8183 194.618 55.4102 193.994 55.8615C192.614 56.9123 190.777 57.4377 188.411 57.4377C185.913 57.4377 183.944 56.7802 182.629 55.4652C182.021 54.9539 181.527 54.3221 181.176 53.6097C180.826 52.8974 180.627 52.12 180.592 51.3267H185.201C185.202 51.7252 185.298 52.1175 185.481 52.4716C185.663 52.8257 185.928 53.1315 186.251 53.3637C186.938 53.7955 187.743 54.0018 188.552 53.9536C190.325 54.0857 191.318 53.4282 191.318 52.1102L191.302 52.1071Z" fill="white"/>
<path d="M56.7669 54.6111C54.8709 55.5382 52.7159 55.7928 50.656 55.3331C49.2551 55.0135 47.8909 54.5502 46.5851 53.9505L43.6941 52.7708C41.1794 51.9828 38.4944 51.9136 35.9425 52.5711H35.6783C33.1343 51.8477 30.4301 51.9173 27.9267 52.7708C26.9436 53.0995 26.0219 53.5573 25.0387 53.9505C23.729 54.5593 22.3651 55.0438 20.9648 55.3976C18.9056 55.8517 16.7535 55.5973 14.8569 54.6756L14.5927 54.5435C14.5282 54.5435 14.5282 54.5435 14.5282 54.608C15.7898 55.9098 17.3835 56.8415 19.1367 57.3025C20.3136 57.618 21.5398 57.7066 22.7498 57.5636C24.5881 57.3152 26.3429 56.6408 27.8745 55.5942L30.6396 53.7508C31.6695 53.0882 32.9181 52.8555 34.1175 53.1026C34.775 53.1671 34.2496 53.4958 34.1851 53.5603C32.5292 54.3572 30.9619 55.3262 29.509 56.4514C28.5228 57.1734 26.7439 58.8817 26.7439 58.8817L28.0558 60L29.5029 58.4208C31.2785 56.5792 33.3146 55.0079 35.5462 53.757C35.6317 53.6941 35.735 53.6602 35.8411 53.6602C35.9472 53.6602 36.0506 53.6941 36.1361 53.757C38.3676 55.0079 40.4037 56.5792 42.1794 58.4208L43.6265 60L44.9384 58.8817L42.1732 56.4514C40.7243 55.3269 39.161 54.3579 37.5094 53.5603C37.3773 53.4958 36.9195 53.1671 37.577 53.1026C38.7783 52.8568 40.028 53.0918 41.058 53.757L43.8231 55.6004C45.3536 56.6469 47.1074 57.3213 48.9447 57.5698C50.1547 57.7128 51.3809 57.6242 52.5578 57.3086C54.2888 56.7953 55.87 55.8709 57.1663 54.6142C57.1306 54.5786 57.0842 54.5559 57.0342 54.5496L56.7731 54.6142M63.2096 48.8996C62.3766 49.5352 61.4416 50.0245 60.4445 50.3467C59.0359 50.7608 57.5775 50.9809 56.1094 51.0011C54.2194 51.0569 52.3335 51.2107 50.4594 51.4619C50.3273 51.4619 50.2627 51.4619 50.3273 51.3974C51.9633 50.7273 53.282 49.4581 54.0141 47.8488L55.8575 44.1036V43.9746C55.7285 44.0391 53.8881 45.6152 53.034 46.4048L49.9617 49.425C48.5742 50.6121 46.9338 51.4665 45.1657 51.9228H45.1012L45.0367 51.9873L48.5576 52.8383C50.0777 53.287 51.641 53.5733 53.2214 53.6925C55.1769 53.8846 57.1481 53.547 58.9282 52.715C60.7082 51.8831 62.2317 50.5875 63.3387 48.9641C63.3387 48.8965 63.2742 48.8965 63.2066 48.8965M68.9887 40.0942C68.0534 41.2252 66.9449 42.201 65.7044 42.9853C64.6464 43.702 63.5243 44.3191 62.3525 44.8287C60.8606 45.4315 59.4661 46.2515 58.214 47.262L57.9529 47.4587C57.8853 47.4587 57.8853 47.4587 57.8853 47.3911C57.8853 47.3235 59.8577 45.3572 60.4476 41.2187C60.5336 39.7343 60.7537 38.2608 61.1051 36.816V36.6839C59.7413 38.3747 58.6753 40.2854 57.9529 42.334L56.77 45.6828C56.2962 47.1918 55.4621 48.5626 54.3398 49.6769L54.2076 49.8059V49.8735C54.3398 49.8735 54.4688 49.8059 54.6009 49.8059L58.4106 49.0194C60.5043 48.6821 62.4868 47.8488 64.1928 46.5892C65.9425 45.3248 67.362 43.6576 68.3313 41.7287C68.5778 41.2141 68.7972 40.687 68.9887 40.1495C69.1178 40.0205 69.0533 40.0205 68.9887 40.085M71.4835 30.232C70.8768 32.0305 69.84 33.6536 68.4634 34.9603C66.8976 36.4884 65.4485 38.1315 64.1283 39.8761C64.1283 39.9406 63.9962 39.8761 64.0607 39.8116C64.5877 37.9989 64.7217 36.0946 64.4539 34.226C64.1928 32.6499 63.5322 30.9417 63.3387 29.0368L63.2742 28.9723C63.2742 29.0368 63.2066 29.1013 63.2066 29.1689C62.8117 30.4078 62.5481 31.6847 62.42 32.9787C62.3525 34.5548 62.6167 36.5917 62.4846 38.1679C62.3525 40.0113 62.2203 41.9131 61.3693 43.5537V43.6858L65.3081 41.2556C66.9305 40.2307 68.3373 38.899 69.4496 37.3353C70.872 35.3185 71.6244 32.9056 71.6002 30.4378V30.1736C71.5501 30.1814 71.5038 30.2051 71.4681 30.2412" fill="white"/>
<path d="M67.2774 31.2919C67.2887 30.7657 67.2661 30.2392 67.2098 29.7158C67.0808 27.8724 65.9625 26.3639 64.9762 24.8C64.3095 23.7938 63.717 22.7402 63.2035 21.6478C63.1678 21.6123 63.1214 21.5896 63.0714 21.5833C63.066 21.9348 63.0886 22.2861 63.139 22.634C63.4701 25.2898 64.1317 27.8938 65.1084 30.3856C65.6825 31.9333 65.906 33.5892 65.7628 35.2338C65.7628 35.3659 65.7628 35.3659 65.8273 35.4304C66.4202 34.5763 67.6031 33.3934 68.3251 32.4748C69.0471 31.5562 72.9889 27.089 71.0902 20.9135C71.0098 20.6391 70.8996 20.3743 70.7615 20.1239L70.697 20.1915C70.697 24.6556 68.5279 26.5636 67.6738 29.5837C67.5081 30.1446 67.3768 30.7151 67.2805 31.2919M67.345 22.0964L66.9518 21.0426L66.6845 20.4619C66.0256 19.2658 65.1057 18.2336 63.9931 17.4418C63.0864 16.679 62.2902 15.7939 61.6274 14.8118H61.4307C61.4953 15.0085 62.0882 16.9809 62.4815 17.8995C63.1306 19.1697 63.9244 20.3604 64.8472 21.4481L65.0438 21.7093C66.1505 23.2033 67.0152 24.8622 67.6062 26.625C67.6062 26.6421 67.613 26.6585 67.6251 26.6706C67.6372 26.6827 67.6536 26.6895 67.6707 26.6895L68.789 23.2731C69.1869 22.0639 69.5152 20.833 69.7722 19.5863C70.1685 16.6307 69.2468 12.8855 67.5386 10.784C67.503 10.8196 67.4804 10.8661 67.4741 10.9161L67.5386 11.1772L67.6707 11.5736C68.0207 13.1727 68.0427 14.8262 67.7352 16.434C67.4946 17.7109 67.3855 19.0091 67.4096 20.3083C67.4096 20.5049 67.5386 22.1517 67.5386 22.2131C67.5386 22.2746 67.4741 22.2131 67.4096 22.2131M62.0759 5.60706C62.6229 6.1218 63.0489 6.75137 63.3233 7.45047C63.7842 8.56573 63.9132 10.2156 64.245 11.4445L64.838 13.6105C64.838 13.6781 64.7704 13.7426 64.7059 13.6781C63.7089 12.4903 62.5058 11.4921 61.1542 10.7317C60.2722 10.1961 59.4938 9.5061 58.8561 8.69477L58.5274 8.23392C58.5188 8.22509 58.5085 8.21808 58.4972 8.21329C58.4858 8.2085 58.4736 8.20603 58.4613 8.20603C58.449 8.20603 58.4368 8.2085 58.4255 8.21329C58.4141 8.21808 58.4039 8.22509 58.3953 8.23392V8.43055C58.7094 9.90306 59.4128 11.2643 60.4322 12.3724C61.2864 13.162 62.205 13.884 63.0591 14.606C64.1914 15.5729 65.2464 16.6269 66.2144 17.7582C66.2144 17.7582 66.2789 17.8258 66.2789 17.7582V16.7075L66.3434 13.5552V12.5045C66.3475 11.4268 66.1506 10.3578 65.7628 9.35226C65.107 7.73641 63.8953 6.40813 62.3463 5.60706C62.2818 5.54254 62.1497 5.54254 62.0176 5.47495C62.0223 5.52603 62.0465 5.57334 62.0852 5.60706M55.326 2.5347C56.2406 3.40629 57.0566 4.37581 57.7593 5.42579C58.3942 6.46649 59.1673 7.4163 60.0574 8.24928C60.6473 8.84224 62.4231 10.2217 62.8809 10.615C62.8164 10.0896 61.9592 6.34442 59.6641 4.50408C58.3322 3.43982 56.7849 2.67771 55.1294 2.27048V2.40259L55.326 2.5347ZM18.5346 53.6925C20.0686 53.5727 21.585 53.2863 23.0571 52.8383L26.6056 51.9842H26.6701C26.6701 51.9758 26.6685 51.9674 26.6652 51.9595C26.662 51.9517 26.6572 51.9446 26.6512 51.9386C26.6453 51.9326 26.6381 51.9279 26.6303 51.9246C26.6225 51.9214 26.6141 51.9197 26.6056 51.9197H26.538C24.7562 51.4487 23.0978 50.5965 21.6776 49.4219L18.6052 46.4663L15.7817 44.0361V44.1682C16.0429 44.5614 17.0291 46.7305 17.6251 47.9103C18.3365 49.5341 19.6622 50.81 21.312 51.4589C21.3765 51.5234 21.312 51.5234 21.1798 51.5234C19.306 51.2705 17.4199 51.1177 15.5298 51.0656C14.0616 51.0444 12.6031 50.8232 11.1947 50.4081C10.1979 50.0853 9.26301 49.596 8.42958 48.961H8.29747C9.60366 50.8032 11.425 52.2183 13.5328 53.0288C15.1452 53.5403 16.8354 53.7629 18.5253 53.6863M17.0137 49.809C17.1458 49.809 17.2104 49.8766 17.407 49.8766V49.809L17.278 49.68C16.1765 48.5493 15.3456 47.1838 14.8477 45.6859L13.6649 42.337C12.9413 40.2883 11.8743 38.3777 10.5096 36.687V36.8191C10.8848 38.2615 11.1275 39.7352 11.2346 41.2218C11.8245 45.2926 13.797 47.2651 13.797 47.3296C13.797 47.3941 13.797 47.4617 13.7294 47.3941L13.4682 47.1975C12.2151 46.1892 10.8208 45.3704 9.32978 44.7673C8.15737 44.2588 7.03516 43.6416 5.97785 42.9239C4.73677 42.1415 3.62812 41.1667 2.6935 40.0358H2.62898C2.81918 40.5728 3.03867 41.099 3.28646 41.612C4.27875 43.5448 5.72004 45.2116 7.48944 46.4724C9.16317 47.7858 11.1592 48.6252 13.2685 48.9027C14.519 49.2314 15.7664 49.5601 17.0137 49.8244M6.4387 41.2863L10.3805 43.7165C10.4161 43.6809 10.4388 43.6344 10.445 43.5844C9.59093 41.8762 9.45882 40.0389 9.32978 38.1986C9.19767 36.5549 9.45882 34.5855 9.3943 33.0094C9.26958 31.6906 9.0091 30.3882 8.617 29.1229C8.617 29.0583 8.55248 28.9938 8.55248 28.9262L8.48796 28.9938C8.35585 30.8987 7.63384 32.6069 7.36962 34.183C7.10806 36.0508 7.24204 37.9528 7.76288 39.7655C7.83047 39.8331 7.69836 39.8976 7.69836 39.8331C6.39451 38.0752 4.94431 36.4307 3.36327 34.9173C1.98927 33.6334 0.951208 32.0319 0.340077 30.2535C0.305929 30.217 0.260449 30.1932 0.211038 30.1859C0.143447 30.1859 0.211038 30.318 0.211038 30.4501C0.202255 32.9179 0.959015 35.3278 2.37705 37.3475C3.46335 38.916 4.84762 40.2553 6.45099 41.2894M5.72898 35.5072C5.7935 35.4427 5.7935 35.4427 5.7935 35.3106C5.63488 33.6558 5.88272 31.9873 6.51551 30.4501C7.44178 27.9422 8.10287 25.3442 8.48796 22.6986C8.48796 22.3698 8.55248 21.7769 8.55248 21.6478C8.48796 21.6478 8.48796 21.6478 8.48796 21.7123C7.97525 22.8068 7.38166 23.8615 6.71214 24.8676C5.66139 26.3116 4.61065 27.8878 4.47854 29.7281C4.41413 30.2515 4.41413 30.7808 4.47854 31.3042C4.47854 31.3213 4.47174 31.3377 4.45964 31.3498C4.44754 31.3619 4.43113 31.3687 4.41402 31.3687V31.3042L3.95316 29.7281C3.03146 26.7049 0.933041 24.8123 0.933041 20.3328L0.865449 20.2683C0.736411 20.5295 0.668819 20.7937 0.53978 21.0548C-1.36815 27.2303 2.50916 31.6975 3.3049 32.6192C4.10064 33.5409 5.14831 34.6531 5.73513 35.5072M2.97001 23.2178L4.08528 26.6342C4.09375 26.6342 4.10214 26.6326 4.10997 26.6293C4.11779 26.6261 4.12491 26.6213 4.1309 26.6153C4.13689 26.6094 4.14164 26.6022 4.14488 26.5944C4.14813 26.5866 4.1498 26.5782 4.1498 26.5697C4.76638 24.8179 5.62914 23.1627 6.71214 21.654L6.90877 21.3897C7.81716 20.2924 8.60992 19.1043 9.27448 17.8442C9.66774 16.9225 10.2607 14.9532 10.3252 14.7565H10.1286C9.46649 15.7383 8.67019 16.6225 7.76288 17.3834C6.61256 18.1824 5.66553 19.2399 4.99776 20.4711C4.93325 20.6677 4.80113 20.8644 4.73661 21.061L4.34335 22.1793C4.34335 22.1793 4.27576 22.3114 4.27576 22.1793C4.27576 22.0472 4.40787 20.5356 4.40787 20.2745C4.40893 18.9656 4.27509 17.6601 4.00847 16.3787C3.7006 14.7709 3.72255 13.1173 4.07299 11.5183C4.08657 11.3788 4.13175 11.2443 4.2051 11.125C4.2051 11.0605 4.26962 10.9284 4.26962 10.8608C4.26962 10.7932 4.26962 10.7963 4.2051 10.7317C2.49687 12.8332 1.51064 16.643 1.90698 19.534C2.23265 20.7814 2.56139 22.0288 2.95772 23.2209M5.32036 13.629L5.38795 16.7843V17.7674H5.45247C6.37918 16.6013 7.41292 15.5243 8.54019 14.5507L11.1671 12.3171C12.1945 11.208 12.9054 9.84354 13.2255 8.36603V8.17247H13.161L12.8323 8.63025C12.2191 9.4406 11.4619 10.1311 10.5987 10.6672C9.02255 11.6534 7.9718 12.3755 7.0501 13.6228C6.98558 13.6904 6.91799 13.6904 6.98558 13.5583L7.57547 11.3892C7.90421 10.1419 8.03632 8.50121 8.49718 7.39517C8.78706 6.7043 9.21102 6.07775 9.74455 5.55175V5.40735C9.61244 5.40735 9.54792 5.47187 9.41581 5.53946C7.84167 6.35803 6.60841 7.70777 5.93483 9.34918C5.50483 10.3426 5.30224 11.4196 5.34187 12.5014V13.6167M8.82592 10.529L11.6894 8.17247C12.5612 7.32067 13.3332 6.37237 13.9905 5.34591C14.6704 4.2808 15.4875 3.30979 16.4208 2.45789L16.6174 2.25819V2.12915C14.9518 2.50578 13.3989 3.27116 12.0857 4.36275C9.65238 6.26761 8.86586 10.0097 8.80134 10.5351M35.2205 30.9079C35.4171 30.6437 34.9563 30.447 34.8242 30.9079C34.6921 31.3687 35.0239 31.2366 35.2205 30.9079ZM40.2131 19.3466C40.0164 19.279 39.2914 20.1331 39.4235 20.2683C39.7686 20.042 40.0424 19.7224 40.2131 19.3466ZM40.3452 19.2145C40.4742 19.279 40.9351 19.0179 40.8706 18.9503C40.806 18.8827 40.2131 18.6215 40.2131 18.7537C40.2031 18.8354 40.2096 18.9183 40.2323 18.9975C40.255 19.0767 40.2934 19.1505 40.3452 19.2145ZM49.212 27.3593C49.4762 27.2948 49.4086 26.8985 49.212 26.8985C49.0154 26.8985 48.7511 27.2272 48.8187 27.2272C48.8863 27.2272 49.0799 27.4238 49.212 27.3593ZM45.9922 18.6185C45.7955 18.6185 45.731 18.8182 45.9277 18.9472C46.0044 18.9714 46.0856 18.9782 46.1654 18.9671C46.2451 18.9559 46.3213 18.9271 46.3885 18.8827C46.4647 18.8485 46.5297 18.7934 46.5759 18.7238C46.6221 18.6542 46.6477 18.573 46.6497 18.4894C46.6497 18.2897 46.3885 18.0286 46.5175 17.8965C46.6466 17.7644 46.8463 17.9641 46.9784 17.8965C47.0388 17.8658 47.0894 17.8186 47.1242 17.7605C47.1589 17.7023 47.1766 17.6355 47.175 17.5677C47.175 17.4387 47.1105 17.0424 46.8463 17.0424C46.5821 17.0424 46.3209 17.5677 46.3209 17.5677C46.2889 17.6403 46.2724 17.7188 46.2724 17.7982C46.2724 17.8775 46.2889 17.956 46.3209 18.0286C46.3885 18.2897 46.3209 18.6185 45.9922 18.6185Z" fill="white"/>
<path d="M50.3273 18.6799C50.439 19.0807 50.5713 19.4755 50.7236 19.8628C50.7881 20.0594 50.8557 20.7845 50.9848 20.7169C51.1138 20.6493 51.1169 20.256 51.0523 20.0594C50.9811 19.5913 50.8712 19.1299 50.7236 18.6799C50.656 18.4157 50.1982 17.4325 50.0661 17.4971C49.934 17.5616 50.2627 18.1545 50.3273 18.4188C50.3918 18.683 50.2627 18.5509 50.3273 18.683M48.0291 7.51499C48.2258 7.57951 48.2258 7.18625 47.897 6.9251C47.5683 6.66395 47.0429 6.79299 47.175 6.9251C47.433 7.15782 47.7201 7.35611 48.0291 7.51499ZM38.1761 4.69149C37.7153 4.42727 38.1116 4.03401 37.7828 3.76979C37.607 3.69998 37.415 3.68141 37.229 3.7162C37.0431 3.751 36.8708 3.83776 36.7321 3.96642C36.4034 4.36275 37.1254 4.23064 37.322 4.36275C37.5186 4.49486 38.1761 4.95265 38.2437 4.88813C38.256 4.8719 38.2641 4.85295 38.2674 4.83289C38.2708 4.81283 38.2692 4.79226 38.2629 4.77294C38.2565 4.75361 38.2456 4.73611 38.231 4.72193C38.2165 4.70775 38.1987 4.69731 38.1792 4.69149M40.806 3.37653C40.2162 3.11231 38.0409 3.11231 38.1147 3.70527C38.1884 4.29823 39.362 3.70527 39.6908 3.70527C40.0195 3.70527 41.3314 3.63768 40.806 3.37653ZM34.8242 28.7296C34.6951 28.6651 34.4985 28.7941 34.4309 28.6651C34.3633 28.536 34.2343 28.5975 34.2343 28.6651C34.2155 28.7207 34.2116 28.7803 34.2229 28.838C34.2343 28.8956 34.2604 28.9494 34.2988 28.9938C34.3721 29.0562 34.4652 29.0904 34.5615 29.0904C34.6577 29.0904 34.7508 29.0562 34.8242 28.9938C34.857 28.9576 34.8752 28.9105 34.8752 28.8617C34.8752 28.8129 34.857 28.7658 34.8242 28.7296ZM33.5768 24.33C33.7734 24.33 33.7734 24.1979 33.841 24.1979C33.9086 24.1979 33.841 24.33 34.0376 24.33C34.2343 24.33 34.4309 23.8691 33.841 23.8691C33.3802 23.8691 33.4447 24.33 33.5768 24.33ZM34.3664 24.8553C34.0376 24.7878 34.1022 24.9844 33.841 24.9844C33.4447 25.052 33.7734 24.7232 33.6444 24.5911C33.5768 24.5266 33.3802 24.8553 33.3156 25.052C33.3156 25.1841 33.3156 25.4452 33.4447 25.5098L34.6951 25.6419C34.9563 25.6419 34.6951 24.9199 34.3664 24.8553ZM30.2924 29.1229C30.4246 29.1229 30.4891 28.7296 30.4246 28.533C30.36 28.3363 29.9637 28.4684 29.9637 28.5975C30.0174 28.8019 30.1321 28.9851 30.2924 29.1229ZM25.0387 29.1229C25.0387 28.9938 25.0387 28.4684 24.9066 28.3363C24.7745 28.2042 24.7745 28.4008 24.71 28.4008C24.6455 28.4008 24.6424 28.1397 24.5779 28.1397C24.5134 28.1397 24.5779 28.533 24.71 28.7941C24.8421 29.0553 25.0387 29.4516 25.0387 29.1229ZM24.9066 27.9431C25.0358 27.562 25.1022 27.1625 25.1032 26.7602C25.1107 26.6476 25.0908 26.535 25.0453 26.4317C24.9999 26.3285 24.9302 26.2378 24.8421 26.1672C24.7745 26.1672 24.8421 26.3639 24.9066 26.6926C24.8722 27.0268 24.8064 27.357 24.71 27.6788C24.71 27.7434 24.8421 28.0721 24.9066 27.9431Z" fill="white"/>
<path d="M18.2058 42.6566C21.7002 46.1529 26.1531 48.5345 31.0012 49.4998C35.8492 50.4652 40.8747 49.9712 45.4419 48.0801C50.0092 46.189 53.913 42.9859 56.6596 38.876C59.4062 34.766 60.8722 29.9338 60.8722 24.9905C60.8722 20.0473 59.4062 15.2151 56.6596 11.1051C53.913 6.99512 50.0092 3.79203 45.4419 1.90097C40.8747 0.00990314 35.8492 -0.484178 31.0012 0.481219C26.1531 1.44662 21.7002 3.82812 18.2058 7.3245C15.8805 9.64141 14.0354 12.3946 12.7765 15.4261C11.5176 18.4577 10.8695 21.708 10.8695 24.9905C10.8695 28.2731 11.5176 31.5234 12.7765 34.5549C14.0354 37.5865 15.8805 40.3397 18.2058 42.6566ZM11.9659 25.5098H15.7756C15.8362 27.4483 16.1682 29.3687 16.7618 31.2151C16.5531 31.1544 16.3536 31.0655 16.1688 30.9509C15.9077 30.8188 15.7111 31.0154 15.6435 31.0154C15.3823 31.0154 15.0536 30.8188 15.0536 31.0154C15.0536 31.212 15.3147 31.083 15.3147 31.2151C15.3147 31.3472 14.6572 31.3442 14.5927 31.083C14.5282 30.8219 14.3961 30.5576 14.3316 30.8864C14.2671 31.2151 14.0028 31.1475 13.8707 31.2151C13.789 31.3043 13.7421 31.4199 13.7386 31.5408C13.7386 31.6729 13.4099 31.6084 13.4099 31.805C13.4099 32.0016 13.6065 32.0692 13.6741 32.2659C13.7417 32.4625 13.9352 32.5946 13.8062 32.6591C13.6772 32.7236 13.7386 32.5946 13.6065 32.6591C13.4744 32.7236 14.1995 34.6961 14.3316 34.6285C14.4637 34.5609 14.1319 33.9741 14.1319 33.7068C14.1206 33.6118 14.1402 33.5157 14.1878 33.4327C14.2354 33.3497 14.3084 33.2842 14.3961 33.2459C14.5927 33.1169 15.1181 34.0355 15.3178 33.9034C15.5175 33.7713 15.2533 33.6423 15.4499 33.5747C15.6465 33.5071 16.2395 34.4288 16.4361 34.1677C16.5682 33.971 16.6973 34.2967 16.6973 34.3643C16.8939 34.693 17.2227 34.693 17.4193 35.0863C17.6159 35.4795 18.0768 36.2046 18.4055 36.2046C18.7343 36.2046 18.5376 35.8759 18.6697 35.8759C18.8018 35.8759 18.9309 36.3337 19.1275 36.5979C19.2672 36.8004 19.4796 36.9413 19.7205 36.9911C20.1783 37.5841 20.7067 38.174 21.2321 38.7639L18.5376 41.4583C14.3617 37.1845 12.0069 31.4572 11.9689 25.4821M33.712 20.0318L33.4478 20.1639C33.087 20.3278 32.755 20.5487 32.4646 20.8183L29.7702 18.1269C31.3136 16.7527 33.2821 15.9501 35.3465 15.8534V19.6631C34.8741 19.7108 34.4101 19.8213 33.967 19.9918C34.0736 19.7997 34.2059 19.6229 34.3602 19.4664C34.1019 19.6158 33.8779 19.8178 33.7028 20.0594M31.6596 26.2994V26.4315C31.6596 26.2994 31.5951 26.2348 31.5275 26.1027C31.463 26.0351 31.3985 25.9706 31.3309 25.9706H31.0145L30.8854 26.0351H29.9637C29.8347 26.0351 29.7671 26.0351 29.7671 25.9706C29.7026 25.7095 30.0958 25.9061 30.36 25.1165C30.4246 25.052 30.4246 24.9199 30.4891 24.8553L30.5567 24.7232L30.6212 24.6556L30.6857 24.5911C30.7378 24.541 30.8004 24.5031 30.8689 24.4803C30.9375 24.4574 31.0103 24.4501 31.082 24.459H31.2142L31.3432 24.5911L31.5398 24.9844C31.6074 25.052 31.6719 25.052 31.6719 25.1165C31.7711 25.1656 31.8606 25.2323 31.9362 25.3131L32.0007 25.3807V25.4452C32.0652 25.5098 32.0652 25.5098 32.1328 25.5098H32.3939C32.5261 25.4452 32.5261 25.5098 32.5936 25.5098V25.5774C32.5936 25.6419 32.5936 25.6419 32.5261 25.7095C32.5261 25.774 32.4615 25.774 32.4615 25.8385C32.3939 25.9061 32.3294 25.9706 32.2649 25.9706C32.1541 25.9557 32.0444 25.9341 31.9362 25.9061C31.8686 25.9061 31.804 25.9061 31.804 25.9706V26.2994M24.5932 32.6069C24.4071 32.2412 24.3172 31.8341 24.3321 31.424C24.319 31.0221 24.1968 30.6313 23.9788 30.2934C23.902 30.0378 23.8576 29.7736 23.8467 29.5069C23.8467 29.046 23.4534 29.1782 23.4534 29.046C23.4534 28.9139 23.7791 29.046 23.7791 28.9139C23.6349 28.5811 23.3797 28.3085 23.0571 28.1428C22.7283 28.0107 22.8604 27.814 22.8604 27.6174C22.8746 27.5254 22.8702 27.4316 22.8475 27.3414C22.8248 27.2511 22.7843 27.1664 22.7283 27.092C22.6638 26.8278 22.7283 26.367 23.0571 26.367C23.1892 26.367 23.3858 26.4991 23.5824 26.367C23.7791 26.2348 23.65 25.8416 23.65 25.5128H25.4934C25.4934 25.7771 25.561 26.1058 25.561 26.367C25.4289 26.4345 25.3644 26.5667 25.4289 26.6312C25.4934 26.6957 25.561 26.7633 25.6255 26.6957C25.9511 28.6109 26.819 30.3927 28.1264 31.8296L25.432 34.524C25.2197 34.2955 25.0227 34.0533 24.8421 33.799V33.6023C24.8421 33.1446 24.5134 32.8803 24.3812 32.4871M22.0155 28.0199C21.8385 27.1975 21.7286 26.3622 21.6868 25.5221H23.2629C23.1339 25.7218 22.8051 25.9184 22.7375 26.115C22.6699 26.3116 22.2798 26.9691 22.5409 27.2303C23.1339 27.8878 22.4088 28.152 22.0155 28.0199ZM22.3443 37.7408L22.0155 38.0695L21.5547 37.6118C21.6842 37.5522 21.8285 37.5327 21.9692 37.5557C22.1099 37.5787 22.2405 37.6431 22.3443 37.7408ZM26.4182 20.8429C26.3506 20.8429 26.3506 20.9104 26.2861 20.9104C26.0895 21.1071 25.5641 21.0395 25.6286 21.2392C25.6931 21.4389 27.0757 20.7783 27.0757 20.9104C27.0757 21.0426 26.4827 21.2392 26.0895 21.4358C25.6962 21.6325 25.5641 21.9612 24.9066 21.9612C24.5779 21.9612 24.4458 22.2223 24.3167 22.419C24.1389 22.6673 23.9846 22.9316 23.8559 23.2086C23.8627 23.6182 23.7721 24.0236 23.5916 24.3914H21.6868C21.8199 21.0206 23.1474 17.807 25.432 15.3249L28.1264 18.0194C27.4709 18.9057 26.8991 19.8509 26.4182 20.8429ZM28.913 18.8735L31.2787 21.2392H31.0145C30.7533 21.2392 30.7533 21.0395 30.5567 21.0395C30.1603 21.1071 30.0958 21.2392 30.0313 21.1716C29.7387 20.9026 29.4059 20.6808 29.0451 20.5141C28.6137 20.3716 28.1446 20.3957 27.7301 20.5817C27.6656 20.5817 27.6656 20.6462 27.6011 20.6462C28.0588 20.0563 28.5228 19.4634 28.913 18.8735ZM25.6286 23.6694C25.6286 23.9306 25.5641 24.1948 25.5641 24.4559H24.1846C24.1581 24.3542 24.1562 24.2476 24.1792 24.145C24.2022 24.0424 24.2493 23.9468 24.3167 23.8661C24.3942 23.7331 24.5129 23.6291 24.6548 23.5697C24.7968 23.5104 24.9542 23.499 25.1032 23.5373C25.2837 23.5567 25.4605 23.6012 25.6286 23.6694ZM26.8115 26.7571L26.9436 26.9538C27.0757 27.0859 27.2047 27.2149 27.3368 27.1504C27.5105 27.1178 27.6886 27.1178 27.8622 27.1504C28.0404 27.2206 28.1987 27.3335 28.3231 27.4791C28.4552 27.6758 28.7163 27.5437 28.913 27.6758C29.1096 27.8079 29.3062 27.94 29.0451 28.069C28.7839 28.1981 29.3062 28.4654 29.3738 28.4654C29.4414 28.4654 29.5059 28.3333 29.5059 28.1366C29.5059 28.069 29.635 27.8079 29.8347 27.8724C30.0344 27.9369 30.6212 28.662 30.8178 28.3978C31.0145 28.1336 30.8854 27.8079 30.9499 27.6758C30.9521 27.6414 30.9667 27.6091 30.991 27.5848C31.0154 27.5605 31.0477 27.5458 31.082 27.5437C31.2402 27.8531 31.4385 28.1403 31.6719 28.3978L28.9806 31.0922C27.8406 29.8964 27.0851 28.3864 26.8115 26.7571ZM28.913 17.3619L26.2861 14.6705C28.7672 12.3899 31.9789 11.0666 35.3465 10.9376V14.7473C32.9511 14.8243 30.6625 15.7562 28.8945 17.3742M25.4781 13.8932L22.7867 11.1987C26.1936 7.98349 30.6638 6.13327 35.3465 6.00032V9.81004C31.6757 9.9274 28.1727 11.3753 25.4904 13.884M24.7038 14.606C22.2092 17.2944 20.7653 20.7907 20.636 24.4559H16.8263C16.9589 19.7786 18.8057 15.3131 22.0155 11.9085L24.7038 14.606ZM20.6299 25.5098C20.6313 26.2158 20.6972 26.9202 20.8265 27.6143C20.762 27.6143 20.762 27.4146 20.5654 27.4822C20.3687 27.5498 19.6437 28.7941 19.318 29.3256C19.0538 29.7834 19.447 30.7696 19.0538 31.0984C18.6729 31.228 18.2733 31.2944 17.8709 31.295H17.8064C17.1659 29.4774 16.8114 27.5713 16.7557 25.6449L20.6299 25.5098ZM35.2789 48.8965C29.3074 48.7797 23.6007 46.4104 19.3026 42.2633L21.994 39.5688C25.5858 42.9827 30.3104 44.9517 35.2635 45.0991L35.2789 48.8965ZM35.2789 44.0361C30.6083 43.8976 26.1506 42.0513 22.7498 38.8468L23.2107 38.386C23.31 38.4674 23.4207 38.5336 23.5394 38.5826C23.8236 38.7272 24.1477 38.7737 24.4611 38.7147C24.7253 38.6502 25.2507 38.1894 25.5795 38.1894C25.9082 38.1894 26.4336 38.3215 26.7623 38.1248C27.0911 37.9282 26.5626 37.2707 26.366 36.942C26.3015 36.8744 26.3015 36.8099 26.2369 36.7454C28.8153 38.9206 32.06 40.1489 35.4325 40.2263L35.2789 44.0361ZM35.2789 39.1203C31.909 38.9897 28.6958 37.663 26.2154 35.3782L28.9068 32.6837C30.173 33.8358 31.7095 34.6495 33.374 35.0494C32.7841 35.3106 32.5199 35.7038 32.5875 36.0326C32.6551 36.3613 32.1912 36.5579 32.1912 36.9543C32.1912 37.3506 32.7165 37.6118 32.7841 38.005C32.8486 38.2017 33.3095 38.5304 33.7058 38.7915C34.1966 38.9318 34.7098 38.9766 35.2174 38.9237L35.2789 39.1203ZM35.1468 33.8666C34.9501 33.7345 34.818 33.9987 34.5569 34.1277C32.7555 33.8666 31.0678 33.091 29.6964 31.8941L32.3878 29.2027C33.2126 29.8754 34.2191 30.2872 35.2789 30.3856C35.2789 30.5146 35.411 30.6467 35.411 30.911C35.411 31.1752 35.2144 31.3042 35.2789 31.4363C35.3434 31.5684 35.9364 31.4363 36.0009 31.2397C36.0654 31.0431 35.8043 30.911 35.7397 30.7143C35.6721 30.5822 35.6721 30.5146 35.6076 30.3856H35.8043C36.0043 30.3966 36.2048 30.3738 36.3972 30.318C36.4312 30.3158 36.4632 30.301 36.487 30.2766C36.5108 30.2523 36.5248 30.2199 36.5263 30.1859C36.5263 30.1214 36.5938 30.0568 36.5938 29.9893C36.5938 29.9217 36.6584 29.9247 36.6584 29.8602L36.726 29.9247C36.7905 30.0568 36.9226 30.4501 37.0516 30.3856C37.1807 30.3211 37.2513 29.7281 37.1837 29.596C37.1194 29.5111 37.0847 29.4075 37.0847 29.301C37.0847 29.1946 37.1194 29.091 37.1837 29.0061C37.1837 28.9385 37.2513 28.5452 37.3804 28.6098C37.5094 28.6743 37.3804 29.0061 37.3804 29.1351C37.3804 29.3348 37.5125 29.596 37.7091 29.4639C37.8412 29.3994 37.9733 29.2027 38.1054 29.2672C38.2376 29.3318 37.7767 29.4639 37.7091 29.596C37.6415 29.7281 37.9057 29.7926 37.8412 29.8602C37.7767 29.9278 37.7091 29.8602 37.6446 29.9247C37.5801 29.9893 37.7767 30.3856 37.6446 30.4501C37.5125 30.5146 37.0516 30.6467 36.9226 30.7143C36.7936 30.7819 36.6584 30.6467 36.726 30.5822C36.7936 30.5177 36.726 30.2535 36.5938 30.2535C36.4617 30.2535 36.4617 30.318 36.4617 30.4501C36.4617 30.5822 36.5938 30.7788 36.5938 30.8434C36.5938 30.9079 36.3972 30.9755 36.2651 31.04C36.1254 31.2473 35.947 31.4257 35.7397 31.5654C35.5431 31.6975 35.1468 31.6975 35.1468 31.8296C35.1468 31.9617 35.3465 31.9617 35.411 32.0262C35.5431 32.2229 35.6076 32.4871 35.3465 32.6192C35.0853 32.7513 34.7535 32.4195 34.6214 32.4871C34.4893 32.5547 34.4248 32.8803 34.3602 33.2736C34.2957 33.6669 35.0822 33.799 35.4755 33.6023C35.7397 33.4733 35.6721 33.077 35.9364 32.9449C36.2006 32.8127 36.133 32.5516 36.3972 32.6192C36.6614 32.6868 36.5938 32.4195 36.855 32.4195C37.1161 32.4195 37.1192 32.6192 37.448 32.6837C37.9733 32.8158 37.9733 33.2091 38.0379 33.0124C38.1024 32.8158 38.17 32.6837 37.7767 32.5516C37.3834 32.4195 37.1837 31.9617 37.5125 32.0938C37.9057 32.2904 38.2345 32.2904 38.3021 32.4871C38.3697 32.6837 38.7599 32.6192 38.8274 32.8158C38.892 33.1446 39.1562 32.8158 38.9596 32.6192C38.7629 32.4226 38.8274 32.355 38.9596 32.2229C39.0917 32.0907 39.1562 32.2904 39.3528 32.0262C39.5494 31.762 39.2852 31.8296 39.2207 31.6975C39.1562 31.5654 39.2207 30.8434 39.4849 30.9755C39.7492 31.1076 40.0103 30.911 39.8782 30.8434C39.7461 30.7758 39.9427 30.3856 40.0103 30.3856C40.0779 30.3856 40.0103 30.6467 40.0748 30.7143C40.1393 30.7819 40.7968 30.5146 40.8644 30.8434C40.932 31.1721 40.4036 31.3687 40.2715 31.3687C40.0103 31.3687 39.8106 31.633 39.614 31.8941C39.4173 32.1553 39.2207 32.2229 39.3528 32.4871C39.4849 32.7513 39.7461 32.6837 40.0103 32.5516C40.2745 32.4195 40.4681 32.2229 40.6002 32.1583C40.8644 32.0262 41.0611 32.8158 40.9289 32.9449C40.7968 33.0739 40.5357 33.1446 40.4036 33.2736C40.0255 33.5036 39.5977 33.6395 39.1562 33.6699C38.892 33.7345 38.892 33.799 38.8274 34.0632C38.7629 34.3274 37.5801 34.1277 37.3158 34.1277C37.0516 34.1277 37.5125 33.5378 37.1192 33.6023L35.9364 33.799C35.8718 33.799 35.4755 34.1277 35.1468 33.8666ZM38.6308 39.9744C38.9662 40.1183 39.26 40.3444 39.4849 40.6319C39.6816 40.9606 39.7461 41.0927 39.614 41.4215C39.2852 42.0114 39.4173 42.4046 40.0748 42.6043C40.4681 42.7334 40.6002 43.1297 40.8644 43.3909C39.4043 43.7747 37.906 43.9952 36.3972 44.0483V40.2386C37.1192 40.171 37.9057 40.1065 38.6308 39.9744ZM36.3972 39.1879V38.727C37.2513 38.5949 37.0516 39.1203 37.6446 38.9237C37.7358 38.8945 37.8333 38.8914 37.9261 38.9147C38.019 38.9381 38.1034 38.9869 38.17 39.0558C37.577 39.0662 36.9851 39.1103 36.3972 39.1879ZM36.3972 48.9733V45.0868C38.3846 45.0305 40.3524 44.6763 42.2347 44.0361C42.2606 44.0608 42.2917 44.0795 42.3257 44.0906C42.3597 44.1018 42.3958 44.1052 42.4313 44.1006C42.692 44.0841 42.9425 43.9935 43.1533 43.8394C43.7847 43.5894 44.3807 43.2579 44.9261 42.8532C46.6577 41.973 48.2516 40.8448 49.6575 39.5043L52.3489 42.1957C48.0672 46.3748 42.3687 48.788 36.388 48.9549M47.0276 14.5998L47.9493 13.6781C48.1898 13.9505 48.514 14.1353 48.871 14.2035C49.0075 14.2122 49.1361 14.2703 49.2328 14.367C49.3295 14.4637 49.3876 14.5924 49.3963 14.7289C49.4639 15.0576 49.7896 15.1897 50.1183 15.2542C50.4471 15.3188 50.6437 15.7151 50.9079 15.7151C51.1722 15.7151 52.0232 16.8949 52.3519 17.2912C52.5486 17.4878 52.8128 17.8166 53.0094 17.5524C53.2061 17.2881 53.2061 17.3557 53.3382 17.2912C54.3491 19.5503 54.9165 21.9827 55.0095 24.4559H51.1814C51.1699 23.5923 51.0607 22.7327 50.8557 21.8936C50.989 21.6288 51.0564 21.3359 51.0523 21.0395C51.0589 20.9835 51.0472 20.9268 51.0189 20.878C50.9907 20.8293 50.9473 20.7909 50.8955 20.7688C50.8436 20.7467 50.786 20.7419 50.7312 20.7553C50.6764 20.7686 50.6274 20.7993 50.5915 20.8429C50.4555 20.3482 50.2798 19.8652 50.0661 19.3988C50.0016 19.1346 49.934 18.809 49.8695 18.5447C49.8695 18.4802 49.7374 18.4126 49.6053 18.2805C49.51 18.0555 49.4002 17.8369 49.2765 17.6261C49.4762 17.494 49.5407 17.1652 49.2765 17.2298C48.8833 17.2974 49.1475 17.0331 49.0154 16.901C48.8833 16.7689 48.8833 16.901 48.8187 16.9686C48.3082 16.1809 47.7371 15.4341 47.1105 14.735V14.6705C46.9784 14.6705 46.9784 14.6029 47.0429 14.6029M49.3441 36.8713C49.212 36.6102 49.1475 36.2814 49.0154 36.0172C48.9478 35.7561 48.4224 35.7561 48.4224 35.8882C48.433 36.152 48.4114 36.4161 48.3579 36.6747V36.7454L46.9784 35.3659C49.4766 32.6768 50.9228 29.1779 51.0523 25.5098H54.8621C54.7397 30.1702 52.8903 34.6189 49.6729 37.9927L49.4762 37.7961C49.5254 37.4826 49.4794 37.1615 49.3441 36.8744M46.1888 39.5105C46.3885 39.1817 46.7818 38.5888 46.9784 38.26C47.175 37.9313 46.453 37.4735 46.0567 37.3383C45.6604 37.2031 45.6604 37.0096 45.6604 36.6808C45.8743 36.525 46.0728 36.3491 46.2533 36.1555L48.9447 38.8499C48.0566 39.6862 47.0894 40.4342 46.0567 41.0835C45.9891 40.9514 46.45 40.4906 46.5821 40.2939C46.7142 40.0973 46.0567 39.8361 46.1857 39.5074M47.8294 23.8046C47.5007 23.3468 47.9616 23.2792 48.4193 23.0826C48.6836 22.9536 49.0123 23.1502 49.0123 23.0181C49.0226 22.9276 49.051 22.8402 49.0958 22.761C49.1407 22.6818 49.2011 22.6125 49.2734 22.5572C49.4329 22.4856 49.5699 22.372 49.6698 22.2285C49.6698 22.3606 49.7343 22.4927 49.7343 22.6248C49.6079 22.8446 49.5402 23.0933 49.5377 23.3468C49.5377 23.5435 49.5377 23.8046 49.7343 23.3468C49.7343 23.2792 49.7988 23.2792 49.7988 23.2147C49.9045 23.6216 49.9491 24.042 49.9309 24.4621H47.1074V24.3976C47.3041 24.0688 48.0291 24.1333 47.8294 23.8046ZM48.3548 18.4188C48.3552 18.4275 48.3539 18.4362 48.3508 18.4444C48.3478 18.4526 48.3431 18.4601 48.337 18.4664C48.331 18.4727 48.3238 18.4777 48.3157 18.4812C48.3077 18.4846 48.299 18.4864 48.2903 18.4864C48.2227 18.5509 47.894 18.0255 47.894 18.4188C47.894 18.812 48.0261 18.9441 48.2903 19.0117C48.5545 19.0793 48.4193 19.2084 48.619 19.2729C48.7172 19.2901 48.8081 19.3361 48.8802 19.405C49.19 20.1254 49.4317 20.8732 49.6022 21.6386C49.5041 21.6881 49.4157 21.7546 49.341 21.8352C49.2089 21.9673 49.2734 22.2285 49.1444 22.4251C48.9447 22.7539 48.8802 22.9536 48.3548 22.8215C48.0261 22.6893 48.2903 22.2961 48.3548 21.9673C48.4193 21.6386 48.5514 21.7031 48.5514 21.5065C48.5514 21.3099 47.894 20.5848 47.5652 20.849C47.2365 21.1132 47.3041 21.3744 47.0398 21.6386C46.9108 21.7707 46.7787 21.7707 46.5821 21.6386C46.3854 21.5065 46.3178 21.3744 46.3854 21.2453C46.453 21.1163 45.9246 20.5203 45.728 20.2591C45.6026 20.0993 45.4433 19.9692 45.2616 19.8784C45.0799 19.7876 44.8803 19.7381 44.6772 19.7337C44.3206 19.1226 43.9016 18.5501 43.4268 18.0255L46.1212 15.3311C46.9998 16.2506 47.7511 17.284 48.3548 18.4034M43.8231 20.2468L43.691 20.4434C43.6265 20.5756 43.2977 20.3113 43.2301 20.3789C43.1625 20.4465 43.691 21.1009 43.1656 20.9043C42.6402 20.7077 42.969 20.7077 42.969 20.508C42.969 20.3083 42.5081 20.1823 42.7724 20.0502C43.0366 19.9181 42.7724 19.7214 43.0335 19.6539C43.2947 19.5863 43.2301 19.3282 42.9014 19.2606C42.5726 19.193 42.6402 19.9826 42.4436 19.8536C42.2512 19.7978 42.0507 19.7749 41.8506 19.786L42.7724 18.8643C42.8735 18.9168 42.9876 18.9391 43.1011 18.9288C43.2599 19.4073 43.5046 19.8529 43.8231 20.2437M42.7724 33.5778C43.1941 33.6349 43.611 33.7232 44.0197 33.842C44.2809 33.9741 44.4806 34.2352 44.6772 33.9065C45.072 33.3111 45.3397 32.6407 45.4637 31.9371C45.5958 30.9509 45.3992 30.6222 45.2671 30.6222C45.135 30.6222 44.8738 30.8864 44.6096 30.8864C44.4806 30.8864 44.4806 31.1475 44.4806 31.3442C44.4806 31.5408 44.2164 31.7405 44.1518 31.6084C44.0873 31.4763 43.9521 31.5408 44.0197 31.6729C44.0873 31.805 43.4944 31.7405 43.2301 31.6084C42.8369 31.4118 43.691 31.4118 44.0842 31.083C44.4289 30.7932 44.7581 30.4856 45.0705 30.1613C45.2671 29.8356 45.2671 29.4393 45.5958 29.1782C45.9246 28.917 46.45 28.9815 46.5175 28.5852C46.5851 28.1889 46.6497 28.2564 46.8463 28.324C47.0429 28.3916 48.8833 28.2564 48.8833 27.6666C48.8833 27.4023 48.49 27.0767 48.0967 27.0091C47.8325 27.0091 47.768 26.4837 47.6359 26.2225C47.5067 25.9458 47.3524 25.6815 47.175 25.433H49.9402C49.8078 28.8039 48.4803 32.0178 46.195 34.4995L46.1304 34.4319V34.1707C46.195 33.6454 45.8017 32.7912 45.6696 32.9203C45.5375 33.0493 45.6696 33.0524 45.2763 33.6454C45.1442 33.842 44.9476 34.1707 44.6864 34.1707C44.4253 34.1707 44.4222 34.0386 44.0289 34.1031C43.682 34.1707 43.3252 34.1707 42.9782 34.1031C42.35 33.901 41.7525 33.6136 41.2024 33.249C41.27 33.1845 41.4666 33.3166 41.4666 33.12C41.4666 32.9233 42.5173 33.5132 42.7816 33.5778M53.0924 41.5259L50.401 38.8468C53.8148 35.2551 55.7839 30.5304 55.9312 25.5774H59.8055C59.6824 31.5606 57.2866 37.2727 53.1047 41.5536M59.787 24.4559H55.9128C55.8516 21.6304 55.1787 18.8516 53.9403 16.3111L54.0079 16.2466C54.2691 15.9824 52.7606 14.013 52.4964 13.8164C52.1923 13.5487 51.903 13.2646 51.6299 12.9653C51.0953 12.4433 50.6117 11.8712 50.1859 11.2571L53.0094 8.43055C57.2308 12.7114 59.6499 18.448 59.7686 24.459M36.4034 1.07533C42.3871 1.20726 48.1048 3.57348 52.4318 7.70855L49.8019 10.3231C49.6729 10.2586 49.5407 10.1941 49.6053 10.062C49.7374 9.86534 49.4086 9.86534 49.3441 9.33997C49.1931 8.80944 48.8386 8.36003 48.3579 8.08952C48.0291 7.89289 47.8325 7.63174 47.5038 7.49963C47.175 7.36752 46.5175 6.97425 46.1888 7.10637C45.9779 7.18023 45.7576 7.22368 45.5344 7.2354C42.7411 5.7431 39.6342 4.93346 36.4679 4.87276L36.4034 1.07533ZM36.4034 5.9911C39.2126 6.07645 41.9697 6.77149 44.4837 8.02807C44.5608 8.45897 44.741 8.8648 45.009 9.21093C45.157 9.53286 45.3328 9.84126 45.5344 10.1326C45.731 10.3293 45.5989 10.7256 45.6634 11.0543C45.6634 11.1834 45.7955 11.3155 45.8631 11.4476V11.973C45.8631 12.0375 46.1243 12.0375 46.3209 11.9054C46.5175 11.7733 46.6497 11.5121 46.9139 11.5797C47.1781 11.6473 47.5038 12.1696 47.7004 12.5014L46.453 13.7488C46.3209 13.4876 46.1888 13.1589 46.2564 13.1589C46.324 13.1589 46.453 13.2234 46.5175 13.2234C46.7818 13.2234 46.3209 13.0268 46.3209 12.9623C46.1243 12.7626 46.1243 12.5014 45.8631 12.3048C45.602 12.1082 45.2057 12.2372 45.0735 11.976C44.8154 11.5087 44.4565 11.1046 44.0228 10.7932C43.9552 10.7932 44.5482 11.5152 44.3515 11.6473C44.1549 11.7794 43.4298 11.1865 43.3653 11.3186C43.3008 11.4507 44.1549 11.7794 44.4161 12.0406C44.5482 12.1727 44.8093 12.5659 45.0735 12.8947C42.569 10.9998 39.5419 9.92178 36.4034 9.80696V5.9911ZM36.4034 10.8516C39.7733 10.9846 42.986 12.3121 45.4668 14.5968L42.7754 17.2912C41.0098 15.7199 38.7634 14.7939 36.4034 14.6644V10.8516ZM36.4034 15.7673C38.472 15.8737 40.4419 16.6846 41.9858 18.0654L41.8537 18.1976L41.7247 18.133C41.3959 18.0009 40.7385 18.6584 40.8706 18.7229C41.0027 18.7875 41.2638 18.4618 41.3959 18.5263H41.4605L40.3452 19.7092C40.0164 19.8413 39.6877 20.1024 39.6877 20.299V20.3666L39.2914 20.7691L39.0947 20.5725C38.7835 20.3126 38.4274 20.1116 38.044 19.9795C38.1351 19.9079 38.2111 19.8188 38.2675 19.7175C38.324 19.6163 38.3597 19.5048 38.3727 19.3896C38.3727 18.9964 38.2406 19.1254 38.044 19.3251C37.8474 19.5248 37.6507 19.5863 37.5186 19.7829C37.1832 19.654 36.8272 19.5874 36.4679 19.5863V15.7765L36.4034 15.7673ZM35.9425 20.6278C35.9647 20.683 35.9705 20.7434 35.959 20.8017C35.9475 20.8601 35.9194 20.9139 35.878 20.9565C35.7459 21.0886 35.3526 20.6278 35.285 21.0211C35.1529 21.4174 35.5492 21.2208 35.5492 21.2853C35.7426 21.534 36.0242 21.699 36.3358 21.7461C36.6 21.7461 36.9933 21.7461 36.9933 22.0073C36.9933 22.1394 37.322 22.1394 37.3865 22.2715C37.3865 22.4681 37.5862 22.7969 37.7153 22.7293C37.8443 22.6617 38.044 22.7969 38.1116 22.929C38.1792 23.0611 38.1116 23.1256 38.044 23.2547C37.8474 23.4544 38.2406 23.3868 38.3082 23.78C38.3758 24.1733 37.9795 23.9121 37.9119 24.1764C37.7828 24.373 37.6507 24.5051 37.5186 24.7017C37.4541 24.7663 37.5862 24.8984 37.6507 24.8338C37.7153 24.7693 37.8474 24.5696 38.044 24.5696C38.2406 24.5696 38.4373 25.2916 38.637 25.3592C38.8367 25.4268 38.766 25.688 38.8336 25.7525C38.9012 25.817 38.5049 25.7525 38.5694 25.8846C38.6339 26.0167 39.0302 26.0812 39.0302 26.2779C39.0084 26.3855 38.9511 26.4826 38.8676 26.5539C38.7841 26.6252 38.6791 26.6664 38.5694 26.6711C38.3727 26.6711 38.044 26.2133 38.044 26.3424C38.044 26.4714 38.1761 26.8677 38.3727 26.8677C38.5694 26.8677 39.0302 26.6711 38.8336 26.9353C38.637 27.1996 38.7015 27.5928 38.5694 27.5928C38.4373 27.5928 38.3727 27.5928 38.5048 27.7894C38.5306 27.8912 38.5321 27.9977 38.5091 28.1001C38.4862 28.2026 38.4395 28.2983 38.3727 28.3793C38.3 28.4226 38.2148 28.4398 38.131 28.4281C38.0472 28.4164 37.9699 28.3764 37.9119 28.3148C37.9119 28.2472 38.3082 28.2472 38.3082 28.0506C38.3082 27.854 38.1116 27.7894 37.7153 27.9216C37.5186 27.9861 37.4541 27.854 37.322 27.854C37.1899 27.854 36.7966 28.3148 36.7966 28.3793V28.7081C36.8027 28.9426 36.7338 29.1729 36.6 29.3656C36.3632 29.4187 36.1204 29.4404 35.878 29.4301C34.8152 29.3997 33.7948 29.0061 32.9869 28.3148C33.15 28.2323 33.3295 28.1871 33.5123 28.1827C33.7089 28.2472 33.7734 28.1182 33.9055 28.0506C34.0376 27.983 34.3664 28.1827 34.563 28.0506C34.7597 27.9185 35.2205 27.0674 35.1529 26.8677C35.0853 26.668 35.6138 26.3424 35.5492 26.2779C35.4847 26.2133 35.4171 26.3424 35.4171 26.2779C35.4171 26.2133 35.5492 26.2133 35.4171 25.9491C35.285 25.6849 35.0884 25.817 34.9563 25.817C34.7597 25.688 34.4309 25.6204 34.3664 25.688C34.3019 25.7556 34.1022 25.5558 34.0376 25.6204C33.9867 25.6239 33.9387 25.6458 33.9026 25.6819C33.8665 25.7181 33.8446 25.766 33.841 25.817C33.7734 25.9491 33.9055 26.0812 33.9055 26.2133C33.841 26.4745 33.4447 26.6711 33.4447 26.8677C33.4447 27.0644 33.2481 26.9353 33.1835 26.9999C33.119 27.0644 33.1835 27.1965 33.0514 27.1965C32.9193 27.1965 32.7227 27.5252 32.5936 27.7894C32.3939 27.5252 32.1973 27.1965 32.0007 26.9353C32.1328 26.8677 32.2649 26.8032 32.3294 26.8677C32.5261 26.9999 33.3156 25.6204 33.1835 25.2271C33.0514 24.8338 32.8548 25.095 32.6582 25.1595C32.4615 25.224 32.4615 25.0305 32.5261 24.9629C32.5906 24.8953 33.4478 24.8984 32.9869 24.6341C32.7903 24.5051 32.2649 24.5051 32.3294 24.3085C32.3939 24.1118 32.6582 24.3085 32.7227 24.3085C33.0514 24.4375 33.2481 23.78 33.4447 23.78C33.7734 23.78 33.6444 23.1256 33.3156 23.3222C32.9869 23.5189 32.8548 23.4544 32.7227 23.651C32.5906 23.8476 32.2649 24.1088 32.2649 23.8476C32.2649 23.7155 32.9869 23.3222 33.119 23.1256C33.2641 22.9759 33.3751 22.7967 33.4447 22.6002C33.5123 22.4005 34.4309 22.2715 34.6275 22.1394C34.7782 22.0035 34.8725 21.816 34.8918 21.614C34.8918 21.4174 34.6275 21.4819 34.563 21.3498C34.4985 21.2177 34.8918 21.3498 34.8918 21.1532C34.8918 20.9565 34.563 21.1532 34.4309 21.0211C34.4309 20.9565 34.4309 20.9565 34.4985 20.892C34.9607 20.7203 35.4494 20.6309 35.9425 20.6278H36.0746H35.9425ZM35.3465 1.07533V4.88505C30.393 5.03039 25.6676 6.99976 22.077 10.4153L19.3825 7.72084C23.6806 3.57377 29.3873 1.20439 35.3588 1.08762M18.5407 8.51043L21.2352 11.2018C17.8201 14.7927 15.8508 19.5179 15.7049 24.4713H11.8983C12.0813 18.5179 14.4427 12.8386 18.5346 8.51043" fill="white"/>
</svg>
