<svg width="217" height="50" viewBox="0 0 217 50" fill="none" xmlns="http://www.w3.org/2000/svg">
<path d="M175.735 6.44765H167.63L153.813 33.8809L140.166 6.44765H132.198C140.795 23.6414 153.951 50 153.951 50L175.735 6.44765Z" fill="white"/>
<path d="M112.901 12.9414C116.104 12.9423 119.214 14.0142 121.737 15.9864C124.26 17.9587 126.051 20.7181 126.825 23.8256H98.9775C99.754 20.7194 101.546 17.9615 104.068 15.9897C106.591 14.0178 109.7 12.945 112.901 12.9414ZM112.901 41.6027C109.702 41.5999 106.594 40.5293 104.072 38.5604C101.55 36.5915 99.7569 33.8371 98.9775 30.7338H134.148V27.2797C134.142 22.1018 132.241 17.1052 128.804 13.2325C125.367 9.35987 120.631 6.87897 115.491 6.25785C110.35 5.63674 105.16 6.91837 100.899 9.86095C96.6388 12.8035 93.6025 17.2036 92.3631 22.231C91.1238 27.2584 91.7672 32.5656 94.172 37.1512C96.5767 41.7369 100.576 45.2839 105.417 47.1232C110.257 48.9624 115.603 48.9667 120.446 47.1353C125.289 45.3038 129.295 41.7632 131.707 37.1814H123.279C121.938 38.5817 120.327 39.6955 118.543 40.4555C116.759 41.2154 114.84 41.6057 112.901 41.6027Z" fill="white"/>
<path d="M194.894 41.7716C192.069 41.7712 189.306 40.9361 186.954 39.3711C184.602 37.8062 182.764 35.5812 181.672 32.9755C180.58 30.3698 180.282 27.4995 180.816 24.7251C181.349 21.9506 182.691 19.3956 184.672 17.3809C186.652 15.3663 189.184 13.9816 191.949 13.401C194.714 12.8203 197.589 13.0694 200.213 14.1171C202.837 15.1648 205.093 16.9643 206.697 19.2897C208.302 21.6151 209.184 24.3627 209.232 27.1876V27.6635C209.164 31.4237 207.624 35.0072 204.944 37.6449C202.263 40.2826 198.655 41.7642 194.894 41.7716ZM216.141 6.55511H209.232V11.79C206.195 8.99575 202.41 7.14648 198.339 6.46806C194.269 5.78963 190.088 6.31142 186.309 7.9697C182.53 9.62798 179.316 12.351 177.059 15.806C174.802 19.2611 173.6 23.2986 173.6 27.4255C173.6 31.5525 174.802 35.59 177.059 39.0451C179.316 42.5001 182.53 45.2231 186.309 46.8814C190.088 48.5397 194.269 49.0615 198.339 48.383C202.41 47.7046 206.195 45.8553 209.232 43.0611V48.342H216.141V6.55511Z" fill="white"/>
<path d="M65.6953 12.9414C68.8964 12.9476 72.004 14.0215 74.5259 15.9929C77.0479 17.9644 78.8403 20.7207 79.6192 23.8256H51.8789C52.6485 20.7359 54.4235 17.9898 56.9247 16.0194C59.4259 14.049 62.5113 12.9662 65.6953 12.9414ZM65.6953 41.6027C62.5141 41.5761 59.4316 40.4946 56.9311 38.5276C54.4307 36.5606 52.6538 33.8194 51.8789 30.7338H87.0033V27.2797C87.0069 22.0897 85.1108 17.0779 81.6727 13.19C78.2346 9.30217 73.4923 6.8072 68.3409 6.17596C63.1894 5.54472 57.9851 6.82087 53.71 9.76359C49.4349 12.7063 46.3848 17.112 45.1352 22.1493C43.8856 27.1867 44.5231 32.5071 46.9272 37.1067C49.3313 41.7063 53.3359 45.2668 58.1851 47.1164C63.0344 48.9659 68.3929 48.9766 73.2494 47.1463C78.106 45.316 82.1246 41.7714 84.547 37.1814H76.1344C74.7851 38.5878 73.1639 39.705 71.3693 40.4651C69.5747 41.2252 67.6442 41.6122 65.6953 41.6027Z" fill="white"/>
<path d="M0.236328 0H8.77179L25.0137 32.6374L41.1329 0H49.5148L24.9216 49.9232L0.236328 0Z" fill="white"/>
<path d="M13.7764 0.0921097L24.8909 22.2444L35.9747 0.0921097H13.7764Z" fill="white" fill-opacity="0.866667"/>
</svg>
