<svg width="254" height="40" viewBox="0 0 254 40" fill="none" xmlns="http://www.w3.org/2000/svg">
<path d="M174.073 19.92C178.038 19.92 181.861 20.5094 185.473 21.6039L185.195 21.5281V25.1821C184.622 30.9914 179.756 35.4957 173.846 35.4957C173.399 35.4957 172.953 35.4704 172.515 35.4199L172.566 35.4283C167.464 35.4283 163.052 32.6836 163.052 27.9268C163.052 23.0099 167.001 19.9284 174.065 19.9284L174.073 19.92ZM235.988 5.37992C242.648 5.56514 247.977 11.0124 247.977 17.7058C247.977 17.8657 247.977 18.0257 247.969 18.1772V18.152H223.999C224.025 11.3744 229.287 5.83457 235.946 5.37151L235.988 5.37992ZM175.816 0.850346C175.757 0.850346 175.681 0.850346 175.614 0.850346C175.1 0.850346 174.595 0.875607 174.09 0.917703L174.157 0.909281C173.829 0.892442 173.442 0.884029 173.046 0.884029C169.341 0.884029 165.822 1.68386 162.656 3.13198L162.816 3.06462C161.924 3.40139 161.309 4.24332 161.309 5.2368C161.309 5.29573 161.309 5.35467 161.318 5.4136V5.40518C161.377 6.73543 162.454 7.78784 163.785 7.8131C164.155 7.78784 164.492 7.69523 164.803 7.5521L164.786 7.56052C167.119 6.47443 169.846 5.83456 172.726 5.83456C173.021 5.83456 173.307 5.84299 173.601 5.85141H173.559C180.825 5.85141 184.816 9.36224 184.816 16.1482V17.4616C181.482 16.4597 177.651 15.8788 173.694 15.8788C173.526 15.8788 173.357 15.8788 173.189 15.8788H173.214C163.827 15.8788 157.226 20.0884 157.226 28.0867L157.192 28.0446C157.655 34.679 163.153 39.8737 169.863 39.8737C170.368 39.8737 170.865 39.8485 171.354 39.7895L171.295 39.798C171.438 39.798 171.606 39.8064 171.766 39.8064C177.129 39.8064 181.886 37.2637 184.917 33.3151L184.942 33.273V36.8849C184.942 36.8933 184.942 36.9101 184.942 36.9186C184.942 38.3498 186.104 39.5201 187.544 39.5201C187.569 39.5201 187.594 39.5201 187.62 39.5201C187.636 39.5201 187.645 39.5201 187.662 39.5201C189.135 39.5201 190.331 38.3246 190.331 36.8512C190.331 36.8175 190.331 36.7923 190.331 36.7586V15.8956C190.347 15.643 190.356 15.3568 190.356 15.0621C190.356 11.1303 188.832 7.54368 186.34 4.88318L186.348 4.89161C183.545 2.44159 179.874 0.926124 175.841 0.841931H175.824L175.816 0.850346ZM236.249 0.833509C226.34 1.16186 218.426 9.27805 218.426 19.2381C218.426 19.6169 218.434 19.9874 218.459 20.3578V20.3073C218.443 20.602 218.434 20.9388 218.434 21.2839C218.434 31.5302 226.736 39.84 236.973 39.8569L236.889 39.9916C237.049 40 237.243 40 237.428 40C242.699 40 247.464 37.8278 250.874 34.3254C251.379 33.8876 251.699 33.2477 251.699 32.5321C251.699 31.2271 250.638 30.1663 249.333 30.1663C248.727 30.1663 248.171 30.3936 247.75 30.7725C245.022 33.4751 241.276 35.1421 237.133 35.1421C237.1 35.1421 237.066 35.1421 237.041 35.1421C237.032 35.1421 237.024 35.1421 237.016 35.1421C229.935 35.1421 224.185 29.4928 224.008 22.4627V22.4458H250.89C252.322 22.4374 253.475 21.2755 253.475 19.8442C253.509 19.4149 253.534 18.9181 253.534 18.413C253.534 8.80657 245.83 1.0019 236.266 0.841931H236.249V0.833509ZM129.274 0.749322C127.969 0.833515 126.908 1.77647 126.647 3.0141V3.03095L117.049 30.6714L107.561 3.10672C107.258 1.77647 106.087 0.791411 104.681 0.791411C104.681 0.791411 104.681 0.791411 104.673 0.791411C104.656 0.791411 104.648 0.791411 104.631 0.791411C103.115 0.791411 101.878 1.99537 101.836 3.50242C101.878 4.0581 102.012 4.58009 102.206 5.05999L102.189 5.02631L113.656 36.9775L113.867 36.9017C114.229 38.333 115.483 39.3938 116.999 39.4443C118.523 39.4359 119.794 38.3582 120.089 36.9186V36.9017L129.594 9.72428L139.023 36.9017C139.318 38.3582 140.581 39.4443 142.105 39.4443H142.299C143.789 39.3601 145.018 38.3162 145.38 36.9186L145.388 36.8933L156.931 4.9337C157.108 4.48748 157.234 3.9739 157.276 3.43507V3.41823C157.226 1.95327 156.03 0.782997 154.565 0.782997C154.54 0.782997 154.515 0.782997 154.49 0.782997C154.481 0.782997 154.481 0.782997 154.473 0.782997C153.151 0.782997 152.04 1.71754 151.779 2.96359V2.98043L142.122 30.6546L132.608 3.02252C132.271 1.7007 131.101 0.740899 129.695 0.740899C129.687 0.740899 129.687 0.740899 129.678 0.740899H129.291L129.274 0.749322ZM200.131 0.665127C198.581 0.690385 197.335 1.95328 197.335 3.50242C197.335 3.51926 197.335 3.5361 197.335 3.54452H197.361V36.5986C197.344 36.7165 197.335 36.8512 197.335 36.9859C197.335 38.5519 198.607 39.8232 200.173 39.8232C201.739 39.8232 203.01 38.5519 203.01 36.9859C203.01 36.8512 203.002 36.7165 202.985 36.5818V36.5986V23.7424C202.901 23.1446 202.858 22.4542 202.858 21.7554C202.858 13.9171 208.701 7.45107 216.27 6.46601L216.346 6.45759C217.761 6.30604 218.855 5.11892 218.855 3.67081C218.855 3.63713 218.855 3.60345 218.855 3.56977V3.5782C218.855 3.54452 218.855 3.50242 218.855 3.46033C218.855 1.96169 217.643 0.749322 216.144 0.749322C216.11 0.749322 216.085 0.749322 216.051 0.749322C210.192 1.17029 205.275 4.81583 203.035 9.90949L202.993 10.0105V3.55294C202.993 3.52768 202.993 3.49401 202.993 3.46875C202.993 1.9196 201.739 0.673542 200.198 0.673542C200.181 0.673542 200.156 0.673542 200.139 0.673542L200.131 0.665127ZM6.22617 0.0336827C5.46843 0.0589406 4.76121 0.244159 4.12134 0.555672L4.15502 0.538835C2.2691 1.35551 0.972534 3.19933 0.972534 5.35467C0.972534 6.20502 1.1746 7.01326 1.53663 7.7289L1.51979 7.69523L13.492 33.7361C15.3779 37.7352 17.4912 39.9663 21.0778 39.9663C24.6728 39.9663 26.7776 37.651 28.6551 33.7361L39.2045 10.7346C39.4318 10.1621 39.9791 9.76637 40.6189 9.76637C40.6526 9.76637 40.6863 9.76637 40.7284 9.76637H40.72C41.6377 9.7832 42.3701 10.5325 42.3701 11.4502V33.7361C42.3533 33.8792 42.3449 34.0476 42.3449 34.2244C42.3449 37.3311 44.8622 39.8569 47.9774 39.8569C51.0925 39.8569 53.6099 37.3395 53.6099 34.2244C53.6099 34.056 53.6015 33.8876 53.5846 33.7192V33.7445V15.542C53.5846 15.4746 53.5762 15.3904 53.5762 15.3063C53.5762 12.2248 56.0767 9.71585 59.1666 9.71585C59.3013 9.71585 59.4276 9.72427 59.5539 9.73269H59.5371C59.6044 9.73269 59.6886 9.72428 59.7644 9.72428C62.7869 9.72428 65.2369 12.1743 65.2369 15.1968C65.2369 15.3147 65.2369 15.4325 65.2285 15.542V15.5252V33.7276C65.2032 33.9213 65.1864 34.1486 65.1864 34.3759C65.1864 37.4574 67.6869 39.9663 70.7768 39.9663C70.7852 39.9663 70.7936 39.9663 70.802 39.9663C73.9256 39.9579 76.4598 37.4237 76.4598 34.2917C76.4598 34.0981 76.4514 33.9044 76.4261 33.7108V33.7361V15.5336C76.4261 15.4662 76.4177 15.382 76.4177 15.2978C76.4177 12.2164 78.9182 9.70743 82.0081 9.70743C82.1344 9.70743 82.2523 9.70743 82.3786 9.71585H82.3617C82.4375 9.71585 82.5217 9.70743 82.6143 9.70743C85.6368 9.70743 88.0868 12.1574 88.0868 15.18C88.0868 15.2978 88.0868 15.4157 88.0784 15.5252V15.5083V33.7108C88.0616 33.896 88.0447 34.1065 88.0447 34.317C88.0447 37.4237 90.5621 39.9411 93.6688 39.9411C96.7755 39.9411 99.2929 37.4237 99.2929 34.317C99.2929 34.1065 99.2845 33.9045 99.2592 33.694V33.7192V12.9994C99.2424 5.84299 93.4331 0.0505201 86.2767 0.0505201C86.0915 0.0505201 85.9147 0.0505154 85.7379 0.0589347H85.7631C81.0652 0.143128 76.8387 2.07957 73.7741 5.16944C71.3241 2.03747 67.5522 0.0420974 63.3089 0.0420974C62.9384 0.0420974 62.568 0.0589369 62.206 0.0841947H62.2565C57.8532 0.49674 53.9382 2.3574 50.9494 5.17786L50.9578 5.16944C48.5499 2.17218 44.938 0.235742 40.8715 0.0841947H40.8463C40.6947 0.0757755 40.5263 0.0757721 40.3495 0.0757721C34.978 0.0757721 30.4063 3.494 28.6972 8.26774L28.672 8.35193L21.002 26.4029L11.1851 3.22459L11.303 3.18249C10.4611 1.29657 8.6004 0 6.43665 0C6.36087 0 6.29352 3.40428e-06 6.21775 0.00842269L6.22617 0.0336827Z" fill="white"/>
</svg>
