<svg width="140" height="46" viewBox="0 0 140 46" fill="none" xmlns="http://www.w3.org/2000/svg">
<path d="M4.8559 45.5L0.0310059 0.5H8.8417L11.359 28.8935L13.8764 0.5H22.2675L24.68 28.8935L27.0924 0.5H36.008L31.0782 45.5H20.2746L18.0195 23.8119L15.8692 45.5H4.8559Z" fill="white"/>
<path d="M38.5656 0.5H52.4111C54.6138 0.5 56.3094 1.0064 57.4982 2.0192C58.7219 2.99709 59.5435 4.39405 59.963 6.21011C60.3825 7.99125 60.5924 10.2788 60.5924 13.0727C60.5924 15.6222 60.2603 17.6129 59.5959 19.0448C58.9316 20.4767 57.7779 21.472 56.1346 22.0308C57.4982 22.3102 58.4771 22.9912 59.0715 24.0739C59.7008 25.1565 60.0154 26.6233 60.0154 28.4743L59.9107 45.5H51.0999V27.8981C51.0999 26.6408 50.8552 25.8376 50.3657 25.4884C49.8763 25.139 48.9846 24.9645 47.691 24.9645V45.5H38.5656V0.5ZM49.8937 17.1589C51.1524 17.1589 51.7817 15.7968 51.7817 13.0727C51.7817 11.8853 51.7292 10.9947 51.6243 10.401C51.5195 9.80732 51.3272 9.4057 51.0475 9.19615C50.7678 8.95167 50.3657 8.82944 49.8413 8.82944H47.7435V17.1589H49.8937Z" fill="white"/>
<path d="M63.1393 45.5V0.5H71.845V45.5H63.1393Z" fill="white"/>
<path d="M79.3217 45.5V9.14376H73.9724V0.5H93.6915V9.14376H88.3421V45.5H79.3217Z" fill="white"/>
<path d="M96.2342 45.5V0.5H114.275V9.19615H105.412V17.9446H113.908V26.4313H105.412V36.7514H114.852V45.5H96.2342Z" fill="white"/>
<path d="M117.06 0.5H130.905C133.107 0.5 134.804 1.0064 135.992 2.0192C137.216 2.99709 138.037 4.39405 138.457 6.21011C138.877 7.99125 139.086 10.2788 139.086 13.0727C139.086 15.6222 138.754 17.6129 138.09 19.0448C137.426 20.4767 136.273 21.472 134.629 22.0308C135.992 22.3102 136.972 22.9912 137.566 24.0739C138.194 25.1565 138.51 26.6233 138.51 28.4743L138.404 45.5H129.594V27.8981C129.594 26.6408 129.35 25.8376 128.859 25.4884C128.37 25.139 127.478 24.9645 126.185 24.9645V45.5H117.06V0.5ZM128.388 17.1589C129.646 17.1589 130.275 15.7968 130.275 13.0727C130.275 11.8853 130.224 10.9947 130.118 10.401C130.014 9.80732 129.821 9.4057 129.542 9.19615C129.262 8.95167 128.859 8.82944 128.336 8.82944H126.238V17.1589H128.388Z" fill="white"/>
</svg>
