<svg width="160" height="50" viewBox="0 0 160 50" fill="none" xmlns="http://www.w3.org/2000/svg">
<path d="M30.2873 40.9329H12.7633C12.0004 40.9329 11.6953 40.497 11.6953 39.9303C11.6953 39.429 12.0658 39.0366 12.6543 38.7315L22.5933 33.544C27.9769 30.7541 30.1129 27.5283 30.1129 24.3679C30.1129 20.51 28.0205 16.456 20.8714 16.456H1.49475V24.8692H17.9943C18.7572 24.8692 19.0623 25.3051 19.0623 25.8718C19.0623 26.3731 18.6918 26.8309 18.1251 27.0706L7.11812 32.694C2.25761 35.1569 0.666504 38.0122 0.666504 40.9765C0.666504 44.9651 2.75892 49.3243 9.908 49.3243H30.2873V40.9329ZM65.7057 34.5466V16.456H56.2245V34.5466C56.2245 38.6007 53.6308 40.7585 50.1434 40.7585C46.656 40.7585 44.0623 38.6007 44.0623 34.5466V16.456H34.5811V34.5466C34.5811 44.3548 41.1635 49.9782 50.1434 49.9782C59.1234 49.9782 65.7057 44.3548 65.7057 34.5466ZM85.976 15.8239C77.0615 15.8239 70.0431 23.0384 70.0431 32.9119C70.0431 42.7855 77.4538 50 87.4363 50C97.4189 50 104.83 42.7855 104.83 32.9773V0H95.3265V19.6164C93.2559 17.0227 89.8993 15.8239 85.976 15.8239ZM95.2175 32.8901C95.2175 37.3801 91.9917 40.7367 87.5017 40.7367C83.0118 40.7367 79.6552 37.3801 79.6552 32.8901C79.6552 28.4002 83.0118 25.0436 87.5017 25.0436C91.9917 25.0436 95.1957 28.4002 95.2175 32.8901ZM124.795 15.8239C115.88 15.8239 108.84 23.0384 108.84 32.9119C108.84 42.7855 116.251 50 126.233 50C136.216 50 143.626 42.7855 143.626 32.9773V0H134.123V19.6164C132.053 17.0227 128.718 15.8239 124.795 15.8239ZM134.036 32.9119C134.036 37.4019 130.81 40.7585 126.32 40.7585C121.83 40.7585 118.474 37.4019 118.474 32.9119C118.474 28.422 121.83 25.0654 126.32 25.0654C130.81 25.0654 134.014 28.4002 134.036 32.9119ZM150.078 0V49.3679H159.559V0H150.078Z" fill="white"/>
</svg>
