<svg width="26" height="14" viewBox="0 0 26 14" fill="none" xmlns="http://www.w3.org/2000/svg">
<path d="M19.25 0.75L14.25 0.75V3.25L19.25 3.25C21.3125 3.25 23 4.9375 23 7C23 9.0625 21.3125 10.75 19.25 10.75L14.25 10.75V13.25L19.25 13.25C22.7 13.25 25.5 10.45 25.5 7C25.5 3.55 22.7 0.75 19.25 0.75ZM11.75 10.75H6.75C4.6875 10.75 3 9.0625 3 7C3 4.9375 4.6875 3.25 6.75 3.25L11.75 3.25V0.75L6.75 0.75C3.3 0.75 0.5 3.55 0.5 7C0.5 10.45 3.3 13.25 6.75 13.25H11.75V10.75ZM8 5.75L18 5.75V8.25L8 8.25V5.75Z" fill="white"/>
</svg>
