<svg width="24" height="26" viewBox="0 0 24 26" fill="none" xmlns="http://www.w3.org/2000/svg">
<path d="M5.75 11.75L8.25 11.75V14.25L5.75 14.25V11.75ZM23.25 5.5L23.25 23C23.25 24.375 22.125 25.5 20.75 25.5L3.25 25.5C1.8625 25.5 0.75 24.375 0.75 23L0.7625 5.5C0.7625 4.125 1.8625 3 3.25 3H4.5V0.5L7 0.5V3L17 3V0.5L19.5 0.5V3H20.75C22.125 3 23.25 4.125 23.25 5.5ZM3.25 8L20.75 8V5.5L3.25 5.5L3.25 8ZM20.75 23L20.75 10.5L3.25 10.5L3.25 23L20.75 23ZM15.75 14.25L18.25 14.25V11.75L15.75 11.75V14.25ZM10.75 14.25H13.25V11.75H10.75V14.25Z" fill="white"/>
</svg>
