<svg width="28" height="22" viewBox="0 0 28 22" fill="none" xmlns="http://www.w3.org/2000/svg">
<path d="M25.25 1C23.8625 0.5625 22.3375 0.375 20.875 0.375C18.4375 0.375 15.8125 0.875 14 2.25C12.1875 0.875 9.5625 0.375 7.125 0.375C4.6875 0.375 2.0625 0.875 0.25 2.25L0.25 20.5625C0.25 20.875 0.5625 21.1875 0.875 21.1875C1 21.1875 1.0625 21.125 1.1875 21.125C2.875 20.3125 5.3125 19.75 7.125 19.75C9.5625 19.75 12.1875 20.25 14 21.625C15.6875 20.5625 18.75 19.75 20.875 19.75C22.9375 19.75 25.0625 20.125 26.8125 21.0625C26.9375 21.125 27 21.125 27.125 21.125C27.4375 21.125 27.75 20.8125 27.75 20.5L27.75 2.25C27 1.6875 26.1875 1.3125 25.25 1ZM25.25 17.875C23.875 17.4375 22.375 17.25 20.875 17.25C18.75 17.25 15.6875 18.0625 14 19.125L14 4.75C15.6875 3.6875 18.75 2.875 20.875 2.875C22.375 2.875 23.875 3.0625 25.25 3.5L25.25 17.875Z" fill="white"/>
<path d="M20.875 7.875C21.975 7.875 23.0375 7.9875 24 8.2V6.3C23.0125 6.1125 21.95 6 20.875 6C18.75 6 16.825 6.3625 15.25 7.0375V9.1125C16.6625 8.3125 18.625 7.875 20.875 7.875Z" fill="white"/>
<path d="M15.25 10.3625V12.4375C16.6625 11.6375 18.625 11.2 20.875 11.2C21.975 11.2 23.0375 11.3125 24 11.525L24 9.625C23.0125 9.4375 21.95 9.325 20.875 9.325C18.75 9.325 16.825 9.7 15.25 10.3625Z" fill="white"/>
<path d="M20.875 12.6625C18.75 12.6625 16.825 13.025 15.25 13.7V15.775C16.6625 14.975 18.625 14.5375 20.875 14.5375C21.975 14.5375 23.0375 14.65 24 14.8625V12.9625C23.0125 12.7625 21.95 12.6625 20.875 12.6625Z" fill="white"/>
</svg>
