<svg width="24" height="24" viewBox="0 0 24 24" fill="none" xmlns="http://www.w3.org/2000/svg">
<path d="M10.75 5.75L18.25 5.75V8.25L10.75 8.25L10.75 5.75ZM10.75 10.75L18.25 10.75L18.25 13.25L10.75 13.25V10.75ZM10.75 15.75L18.25 15.75V18.25L10.75 18.25L10.75 15.75ZM5.75 5.75H8.25V8.25H5.75V5.75ZM5.75 10.75L8.25 10.75V13.25L5.75 13.25V10.75ZM5.75 15.75L8.25 15.75V18.25H5.75V15.75ZM22.125 0.75L1.875 0.75C1.25 0.75 0.75 1.25 0.75 1.875L0.75 22.125C0.75 22.625 1.25 23.25 1.875 23.25L22.125 23.25C22.625 23.25 23.25 22.625 23.25 22.125L23.25 1.875C23.25 1.25 22.625 0.75 22.125 0.75ZM20.75 20.75L3.25 20.75L3.25 3.25L20.75 3.25L20.75 20.75Z" fill="white"/>
</svg>
