<svg width="28" height="24" viewBox="0 0 28 24" fill="none" xmlns="http://www.w3.org/2000/svg">
<path d="M2.75 21.375L24 21.375V23.875L2.75 23.875C1.375 23.875 0.25 22.75 0.25 21.375L0.25 5.125H2.75L2.75 21.375ZM27.75 5.125L27.75 16.375C27.75 17.75 26.625 18.875 25.25 18.875L7.75 18.875C6.375 18.875 5.25 17.75 5.25 16.375L5.2625 2.625C5.2625 1.25 6.375 0.125 7.75 0.125L14 0.125L16.5 2.625L25.25 2.625C26.625 2.625 27.75 3.75 27.75 5.125ZM7.75 16.375L25.25 16.375L25.25 5.125L15.4625 5.125L12.9625 2.625L7.75 2.625L7.75 16.375Z" fill="white"/>
</svg>
