<svg width="1440" height="36" viewBox="0 0 1440 36" fill="none" xmlns="http://www.w3.org/2000/svg">
<g clip-path="url(#clip0_534_24100)">
<path d="M31.82 18C35.29 19.45 38.68 21.78 43.12 25.34C48 29.24 50.34 30.9 53.87 32.58C58.56 34.84 63.75 36 70 36V29.84C68.76 29.95 67.43 30 66 30C56.41 30 51.77 27.77 42.87 20.66C41.59 19.63 40.48 18.76 39.47 18H31.82ZM8.18 18H-7.48C-8.48 18.76 -9.58 19.63 -10.88 20.66C-18.43 26.7 -22.92 29.22 -30 29.84V36C-23.75 36 -18.56 34.84 -13.86 32.58C-10.33 30.88 -7.99 29.23 -3.13 25.34C1.32 21.78 4.71 19.44 8.18 18ZM31.82 36H39.48C37.2081 34.2096 34.7467 32.6738 32.14 31.42C27.44 29.16 22.25 28 16 28C9.75 28 4.56 29.16 -0.139999 31.42C-2.74671 32.6738 -5.20809 34.2096 -7.48 36H8.18C11.65 34.56 15.21 34 20 34C24.8 34 28.35 34.56 31.82 36Z" fill="white"/>
<path d="M131.82 18C135.29 19.45 138.68 21.78 143.12 25.34C148 29.24 150.34 30.9 153.87 32.58C158.56 34.84 163.75 36 170 36V29.84C168.76 29.95 167.43 30 166 30C156.41 30 151.77 27.77 142.87 20.66C141.59 19.63 140.48 18.76 139.47 18H131.82ZM108.18 18H92.52C91.52 18.76 90.42 19.63 89.12 20.66C81.57 26.7 77.08 29.22 70 29.84V36C76.25 36 81.44 34.84 86.14 32.58C89.67 30.88 92.01 29.23 96.87 25.34C101.32 21.78 104.71 19.44 108.18 18ZM131.82 36H139.48C137.208 34.2096 134.747 32.6738 132.14 31.42C127.44 29.16 122.25 28 116 28C109.75 28 104.56 29.16 99.86 31.42C97.2533 32.6738 94.7919 34.2096 92.52 36H108.18C111.65 34.56 115.21 34 120 34C124.8 34 128.35 34.56 131.82 36Z" fill="#F3E141"/>
<path d="M231.82 18C235.29 19.45 238.68 21.78 243.12 25.34C248 29.24 250.34 30.9 253.87 32.58C258.56 34.84 263.75 36 270 36V29.84C268.76 29.95 267.43 30 266 30C256.41 30 251.77 27.77 242.87 20.66C241.59 19.63 240.48 18.76 239.47 18H231.82ZM208.18 18H192.52C191.52 18.76 190.42 19.63 189.12 20.66C181.57 26.7 177.08 29.22 170 29.84V36C176.25 36 181.44 34.84 186.14 32.58C189.67 30.88 192.01 29.23 196.87 25.34C201.32 21.78 204.71 19.44 208.18 18ZM231.82 36H239.48C237.208 34.2096 234.747 32.6738 232.14 31.42C227.44 29.16 222.25 28 216 28C209.75 28 204.56 29.16 199.86 31.42C197.253 32.6738 194.792 34.2096 192.52 36H208.18C211.65 34.56 215.21 34 220 34C224.8 34 228.35 34.56 231.82 36Z" fill="white"/>
<path d="M331.82 18C335.29 19.45 338.68 21.78 343.12 25.34C348 29.24 350.34 30.9 353.87 32.58C358.56 34.84 363.75 36 370 36V29.84C368.76 29.95 367.43 30 366 30C356.41 30 351.77 27.77 342.87 20.66C341.59 19.63 340.48 18.76 339.47 18H331.82ZM308.18 18H292.52C291.52 18.76 290.42 19.63 289.12 20.66C281.57 26.7 277.08 29.22 270 29.84V36C276.25 36 281.44 34.84 286.14 32.58C289.67 30.88 292.01 29.23 296.87 25.34C301.32 21.78 304.71 19.44 308.18 18ZM331.82 36H339.48C337.208 34.2096 334.747 32.6738 332.14 31.42C327.44 29.16 322.25 28 316 28C309.75 28 304.56 29.16 299.86 31.42C297.253 32.6738 294.792 34.2096 292.52 36H308.18C311.65 34.56 315.21 34 320 34C324.8 34 328.35 34.56 331.82 36Z" fill="#0CCF99"/>
<path d="M431.82 18C435.29 19.45 438.68 21.78 443.12 25.34C448 29.24 450.34 30.9 453.87 32.58C458.56 34.84 463.75 36 470 36V29.84C468.76 29.95 467.43 30 466 30C456.41 30 451.77 27.77 442.87 20.66C441.59 19.63 440.48 18.76 439.47 18H431.82ZM408.18 18H392.52C391.52 18.76 390.42 19.63 389.12 20.66C381.57 26.7 377.08 29.22 370 29.84V36C376.25 36 381.44 34.84 386.14 32.58C389.67 30.88 392.01 29.23 396.87 25.34C401.32 21.78 404.71 19.44 408.18 18ZM431.82 36H439.48C437.208 34.2096 434.747 32.6738 432.14 31.42C427.44 29.16 422.25 28 416 28C409.75 28 404.56 29.16 399.86 31.42C397.253 32.6738 394.792 34.2096 392.52 36H408.18C411.65 34.56 415.21 34 420 34C424.8 34 428.35 34.56 431.82 36Z" fill="#F3E141"/>
<path d="M531.82 18C535.29 19.45 538.68 21.78 543.12 25.34C548 29.24 550.34 30.9 553.87 32.58C558.56 34.84 563.75 36 570 36V29.84C568.76 29.95 567.43 30 566 30C556.41 30 551.77 27.77 542.87 20.66C541.59 19.63 540.48 18.76 539.47 18H531.82ZM508.18 18H492.52C491.52 18.76 490.42 19.63 489.12 20.66C481.57 26.7 477.08 29.22 470 29.84V36C476.25 36 481.44 34.84 486.14 32.58C489.67 30.88 492.01 29.23 496.87 25.34C501.32 21.78 504.71 19.44 508.18 18ZM531.82 36H539.48C537.208 34.2096 534.747 32.6738 532.14 31.42C527.44 29.16 522.25 28 516 28C509.75 28 504.56 29.16 499.86 31.42C497.253 32.6738 494.792 34.2096 492.52 36H508.18C511.65 34.56 515.21 34 520 34C524.8 34 528.35 34.56 531.82 36Z" fill="white"/>
<path d="M631.82 18C635.29 19.45 638.68 21.78 643.12 25.34C648 29.24 650.34 30.9 653.87 32.58C658.56 34.84 663.75 36 670 36V29.84C668.76 29.95 667.43 30 666 30C656.41 30 651.77 27.77 642.87 20.66C641.59 19.63 640.48 18.76 639.47 18H631.82ZM608.18 18H592.52C591.52 18.76 590.42 19.63 589.12 20.66C581.57 26.7 577.08 29.22 570 29.84V36C576.25 36 581.44 34.84 586.14 32.58C589.67 30.88 592.01 29.23 596.87 25.34C601.32 21.78 604.71 19.44 608.18 18ZM631.82 36H639.48C637.208 34.2096 634.747 32.6738 632.14 31.42C627.44 29.16 622.25 28 616 28C609.75 28 604.56 29.16 599.86 31.42C597.253 32.6738 594.792 34.2096 592.52 36H608.18C611.65 34.56 615.21 34 620 34C624.8 34 628.35 34.56 631.82 36Z" fill="white"/>
<path d="M731.82 18C735.29 19.45 738.68 21.78 743.12 25.34C748 29.24 750.34 30.9 753.87 32.58C758.56 34.84 763.75 36 770 36V29.84C768.76 29.95 767.43 30 766 30C756.41 30 751.77 27.77 742.87 20.66C741.59 19.63 740.48 18.76 739.47 18H731.82ZM708.18 18H692.52C691.52 18.76 690.42 19.63 689.12 20.66C681.57 26.7 677.08 29.22 670 29.84V36C676.25 36 681.44 34.84 686.14 32.58C689.67 30.88 692.01 29.23 696.87 25.34C701.32 21.78 704.71 19.44 708.18 18ZM731.82 36H739.48C737.208 34.2096 734.747 32.6738 732.14 31.42C727.44 29.16 722.25 28 716 28C709.75 28 704.56 29.16 699.86 31.42C697.253 32.6738 694.792 34.2096 692.52 36H708.18C711.65 34.56 715.21 34 720 34C724.8 34 728.35 34.56 731.82 36Z" fill="#0CCF99"/>
<path d="M831.82 18C835.29 19.45 838.68 21.78 843.12 25.34C848 29.24 850.34 30.9 853.87 32.58C858.56 34.84 863.75 36 870 36V29.84C868.76 29.95 867.43 30 866 30C856.41 30 851.77 27.77 842.87 20.66C841.59 19.63 840.48 18.76 839.47 18H831.82ZM808.18 18H792.52C791.52 18.76 790.42 19.63 789.12 20.66C781.57 26.7 777.08 29.22 770 29.84V36C776.25 36 781.44 34.84 786.14 32.58C789.67 30.88 792.01 29.23 796.87 25.34C801.32 21.78 804.71 19.44 808.18 18ZM831.82 36H839.48C837.208 34.2096 834.747 32.6738 832.14 31.42C827.44 29.16 822.25 28 816 28C809.75 28 804.56 29.16 799.86 31.42C797.253 32.6738 794.792 34.2096 792.52 36H808.18C811.65 34.56 815.21 34 820 34C824.8 34 828.35 34.56 831.82 36Z" fill="#EEABFF"/>
<path d="M931.82 18C935.29 19.45 938.68 21.78 943.12 25.34C948 29.24 950.34 30.9 953.87 32.58C958.56 34.84 963.75 36 970 36V29.84C968.76 29.95 967.43 30 966 30C956.41 30 951.77 27.77 942.87 20.66C941.59 19.63 940.48 18.76 939.47 18H931.82ZM908.18 18H892.52C891.52 18.76 890.42 19.63 889.12 20.66C881.57 26.7 877.08 29.22 870 29.84V36C876.25 36 881.44 34.84 886.14 32.58C889.67 30.88 892.01 29.23 896.87 25.34C901.32 21.78 904.71 19.44 908.18 18ZM931.82 36H939.48C937.208 34.2096 934.747 32.6738 932.14 31.42C927.44 29.16 922.25 28 916 28C909.75 28 904.56 29.16 899.86 31.42C897.253 32.6738 894.792 34.2096 892.52 36H908.18C911.65 34.56 915.21 34 920 34C924.8 34 928.35 34.56 931.82 36Z" fill="white"/>
<path d="M1031.82 18C1035.29 19.45 1038.68 21.78 1043.12 25.34C1048 29.24 1050.34 30.9 1053.87 32.58C1058.56 34.84 1063.75 36 1070 36V29.84C1068.76 29.95 1067.43 30 1066 30C1056.41 30 1051.77 27.77 1042.87 20.66C1041.59 19.63 1040.48 18.76 1039.47 18H1031.82ZM1008.18 18H992.52C991.52 18.76 990.42 19.63 989.12 20.66C981.57 26.7 977.08 29.22 970 29.84V36C976.25 36 981.44 34.84 986.14 32.58C989.67 30.88 992.01 29.23 996.87 25.34C1001.32 21.78 1004.71 19.44 1008.18 18ZM1031.82 36H1039.48C1037.21 34.2096 1034.75 32.6738 1032.14 31.42C1027.44 29.16 1022.25 28 1016 28C1009.75 28 1004.56 29.16 999.86 31.42C997.253 32.6738 994.792 34.2096 992.52 36H1008.18C1011.65 34.56 1015.21 34 1020 34C1024.8 34 1028.35 34.56 1031.82 36Z" fill="white"/>
<path d="M1131.82 18C1135.29 19.45 1138.68 21.78 1143.12 25.34C1148 29.24 1150.34 30.9 1153.87 32.58C1158.56 34.84 1163.75 36 1170 36V29.84C1168.76 29.95 1167.43 30 1166 30C1156.41 30 1151.77 27.77 1142.87 20.66C1141.59 19.63 1140.48 18.76 1139.47 18H1131.82ZM1108.18 18H1092.52C1091.52 18.76 1090.42 19.63 1089.12 20.66C1081.57 26.7 1077.08 29.22 1070 29.84V36C1076.25 36 1081.44 34.84 1086.14 32.58C1089.67 30.88 1092.01 29.23 1096.87 25.34C1101.32 21.78 1104.71 19.44 1108.18 18ZM1131.82 36H1139.48C1137.21 34.2096 1134.75 32.6738 1132.14 31.42C1127.44 29.16 1122.25 28 1116 28C1109.75 28 1104.56 29.16 1099.86 31.42C1097.25 32.6738 1094.79 34.2096 1092.52 36H1108.18C1111.65 34.56 1115.21 34 1120 34C1124.8 34 1128.35 34.56 1131.82 36Z" fill="white"/>
<path d="M1231.82 18C1235.29 19.45 1238.68 21.78 1243.12 25.34C1248 29.24 1250.34 30.9 1253.87 32.58C1258.56 34.84 1263.75 36 1270 36V29.84C1268.76 29.95 1267.43 30 1266 30C1256.41 30 1251.77 27.77 1242.87 20.66C1241.59 19.63 1240.48 18.76 1239.47 18H1231.82ZM1208.18 18H1192.52C1191.52 18.76 1190.42 19.63 1189.12 20.66C1181.57 26.7 1177.08 29.22 1170 29.84V36C1176.25 36 1181.44 34.84 1186.14 32.58C1189.67 30.88 1192.01 29.23 1196.87 25.34C1201.32 21.78 1204.71 19.44 1208.18 18ZM1231.82 36H1239.48C1237.21 34.2096 1234.75 32.6738 1232.14 31.42C1227.44 29.16 1222.25 28 1216 28C1209.75 28 1204.56 29.16 1199.86 31.42C1197.25 32.6738 1194.79 34.2096 1192.52 36H1208.18C1211.65 34.56 1215.21 34 1220 34C1224.8 34 1228.35 34.56 1231.82 36Z" fill="#0CCF99"/>
<path d="M1331.82 18C1335.29 19.45 1338.68 21.78 1343.12 25.34C1348 29.24 1350.34 30.9 1353.87 32.58C1358.56 34.84 1363.75 36 1370 36V29.84C1368.76 29.95 1367.43 30 1366 30C1356.41 30 1351.77 27.77 1342.87 20.66C1341.59 19.63 1340.48 18.76 1339.47 18H1331.82ZM1308.18 18H1292.52C1291.52 18.76 1290.42 19.63 1289.12 20.66C1281.57 26.7 1277.08 29.22 1270 29.84V36C1276.25 36 1281.44 34.84 1286.14 32.58C1289.67 30.88 1292.01 29.23 1296.87 25.34C1301.32 21.78 1304.71 19.44 1308.18 18ZM1331.82 36H1339.48C1337.21 34.2096 1334.75 32.6738 1332.14 31.42C1327.44 29.16 1322.25 28 1316 28C1309.75 28 1304.56 29.16 1299.86 31.42C1297.25 32.6738 1294.79 34.2096 1292.52 36H1308.18C1311.65 34.56 1315.21 34 1320 34C1324.8 34 1328.35 34.56 1331.82 36Z" fill="#EEABFF"/>
<path d="M1431.82 18C1435.29 19.45 1438.68 21.78 1443.12 25.34C1448 29.24 1450.34 30.9 1453.87 32.58C1458.56 34.84 1463.75 36 1470 36V29.84C1468.76 29.95 1467.43 30 1466 30C1456.41 30 1451.77 27.77 1442.87 20.66C1441.59 19.63 1440.48 18.76 1439.47 18H1431.82ZM1408.18 18H1392.52C1391.52 18.76 1390.42 19.63 1389.12 20.66C1381.57 26.7 1377.08 29.22 1370 29.84V36C1376.25 36 1381.44 34.84 1386.14 32.58C1389.67 30.88 1392.01 29.23 1396.87 25.34C1401.32 21.78 1404.71 19.44 1408.18 18ZM1431.82 36H1439.48C1437.21 34.2096 1434.75 32.6738 1432.14 31.42C1427.44 29.16 1422.25 28 1416 28C1409.75 28 1404.56 29.16 1399.86 31.42C1397.25 32.6738 1394.79 34.2096 1392.52 36H1408.18C1411.65 34.56 1415.21 34 1420 34C1424.8 34 1428.35 34.56 1431.82 36Z" fill="white"/>
</g>
<g clip-path="url(#clip1_534_24100)">
<path d="M31.82 0C35.29 1.45 38.68 3.78 43.12 7.34C48 11.24 50.34 12.9 53.87 14.58C58.56 16.84 63.75 18 70 18V11.84C68.76 11.95 67.43 12 66 12C56.41 12 51.77 9.77 42.87 2.66C41.59 1.63 40.48 0.76 39.47 0H31.82ZM8.18 0H-7.48C-8.48 0.76 -9.58 1.63 -10.88 2.66C-18.43 8.7 -22.92 11.22 -30 11.84V18C-23.75 18 -18.56 16.84 -13.86 14.58C-10.33 12.88 -7.99 11.23 -3.13 7.34C1.32 3.78 4.71 1.44 8.18 0ZM31.82 18H39.48C37.2081 16.2096 34.7467 14.6738 32.14 13.42C27.44 11.16 22.25 10 16 10C9.75 10 4.56 11.16 -0.139999 13.42C-2.74671 14.6738 -5.20809 16.2096 -7.48 18L8.18 18C11.65 16.56 15.21 16 20 16C24.8 16 28.35 16.56 31.82 18Z" fill="#F3E141"/>
<path d="M131.82 0C135.29 1.45 138.68 3.78 143.12 7.34C148 11.24 150.34 12.9 153.87 14.58C158.56 16.84 163.75 18 170 18V11.84C168.76 11.95 167.43 12 166 12C156.41 12 151.77 9.77 142.87 2.66C141.59 1.63 140.48 0.76 139.47 0H131.82ZM108.18 0H92.52C91.52 0.76 90.42 1.63 89.12 2.66C81.57 8.7 77.08 11.22 70 11.84V18C76.25 18 81.44 16.84 86.14 14.58C89.67 12.88 92.01 11.23 96.87 7.34C101.32 3.78 104.71 1.44 108.18 0ZM131.82 18H139.48C137.208 16.2096 134.747 14.6738 132.14 13.42C127.44 11.16 122.25 10 116 10C109.75 10 104.56 11.16 99.86 13.42C97.2533 14.6738 94.7919 16.2096 92.52 18L108.18 18C111.65 16.56 115.21 16 120 16C124.8 16 128.35 16.56 131.82 18Z" fill="white"/>
<path d="M231.82 0C235.29 1.45 238.68 3.78 243.12 7.34C248 11.24 250.34 12.9 253.87 14.58C258.56 16.84 263.75 18 270 18V11.84C268.76 11.95 267.43 12 266 12C256.41 12 251.77 9.77 242.87 2.66C241.59 1.63 240.48 0.76 239.47 0H231.82ZM208.18 0H192.52C191.52 0.76 190.42 1.63 189.12 2.66C181.57 8.7 177.08 11.22 170 11.84V18C176.25 18 181.44 16.84 186.14 14.58C189.67 12.88 192.01 11.23 196.87 7.34C201.32 3.78 204.71 1.44 208.18 0ZM231.82 18H239.48C237.208 16.2096 234.747 14.6738 232.14 13.42C227.44 11.16 222.25 10 216 10C209.75 10 204.56 11.16 199.86 13.42C197.253 14.6738 194.792 16.2096 192.52 18L208.18 18C211.65 16.56 215.21 16 220 16C224.8 16 228.35 16.56 231.82 18Z" fill="#0CCF99"/>
<path d="M331.82 0C335.29 1.45 338.68 3.78 343.12 7.34C348 11.24 350.34 12.9 353.87 14.58C358.56 16.84 363.75 18 370 18V11.84C368.76 11.95 367.43 12 366 12C356.41 12 351.77 9.77 342.87 2.66C341.59 1.63 340.48 0.76 339.47 0H331.82ZM308.18 0H292.52C291.52 0.76 290.42 1.63 289.12 2.66C281.57 8.7 277.08 11.22 270 11.84V18C276.25 18 281.44 16.84 286.14 14.58C289.67 12.88 292.01 11.23 296.87 7.34C301.32 3.78 304.71 1.44 308.18 0ZM331.82 18H339.48C337.208 16.2096 334.747 14.6738 332.14 13.42C327.44 11.16 322.25 10 316 10C309.75 10 304.56 11.16 299.86 13.42C297.253 14.6738 294.792 16.2096 292.52 18L308.18 18C311.65 16.56 315.21 16 320 16C324.8 16 328.35 16.56 331.82 18Z" fill="white"/>
<path d="M431.82 0C435.29 1.45 438.68 3.78 443.12 7.34C448 11.24 450.34 12.9 453.87 14.58C458.56 16.84 463.75 18 470 18V11.84C468.76 11.95 467.43 12 466 12C456.41 12 451.77 9.77 442.87 2.66C441.59 1.63 440.48 0.76 439.47 0H431.82ZM408.18 0H392.52C391.52 0.76 390.42 1.63 389.12 2.66C381.57 8.7 377.08 11.22 370 11.84V18C376.25 18 381.44 16.84 386.14 14.58C389.67 12.88 392.01 11.23 396.87 7.34C401.32 3.78 404.71 1.44 408.18 0ZM431.82 18H439.48C437.208 16.2096 434.747 14.6738 432.14 13.42C427.44 11.16 422.25 10 416 10C409.75 10 404.56 11.16 399.86 13.42C397.253 14.6738 394.792 16.2096 392.52 18L408.18 18C411.65 16.56 415.21 16 420 16C424.8 16 428.35 16.56 431.82 18Z" fill="#EEABFF"/>
<path d="M531.82 0C535.29 1.45 538.68 3.78 543.12 7.34C548 11.24 550.34 12.9 553.87 14.58C558.56 16.84 563.75 18 570 18V11.84C568.76 11.95 567.43 12 566 12C556.41 12 551.77 9.77 542.87 2.66C541.59 1.63 540.48 0.76 539.47 0H531.82ZM508.18 0H492.52C491.52 0.76 490.42 1.63 489.12 2.66C481.57 8.7 477.08 11.22 470 11.84V18C476.25 18 481.44 16.84 486.14 14.58C489.67 12.88 492.01 11.23 496.87 7.34C501.32 3.78 504.71 1.44 508.18 0ZM531.82 18H539.48C537.208 16.2096 534.747 14.6738 532.14 13.42C527.44 11.16 522.25 10 516 10C509.75 10 504.56 11.16 499.86 13.42C497.253 14.6738 494.792 16.2096 492.52 18L508.18 18C511.65 16.56 515.21 16 520 16C524.8 16 528.35 16.56 531.82 18Z" fill="#0CCF99"/>
<path d="M631.82 0C635.29 1.45 638.68 3.78 643.12 7.34C648 11.24 650.34 12.9 653.87 14.58C658.56 16.84 663.75 18 670 18V11.84C668.76 11.95 667.43 12 666 12C656.41 12 651.77 9.77 642.87 2.66C641.59 1.63 640.48 0.76 639.47 0H631.82ZM608.18 0H592.52C591.52 0.76 590.42 1.63 589.12 2.66C581.57 8.7 577.08 11.22 570 11.84V18C576.25 18 581.44 16.84 586.14 14.58C589.67 12.88 592.01 11.23 596.87 7.34C601.32 3.78 604.71 1.44 608.18 0ZM631.82 18H639.48C637.208 16.2096 634.747 14.6738 632.14 13.42C627.44 11.16 622.25 10 616 10C609.75 10 604.56 11.16 599.86 13.42C597.253 14.6738 594.792 16.2096 592.52 18L608.18 18C611.65 16.56 615.21 16 620 16C624.8 16 628.35 16.56 631.82 18Z" fill="#EEABFF"/>
<path d="M731.82 0C735.29 1.45 738.68 3.78 743.12 7.34C748 11.24 750.34 12.9 753.87 14.58C758.56 16.84 763.75 18 770 18V11.84C768.76 11.95 767.43 12 766 12C756.41 12 751.77 9.77 742.87 2.66C741.59 1.63 740.48 0.76 739.47 0H731.82ZM708.18 0H692.52C691.52 0.76 690.42 1.63 689.12 2.66C681.57 8.7 677.08 11.22 670 11.84V18C676.25 18 681.44 16.84 686.14 14.58C689.67 12.88 692.01 11.23 696.87 7.34C701.32 3.78 704.71 1.44 708.18 0ZM731.82 18H739.48C737.208 16.2096 734.747 14.6738 732.14 13.42C727.44 11.16 722.25 10 716 10C709.75 10 704.56 11.16 699.86 13.42C697.253 14.6738 694.792 16.2096 692.52 18L708.18 18C711.65 16.56 715.21 16 720 16C724.8 16 728.35 16.56 731.82 18Z" fill="white"/>
<path d="M831.82 0C835.29 1.45 838.68 3.78 843.12 7.34C848 11.24 850.34 12.9 853.87 14.58C858.56 16.84 863.75 18 870 18V11.84C868.76 11.95 867.43 12 866 12C856.41 12 851.77 9.77 842.87 2.66C841.59 1.63 840.48 0.76 839.47 0H831.82ZM808.18 0H792.52C791.52 0.76 790.42 1.63 789.12 2.66C781.57 8.7 777.08 11.22 770 11.84V18C776.25 18 781.44 16.84 786.14 14.58C789.67 12.88 792.01 11.23 796.87 7.34C801.32 3.78 804.71 1.44 808.18 0ZM831.82 18H839.48C837.208 16.2096 834.747 14.6738 832.14 13.42C827.44 11.16 822.25 10 816 10C809.75 10 804.56 11.16 799.86 13.42C797.253 14.6738 794.792 16.2096 792.52 18L808.18 18C811.65 16.56 815.21 16 820 16C824.8 16 828.35 16.56 831.82 18Z" fill="white"/>
<path d="M931.82 0C935.29 1.45 938.68 3.78 943.12 7.34C948 11.24 950.34 12.9 953.87 14.58C958.56 16.84 963.75 18 970 18V11.84C968.76 11.95 967.43 12 966 12C956.41 12 951.77 9.77 942.87 2.66C941.59 1.63 940.48 0.76 939.47 0H931.82ZM908.18 0H892.52C891.52 0.76 890.42 1.63 889.12 2.66C881.57 8.7 877.08 11.22 870 11.84V18C876.25 18 881.44 16.84 886.14 14.58C889.67 12.88 892.01 11.23 896.87 7.34C901.32 3.78 904.71 1.44 908.18 0ZM931.82 18H939.48C937.208 16.2096 934.747 14.6738 932.14 13.42C927.44 11.16 922.25 10 916 10C909.75 10 904.56 11.16 899.86 13.42C897.253 14.6738 894.792 16.2096 892.52 18L908.18 18C911.65 16.56 915.21 16 920 16C924.8 16 928.35 16.56 931.82 18Z" fill="#F3E141"/>
<path d="M1031.82 0C1035.29 1.45 1038.68 3.78 1043.12 7.34C1048 11.24 1050.34 12.9 1053.87 14.58C1058.56 16.84 1063.75 18 1070 18V11.84C1068.76 11.95 1067.43 12 1066 12C1056.41 12 1051.77 9.77 1042.87 2.66C1041.59 1.63 1040.48 0.76 1039.47 0H1031.82ZM1008.18 0H992.52C991.52 0.76 990.42 1.63 989.12 2.66C981.57 8.7 977.08 11.22 970 11.84V18C976.25 18 981.44 16.84 986.14 14.58C989.67 12.88 992.01 11.23 996.87 7.34C1001.32 3.78 1004.71 1.44 1008.18 0ZM1031.82 18H1039.48C1037.21 16.2096 1034.75 14.6738 1032.14 13.42C1027.44 11.16 1022.25 10 1016 10C1009.75 10 1004.56 11.16 999.86 13.42C997.253 14.6738 994.792 16.2096 992.52 18L1008.18 18C1011.65 16.56 1015.21 16 1020 16C1024.8 16 1028.35 16.56 1031.82 18Z" fill="#0CCF99"/>
<path d="M1131.82 0C1135.29 1.45 1138.68 3.78 1143.12 7.34C1148 11.24 1150.34 12.9 1153.87 14.58C1158.56 16.84 1163.75 18 1170 18V11.84C1168.76 11.95 1167.43 12 1166 12C1156.41 12 1151.77 9.77 1142.87 2.66C1141.59 1.63 1140.48 0.76 1139.47 0H1131.82ZM1108.18 0H1092.52C1091.52 0.76 1090.42 1.63 1089.12 2.66C1081.57 8.7 1077.08 11.22 1070 11.84V18C1076.25 18 1081.44 16.84 1086.14 14.58C1089.67 12.88 1092.01 11.23 1096.87 7.34C1101.32 3.78 1104.71 1.44 1108.18 0ZM1131.82 18H1139.48C1137.21 16.2096 1134.75 14.6738 1132.14 13.42C1127.44 11.16 1122.25 10 1116 10C1109.75 10 1104.56 11.16 1099.86 13.42C1097.25 14.6738 1094.79 16.2096 1092.52 18L1108.18 18C1111.65 16.56 1115.21 16 1120 16C1124.8 16 1128.35 16.56 1131.82 18Z" fill="#EEABFF"/>
<path d="M1231.82 0C1235.29 1.45 1238.68 3.78 1243.12 7.34C1248 11.24 1250.34 12.9 1253.87 14.58C1258.56 16.84 1263.75 18 1270 18V11.84C1268.76 11.95 1267.43 12 1266 12C1256.41 12 1251.77 9.77 1242.87 2.66C1241.59 1.63 1240.48 0.76 1239.47 0H1231.82ZM1208.18 0H1192.52C1191.52 0.76 1190.42 1.63 1189.12 2.66C1181.57 8.7 1177.08 11.22 1170 11.84V18C1176.25 18 1181.44 16.84 1186.14 14.58C1189.67 12.88 1192.01 11.23 1196.87 7.34C1201.32 3.78 1204.71 1.44 1208.18 0ZM1231.82 18H1239.48C1237.21 16.2096 1234.75 14.6738 1232.14 13.42C1227.44 11.16 1222.25 10 1216 10C1209.75 10 1204.56 11.16 1199.86 13.42C1197.25 14.6738 1194.79 16.2096 1192.52 18L1208.18 18C1211.65 16.56 1215.21 16 1220 16C1224.8 16 1228.35 16.56 1231.82 18Z" fill="white"/>
<path d="M1331.82 0C1335.29 1.45 1338.68 3.78 1343.12 7.34C1348 11.24 1350.34 12.9 1353.87 14.58C1358.56 16.84 1363.75 18 1370 18V11.84C1368.76 11.95 1367.43 12 1366 12C1356.41 12 1351.77 9.77 1342.87 2.66C1341.59 1.63 1340.48 0.76 1339.47 0H1331.82ZM1308.18 0H1292.52C1291.52 0.76 1290.42 1.63 1289.12 2.66C1281.57 8.7 1277.08 11.22 1270 11.84V18C1276.25 18 1281.44 16.84 1286.14 14.58C1289.67 12.88 1292.01 11.23 1296.87 7.34C1301.32 3.78 1304.71 1.44 1308.18 0ZM1331.82 18H1339.48C1337.21 16.2096 1334.75 14.6738 1332.14 13.42C1327.44 11.16 1322.25 10 1316 10C1309.75 10 1304.56 11.16 1299.86 13.42C1297.25 14.6738 1294.79 16.2096 1292.52 18L1308.18 18C1311.65 16.56 1315.21 16 1320 16C1324.8 16 1328.35 16.56 1331.82 18Z" fill="white"/>
<path d="M1431.82 0C1435.29 1.45 1438.68 3.78 1443.12 7.34C1448 11.24 1450.34 12.9 1453.87 14.58C1458.56 16.84 1463.75 18 1470 18V11.84C1468.76 11.95 1467.43 12 1466 12C1456.41 12 1451.77 9.77 1442.87 2.66C1441.59 1.63 1440.48 0.76 1439.47 0H1431.82ZM1408.18 0H1392.52C1391.52 0.76 1390.42 1.63 1389.12 2.66C1381.57 8.7 1377.08 11.22 1370 11.84V18C1376.25 18 1381.44 16.84 1386.14 14.58C1389.67 12.88 1392.01 11.23 1396.87 7.34C1401.32 3.78 1404.71 1.44 1408.18 0ZM1431.82 18H1439.48C1437.21 16.2096 1434.75 14.6738 1432.14 13.42C1427.44 11.16 1422.25 10 1416 10C1409.75 10 1404.56 11.16 1399.86 13.42C1397.25 14.6738 1394.79 16.2096 1392.52 18L1408.18 18C1411.65 16.56 1415.21 16 1420 16C1424.8 16 1428.35 16.56 1431.82 18Z" fill="#F3E141"/>
</g>
<defs>
<clipPath id="clip0_534_24100">
<rect width="1500" height="18" fill="white" transform="matrix(1 0 0 -1 -30 36)"/>
</clipPath>
<clipPath id="clip1_534_24100">
<rect width="1500" height="18" fill="white" transform="matrix(1 0 0 -1 -30 18)"/>
</clipPath>
</defs>
</svg>
